<svg width="1920" height="380" viewBox="0 0 1920 380" fill="none" xmlns="http://www.w3.org/2000/svg"><g clip-path="url(#a)"><path fill-rule="evenodd" clip-rule="evenodd" d="M0 481h1920V106.552l-3.2-1.949-3.2-1.905-2.85 1.683-2.77 1.684-3.49-3.012c-3.34-2.791-8.25-10.1448-14.23-21.1309l-2.63-4.8728-8.54-1.5947-3.84 2.7908-3.84 2.7463-3.85-5.5815c-2.06-3.1009-3.62-6.5118-3.34-7.575l.5-1.905h-4.13l-1.35 4.5188-1.42 4.5183-6.12 1.6833-.29-2.6579c-.07-1.4619-.07-3.544.15-4.607l.35-1.9047h-4.98l.93 4.3413.85 4.3852-2.56 1.772-2.63 1.7278-2.42-4.6956-1.85.8416-1.85.7973-2.56-4.1196-2.64-4.0757-5.9 5.0501-5.98 5.0503-10.24-14.9732-4.27-.0444-4.27-.0884-4.2 1.9934c-2.28 1.1074-5.9 2.0379-7.97 2.0379h-3.77v6.1572l-1.64-.3543c-2.13-.5315-10.17 5.4046-13.44 9.8787l-2.63 3.4995 2.41.5757 2.49.6206v5.5813l-7.39 2.0378 5.12 2.3035-1.28 5.626-1.21 5.582-18.29-1.064-1.21 4.519-1.28 4.563h-8.61l-.28 1.949c-.02.144-.04.293-.05.443-.01.065-.01.129-.02.194 0 .086-.01.172-.02.258-.05.812-.03 1.609.02 2.028.14.532-2.99 2.57-6.83 4.475l-7.05 3.543-9.96 10.455-2.77-.797-2.85-.753-1.99 2.657-1.92 2.658 1.07 4.253 1.13 4.208h-1.49c-.85 0-3.34-1.55-5.55-3.455l-3.98-3.499-.14 6.378-2.57 1.817c-1.42 1.018-3.55 1.86-4.76 1.86h-2.28l-5.19-12.005-5.13-11.96-5.47-3.5c-6.34-3.987-8.76-4.341-8.76-1.373v2.082l-8.39 5.493-6.19-1.861-6.26-1.86-4.41 1.993-4.41 2.038-1.43 4.651c-.78 2.614-3.34 7.664-5.69 11.296l-4.2 6.645-9.1-7.088-7.47.266-7.48.222-11.52-9.746-1.5 5.183-1.42 5.183-5.83 1.595v8.372l-2.92 2.924-2.99 2.923-6.12.089-6.12.045-.21 2.347c-.07 1.285-.35 3.278-.5 4.43l-.35 2.082-3.06-.842-2.99-.841-2.49 2.126-2.42 2.126-3.56-.974c-3.55-.93-10.24-5.803-18.57-13.334l-4.27-3.943-2.56-.044-2.56-.088-4.27-5.759-4.91.62-4.83.664-3.63-6.378-3.63-6.335 1.28-2.614 1.35-2.613-8.54 5.404h-6.61l-5.27-9.303h-4.27l1.28 2.348 1.21 2.392-8.39-3.278v3.411l-4.84-1.152c-2.63-.62-6.19-1.107-7.97-1.063-3.7 0-15.22-5.404-17.71-8.372l-1.71-2.038h-14.45l-.64 3.5-.71 3.499h-8.32l-1.5 5.183c-.78 2.835-2.41 5.892-3.62 6.778l-2.28 1.595-4.63-7.221-4.69-7.177-10.67-6.113-3.49-4.872c-1.85-2.703-4.34-5.006-5.41-5.051-1.06-.088-4.62-2.082-7.82-4.429l-5.91-4.253h-5.62l-15.94-10.6317-1.35 1.5503-1.28 1.5504-3.84-2.4806-3.77-2.5249-5.62 1.0188-5.55 1.0188v-4.2083l-4.98 4.4741-4.91 4.4741-5.69-2.7018-5.77-2.7027v-4.2968h-4.48l-2.2-4.6514-2.28-4.6514-1.92.8862-1.92.8416v-6.4233l-10.67-3.5437v-6.6451l-8.69.3101-8.68.3545-.92-1.8606-1-1.8606-5.26.0886-5.27.0445-5.62 6.0686-5.69 6.0691-2.63-2.658-2.63-2.6135-1.36 3.5439c-.71 1.9492-2.06 4.4741-3.13 5.5816l-1.85 2.082-5.62-3.8096-5.62-3.7654v-6.3789l-2.77-2.082c-1.57-1.1077-4.98-6.3792-7.76-11.7393-2.7-5.3159-5.76-10.0559-6.69-10.4987l-1.77-.7532-2.56 3.4995c-3.63 5.0945-3.78 5.1389-7.4 1.8608l-3.28-2.9682 1.28 5.4045 1.21 5.4487-9.25-14.707h-2.77c-1.5 0-4.2 1.0188-5.98 2.3035-1.71 1.2844-4.12 2.3476-5.19 2.3476h-2.06l-1.43 3.9871c-.78 2.2148-3.41 5.9802-5.83 8.4167l-4.41 4.3414-4.41.8415-4.49.8416-5.4-3.2779-3.63 2.6577-3.7 2.658-3.13-6.113-4.06-.7976-4.12-.7972-5.55 6.4673-1.85-3.6323-1.92-3.6768-3.85 2.5694-3.84 2.5249h-11.38v7.7522h-6.41l-.07 1.905c-.07 1.0632-2.99 4.3413-6.4 7.3091l-6.33 5.3601v-6.7776l-2.99.8418-3.06.8416-1.21 3.5881-1.28 3.6326-8.47-1.595-8.53-1.5503-3.78 1.196c-2.06.6646-4.62 1.063-5.62.886-2.98-.4873-12.23 6.2906-15.58 11.4292-1.71 2.5693-4.34 6.2463-5.83 8.1953l-2.78 3.544-.42 10.764-.36 10.72-4.055 6.601-3.984 6.601-.142-2.703-.214-2.702h-3.984l-2.704 6.202h-11.383l-3.771 4.784-3.7 4.74-.284 6.733-3.558-3.809c-1.992-2.127-5.336-4.873-7.399-6.158-2.063-1.284-3.7-2.968-3.7-3.721 0-.753-2.205-3.189-4.838-5.448l-4.767-4.121-4.625 1.507-4.624 1.462-2.419 8.682h-4.056l-2.489-8.904c-3.7-13.112-17.076-28.971-30.167-35.705l-3.914-2.037v3.278l-6.758-.576-6.76-.532-1.778-3.455c-.996-1.905-3.7-5.4484-6.048-7.8407l-4.269-4.2969v-5.8916l-2.561-1.8606c-1.352-1.0188-3.201-1.8606-3.984-1.8606h-1.352l-1.281 6.6448c-.711 3.6768-2.561 8.4609-4.126 10.7202l-2.917 4.0314-2.633-6.5121-2.703-6.5117-12.238-8.417-3.415-11.2075c-2.846-9.3911-6.119-16.4348-9.107-19.5801-1.21-1.2844-6.83 5.3601-7.115 8.4167l-.213 3.0569-2.989-4.873c-1.636-2.7022-4.055-5.4488-5.407-6.0244l-2.49-1.1519-3.913 3.7212c-2.064 2.0378-4.625 3.7654-5.55 3.8096-.925.0442-4.838 1.4619-8.608 3.101l-6.973 2.9678v2.3477l-.071 2.3037-1.779-2.0376-1.85-2.082L750.398 65l-3.984-3.5881-4.056-3.5882v-6.7778l-2.988-3.0122-3.059-3.0122-1.281.9746c-.712.4873-1.494 3.1008-1.779 5.7588l-.498 4.8725h-5.336l-.213 3.5-.285 3.4551-.925-2.7021-.996-2.7022h-7.613l.783 4.2525.853 4.2529-2.134-3.4553c-1.138-1.9492-2.703-3.4998-3.344-3.4998h-1.28l.64 3.4998.64 3.4553-4.233.0884c-2.348.0886-5.464-.5315-6.937-1.3289l-2.661-1.4619v5.3601l-6.403-1.772v1.5948c0 .8859-1.444 2.6579-3.202 3.9426l-3.209 2.3479-.946-2.082c-.519-1.1077-2.817-6.6006-5.108-12.138l-4.17-10.0998-10.031-11.4292-3.693-.9302-3.693-.886-3.664-7.5308-3.671-7.4865-13.504.7973-5.713-7.8852c-3.356-4.6377-5.726-6.6792-8.014-8.65-1.427-1.229-2.822-2.4303-4.405-4.2172l-4.009-3.3457-1.864.177c-.155.024-.358.0469-.599.071-.171.0171-.361.035-.567.0537l-.038.0037c-2.202.2036-6.156.5696-7.846 2.0422l-3.785 3.3667v3.8096c0 2.0823-1.437 6.3347-3.202 9.3914l-3.202 5.5373v8.0181l-2.127-.9302-2.134-.9746v6.0244l-4.788.8863-4.789.9301-9.342-7.8852-6.51 9.1255 1.331.9746 1.337.9746h-4.973v5.5815l-5.336 4.1641 4.973-2.0376-2.483 5.05c-2.412 4.8728-5.123 7.2649-8.289 7.3091l-1.529.0445 2.689-5.4046-5.678 4.3413c-3.123 2.3479-5.684 5.0945-5.684 6.0689 0 .9304-1.487 2.9238-3.309 4.3857l-3.315 2.6577-.342 3.2339-.341 3.2781h-3.358v5.8918l-3.429.9302-3.43.9746.904 5.626.903 5.5815-7.748 1.5058v7l-3.201 1.904-3.195 1.95v-1.329c0-.709-1.437.177-3.187 1.993l-3.188 3.322-.576 18.65-11.462 8.993c-6.297 4.961-11.455 9.612-11.455 10.41 0 .797-3.351 6.556-7.449 12.802l-7.449 11.385-1.373 6.246-1.381 6.246-2.91-.797-2.903-.842v4.784l-3.151 2.304-3.152 2.259-4.177-1.639c-5.5-2.126-6.588-2.038-6.588.576v2.126l-3.401.975-3.393.93-1.118-3.101-1.124-3.101h-3.763v-6.024l-5.337-4.209-5.329-4.164v-2.569c0-1.418-1.359-3.898-3.009-5.537l-3.002-3.013-9.791 5.139-9.79 5.094-2.141-.974c-1.174-.532-2.206-2.127-2.284-3.588l-.149-2.614-1.658 3.101-1.651 3.056-1.423-5.537c-.782-3.012-2.696-6.733-4.247-8.284l-2.818-2.791-5.684 4.43-5.685 4.474-1.309 5.006c-1.445 5.626-1.608 5.714-7.122 3.544l-3.885-1.506-2.632-7.619-6.397-3.279-6.389-3.322v-4.253l-5.336-4.164-5.336-4.208v-2.127c0-1.196-1.558-3.898-3.465-5.98l-3.472-3.854-2.931 1.772-2.931 1.728v9.126l-3.728-1.684v3.898c0 2.171-.683 4.386-1.509 5.006l-1.508 1.108-2.96-2.969-2.959-2.923-3.267 1.949-3.265 1.993v4.253h-4.404l-3.429-6.733-3.088 3.632h-7.606l-2.846-6.556-2.853-6.6-1.736 5.581-2.483-.576c-1.373-.31-3.472-1.993-4.667-3.721l-2.177-3.145-5.294 2.436c-2.903 1.374-6.005 3.19-6.887 4.031l-1.601 1.595 2.305 19.58-2.646 5.272-2.647 5.316h-3.408v4.872l-7.471-1.683-2.176 1.108c-2.96 1.55-20.221 21.085-20.221 22.946 0 .797-2.398 2.747-5.336 4.342l-5.329 2.923v3.411l-13.867-.354-3.479 1.284-3.479 1.329-3.23 5.848-3.237 5.892-5.841 4.208-5.849 4.253-3.443.221c-1.367.064-3.734.22-5.986.369-.867.057-1.718.113-2.488.163l-5.038.398-1.921 2.127c-1.052 1.196-2.518 3.898-3.265 6.024-.74 2.127-2.917 4.961-4.838 6.29l-3.501 2.481h-7.001l-2.661-3.632c-3.614-4.873-5.265-4.563-11.497 2.215-1.569 1.702-2.784-3.279-3.928-7.969l-.002-.004c-.999-4.095-1.944-7.968-3.021-6.977l-4.205 3.854c-.4136 7.206-3.7212 4.533-6.0625 2.641-1.2422-1.004-2.2119-1.788-2.333-.759l-.6407 5.404-2.8813 3.81v-20.909l-3.9985 2.746-3.9986 2.791v8.55l-5.0175 3.632-2.8243-1.683-2.8242-1.728-.0654 2.702-3.7236-4.252-4.7442 2.126v2.924c0 1.594-.7202 3.233-1.5996 3.632l-1.6001.709.7358-9.347.0176-.021.7368-9.303-4.9443 2.481c-2.7192 1.373-6.1938 2.525-7.7222 2.525h-9.8901l-1.2964-4.696v1.285l-2.3403.532c-1.2871.31-5.6719 4.164-9.7442 8.549l-5.7666 8.018-1.6728-1.949-1.6729-1.905-.0654 4.563-2.9204-2.259-2.9204-2.304L0 241.907V481Z" fill="#303030"/><path fill-rule="evenodd" clip-rule="evenodd" d="M0 556.429h1920V181.981l-3.2-1.949-3.2-1.905-2.85 1.683-2.77 1.684-3.49-3.013c-3.34-2.791-8.25-10.144-14.23-21.13l-2.63-4.873-8.54-1.595-3.84 2.791-3.84 2.746-3.85-5.581c-2.06-3.101-3.62-6.512-3.34-7.575l.5-1.905h-4.13l-1.35 4.519-1.42 4.518-6.12 1.683-.29-2.658c-.07-1.462-.07-3.544.15-4.607l.35-1.904h-4.98l.93 4.341.85 4.385-2.56 1.772-2.63 1.728-2.42-4.696-1.85.842-1.85.797-2.56-4.119-2.64-4.076-5.9 5.05-5.98 5.05-10.24-14.973-4.27-.044-4.27-.089-4.2 1.994c-2.28 1.107-5.9 2.038-7.97 2.038h-3.77v6.157l-1.64-.354c-2.13-.532-10.17 5.404-13.44 9.878l-2.63 3.5 2.41.576 2.49.62v5.581l-7.39 2.038 5.12 2.304-1.28 5.626-1.21 5.581-18.29-1.063-1.21 4.519-1.28 4.562h-8.61l-.28 1.949c-.02.145-.04.294-.05.444-.01.064-.01.129-.02.193 0 .086-.01.172-.02.258-.05.813-.03 1.609.02 2.029.14.532-2.99 2.569-6.83 4.474l-7.05 3.544-9.96 10.455-2.77-.798-2.85-.753-1.99 2.658-1.92 2.658 1.07 4.253 1.13 4.208h-1.49c-.85 0-3.34-1.55-5.55-3.455l-3.98-3.5-.14 6.379-2.57 1.816c-1.42 1.019-3.55 1.861-4.76 1.861h-2.28l-5.19-12.005-5.13-11.96-5.47-3.5c-6.34-3.987-8.76-4.341-8.76-1.373v2.082l-8.39 5.493-6.19-1.861-6.26-1.86-4.41 1.993-4.41 2.038-1.43 4.651c-.78 2.614-3.34 7.664-5.69 11.296l-4.2 6.645-9.1-7.088-7.47.266-7.48.221-11.52-9.745-1.5 5.183-1.42 5.183-5.83 1.594v8.373l-2.92 2.923-2.99 2.924-6.12.089-6.12.044-.21 2.348c-.07 1.285-.35 3.278-.5 4.43l-.35 2.082-3.06-.842-2.99-.841-2.49 2.126-2.42 2.126-3.56-.974c-3.55-.93-10.24-5.804-18.57-13.334l-4.27-3.943-2.56-.044-2.56-.089-4.27-5.759-4.91.621-4.83.664-3.63-6.379-3.63-6.335 1.28-2.613 1.35-2.614-8.54 5.405h-6.61l-5.27-9.303h-4.27l1.28 2.348 1.21 2.392-8.39-3.278v3.411l-4.84-1.152c-2.63-.62-6.19-1.107-7.97-1.063-3.7 0-15.22-5.405-17.71-8.373l-1.71-2.037h-14.45l-.64 3.499-.71 3.5h-8.32l-1.5 5.183c-.78 2.835-2.41 5.892-3.62 6.777l-2.28 1.595-4.63-7.221-4.69-7.176-10.67-6.113-3.49-4.873c-1.85-2.702-4.34-5.006-5.41-5.05-1.06-.088-4.62-2.082-7.82-4.43l-5.91-4.252h-5.62l-15.94-10.632-1.35 1.55-1.28 1.551-3.84-2.481-3.77-2.525-5.62 1.019-5.55 1.019v-4.208l-4.98 4.474-4.91 4.474-5.69-2.702-5.77-2.703v-4.297h-4.48l-2.2-4.651-2.28-4.651-1.92.886-1.92.841v-6.423l-10.67-3.544v-6.645l-8.69.31-8.68.355-.92-1.861-1-1.86-5.26.088-5.27.045-5.62 6.068-5.69 6.069-2.63-2.657-2.63-2.614-1.36 3.544c-.71 1.949-2.06 4.474-3.13 5.581l-1.85 2.082-5.62-3.809-5.62-3.765v-6.379l-2.77-2.082c-1.57-1.108-4.98-6.38-7.76-11.74-2.7-5.316-5.76-10.056-6.69-10.498l-1.77-.754-2.56 3.5c-3.63 5.094-3.78 5.139-7.4 1.861l-3.28-2.969 1.28 5.405 1.21 5.449-9.25-14.707h-2.77c-1.5 0-4.2 1.019-5.98 2.303-1.71 1.285-4.12 2.348-5.19 2.348h-2.06l-1.43 3.987c-.78 2.215-3.41 5.98-5.83 8.417l-4.41 4.341-4.41.842-4.49.841-5.4-3.278-3.63 2.658-3.7 2.658-3.13-6.113-4.06-.798-4.12-.797-5.55 6.467-1.85-3.632-1.92-3.677-3.85 2.57-3.84 2.525h-11.38v7.752h-6.41l-.07 1.905c-.07 1.063-2.99 4.341-6.4 7.309l-6.33 5.36v-6.778l-2.99.842-3.06.842-1.21 3.588-1.28 3.632-8.47-1.594-8.53-1.551-3.78 1.196c-2.06.665-4.62 1.063-5.62.886-2.98-.487-12.23 6.291-15.58 11.429-1.71 2.57-4.34 6.246-5.83 8.196l-2.78 3.543-.42 10.765-.36 10.72-4.055 6.601-3.984 6.6-.142-2.702-.214-2.702h-3.984l-2.704 6.202h-11.383l-3.771 4.784-3.7 4.74-.284 6.733-3.558-3.81c-1.992-2.126-5.336-4.872-7.399-6.157-2.063-1.285-3.7-2.968-3.7-3.721 0-.753-2.205-3.19-4.838-5.449l-4.767-4.12-4.625 1.506-4.624 1.462-2.419 8.683h-4.056l-2.489-8.904c-3.7-13.112-17.076-28.972-30.167-35.705l-3.914-2.038v3.279l-6.758-.576-6.76-.532-1.778-3.455c-.996-1.905-3.7-5.449-6.048-7.841l-4.269-4.297v-5.891l-2.561-1.861c-1.352-1.019-3.201-1.861-3.984-1.861h-1.352l-1.281 6.645c-.711 3.677-2.561 8.461-4.126 10.72l-2.917 4.031-2.633-6.511-2.703-6.512-12.238-8.417-3.415-11.208c-2.846-9.391-6.119-16.434-9.107-19.58-1.21-1.284-6.83 5.36-7.115 8.417l-.213 3.057-2.989-4.873c-1.636-2.702-4.055-5.449-5.407-6.025l-2.49-1.151-3.913 3.721c-2.064 2.038-4.625 3.765-5.55 3.809-.925.045-4.838 1.462-8.608 3.101l-6.973 2.968v2.348l-.071 2.304-1.779-2.038-1.85-2.082-20.277.886-3.984-3.588-4.056-3.589v-6.777l-2.988-3.013-3.059-3.012-1.281.975c-.712.487-1.494 3.101-1.779 5.759l-.498 4.872h-5.336l-.213 3.5-.285 3.455-.925-2.702-.996-2.702h-7.613l.783 4.252.853 4.253-2.134-3.455c-1.138-1.949-2.703-3.5-3.344-3.5h-1.28l.64 3.5.64 3.455-4.233.089c-2.348.088-5.464-.532-6.937-1.329l-2.661-1.462v5.36l-6.403-1.772v1.595c0 .886-1.444 2.658-3.202 3.942l-3.209 2.348-.946-2.082c-.519-1.107-2.817-6.6-5.108-12.138l-4.17-10.1-10.031-11.429-3.693-.93-3.693-.886-3.664-7.531-3.671-7.4862-13.504.7973-5.713-7.8852c-3.356-4.6377-5.726-6.6792-8.014-8.6499-1.427-1.229-2.822-2.4304-4.405-4.2173L616.277 75l-1.864.177c-.155.0239-.358.0469-.599.071-.171.0171-.361.035-.567.0538l-.038.0036c-2.202.2036-6.156.5696-7.846 2.0423l-3.785 3.3667v3.8095c0 2.0823-1.437 6.3347-3.202 9.3914l-3.202 5.5373v8.0184l-2.127-.93-2.134-.975v6.024l-4.788.887-4.789.93-9.342-7.886-6.51 9.126 1.331.975 1.337.974h-4.973v5.582l-5.336 4.164 4.973-2.038-2.483 5.05c-2.412 4.873-5.123 7.265-8.289 7.309l-1.529.045 2.689-5.405-5.678 4.342c-3.123 2.347-5.684 5.094-5.684 6.068 0 .931-1.487 2.924-3.309 4.386l-3.315 2.658-.342 3.234-.341 3.278h-3.358v5.892l-3.429.93-3.43.974.904 5.626.903 5.582-7.748 1.506v6.999l-3.201 1.905-3.195 1.949v-1.329c0-.709-1.437.177-3.187 1.994l-3.188 3.322-.576 18.65-11.462 8.992c-6.297 4.962-11.455 9.613-11.455 10.41 0 .798-3.351 6.557-7.449 12.803l-7.449 11.385-1.373 6.246-1.381 6.246-2.91-.798-2.903-.841v4.784l-3.151 2.303-3.152 2.26-4.177-1.639c-5.5-2.127-6.588-2.038-6.588.576v2.126l-3.401.974-3.393.931-1.118-3.101-1.124-3.101h-3.763V263.8l-5.337-4.208-5.329-4.164v-2.569c0-1.418-1.359-3.899-3.009-5.538l-3.002-3.012-9.791 5.139-9.79 5.094-2.141-.975c-1.174-.531-2.206-2.126-2.284-3.588l-.149-2.614-1.658 3.101-1.651 3.057-1.423-5.537c-.782-3.013-2.696-6.734-4.247-8.284l-2.818-2.791-5.684 4.43-5.685 4.474-1.309 5.006c-1.445 5.626-1.608 5.714-7.122 3.544l-3.885-1.506-2.632-7.62-6.397-3.278-6.389-3.322v-4.253l-5.336-4.164-5.336-4.208v-2.127c0-1.196-1.558-3.898-3.465-5.98l-3.472-3.854-2.931 1.772-2.931 1.728v9.125l-3.728-1.683v3.898c0 2.171-.683 4.386-1.509 5.006l-1.508 1.107-2.96-2.968-2.959-2.923-3.267 1.948-3.265 1.994v4.253h-4.404l-3.429-6.734-3.088 3.633h-7.606l-2.846-6.556-2.853-6.601-1.736 5.582-2.483-.576c-1.373-.31-3.472-1.994-4.667-3.721l-2.177-3.145-5.294 2.436c-2.903 1.373-6.005 3.19-6.887 4.031l-1.601 1.595 2.305 19.58-2.646 5.271-2.647 5.316h-3.408v4.873l-7.471-1.683-2.176 1.107c-2.96 1.551-20.221 21.086-20.221 22.947 0 .797-2.398 2.746-5.336 4.341l-5.329 2.924v3.411l-13.867-.355-3.479 1.285-3.479 1.329-3.23 5.847-3.237 5.892-5.841 4.208-5.849 4.253-3.443.222c-1.367.064-3.734.22-5.986.369-.867.057-1.718.113-2.488.162l-5.038.399-1.921 2.126c-1.052 1.196-2.518 3.899-3.265 6.025-.74 2.126-2.917 4.961-4.838 6.29l-3.501 2.481h-7.001l-2.661-3.633c-3.614-4.872-5.265-4.562-11.497 2.216-1.569 1.702-2.784-3.279-3.928-7.97l-.002-.003c-.999-4.096-1.944-7.968-3.021-6.977l-4.205 3.854c-.4136 7.206-3.7212 4.533-6.0625 2.64-1.2422-1.003-2.2119-1.787-2.333-.759l-.6407 5.405-2.8813 3.81v-20.91l-3.9985 2.747-3.9986 2.791v8.549l-5.0175 3.633-2.8243-1.684-2.8242-1.727-.0654 2.702-3.7236-4.253-4.7442 2.127v2.923c0 1.595-.7202 3.234-1.5996 3.633l-1.6001.709.7358-9.347.0176-.021.7368-9.303-4.9443 2.481c-2.7192 1.373-6.1938 2.525-7.7222 2.525h-9.8901l-1.2964-4.696v1.285l-2.3403.531c-1.2871.31-5.6719 4.164-9.7442 8.55l-5.7666 8.018-1.6728-1.949-1.6729-1.905-.0654 4.563-2.9204-2.26-2.9204-2.303L0 317.336v239.093Z" fill="#161616"/><path d="M0 585.429h1920V210.981l-3.2-1.949-3.2-1.905-2.85 1.683-2.77 1.684-3.49-3.013c-3.34-2.791-8.25-10.144-14.23-21.13l-2.63-4.873-8.54-1.595-3.84 2.791-3.84 2.746-3.85-5.581c-2.06-3.101-3.62-6.512-3.34-7.575l.5-1.905h-4.13l-1.35 4.519-1.42 4.518-6.12 1.683-.29-2.658c-.07-1.462-.07-3.544.15-4.607l.35-1.904h-4.98l.93 4.341.85 4.385-2.56 1.772-2.63 1.728-2.42-4.696-1.85.842-1.85.797-2.56-4.119-2.64-4.076-5.9 5.05-5.98 5.05-10.24-14.973-4.27-.044-4.27-.089-4.2 1.994c-2.28 1.107-5.9 2.038-7.97 2.038h-3.77v6.157l-1.64-.354c-2.13-.532-10.17 5.404-13.44 9.878l-2.63 3.5 2.41.576 2.49.62v5.581l-7.39 2.038 5.12 2.304-1.28 5.626-1.21 5.581-18.29-1.063-1.21 4.519-1.28 4.562h-8.61l-.28 1.949c-.02.145-.04.294-.05.444l-.02.193c0 .086-.01.172-.02.258-.05.813-.03 1.609.02 2.029.14.532-2.99 2.569-6.83 4.474l-7.05 3.544-9.96 10.455-2.77-.798-2.85-.753-1.99 2.658-1.92 2.658 1.07 4.253 1.13 4.208h-1.49c-.85 0-3.34-1.55-5.55-3.455l-3.98-3.5-.14 6.379-2.57 1.816c-1.42 1.019-3.55 1.861-4.76 1.861h-2.28l-5.19-12.005-5.13-11.96-5.47-3.5c-6.34-3.987-8.76-4.341-8.76-1.373v2.082l-8.39 5.493-6.19-1.861-6.26-1.86-4.41 1.993-4.41 2.038-1.43 4.651c-.78 2.614-3.34 7.664-5.69 11.296l-4.2 6.645-9.1-7.088-7.47.266-7.48.221-11.52-9.745-1.5 5.183-1.42 5.183-5.83 1.594v8.373l-2.92 2.923-2.99 2.924-6.12.089-6.12.044-.21 2.348c-.05 1.008-.24 2.453-.39 3.585-.04.31-.08.597-.11.845l-.35 2.082-3.06-.842-2.99-.841-2.49 2.126-2.42 2.126-3.56-.974c-3.55-.93-10.24-5.804-18.57-13.334l-4.27-3.943-2.56-.044-2.56-.089-4.27-5.759-4.91.621-4.83.664-3.63-6.379-3.63-6.335 1.28-2.613 1.35-2.614-8.54 5.405h-6.61l-5.27-9.303h-4.27l1.28 2.348 1.21 2.392-8.39-3.278v3.411l-4.84-1.152c-2.63-.62-6.19-1.107-7.97-1.063-3.7 0-15.22-5.405-17.71-8.373l-1.71-2.037h-14.45l-.64 3.499-.71 3.5h-8.32l-1.5 5.183c-.78 2.835-2.41 5.892-3.62 6.777l-2.28 1.595-4.63-7.221-4.69-7.176-10.67-6.113-3.49-4.873c-1.85-2.702-4.34-5.006-5.41-5.05-1.06-.088-4.62-2.082-7.82-4.43l-5.91-4.252h-5.62l-15.94-10.632-1.35 1.55-1.28 1.551-3.84-2.481-3.77-2.525-5.62 1.019-5.55 1.019v-4.208l-4.98 4.474-4.91 4.474-5.69-2.702-5.77-2.703v-4.297h-4.48l-2.2-4.651-2.28-4.651-1.92.886-1.92.841v-6.423l-10.67-3.544v-6.645l-8.69.31-8.68.355-.92-1.861-1-1.86-5.26.088-5.27.045-5.62 6.068-5.69 6.069-2.63-2.657-2.63-2.614-1.36 3.544c-.71 1.949-2.06 4.474-3.13 5.581l-1.85 2.082-5.62-3.809-5.62-3.765v-6.379l-2.77-2.082c-1.57-1.108-4.98-6.38-7.76-11.74-2.7-5.316-5.76-10.056-6.69-10.498l-1.77-.754-2.56 3.5c-3.63 5.094-3.78 5.139-7.4 1.861l-3.28-2.969 1.28 5.405 1.21 5.449-9.25-14.707h-2.77c-1.5 0-4.2 1.019-5.98 2.303-1.71 1.285-4.12 2.348-5.19 2.348h-2.06l-1.43 3.987c-.78 2.215-3.41 5.98-5.83 8.417l-4.41 4.341-4.41.842-4.49.841-5.4-3.278-3.63 2.658-3.7 2.658-3.13-6.113-4.06-.798-4.12-.797-5.55 6.467-1.85-3.632-1.92-3.677-3.85 2.57-3.84 2.525h-11.38v7.752h-6.41l-.07 1.905c-.07 1.063-2.99 4.341-6.4 7.309l-6.33 5.36v-6.778l-2.99.842-3.06.842-1.21 3.588-1.28 3.632-8.47-1.594-8.53-1.551-3.78 1.196c-2.06.665-4.62 1.063-5.62.886-2.98-.487-12.23 6.291-15.58 11.429-1.71 2.57-4.34 6.246-5.83 8.196l-2.78 3.543-.42 10.765-.36 10.72-4.055 6.601-3.984 6.6-.142-2.702-.214-2.702h-3.984l-2.704 6.202h-11.383l-3.771 4.784-3.7 4.74-.284 6.733-3.558-3.81c-1.992-2.126-5.336-4.872-7.399-6.157-2.063-1.285-3.7-2.968-3.7-3.721 0-.753-2.205-3.19-4.838-5.449l-4.767-4.12-4.625 1.506-4.624 1.462-2.419 8.683h-4.056l-2.489-8.904c-3.7-13.112-17.076-28.972-30.167-35.705l-3.914-2.038v3.279l-6.758-.576-6.76-.532-1.778-3.455c-.996-1.905-3.7-5.449-6.048-7.841l-4.269-4.297v-5.891l-2.561-1.861c-1.352-1.019-3.201-1.861-3.984-1.861h-1.352l-1.281 6.645c-.711 3.677-2.561 8.461-4.126 10.72l-2.917 4.031-2.633-6.511-2.703-6.512-12.238-8.417-3.415-11.208c-2.846-9.391-6.119-16.434-9.107-19.58-1.21-1.284-6.83 5.36-7.115 8.417l-.213 3.057-2.989-4.873c-1.636-2.702-4.055-5.449-5.407-6.025l-2.49-1.151-3.913 3.721c-2.064 2.038-4.625 3.765-5.55 3.809-.925.045-4.838 1.462-8.608 3.101l-6.973 2.968v2.348l-.071 2.304-1.779-2.038-1.85-2.082-20.277.886-3.984-3.588-4.056-3.589v-6.777l-2.988-3.013-3.059-3.012-1.281.975c-.712.487-1.494 3.101-1.779 5.759l-.498 4.872h-5.336l-.213 3.5-.285 3.455-.925-2.702-.996-2.702h-7.613l.783 4.252.853 4.253-2.134-3.455c-1.138-1.949-2.703-3.5-3.344-3.5h-1.28l.64 3.5.64 3.455-4.233.089c-2.348.088-5.464-.532-6.937-1.329l-2.661-1.462v5.36l-6.403-1.772v1.595c0 .886-1.444 2.658-3.202 3.942l-3.209 2.348-.946-2.082c-.519-1.107-2.817-6.6-5.108-12.138l-4.17-10.1-10.031-11.429-3.693-.93-3.693-.886-3.664-7.531-3.671-7.486-13.504.797-5.713-7.885c-3.356-4.637-5.726-6.679-8.013-8.649l-.001-.001c-1.427-1.229-2.822-2.43-4.405-4.217L616.277 104l-1.864.177c-.155.024-.358.047-.599.071-.171.017-.361.035-.567.054l-.038.003c-2.202.204-6.156.57-7.846 2.043l-3.785 3.366v3.81c0 2.082-1.437 6.335-3.202 9.391l-3.202 5.538v8.018l-2.127-.93-2.134-.975v6.024l-4.788.887-4.789.93-9.342-7.886-6.51 9.126 1.331.975 1.337.974h-4.973v5.582l-5.336 4.164 4.973-2.038-2.483 5.05c-2.412 4.873-5.123 7.265-8.289 7.309l-1.529.045 2.689-5.405-5.678 4.342c-3.123 2.347-5.684 5.094-5.684 6.068 0 .931-1.487 2.924-3.309 4.386l-3.315 2.658-.342 3.234-.341 3.278h-3.358v5.892l-3.429.93-3.43.974.904 5.626.903 5.582-7.748 1.506v6.999l-3.201 1.905-3.195 1.949v-1.329c0-.709-1.437.177-3.187 1.994l-3.188 3.322-.576 18.65-11.462 8.992c-6.297 4.962-11.455 9.613-11.455 10.41 0 .798-3.351 6.557-7.449 12.803l-7.449 11.385-1.373 6.246-1.381 6.246-2.91-.798-2.903-.841v4.784l-3.151 2.303-3.152 2.26-4.177-1.639c-5.5-2.127-6.588-2.038-6.588.576v2.126l-3.401.974-3.393.931-1.118-3.101-1.124-3.101h-3.763V292.8l-5.337-4.208-5.329-4.164v-2.569c0-1.418-1.359-3.899-3.009-5.538l-3.002-3.012-9.791 5.139-9.79 5.094-2.141-.975c-1.174-.531-2.206-2.126-2.284-3.588l-.149-2.614-1.658 3.101-1.651 3.057-1.423-5.537c-.782-3.013-2.696-6.734-4.247-8.284l-2.818-2.791-5.684 4.43-5.685 4.474-1.309 5.006c-1.445 5.626-1.608 5.714-7.122 3.544l-3.885-1.506-2.632-7.62-6.397-3.278-6.389-3.322v-4.253l-5.336-4.164-5.336-4.208v-2.127c0-1.196-1.558-3.898-3.465-5.98l-3.472-3.854-2.931 1.772-2.931 1.728v9.125l-3.728-1.683v3.898c0 2.171-.683 4.386-1.509 5.006l-1.508 1.107-2.96-2.968-2.959-2.923-3.267 1.948-3.265 1.994v4.253h-4.404l-3.429-6.734-3.088 3.633h-7.606l-2.846-6.556-2.853-6.601-1.736 5.582-2.483-.576c-1.373-.31-3.472-1.994-4.667-3.721l-2.177-3.145-5.294 2.436c-2.903 1.373-6.005 3.19-6.887 4.031l-1.601 1.595 2.305 19.58-2.646 5.271-2.647 5.316h-3.408v4.873l-7.471-1.683-2.176 1.107c-2.96 1.551-20.221 21.086-20.221 22.947 0 .797-2.398 2.746-5.336 4.341l-5.329 2.924v3.411l-13.867-.355-3.479 1.285-3.479 1.329-3.23 5.847-3.237 5.892-5.841 4.208-5.849 4.253-3.443.222c-1.367.064-3.734.22-5.986.369-.398.026-.792.052-1.177.077-.454.03-.894.059-1.311.085l-5.038.399-1.921 2.126c-1.052 1.196-2.518 3.899-3.265 6.025-.74 2.126-2.917 4.961-4.838 6.29l-3.501 2.481h-7.001l-2.661-3.633c-3.614-4.872-5.265-4.562-11.497 2.216-1.569 1.702-2.784-3.279-3.928-7.969l-.002-.004c-.999-4.096-1.944-7.968-3.021-6.977l-4.205 3.854c-.4136 7.206-3.7207 4.533-6.062 2.641l-.0013-.001c-1.2418-1.004-2.2112-1.787-2.3322-.759l-.6407 5.405-2.8813 3.81v-20.91l-3.9985 2.747-3.9986 2.791v8.549l-5.0175 3.633-2.8243-1.684-2.8242-1.727-.0654 2.702-3.7236-4.253-4.7442 2.127v2.923c0 1.595-.7202 3.234-1.5996 3.633l-1.6001.709.7358-9.347.0176-.021.7368-9.303-4.9443 2.481c-2.7192 1.373-6.1938 2.525-7.7222 2.525h-9.8901l-1.2964-4.696v1.285l-2.3403.531c-1.2871.31-5.6719 4.164-9.7442 8.55l-5.7666 8.018-1.6728-1.949-1.6729-1.905-.0654 4.563-2.9204-2.26-2.9204-2.303L0 346.336v239.093Z" fill="#000"/></g><defs><clipPath id="a"><path fill="#fff" d="M0 0h1920v380H0z"/></clipPath></defs></svg>