<svg width="1920" height="323" viewBox="0 0 1920 323" fill="none" xmlns="http://www.w3.org/2000/svg"><path d="m55.0452 313.102.7363-9.117-4.944 2.431c-2.7193 1.346-6.1942 2.474-7.7224 2.474h-9.8902l-1.2963-4.602v1.259l-2.3401.521c-1.287.304-5.6719 4.081-9.7444 8.379l-5.7667 7.858-1.6727-1.91-1.6727-1.867-.0654 4.472-2.9206-2.214-2.9205-2.258L0 304.288V.0118L1920 0v171.635l-3.2-1.91-3.2-1.867-2.85 1.649-2.77 1.65-3.49-2.952c-3.34-2.735-8.25-9.942-14.23-20.709l-2.63-4.775-8.54-1.563-3.84 2.735-3.84 2.692-3.85-5.471c-2.06-3.039-3.62-6.381-3.34-7.423l.5-1.867h-4.13l-1.35 4.428-1.42 4.428-6.12 1.65-.29-2.605c-.07-1.433-.07-3.473.15-4.515l.35-1.867h-4.98l.93 4.255.85 4.298-2.56 1.736-2.63 1.694-2.42-4.602-1.85.825-1.85.781-2.56-4.037-2.64-3.995-5.9 4.95-5.98 4.949-10.24-14.674-4.27-.044-4.27-.087-4.2 1.954c-2.28 1.086-5.9 1.997-7.97 1.997h-3.77v6.035l-1.64-.347c-2.13-.521-10.17 5.296-13.44 9.681l-2.63 3.43 2.41.564 2.49.608v5.47l-7.39 1.997 5.12 2.258-1.28 5.513-1.21 5.47-18.29-1.041-1.21 4.428-1.28 4.472h-8.61l-.28 1.91c-.14 1.042-.14 2.301-.07 2.865.14.521-2.99 2.518-6.83 4.385l-7.05 3.473-9.96 10.246-2.77-.782-2.85-.738-1.99 2.605-1.92 2.605 1.07 4.168 1.14 4.124h-1.5c-.85 0-3.34-1.519-5.55-3.386l-3.98-3.43-.15 6.252-2.56 1.78c-1.42.998-3.55 1.823-4.76 1.823h-2.28l-5.19-11.765-5.13-11.722-5.47-3.43c-6.34-3.907-8.76-4.254-8.76-1.346v2.041l-8.39 5.383-6.19-1.823-6.26-1.823-4.41 1.953-4.41 1.997-1.43 4.559c-.78 2.561-3.34 7.51-5.69 11.07l-4.2 6.513-9.1-6.947-7.48.261-7.47.217-11.52-9.551-1.5 5.079-1.42 5.08-5.83 1.563v8.205l-2.92 2.865-2.99 2.866-6.12.086-6.12.044-.21 2.301c-.07 1.259-.35 3.212-.5 4.341l-.35 2.041-3.06-.825-2.99-.825-2.49 2.084-2.42 2.084-3.56-.955c-3.55-.912-10.24-5.688-18.57-13.068l-4.27-3.864-2.56-.043-2.56-.087-4.27-5.644-4.91.608-4.83.651-3.63-6.252-3.63-6.208 1.28-2.562 1.35-2.561-8.54 5.297h-6.61l-5.27-9.117h-4.27l1.28 2.301 1.21 2.344-8.39-3.213v3.343l-4.84-1.129c-2.63-.607-6.19-1.085-7.97-1.042-3.7 0-15.22-5.296-17.71-8.205l-1.71-1.997h-14.45l-.64 3.43-.71 3.43h-8.32l-1.5 5.079c-.78 2.779-2.41 5.774-3.62 6.642l-2.28 1.563-4.63-7.076-4.69-7.033-10.67-5.991-3.49-4.776c-1.85-2.648-4.34-4.906-5.41-4.949-1.06-.087-4.62-2.041-7.82-4.342l-5.91-4.168h-5.62l-15.94-10.419-1.35 1.52-1.28 1.519-3.84-2.431-3.77-2.475-5.62.999-5.55.998v-4.124l-4.98 4.385-4.91 4.385-5.69-2.648-5.77-2.649v-4.211h-4.48l-2.2-4.559-2.28-4.558-1.92.868-1.92.825v-6.295l-10.68-3.473v-6.512l-8.68.304-8.68.347-.92-1.824-1-1.823-5.26.087-5.27.043-5.62 5.948-5.69 5.948-2.63-2.605-2.63-2.561-1.36 3.473c-.71 1.91-2.06 4.385-3.13 5.47l-1.85 2.04-5.62-3.733-5.62-3.69v-6.252l-2.77-2.041c-1.57-1.085-4.98-6.251-7.76-11.504-2.7-5.21-5.76-9.856-6.69-10.29l-1.77-.738-2.57 3.43c-3.62 4.993-3.77 5.036-7.39 1.823l-3.28-2.908 1.28 5.296 1.21 5.34-9.25-14.413h-2.77c-1.5 0-4.2.998-5.98 2.257-1.71 1.259-4.12 2.301-5.19 2.301h-2.06l-1.43 3.907c-.78 2.171-3.41 5.861-5.83 8.249l-4.41 4.255-4.41.825-4.49.825-5.4-3.213-3.63 2.605-3.7 2.605-3.13-5.992-4.06-.781-4.12-.781-5.55 6.338-1.85-3.56-1.92-3.603-3.85 2.518-3.84 2.474h-11.38v7.598h-6.41l-.07 1.867c-.07 1.042-2.99 4.254-6.4 7.163l-6.33 5.253v-6.642l-2.99.825-3.06.824-1.21 3.517-1.28 3.56-8.47-1.563-8.53-1.52-3.78 1.173c-2.06.651-4.62 1.042-5.62.868-2.98-.478-12.23 6.165-15.58 11.201-1.71 2.518-4.34 6.121-5.83 8.032l-2.78 3.473-.42 10.549-.36 10.507-4.055 6.468-3.984 6.469-.142-2.648-.214-2.648h-3.984l-2.704 6.078h-11.383l-3.771 4.688-3.7 4.646-.284 6.599-3.558-3.734c-1.992-2.084-5.336-4.776-7.399-6.035-2.064-1.259-3.7-2.908-3.7-3.646s-2.205-3.126-4.838-5.34l-4.767-4.038-4.624 1.476-4.625 1.433-2.419 8.509h-4.056l-2.49-8.726c-3.699-12.851-17.075-28.393-30.166-34.992l-3.914-1.997v3.212l-6.759-.564-6.759-.521-1.778-3.386c-.996-1.867-3.7-5.34-6.048-7.684l-4.269-4.212v-5.774l-2.561-1.823c-1.352-.999-3.202-1.824-3.984-1.824h-1.352l-1.281 6.513c-.711 3.603-2.561 8.292-4.126 10.506l-2.917 3.951-2.633-6.382-2.704-6.382-12.237-8.249-3.415-10.984c-2.846-9.204-6.119-16.107-9.107-19.189-1.21-1.259-6.83 5.253-7.115 8.249l-.213 2.995-2.989-4.775c-1.636-2.649-4.055-5.34-5.407-5.905l-2.49-1.128-3.913 3.647c-2.063 1.997-4.625 3.69-5.55 3.733-.925.043-4.838 1.433-8.609 3.039l-6.972 2.909v2.301l-.071 2.257-1.779-1.997-1.85-2.04-20.277.868-3.984-3.517-4.056-3.516v-6.643l-2.988-2.952-3.059-2.952-1.281.955c-.711.478-1.494 3.039-1.779 5.644l-.498 4.776h-5.336l-.213 3.43-.285 3.386-.925-2.648-.996-2.649h-7.613l.783 4.168.854 4.168-2.135-3.386c-1.138-1.911-2.703-3.43-3.344-3.43h-1.28l.64 3.43.64 3.386-4.233.087c-2.348.086-5.464-.521-6.937-1.303l-2.661-1.433v5.254l-6.403-1.737v1.563c0 .868-1.444 2.605-3.202 3.864l-3.209 2.301-.946-2.041c-.519-1.085-2.817-6.468-5.108-11.895l-4.17-9.899-10.031-11.2-3.693-.912-3.693-.869-3.664-7.38-3.671-7.337-13.504.7813-5.713-7.7277c-5.45-7.3805-8.3-8.052-12.419-12.6105l-4.009-3.279-1.864.1735c-1.437.2171-6.966.3475-9.05 2.1275l-3.785 3.2994v3.7336c0 2.0405-1.438 6.2082-3.202 9.2038l-3.202 5.4269v7.858l-2.127-.9117-2.134-.9551v5.904l-4.789.869-4.788.911-9.342-7.7274-3.258 4.4714-3.252 4.472 1.331.955 1.337.955h-4.973v5.47l-5.336 4.081 4.973-1.997-2.483 4.95c-2.412 4.775-5.122 7.119-8.289 7.163l-1.529.043 2.689-5.296-5.677 4.254c-3.124 2.301-5.685 4.993-5.685 5.948 0 .912-1.487 2.866-3.309 4.298l-3.315 2.605-.342 3.169-.341 3.213h-3.358v5.774l-3.429.912-3.43.955.904 5.513.903 5.471-7.748 1.476v6.859l-3.201 1.867-3.195 1.91v-1.302c0-.695-1.437.173-3.187 1.953l-3.188 3.256-.576 18.278-11.462 8.813c-6.297 4.863-11.455 9.421-11.455 10.202 0 .782-3.351 6.426-7.449 12.547l-7.449 11.158-1.373 6.121-1.381 6.122-2.91-.782-2.902-.825v4.689l-3.152 2.258-3.152 2.214-4.177-1.607c-5.499-2.083-6.588-1.997-6.588.565v2.083l-3.401.956-3.394.911-1.117-3.039-1.124-3.039h-3.763v-5.904l-5.337-4.124-5.329-4.081v-2.518c0-1.389-1.358-3.821-3.009-5.427l-3.003-2.952-9.789 5.036-9.79 4.992-2.142-.955c-1.174-.521-2.206-2.083-2.284-3.516l-.149-2.562-1.658 3.039-1.651 2.996-1.423-5.427c-.782-2.952-2.696-6.599-4.247-8.118l-2.818-2.735-5.684 4.341-5.685 4.385-1.309 4.906c-1.444 5.513-1.608 5.6-7.122 3.473l-3.885-1.476-2.632-7.468-6.396-3.212-6.39-3.256v-4.168l-5.336-4.081-5.336-4.124v-2.084c0-1.172-1.558-3.821-3.465-5.861l-3.472-3.777-2.931 1.736-2.931 1.694v8.943l-3.728-1.65v3.821c0 2.127-.683 4.298-1.509 4.905l-1.508 1.086-2.96-2.909-2.96-2.865-3.265 1.91-3.266 1.954v4.167h-4.404l-3.429-6.599-3.088 3.56h-7.606l-2.846-6.425-2.853-6.469-1.736 5.47-2.483-.564c-1.373-.304-3.472-1.954-4.667-3.647l-2.177-3.082-5.294 2.387c-2.903 1.346-6.005 3.126-6.887 3.951l-1.601 1.563 2.305 19.189-2.646 5.167-2.647 5.209h-3.408v4.776l-7.471-1.65-2.177 1.086c-2.959 1.519-20.22 20.665-20.22 22.488 0 .782-2.398 2.692-5.336 4.255l-5.329 2.865v3.343l-13.867-.347-3.479 1.259-3.479 1.302-3.23 5.731-3.237 5.774-5.842 4.124-5.848 4.168-3.444.217c-1.892.087-5.706.348-8.473.521l-5.038.391-1.921 2.084c-1.053 1.172-2.518 3.82-3.265 5.904-.74 2.084-2.917 4.863-4.838 6.165l-3.501 2.431h-7.001l-2.661-3.56c-3.614-4.775-5.265-4.471-11.497 2.171-2.939 3.126-4.639-16.735-6.951-14.651l-4.2052 3.777c-.6333 10.81-8.0469-1.065-8.3955 1.844l-.6403 5.296-2.8815 3.734c.868-4.993-.2775 4.211 0 0v-20.492l-3.9985 2.692-3.9986 2.735v8.379l-5.0173 3.56-2.8246-1.65-2.8238-1.693-.0655 2.648-3.7239-4.167-4.7441 2.084v2.865c0 1.563-.7201 3.169-1.5994 3.56l-1.6002.695.7357-9.161.0179-.02Z" fill="#303030"/><path d="m55.0452 193.5.7363-5.377-4.944 1.434c-2.7193.794-6.1942 1.459-7.7224 1.459h-9.8902l-1.2963-2.714v.743l-2.3401.307c-1.287.179-5.6719 2.407-9.7444 4.941l-5.7667 5.568-1.6727-1.126-1.6727-1.101-.0654 2.637-2.9206-1.306-2.9205-1.331L0 189.236V0h1920v110.071l-3.2-1.127-3.2-1.101-2.85.973-2.77.973-3.49-1.741c-3.34-1.613-8.25-5.863-14.23-12.2128l-2.63-2.8164-8.54-.9217-3.84 1.613-3.84 1.5875-3.85-3.2261c-2.06-1.7922-3.62-3.7637-3.34-4.3782l.5-1.101h-4.13l-1.35 2.6116-1.42 2.6116-6.12.9729-.29-1.5362c-.07-.845-.07-2.0483.15-2.6627l.35-1.101h-4.98l.93 2.5092.85 2.5346-2.56 1.0241-2.63.9987-2.42-2.714-1.85.4864-1.85.4609-2.56-2.381-2.64-2.3556-5.9 2.9187-5.98 2.9189-10.24-8.654-4.27-.0256-4.27-.0512-4.2 1.1522c-2.28.6401-5.9 1.1777-7.97 1.1777h-3.77v3.559l-1.64-.205c-2.13-.3072-10.17 3.1236-13.44 5.7095l-2.63 2.0228 2.41.3327 2.49.3586v3.2259l-7.39 1.178 5.12 1.331-1.28 3.252-1.21 3.226-18.29-.615-1.21 2.612-1.28 2.637h-8.61l-.28 1.127c-.14.614-.14 1.356-.07 1.689.14.308-2.99 1.485-6.83 2.586l-7.05 2.049-9.96 6.042-2.77-.461-2.85-.435-1.99 1.536-1.92 1.536 1.07 2.458 1.14 2.432h-1.5c-.85 0-3.34-.896-5.55-1.997l-3.98-2.022-.15 3.687-2.56 1.049c-1.42.589-3.55 1.076-4.76 1.076h-2.28l-5.19-6.939-5.13-6.913-5.47-2.022c-6.34-2.305-8.76-2.509-8.76-.794V123l-8.39 3.175-6.19-1.075-6.26-1.075-4.41 1.152-4.41 1.177-1.43 2.689c-.78 1.51-3.34 4.429-5.69 6.529l-4.2 3.84-9.1-4.096-7.48.153-7.47.128-11.52-5.633-1.5 2.996-1.42 2.996-5.83.921v4.839l-2.92 1.69-2.99 1.69-6.12.051-6.12.026-.21 1.357c-.07.742-.35 1.894-.5 2.56l-.35 1.203-3.06-.486-2.99-.486-2.49 1.228-2.42 1.229-3.56-.563c-3.55-.537-10.24-3.354-18.57-7.706l-4.27-2.279-2.56-.026-2.56-.051-4.27-3.328-4.91.358-4.83.384-3.63-3.687-3.63-3.661 1.28-1.511 1.35-1.51-8.54 3.123h-6.61l-5.27-5.376h-4.27l1.28 1.357 1.21 1.382-8.39-1.894v1.971l-4.84-.666c-2.63-.358-6.19-.64-7.97-.614-3.7 0-15.22-3.124-17.71-4.839l-1.71-1.178h-14.45l-.64 2.023-.71 2.022h-8.32l-1.5 2.996c-.78 1.639-2.41 3.405-3.62 3.917l-2.28.922-4.63-4.173-4.69-4.148-10.67-3.533-3.49-2.817c-1.85-1.562-4.34-2.893-5.41-2.918-1.06-.052-4.62-1.204-7.82-2.561l-5.91-2.458h-5.62l-15.94-6.145-1.35.897-1.28.896-3.84-1.434-3.77-1.459-5.62.588-5.55.589v-2.432l-4.98 2.586-4.91 2.586-5.69-1.562-5.77-1.562v-2.483h-4.48l-2.2-2.6886-2.28-2.6884-1.92.5121-1.92.4864v-3.7124l-10.68-2.0482v-3.8405l-8.68.1792-8.68.2048-.92-1.0754-1-1.0753-5.26.0512-5.27.0257-5.62 3.5075-5.69 3.5077-2.63-1.5361-2.63-1.5107-1.36 2.0483c-.71 1.1266-2.06 2.586-3.13 3.2261l-1.85 1.2033-5.62-2.2019-5.62-2.1763v-3.6869l-2.77-1.2033c-1.57-.6401-4.98-3.6868-7.76-6.7848-2.7-3.0724-5.76-5.8121-6.69-6.0681l-1.77-.4352-2.57 2.0226c-3.62 2.9444-3.77 2.97-7.39 1.0754l-3.28-1.7155 1.28 3.1236 1.21 3.1492-9.25-8.5002h-2.77c-1.5 0-4.2.5888-5.98 1.3313-1.71.7425-4.12 1.357-5.19 1.357h-2.06l-1.43 2.3043c-.78 1.2801-3.41 3.4565-5.83 4.8646l-4.41 2.5091-4.41.4865-4.49.4864-5.4-1.8945-3.63 1.5361-3.7 1.5362-3.13-3.5332-4.06-.4609-4.12-.4608-5.55 3.7379-1.85-2.0993-1.92-2.1251-3.85 1.485-3.84 1.4593h-11.38v4.4806h-6.41l-.07 1.1011c-.07.6145-2.99 2.5091-6.4 4.2245l-6.33 3.0979v-3.9172l-2.99.4865-3.06.4864-1.21 2.0738-1.28 2.0995-8.47-.9218-8.53-.8962-3.78.6915c-2.06.3841-4.62.6145-5.62.5121-2.98-.2817-12.23 3.6361-15.58 6.6061-1.71 1.485-4.34 3.61-5.83 4.736l-2.78 2.048-.42 6.222-.36 6.196-4.055 3.815-3.984 3.815-.142-1.562-.214-1.562h-3.984l-2.704 3.585h-11.383l-3.771 2.765-3.7 2.739-.284 3.892-3.558-2.202c-1.992-1.229-5.336-2.816-7.399-3.559-2.064-.742-3.7-1.715-3.7-2.15 0-.436-2.205-1.844-4.838-3.15l-4.767-2.381-4.624.871-4.625.845-2.419 5.018h-4.056l-2.49-5.146c-3.699-7.579-17.075-16.745-30.166-20.637l-3.914-1.177v1.894l-6.759-.333-6.759-.307-1.778-1.997c-.996-1.101-3.7-3.149-6.048-4.532l-4.269-2.483v-3.4052l-2.561-1.0756c-1.352-.5888-3.202-1.0752-3.984-1.0752h-1.352l-1.281 3.8405c-.711 2.1255-2.561 4.8905-4.126 6.1965l-2.917 2.329-2.633-3.763-2.704-3.764-12.237-4.8646-3.415-6.4777c-2.846-5.4279-6.119-9.4988-9.107-11.3167-1.21-.7425-6.83 3.098-7.115 4.8646l-.213 1.7667-2.989-2.8164c-1.636-1.5618-4.055-3.1492-5.407-3.482l-2.49-.6657-3.913 2.1507c-2.063 1.1777-4.625 2.1762-5.55 2.2018-.925.0256-4.838.8451-8.609 1.7924l-6.972 1.7153v1.3569l-.071 1.3315-1.779-1.1778-1.85-1.2034-20.277.5121-3.984-2.0739-4.056-2.0738v-3.9173l-2.988-1.7411-3.059-1.741-1.281.5632c-.711.2817-1.494 1.7923-1.779 3.3285l-.498 2.8164h-5.336l-.213 2.0227-.285 1.997-.925-1.5618-.996-1.5618h-7.613l.783 2.4578.854 2.4582-2.135-1.9972c-1.138-1.1266-2.703-2.0228-3.344-2.0228h-1.28l.64 2.0228.64 1.9972-4.233.051c-2.348.0512-5.464-.3071-6.937-.768l-2.661-.845v3.0981l-6.403-1.0241v.9216c0 .5121-1.444 1.5361-3.202 2.2786l-3.209 1.3571-.946-1.2034c-.519-.6401-2.817-3.8149-5.108-7.0153l-4.17-5.8375-10.031-6.6057-3.693-.5377-3.693-.512-3.664-4.3525-3.671-4.3271-13.504.4607-5.713-4.5573c-5.45-4.3526-8.3-4.7486-12.419-7.4369l-4.009-1.9338-1.864.1023c-1.437.128-6.966.2049-9.05 1.2546l-3.785 1.9459v2.2018c0 1.2034-1.438 3.6614-3.202 5.4281l-3.202 3.2003v4.6342l-2.127-.5376-2.134-.5632v3.4819l-4.789.5122-4.788.5376-9.342-4.5575-3.258 2.6373-3.252 2.637 1.331.5633 1.337.5633h-4.973v3.226l-5.336 2.4068 4.973-1.1778-2.483 2.9188c-2.412 2.8164-5.122 4.1989-8.289 4.2245l-1.529.0257 2.689-3.1236-5.677 2.5089c-3.124 1.357-5.685 2.9446-5.685 3.5078 0 .5377-1.487 1.6898-3.309 2.5347l-3.315 1.5362-.342 1.8691-.341 1.8946h-3.358v3.4053l-3.429.5377-3.43.5633.904 3.2519.903 3.226-7.748.87v4.046l-3.201 1.1-3.195 1.127v-.768c0-.41-1.437.102-3.187 1.152l-3.188 1.92-.291 5.377-.285 5.402-11.462 5.198c-6.297 2.867-11.455 5.556-11.455 6.016 0 .461-3.351 3.79-7.449 7.4l-7.449 6.58-1.373 3.61-1.381 3.61-2.91-.461-2.902-.486v2.765l-3.152 1.331-3.152 1.306-4.177-.947c-5.499-1.229-6.588-1.178-6.588.333v1.229l-3.401.563-3.394.538-1.117-1.793-1.124-1.792h-3.763v-3.482l-5.337-2.432-5.329-2.407v-1.485c0-.819-1.358-2.253-3.009-3.2l-3.003-1.741-9.789 2.97-9.79 2.944-2.142-.563c-1.174-.308-2.206-1.229-2.284-2.074l-.149-1.511-1.658 1.792-1.651 1.767-1.423-3.2c-.782-1.741-2.696-3.892-4.247-4.788l-2.818-1.613-5.684 2.56-5.685 2.586-1.309 2.893c-1.444 3.252-1.608 3.303-7.122 2.049l-3.885-.871-2.632-4.404-6.396-1.895-6.39-1.92v-2.458l-5.336-2.406-5.336-2.433v-1.228c0-.692-1.558-2.254-3.465-3.457l-3.472-2.228-2.931 1.025-2.931.998v5.274l-3.728-.972v2.253c0 1.254-.683 2.534-1.509 2.893l-1.508.64-2.96-1.716-2.96-1.689-3.265 1.126-3.266 1.152v2.458h-4.404l-3.429-3.891-3.088 2.099h-7.606l-2.846-3.789-2.853-3.815-1.736 3.226-2.483-.333c-1.373-.179-3.472-1.152-4.667-2.151l-2.177-1.818-5.294 1.409c-2.903.793-6.005 1.843-6.887 2.33l-1.601.921 2.305 11.317-2.646 3.047-2.647 3.072h-3.408v2.817l-7.471-.973-2.177.64c-2.959.896-20.22 12.187-20.22 13.262 0 .461-2.398 1.588-5.336 2.509l-5.329 1.69v1.972l-13.867-.205-3.479.742-3.479.768-3.23 3.38-3.237 3.405-5.842 2.433-5.848 2.458-3.444.128c-1.892.051-5.706.204-8.473.307l-5.038.23-1.921 1.229c-1.053.691-2.518 2.253-3.265 3.482-.74 1.229-2.917 2.868-4.838 3.636l-3.501 1.434h-7.001l-2.661-2.1c-3.614-2.816-5.265-2.637-11.497 1.28-2.939 1.844-4.639-9.869-6.951-8.64l-4.2052 2.227c-.6333 6.376-8.0469-.628-8.3955 1.088l-.6403 3.124-2.8815 2.201c.868-2.944-.2775 2.484 0 0v-12.084L80.689 187.7l-3.9986 1.613v4.941l-5.0173 2.1-2.8246-.973-2.8238-.999-.0328.794-.0327.768-3.7239-2.458-4.7441 1.229v1.69c0 .922-.7201 1.869-1.5994 2.099l-1.6002.41.7357-5.402.0179-.012Z" fill="#161616"/><path d="m55.0452 169.979.7363-5.376-4.944 1.433c-2.7193.794-6.1942 1.46-7.7224 1.46h-9.8902l-1.2963-2.714v.742l-2.3401.308c-1.287.179-5.6719 2.406-9.7444 4.941l-5.7667 4.455-1.6727-1.127L10.732 173l-.0654 2.638-2.9207-1.306L4.8255 173 0 164.603V0h1920v86.5502l-3.2-1.1265-3.2-1.101-2.85.9729-2.77.973-3.49-1.7411c-3.34-1.613-8.25-5.8632-14.23-12.2128l-2.63-2.8164-8.54-.9217-3.84 1.6131-3.84 1.5874-3.85-3.2261c-2.06-1.7922-3.62-3.7637-3.34-4.3782l.5-1.101h-4.13l-1.35 2.6116-1.42 2.6116-6.12.9729-.29-1.5362c-.07-.845-.07-2.0483.15-2.6627l.35-1.101h-4.98l.93 2.5092.85 2.5347-2.56 1.024-2.63.9987-2.42-2.714-1.85.4864-1.85.4609-2.56-2.381-2.64-2.3556-5.9 2.9187-5.98 2.9189-10.24-8.654-4.27-.0256-4.27-.0512-4.2 1.1522c-2.28.6401-5.9 1.1777-7.97 1.1777h-3.77v3.559l-1.64-.205c-2.13-.3072-10.17 3.1236-13.44 5.7096l-2.63 2.0227 2.41.3327 2.49.3586v3.2259l-7.39 1.1778 5.12 1.3314-1.28 3.2516-1.21 3.226-18.29-.6145-1.21 2.6116-1.28 2.6372h-8.61l-.28 1.1265c-.14.6145-.14 1.3569-.07 1.6897.14.3073-2.99 1.4851-6.83 2.586l-7.05 2.0482-9.96 6.043-2.77-.461-2.85-.436-1.99 1.537-1.92 1.536 1.07 2.458 1.14 2.432h-1.5c-.85 0-3.34-.896-5.55-1.997l-3.98-2.023-.15 3.687-2.56 1.05c-1.42.589-3.55 1.075-4.76 1.075h-2.28l-5.19-6.938-5.13-6.913-5.47-2.0228c-6.34-2.3043-8.76-2.5092-8.76-.7937v1.2032l-8.39 3.1753-6.19-1.076-6.26-1.075-4.41 1.152-4.41 1.178-1.43 2.688c-.78 1.511-3.34 4.43-5.69 6.529l-4.2 3.841-9.1-4.097-7.48.154-7.47.128-11.52-5.633-1.5 2.995-1.42 2.996-5.83.922v4.839l-2.92 1.69-2.99 1.69-6.12.051-6.12.025-.21 1.357c-.07.743-.35 1.895-.5 2.561l-.35 1.203-3.06-.486-2.99-.487-2.49 1.229-2.42 1.229-3.56-.563c-3.55-.538-10.24-3.354-18.57-7.707l-4.27-2.279-2.56-.025-2.56-.051-4.27-3.329-4.91.359-4.83.384-3.63-3.687-3.63-3.661 1.28-1.511 1.35-1.511-8.54 3.124h-6.61l-5.27-5.377h-4.27l1.28 1.357 1.21 1.383-8.39-1.895v1.972l-4.84-.666c-2.63-.359-6.19-.64-7.97-.615-3.7 0-15.22-3.123-17.71-4.8386l-1.71-1.1778h-14.45l-.64 2.0228-.71 2.0226h-8.32l-1.5 2.996c-.78 1.638-2.41 3.405-3.62 3.917l-2.28.922-4.63-4.174-4.69-4.148-10.67-3.5328-3.49-2.8164c-1.85-1.5618-4.34-2.8931-5.41-2.9187-1.06-.0512-4.62-1.2033-7.82-2.5603l-5.91-2.458h-5.62l-15.94-6.1449-1.35.8962-1.28.8962-3.84-1.4337-3.77-1.4595-5.62.5888-5.55.589v-2.4323l-4.98 2.5858-4.91 2.586-5.69-1.5617-5.77-1.562v-2.4834h-4.48l-2.2-2.6883-2.28-2.6885-1.92.5121-1.92.4864v-3.7123l-10.68-2.0483v-3.8405l-8.68.1792-8.68.2048-.92-1.0753-1-1.0754-5.26.0512-5.27.0257-5.62 3.5075-5.69 3.5077-2.63-1.5361-2.63-1.5107-1.36 2.0483c-.71 1.1266-2.06 2.586-3.13 3.2261l-1.85 1.2033-5.62-2.2019-5.62-2.1763v-3.6868l-2.77-1.2034c-1.57-.6401-4.98-3.6868-7.76-6.7848-2.7-3.0724-5.76-5.8121-6.69-6.0681l-1.77-.4352-2.57 2.0226c-3.62 2.9444-3.77 2.9701-7.39 1.0754l-3.28-1.7155 1.28 3.1236 1.21 3.1492-9.25-8.5002h-2.77c-1.5 0-4.2.5888-5.98 1.3313-1.71.7425-4.12 1.357-5.19 1.357h-2.06l-1.43 2.3043c-.78 1.2801-3.41 3.4565-5.83 4.8647l-4.41 2.509-4.41.4865-4.49.4864-5.4-1.8945-3.63 1.5361-3.7 1.5362-3.13-3.5332-4.06-.4609-4.12-.4608-5.55 3.7379-1.85-2.0993-1.92-2.1251-3.85 1.485-3.84 1.4593h-11.38v4.4806h-6.41l-.07 1.1011c-.07.6145-2.99 2.5091-6.4 4.2245l-6.33 3.0979v-3.9172l-2.99.4865-3.06.4864-1.21 2.0739-1.28 2.0994-8.47-.9218-8.53-.8961-3.78.6914c-2.06.3841-4.62.6145-5.62.5121-2.98-.2817-12.23 3.6357-15.58 6.6057-1.71 1.485-4.34 3.61-5.83 4.7365l-2.78 2.0484-.42 6.2214-.36 6.1956-4.055 3.815-3.984 3.815-.142-1.561-.214-1.562h-3.984l-2.704 3.584h-11.383l-3.771 2.765-3.7 2.74-.284 3.892-3.558-2.202c-1.992-1.229-5.336-2.817-7.399-3.559-2.064-.743-3.7-1.716-3.7-2.151 0-.435-2.205-1.843-4.838-3.149l-4.767-2.381-4.624.87-4.625.845-2.419 5.019h-4.056l-2.49-5.147c-3.699-7.5783-17.075-16.7443-30.166-20.636l-3.914-1.1777v1.8945l-6.759-.3328-6.759-.3072-1.778-1.9972c-.996-1.1009-3.7-3.1491-6.048-4.5317l-4.269-2.4835v-3.4051l-2.561-1.0755c-1.352-.5889-3.202-1.0753-3.984-1.0753h-1.352l-1.281 3.8405c-.711 2.1251-2.561 4.8903-4.126 6.1961l-2.917 2.3297-2.633-3.7637-2.704-3.7637-12.237-4.8645-3.415-6.4777c-2.846-5.4279-6.119-9.4988-9.107-11.3167-1.21-.7424-6.83 3.098-7.115 4.8646l-.213 1.7668-2.989-2.8165c-1.636-1.5618-4.055-3.1492-5.407-3.482l-2.49-.6657-3.913 2.1507c-2.063 1.1777-4.625 2.1762-5.55 2.2018-.925.0257-4.838.8451-8.609 1.7924l-6.972 1.7153v1.3569l-.071 1.3315-1.779-1.1778-1.85-1.2034-20.277.5121-3.984-2.0739-4.056-2.0738v-3.9173l-2.988-1.7411-3.059-1.741-1.281.5632c-.711.2817-1.494 1.7923-1.779 3.3285l-.498 2.8164h-5.336l-.213 2.0227-.285 1.997-.925-1.5618-.996-1.5618h-7.613l.783 2.4578.854 2.4582-2.135-1.9972c-1.138-1.1265-2.703-2.0228-3.344-2.0228h-1.28l.64 2.0228.64 1.9972-4.233.051c-2.348.0513-5.464-.3071-6.937-.768l-2.661-.845v3.0981l-6.403-1.0241v.9217c0 .512-1.444 1.536-3.202 2.2785l-3.209 1.3571-.946-1.2034c-.519-.6401-2.817-3.8149-5.108-7.0153l-4.17-5.8375-10.031-6.6057-3.693-.5377-3.693-.512-3.664-4.3525-3.671-4.3271-13.504.4608-5.713-4.5574c-5.45-4.3525-8.3-4.7485-12.419-7.4369l-4.009-1.9338-1.864.1023c-1.437.128-6.966.2049-9.05 1.2546l-3.785 1.9459v2.2018c0 1.2034-1.438 3.6614-3.202 5.4281l-3.202 3.2003v4.6342l-2.127-.5376-2.134-.5632v3.4819l-4.789.5122-4.788.5376-9.342-4.5574-3.258 2.6372-3.252 2.6371 1.331.5632 1.337.5633h-4.973v3.226l-5.336 2.4068 4.973-1.1778-2.483 2.9188c-2.412 2.8164-5.122 4.1989-8.289 4.2245l-1.529.0257 2.689-3.1236-5.677 2.5089c-3.124 1.357-5.685 2.9446-5.685 3.5078 0 .5377-1.487 1.6898-3.309 2.5347l-3.315 1.5362-.342 1.8691-.341 1.8946h-3.358v3.4053l-3.429.5377-3.43.5633.904 3.2516.903 3.2259-7.748.8706v4.0453l-3.201 1.101-3.195 1.1265v-.7681c0-.4096-1.437.1024-3.187 1.1521l-3.188 1.9202-.291 5.3769-.285 5.4024-11.462 5.197c-6.297 2.868-11.455 5.556-11.455 6.017 0 .461-3.351 3.789-7.449 7.399l-7.449 6.581-1.373 3.61-1.381 3.61-2.91-.461-2.902-.487v2.766l-3.152 1.331-3.152 1.306-4.177-.948c-5.499-1.229-6.588-1.177-6.588.333v1.229l-3.401.563-3.393.538-1.118-1.792-1.124-1.792h-3.763v-3.482l-5.337-2.433-5.328-2.406v-1.485c0-.82-1.359-2.254-3.01-3.201l-3.003-1.741-9.789 2.97-9.79 2.945-2.142-.564c-1.174-.307-2.206-1.229-2.284-2.074l-.149-1.51-1.658 1.792-1.651 1.767-1.423-3.201c-.782-1.741-2.696-3.892-4.247-4.788l-2.818-1.613-5.684 2.561-5.685 2.586-1.309 2.893c-1.444 3.251-1.608 3.303-7.122 2.048l-3.885-.87-2.632-4.404-6.396-1.895-6.39-1.92v-2.458l-5.336-2.407-5.336-2.432v-1.229c0-.691-1.558-2.253-3.465-3.456l-3.472-2.228-2.931 1.024-2.931.999v5.274l-3.728-.973v2.253c0 1.255-.683 2.535-1.509 2.893l-1.508.64-2.96-1.715-2.96-1.69-3.265 1.127-3.266 1.152v2.458h-4.404l-3.429-3.892-3.088 2.099h-7.606l-2.846-3.789-2.853-3.815-1.736 3.226-2.483-.333c-1.373-.179-3.472-1.152-4.667-2.15l-2.177-1.818-5.294 1.408c-2.903.794-6.005 1.844-6.887 2.33l-1.601.922 2.305 11.316-2.646 3.047-2.647 3.073h-3.408v2.816l-7.471-.973-2.177.64c-2.959.896-20.22 12.187-20.22 13.263 0 .46-2.398 1.587-5.336 2.509l-5.329 1.69v1.971l-13.867-.205-3.479.743-3.479.768-3.23 3.379-3.237 3.406-5.842 2.432-5.848 2.458-3.444.128c-1.892.051-5.706.205-8.473.307l-5.038.231-1.921 1.229c-1.053.691-2.518 2.253-3.265 3.482-.74 1.229-2.917 2.867-4.838 3.635l-3.501 1.434h-7.001l-2.661-2.099c-3.614-2.817-5.265-2.638-11.497 1.28-2.939 1.843-4.639-9.87-6.951-8.641l-4.2052 2.228c-.6333 6.375-8.0469-.628-8.3955 1.087l-.6403 3.124-2.8815 2.202c.868-2.945-.2775 2.483 0 0v-12.085l-3.9985 1.588-3.9986 1.613v4.941l-5.0173 2.099-2.8246-.973-2.8238-.998-.0328.794-.0327.768-3.7239-2.458-4.7441 1.229v1.69c0 .921-.7201 1.869-1.5994 2.099l-1.6002.41.7357-5.403.0179-.012Z" fill="#000"/></svg>