<svg width="1920" height="380" viewBox="0 0 1920 380" fill="none" xmlns="http://www.w3.org/2000/svg">
<g clip-path="url(#clip0_244_6)">
<path fill-rule="evenodd" clip-rule="evenodd" d="M0 481H1920V106.552L1916.8 104.603L1913.6 102.698L1910.75 104.381L1907.98 106.065L1904.49 103.053C1901.15 100.262 1896.24 92.9082 1890.26 81.9221L1887.63 77.0493L1879.09 75.4546L1875.25 78.2454L1871.41 80.9917L1867.56 75.4102C1865.5 72.3093 1863.94 68.8984 1864.22 67.8352L1864.72 65.9302H1860.59L1859.24 70.449L1857.82 74.9673L1851.7 76.6506L1851.41 73.9927C1851.34 72.5308 1851.34 70.4487 1851.56 69.3857L1851.91 67.481H1846.93L1847.86 71.8223L1848.71 76.2075L1846.15 77.9795L1843.52 79.7073L1841.1 75.0117L1839.25 75.8533L1837.4 76.6506L1834.84 72.531L1832.2 68.4553L1826.3 73.5054L1820.32 78.5557L1810.08 63.5825L1805.81 63.5381L1801.54 63.4497L1797.34 65.4431C1795.06 66.5505 1791.44 67.481 1789.37 67.481H1785.6V73.6382L1783.96 73.2839C1781.83 72.7524 1773.79 78.6885 1770.52 83.1626L1767.89 86.6621L1770.3 87.2378L1772.79 87.8584V93.4397L1765.4 95.4775L1770.52 97.781L1769.24 103.407L1768.03 108.989L1749.74 107.925L1748.53 112.444L1747.25 117.007H1738.64L1738.36 118.956C1738.34 119.1 1738.32 119.249 1738.31 119.399C1738.3 119.464 1738.3 119.528 1738.29 119.593C1738.29 119.679 1738.28 119.765 1738.27 119.851C1738.22 120.663 1738.24 121.46 1738.29 121.879C1738.43 122.411 1735.3 124.449 1731.46 126.354L1724.41 129.897L1714.45 140.352L1711.68 139.555L1708.83 138.802L1706.84 141.459L1704.92 144.117L1705.99 148.37L1707.12 152.578H1705.63C1704.78 152.578 1702.29 151.028 1700.08 149.123L1696.1 145.624L1695.96 152.002L1693.39 153.819C1691.97 154.837 1689.84 155.679 1688.63 155.679H1686.35L1681.16 143.674L1676.03 131.714L1670.56 128.214C1664.22 124.227 1661.8 123.873 1661.8 126.841V128.923L1653.41 134.416L1647.22 132.555L1640.96 130.695L1636.55 132.688L1632.14 134.726L1630.71 139.377C1629.93 141.991 1627.37 147.041 1625.02 150.673L1620.82 157.318L1611.72 150.23L1604.25 150.496L1596.77 150.718L1585.25 140.972L1583.75 146.155L1582.33 151.338L1576.5 152.933V161.305L1573.58 164.229L1570.59 167.152L1564.47 167.241L1558.35 167.286L1558.14 169.633C1558.07 170.918 1557.79 172.911 1557.64 174.063L1557.29 176.145L1554.23 175.303L1551.24 174.462L1548.75 176.588L1546.33 178.714L1542.77 177.74C1539.22 176.81 1532.53 171.937 1524.2 164.406L1519.93 160.463L1517.37 160.419L1514.81 160.331L1510.54 154.572L1505.63 155.192L1500.8 155.856L1497.17 149.478L1493.54 143.143L1494.82 140.529L1496.17 137.916L1487.63 143.32H1481.02L1475.75 134.017H1471.48L1472.76 136.365L1473.97 138.757L1465.58 135.479V138.89L1460.74 137.738C1458.11 137.118 1454.55 136.631 1452.77 136.675C1449.07 136.675 1437.55 131.271 1435.06 128.303L1433.35 126.265H1418.9L1418.26 129.765L1417.55 133.264H1409.23L1407.73 138.447C1406.95 141.282 1405.32 144.339 1404.11 145.225L1401.83 146.82L1397.2 139.599L1392.51 132.422L1381.84 126.309L1378.35 121.437C1376.5 118.734 1374.01 116.431 1372.94 116.386C1371.88 116.298 1368.32 114.304 1365.12 111.957L1359.21 107.704H1353.59L1337.65 97.0723L1336.3 98.6226L1335.02 100.173L1331.18 97.6924L1327.41 95.1675L1321.79 96.1863L1316.24 97.2051V92.9968L1311.26 97.4709L1306.35 101.945L1300.66 99.2432L1294.89 96.5405V92.2437H1290.41L1288.21 87.5923L1285.93 82.9409L1284.01 83.8271L1282.09 84.6687V78.2454L1271.42 74.7017V68.0566L1262.73 68.3667L1254.05 68.7212L1253.13 66.8606L1252.13 65L1246.87 65.0886L1241.6 65.1331L1235.98 71.2017L1230.29 77.2708L1227.66 74.6128L1225.03 71.9993L1223.67 75.5432C1222.96 77.4924 1221.61 80.0173 1220.54 81.1248L1218.69 83.2068L1213.07 79.3972L1207.45 75.6318V69.2529L1204.68 67.1709C1203.11 66.0632 1199.7 60.7917 1196.92 55.4316C1194.22 50.1157 1191.16 45.3757 1190.23 44.9329L1188.46 44.1797L1185.9 47.6792C1182.27 52.7737 1182.12 52.8181 1178.5 49.54L1175.22 46.5718L1176.5 51.9763L1177.71 57.425L1168.46 42.718H1165.69C1164.19 42.718 1161.49 43.7368 1159.71 45.0215C1158 46.3059 1155.59 47.3691 1154.52 47.3691H1152.46L1151.03 51.3562C1150.25 53.571 1147.62 57.3364 1145.2 59.7729L1140.79 64.1143L1136.38 64.9558L1131.89 65.7974L1126.49 62.5195L1122.86 65.1772L1119.16 67.8352L1116.03 61.7222L1111.97 60.9246L1107.85 60.1274L1102.3 66.5947L1100.45 62.9624L1098.53 59.2856L1094.68 61.855L1090.84 64.3799H1079.46V72.1321H1073.05L1072.98 74.0371C1072.91 75.1003 1069.99 78.3784 1066.58 81.3462L1060.25 86.7063V79.9287L1057.26 80.7705L1054.2 81.6121L1052.99 85.2002L1051.71 88.8328L1043.24 87.2378L1034.71 85.6875L1030.93 86.8835C1028.87 87.5481 1026.31 87.9465 1025.31 87.7695C1022.33 87.2822 1013.08 94.0601 1009.73 99.1987C1008.02 101.768 1005.39 105.445 1003.9 107.394L1001.12 110.938L1000.7 121.702L1000.34 132.422L996.285 139.023L992.301 145.624L992.159 142.921L991.945 140.219H987.961L985.257 146.421H973.874L970.103 151.205L966.403 155.945L966.119 162.678L962.561 158.869C960.569 156.742 957.225 153.996 955.162 152.711C953.099 151.427 951.462 149.743 951.462 148.99C951.462 148.237 949.257 145.801 946.624 143.542L941.857 139.421L937.232 140.928L932.608 142.39L930.189 151.072H926.133L923.644 142.168C919.944 129.056 906.568 113.197 893.477 106.463L889.563 104.426V107.704L882.805 107.128L876.045 106.596L874.267 103.141C873.271 101.236 870.567 97.6926 868.219 95.3003L863.95 91.0034V85.1118L861.389 83.2512C860.037 82.2324 858.188 81.3906 857.405 81.3906H856.053L854.772 88.0354C854.061 91.7122 852.211 96.4963 850.646 98.7556L847.729 102.787L845.096 96.2749L842.393 89.7632L830.155 81.3462L826.74 70.1387C823.894 60.7476 820.621 53.7039 817.633 50.5586C816.423 49.2742 810.803 55.9187 810.518 58.9753L810.305 62.0322L807.316 57.1592C805.68 54.457 803.261 51.7104 801.909 51.1348L799.419 49.9829L795.506 53.7041C793.442 55.7419 790.881 57.4695 789.956 57.5137C789.031 57.5579 785.118 58.9756 781.348 60.6147L774.375 63.5825V65.9302L774.304 68.2339L772.525 66.1963L770.675 64.1143L750.398 65L746.414 61.4119L742.358 57.8237V51.0459L739.37 48.0337L736.311 45.0215L735.03 45.9961C734.318 46.4834 733.536 49.0969 733.251 51.7549L732.753 56.6274H727.417L727.204 60.1274L726.919 63.5825L725.994 60.8804L724.998 58.1782H717.385L718.168 62.4307L719.021 66.6836L716.887 63.2283C715.749 61.2791 714.184 59.7285 713.543 59.7285H712.263L712.903 63.2283L713.543 66.6836L709.31 66.772C706.962 66.8606 703.846 66.2405 702.373 65.4431L699.712 63.9812V69.3413L693.309 67.5693V69.1641C693.309 70.05 691.865 71.822 690.107 73.1067L686.898 75.4546L685.952 73.3726C685.433 72.2649 683.135 66.772 680.844 61.2346L676.674 51.1348L666.643 39.7056L662.95 38.7754L659.257 37.8894L655.593 30.3586L651.922 22.8721L638.418 23.6694L632.705 15.7842C629.349 11.1465 626.979 9.10498 624.691 7.13428C623.264 5.90527 621.869 4.70386 620.286 2.91699L616.277 -0.428711L614.413 -0.251709C614.258 -0.227783 614.055 -0.204834 613.814 -0.180664C613.643 -0.163574 613.453 -0.145752 613.247 -0.126953L613.209 -0.123291C611.007 0.0803223 607.053 0.446289 605.363 1.91895L601.578 5.28564V9.09521C601.578 11.1775 600.141 15.4299 598.376 18.4866L595.174 24.0239V32.042L593.047 31.1118L590.913 30.1372V36.1616L586.125 37.0479L581.336 37.978L571.994 30.0928L565.484 39.2183L566.815 40.1929L568.152 41.1675H563.179V46.749L557.843 50.9131L562.816 48.8755L560.333 53.9255C557.921 58.7983 555.21 61.1904 552.044 61.2346L550.515 61.2791L553.204 55.8745L547.526 60.2158C544.403 62.5637 541.842 65.3103 541.842 66.2847C541.842 67.2151 540.355 69.2085 538.533 70.6704L535.218 73.3281L534.876 76.562L534.535 79.8401H531.177V85.7319L527.748 86.6621L524.318 87.6367L525.222 93.2627L526.125 98.8442L518.377 100.35V107.35L515.176 109.254L511.981 111.204V109.875C511.981 109.166 510.544 110.052 508.794 111.868L505.606 115.19L505.03 133.84L493.568 142.833C487.271 147.794 482.113 152.445 482.113 153.243C482.113 154.04 478.762 159.799 474.664 166.045L467.215 177.43L465.842 183.676L464.461 189.922L461.551 189.125L458.648 188.283V193.067L455.497 195.371L452.345 197.63L448.168 195.991C442.668 193.865 441.58 193.953 441.58 196.567V198.693L438.179 199.668L434.786 200.598L433.668 197.497L432.544 194.396H428.781V188.372L423.444 184.163L418.115 179.999V177.43C418.115 176.012 416.756 173.532 415.106 171.893L412.104 168.88L402.313 174.019L392.523 179.113L390.382 178.139C389.208 177.607 388.176 176.012 388.098 174.551L387.949 171.937L386.291 175.038L384.64 178.094L383.217 172.557C382.435 169.545 380.521 165.824 378.97 164.273L376.152 161.482L370.468 165.912L364.783 170.386L363.474 175.392C362.029 181.018 361.866 181.106 356.352 178.936L352.467 177.43L349.835 169.811L343.438 166.532L337.049 163.21V158.957L331.713 154.793L326.377 150.585V148.458C326.377 147.262 324.819 144.56 322.912 142.478L319.44 138.624L316.509 140.396L313.578 142.124V151.25L309.85 149.566V153.464C309.85 155.635 309.167 157.85 308.341 158.47L306.833 159.578L303.873 156.609L300.914 153.686L297.647 155.635L294.382 157.628V161.881H289.978L286.549 155.148L283.461 158.78H275.855L273.009 152.224L270.156 145.624L268.42 151.205L265.937 150.629C264.564 150.319 262.465 148.636 261.27 146.908L259.093 143.763L253.799 146.199C250.896 147.573 247.794 149.389 246.912 150.23L245.311 151.825L247.616 171.405L244.97 176.677L242.323 181.993H238.915V186.865L231.444 185.182L229.268 186.29C226.308 187.84 209.047 207.375 209.047 209.236C209.047 210.033 206.649 211.983 203.711 213.578L198.382 216.501V219.912L184.515 219.558L181.036 220.842L177.557 222.171L174.327 228.019L171.09 233.911L165.249 238.119L159.4 242.372L155.957 242.593C154.59 242.657 152.223 242.813 149.971 242.962C149.104 243.019 148.253 243.075 147.483 243.125L142.445 243.523L140.524 245.65C139.472 246.846 138.006 249.548 137.259 251.674C136.519 253.801 134.342 256.635 132.421 257.964L128.92 260.445H121.919L119.258 256.813C115.644 251.94 113.993 252.25 107.761 259.028C106.192 260.73 104.977 255.749 103.833 251.059L103.831 251.055C102.832 246.96 101.887 243.087 100.81 244.078L96.605 247.932C96.1914 255.138 92.8838 252.465 90.5425 250.573C89.3003 249.569 88.3306 248.785 88.2095 249.814L87.5688 255.218L84.6875 259.028V238.119L80.689 240.865L76.6904 243.656V252.206L71.6729 255.838L68.8486 254.155L66.0244 252.427L65.959 255.129L62.2354 250.877L57.4912 253.003V255.927C57.4912 257.521 56.771 259.16 55.8916 259.559L54.2915 260.268L55.0273 250.921L55.0449 250.9L55.7817 241.597L50.8374 244.078C48.1182 245.451 44.6436 246.603 43.1152 246.603H33.2251L31.9287 241.907V243.192L29.5884 243.724C28.3013 244.034 23.9165 247.888 19.8442 252.273L14.0776 260.291L12.4048 258.342L10.7319 256.437L10.6665 261L7.74609 258.741L4.82568 256.437L0 241.907V481Z" fill="#303030"/>
<path fill-rule="evenodd" clip-rule="evenodd" d="M0 556.429H1920V181.981L1916.8 180.032L1913.6 178.127L1910.75 179.81L1907.98 181.494L1904.49 178.481C1901.15 175.69 1896.24 168.337 1890.26 157.351L1887.63 152.478L1879.09 150.883L1875.25 153.674L1871.41 156.42L1867.56 150.839C1865.5 147.738 1863.94 144.327 1864.22 143.264L1864.72 141.359H1860.59L1859.24 145.878L1857.82 150.396L1851.7 152.079L1851.41 149.421C1851.34 147.959 1851.34 145.877 1851.56 144.814L1851.91 142.91H1846.93L1847.86 147.251L1848.71 151.636L1846.15 153.408L1843.52 155.136L1841.1 150.44L1839.25 151.282L1837.4 152.079L1834.84 147.96L1832.2 143.884L1826.3 148.934L1820.32 153.984L1810.08 139.011L1805.81 138.967L1801.54 138.878L1797.34 140.872C1795.06 141.979 1791.44 142.91 1789.37 142.91H1785.6V149.067L1783.96 148.713C1781.83 148.181 1773.79 154.117 1770.52 158.591L1767.89 162.091L1770.3 162.667L1772.79 163.287V168.868L1765.4 170.906L1770.52 173.21L1769.24 178.836L1768.03 184.417L1749.74 183.354L1748.53 187.873L1747.25 192.435H1738.64L1738.36 194.384C1738.34 194.529 1738.32 194.678 1738.31 194.828C1738.3 194.892 1738.3 194.957 1738.29 195.021C1738.29 195.107 1738.28 195.193 1738.27 195.279C1738.22 196.092 1738.24 196.888 1738.29 197.308C1738.43 197.84 1735.3 199.877 1731.46 201.782L1724.41 205.326L1714.45 215.781L1711.68 214.983L1708.83 214.23L1706.84 216.888L1704.92 219.546L1705.99 223.799L1707.12 228.007H1705.63C1704.78 228.007 1702.29 226.457 1700.08 224.552L1696.1 221.052L1695.96 227.431L1693.39 229.247C1691.97 230.266 1689.84 231.108 1688.63 231.108H1686.35L1681.16 219.103L1676.03 207.143L1670.56 203.643C1664.22 199.656 1661.8 199.302 1661.8 202.27V204.352L1653.41 209.845L1647.22 207.984L1640.96 206.124L1636.55 208.117L1632.14 210.155L1630.71 214.806C1629.93 217.42 1627.37 222.47 1625.02 226.102L1620.82 232.747L1611.72 225.659L1604.25 225.925L1596.77 226.146L1585.25 216.401L1583.75 221.584L1582.33 226.767L1576.5 228.361V236.734L1573.58 239.657L1570.59 242.581L1564.47 242.67L1558.35 242.714L1558.14 245.062C1558.07 246.347 1557.79 248.34 1557.64 249.492L1557.29 251.574L1554.23 250.732L1551.24 249.891L1548.75 252.017L1546.33 254.143L1542.77 253.169C1539.22 252.239 1532.53 247.365 1524.2 239.835L1519.93 235.892L1517.37 235.848L1514.81 235.759L1510.54 230L1505.63 230.621L1500.8 231.285L1497.17 224.906L1493.54 218.571L1494.82 215.958L1496.17 213.344L1487.63 218.749H1481.02L1475.75 209.446H1471.48L1472.76 211.794L1473.97 214.186L1465.58 210.908V214.319L1460.74 213.167C1458.11 212.547 1454.55 212.06 1452.77 212.104C1449.07 212.104 1437.55 206.699 1435.06 203.731L1433.35 201.694H1418.9L1418.26 205.193L1417.55 208.693H1409.23L1407.73 213.876C1406.95 216.711 1405.32 219.768 1404.11 220.653L1401.83 222.248L1397.2 215.027L1392.51 207.851L1381.84 201.738L1378.35 196.865C1376.5 194.163 1374.01 191.859 1372.94 191.815C1371.88 191.727 1368.32 189.733 1365.12 187.385L1359.21 183.133H1353.59L1337.65 172.501L1336.3 174.051L1335.02 175.602L1331.18 173.121L1327.41 170.596L1321.79 171.615L1316.24 172.634V168.426L1311.26 172.9L1306.35 177.374L1300.66 174.672L1294.89 171.969V167.672H1290.41L1288.21 163.021L1285.93 158.37L1284.01 159.256L1282.09 160.097V153.674L1271.42 150.13V143.485L1262.73 143.795L1254.05 144.15L1253.13 142.289L1252.13 140.429L1246.87 140.517L1241.6 140.562L1235.98 146.63L1230.29 152.699L1227.66 150.042L1225.03 147.428L1223.67 150.972C1222.96 152.921 1221.61 155.446 1220.54 156.553L1218.69 158.635L1213.07 154.826L1207.45 151.061V144.682L1204.68 142.6C1203.11 141.492 1199.7 136.22 1196.92 130.86C1194.22 125.544 1191.16 120.804 1190.23 120.362L1188.46 119.608L1185.9 123.108C1182.27 128.202 1182.12 128.247 1178.5 124.969L1175.22 122L1176.5 127.405L1177.71 132.854L1168.46 118.147H1165.69C1164.19 118.147 1161.49 119.166 1159.71 120.45C1158 121.735 1155.59 122.798 1154.52 122.798H1152.46L1151.03 126.785C1150.25 129 1147.62 132.765 1145.2 135.202L1140.79 139.543L1136.38 140.385L1131.89 141.226L1126.49 137.948L1122.86 140.606L1119.16 143.264L1116.03 137.151L1111.97 136.353L1107.85 135.556L1102.3 142.023L1100.45 138.391L1098.53 134.714L1094.68 137.284L1090.84 139.809H1079.46V147.561H1073.05L1072.98 149.466C1072.91 150.529 1069.99 153.807 1066.58 156.775L1060.25 162.135V155.357L1057.26 156.199L1054.2 157.041L1052.99 160.629L1051.71 164.261L1043.24 162.667L1034.71 161.116L1030.93 162.312C1028.87 162.977 1026.31 163.375 1025.31 163.198C1022.33 162.711 1013.08 169.489 1009.73 174.627C1008.02 177.197 1005.39 180.873 1003.9 182.823L1001.12 186.366L1000.7 197.131L1000.34 207.851L996.285 214.452L992.301 221.052L992.159 218.35L991.945 215.648H987.961L985.257 221.85H973.874L970.103 226.634L966.403 231.374L966.119 238.107L962.561 234.297C960.569 232.171 957.225 229.425 955.162 228.14C953.099 226.855 951.462 225.172 951.462 224.419C951.462 223.666 949.257 221.229 946.624 218.97L941.857 214.85L937.232 216.356L932.608 217.818L930.189 226.501H926.133L923.644 217.597C919.944 204.485 906.568 188.625 893.477 181.892L889.563 179.854V183.133L882.805 182.557L876.045 182.025L874.267 178.57C873.271 176.665 870.567 173.121 868.219 170.729L863.95 166.432V160.541L861.389 158.68C860.037 157.661 858.188 156.819 857.405 156.819H856.053L854.772 163.464C854.061 167.141 852.211 171.925 850.646 174.184L847.729 178.215L845.096 171.704L842.393 165.192L830.155 156.775L826.74 145.567C823.894 136.176 820.621 129.133 817.633 125.987C816.423 124.703 810.803 131.347 810.518 134.404L810.305 137.461L807.316 132.588C805.68 129.886 803.261 127.139 801.909 126.563L799.419 125.412L795.506 129.133C793.442 131.171 790.881 132.898 789.956 132.942C789.031 132.987 785.118 134.404 781.348 136.043L774.375 139.011V141.359L774.304 143.663L772.525 141.625L770.675 139.543L750.398 140.429L746.414 136.841L742.358 133.252V126.475L739.37 123.462L736.311 120.45L735.03 121.425C734.318 121.912 733.536 124.526 733.251 127.184L732.753 132.056H727.417L727.204 135.556L726.919 139.011L725.994 136.309L724.998 133.607H717.385L718.168 137.859L719.021 142.112L716.887 138.657C715.749 136.708 714.184 135.157 713.543 135.157H712.263L712.903 138.657L713.543 142.112L709.31 142.201C706.962 142.289 703.846 141.669 702.373 140.872L699.712 139.41V144.77L693.309 142.998V144.593C693.309 145.479 691.865 147.251 690.107 148.535L686.898 150.883L685.952 148.801C685.433 147.694 683.135 142.201 680.844 136.663L676.674 126.563L666.643 115.134L662.95 114.204L659.257 113.318L655.593 105.787L651.922 98.3008L638.418 99.0981L632.705 91.2129C629.349 86.5752 626.979 84.5337 624.691 82.563C623.264 81.334 621.869 80.1326 620.286 78.3457L616.277 75L614.413 75.177C614.258 75.2009 614.055 75.2239 613.814 75.248C613.643 75.2651 613.453 75.283 613.247 75.3018L613.209 75.3054C611.007 75.509 607.053 75.875 605.363 77.3477L601.578 80.7144V84.5239C601.578 86.6062 600.141 90.8586 598.376 93.9153L595.174 99.4526V107.471L593.047 106.541L590.913 105.566V111.59L586.125 112.477L581.336 113.407L571.994 105.521L565.484 114.647L566.815 115.622L568.152 116.596H563.179V122.178L557.843 126.342L562.816 124.304L560.333 129.354C557.921 134.227 555.21 136.619 552.044 136.663L550.515 136.708L553.204 131.303L547.526 135.645C544.403 137.992 541.842 140.739 541.842 141.713C541.842 142.644 540.355 144.637 538.533 146.099L535.218 148.757L534.876 151.991L534.535 155.269H531.177V161.161L527.748 162.091L524.318 163.065L525.222 168.691L526.125 174.273L518.377 175.779V182.778L515.176 184.683L511.981 186.632V185.303C511.981 184.594 510.544 185.48 508.794 187.297L505.606 190.619L505.03 209.269L493.568 218.261C487.271 223.223 482.113 227.874 482.113 228.671C482.113 229.469 478.762 235.228 474.664 241.474L467.215 252.859L465.842 259.105L464.461 265.351L461.551 264.553L458.648 263.712V268.496L455.497 270.799L452.345 273.059L448.168 271.42C442.668 269.293 441.58 269.382 441.58 271.996V274.122L438.179 275.096L434.786 276.027L433.668 272.926L432.544 269.825H428.781V263.8L423.444 259.592L418.115 255.428V252.859C418.115 251.441 416.756 248.96 415.106 247.321L412.104 244.309L402.313 249.448L392.523 254.542L390.382 253.567C389.208 253.036 388.176 251.441 388.098 249.979L387.949 247.365L386.291 250.466L384.64 253.523L383.217 247.986C382.435 244.973 380.521 241.252 378.97 239.702L376.152 236.911L370.468 241.341L364.783 245.815L363.474 250.821C362.029 256.447 361.866 256.535 356.352 254.365L352.467 252.859L349.835 245.239L343.438 241.961L337.049 238.639V234.386L331.713 230.222L326.377 226.014V223.887C326.377 222.691 324.819 219.989 322.912 217.907L319.44 214.053L316.509 215.825L313.578 217.553V226.678L309.85 224.995V228.893C309.85 231.064 309.167 233.279 308.341 233.899L306.833 235.006L303.873 232.038L300.914 229.115L297.647 231.063L294.382 233.057V237.31H289.978L286.549 230.576L283.461 234.209H275.855L273.009 227.653L270.156 221.052L268.42 226.634L265.937 226.058C264.564 225.748 262.465 224.064 261.27 222.337L259.093 219.192L253.799 221.628C250.896 223.001 247.794 224.818 246.912 225.659L245.311 227.254L247.616 246.834L244.97 252.105L242.323 257.421H238.915V262.294L231.444 260.611L229.268 261.718C226.308 263.269 209.047 282.804 209.047 284.665C209.047 285.462 206.649 287.411 203.711 289.006L198.382 291.93V295.341L184.515 294.986L181.036 296.271L177.557 297.6L174.327 303.447L171.09 309.339L165.249 313.547L159.4 317.8L155.957 318.022C154.59 318.086 152.223 318.242 149.971 318.391C149.104 318.448 148.253 318.504 147.483 318.553L142.445 318.952L140.524 321.078C139.472 322.274 138.006 324.977 137.259 327.103C136.519 329.229 134.342 332.064 132.421 333.393L128.92 335.874H121.919L119.258 332.241C115.644 327.369 113.993 327.679 107.761 334.457C106.192 336.159 104.977 331.178 103.833 326.487L103.831 326.484C102.832 322.388 101.887 318.516 100.81 319.507L96.605 323.361C96.1914 330.567 92.8838 327.894 90.5425 326.001C89.3003 324.998 88.3306 324.214 88.2095 325.242L87.5688 330.647L84.6875 334.457V313.547L80.689 316.294L76.6904 319.085V327.634L71.6729 331.267L68.8486 329.583L66.0244 327.856L65.959 330.558L62.2354 326.305L57.4912 328.432V331.355C57.4912 332.95 56.771 334.589 55.8916 334.988L54.2915 335.697L55.0273 326.35L55.0449 326.329L55.7817 317.026L50.8374 319.507C48.1182 320.88 44.6436 322.032 43.1152 322.032H33.2251L31.9287 317.336V318.621L29.5884 319.152C28.3013 319.462 23.9165 323.316 19.8442 327.702L14.0776 335.72L12.4048 333.771L10.7319 331.866L10.6665 336.429L7.74609 334.169L4.82568 331.866L0 317.336V556.429Z" fill="#161616"/>
<path d="M0 585.429H1920V210.981L1916.8 209.032L1913.6 207.127L1910.75 208.81L1907.98 210.494L1904.49 207.481C1901.15 204.69 1896.24 197.337 1890.26 186.351L1887.63 181.478L1879.09 179.883L1875.25 182.674L1871.41 185.42L1867.56 179.839C1865.5 176.738 1863.94 173.327 1864.22 172.264L1864.72 170.359H1860.59L1859.24 174.878L1857.82 179.396L1851.7 181.079L1851.41 178.421C1851.34 176.959 1851.34 174.877 1851.56 173.814L1851.91 171.91H1846.93L1847.86 176.251L1848.71 180.636L1846.15 182.408L1843.52 184.136L1841.1 179.44L1839.25 180.282L1837.4 181.079L1834.84 176.96L1832.2 172.884L1826.3 177.934L1820.32 182.984L1810.08 168.011L1805.81 167.967L1801.54 167.878L1797.34 169.872C1795.06 170.979 1791.44 171.91 1789.37 171.91H1785.6V178.067L1783.96 177.713C1781.83 177.181 1773.79 183.117 1770.52 187.591L1767.89 191.091L1770.3 191.667L1772.79 192.287V197.868L1765.4 199.906L1770.52 202.21L1769.24 207.836L1768.03 213.417L1749.74 212.354L1748.53 216.873L1747.25 221.435H1738.64L1738.36 223.384C1738.34 223.529 1738.32 223.678 1738.31 223.828L1738.29 224.021C1738.29 224.107 1738.28 224.193 1738.27 224.279C1738.22 225.092 1738.24 225.888 1738.29 226.308C1738.43 226.84 1735.3 228.877 1731.46 230.782L1724.41 234.326L1714.45 244.781L1711.68 243.983L1708.83 243.23L1706.84 245.888L1704.92 248.546L1705.99 252.799L1707.12 257.007H1705.63C1704.78 257.007 1702.29 255.457 1700.08 253.552L1696.1 250.052L1695.96 256.431L1693.39 258.247C1691.97 259.266 1689.84 260.108 1688.63 260.108H1686.35L1681.16 248.103L1676.03 236.143L1670.56 232.643C1664.22 228.656 1661.8 228.302 1661.8 231.27V233.352L1653.41 238.845L1647.22 236.984L1640.96 235.124L1636.55 237.117L1632.14 239.155L1630.71 243.806C1629.93 246.42 1627.37 251.47 1625.02 255.102L1620.82 261.747L1611.72 254.659L1604.25 254.925L1596.77 255.146L1585.25 245.401L1583.75 250.584L1582.33 255.767L1576.5 257.361V265.734L1573.58 268.657L1570.59 271.581L1564.47 271.67L1558.35 271.714L1558.14 274.062C1558.09 275.07 1557.9 276.515 1557.75 277.647C1557.71 277.957 1557.67 278.244 1557.64 278.492L1557.29 280.574L1554.23 279.732L1551.24 278.891L1548.75 281.017L1546.33 283.143L1542.77 282.169C1539.22 281.239 1532.53 276.365 1524.2 268.835L1519.93 264.892L1517.37 264.848L1514.81 264.759L1510.54 259L1505.63 259.621L1500.8 260.285L1497.17 253.906L1493.54 247.571L1494.82 244.958L1496.17 242.344L1487.63 247.749H1481.02L1475.75 238.446H1471.48L1472.76 240.794L1473.97 243.186L1465.58 239.908V243.319L1460.74 242.167C1458.11 241.547 1454.55 241.06 1452.77 241.104C1449.07 241.104 1437.55 235.699 1435.06 232.731L1433.35 230.694H1418.9L1418.26 234.193L1417.55 237.693H1409.23L1407.73 242.876C1406.95 245.711 1405.32 248.768 1404.11 249.653L1401.83 251.248L1397.2 244.027L1392.51 236.851L1381.84 230.738L1378.35 225.865C1376.5 223.163 1374.01 220.859 1372.94 220.815C1371.88 220.727 1368.32 218.733 1365.12 216.385L1359.21 212.133H1353.59L1337.65 201.501L1336.3 203.051L1335.02 204.602L1331.18 202.121L1327.41 199.596L1321.79 200.615L1316.24 201.634V197.426L1311.26 201.9L1306.35 206.374L1300.66 203.672L1294.89 200.969V196.672H1290.41L1288.21 192.021L1285.93 187.37L1284.01 188.256L1282.09 189.097V182.674L1271.42 179.13V172.485L1262.73 172.795L1254.05 173.15L1253.13 171.289L1252.13 169.429L1246.87 169.517L1241.6 169.562L1235.98 175.63L1230.29 181.699L1227.66 179.042L1225.03 176.428L1223.67 179.972C1222.96 181.921 1221.61 184.446 1220.54 185.553L1218.69 187.635L1213.07 183.826L1207.45 180.061V173.682L1204.68 171.6C1203.11 170.492 1199.7 165.22 1196.92 159.86C1194.22 154.544 1191.16 149.804 1190.23 149.362L1188.46 148.608L1185.9 152.108C1182.27 157.202 1182.12 157.247 1178.5 153.969L1175.22 151L1176.5 156.405L1177.71 161.854L1168.46 147.147H1165.69C1164.19 147.147 1161.49 148.166 1159.71 149.45C1158 150.735 1155.59 151.798 1154.52 151.798H1152.46L1151.03 155.785C1150.25 158 1147.62 161.765 1145.2 164.202L1140.79 168.543L1136.38 169.385L1131.89 170.226L1126.49 166.948L1122.86 169.606L1119.16 172.264L1116.03 166.151L1111.97 165.353L1107.85 164.556L1102.3 171.023L1100.45 167.391L1098.53 163.714L1094.68 166.284L1090.84 168.809H1079.46V176.561H1073.05L1072.98 178.466C1072.91 179.529 1069.99 182.807 1066.58 185.775L1060.25 191.135V184.357L1057.26 185.199L1054.2 186.041L1052.99 189.629L1051.71 193.261L1043.24 191.667L1034.71 190.116L1030.93 191.312C1028.87 191.977 1026.31 192.375 1025.31 192.198C1022.33 191.711 1013.08 198.489 1009.73 203.627C1008.02 206.197 1005.39 209.873 1003.9 211.823L1001.12 215.366L1000.7 226.131L1000.34 236.851L996.285 243.452L992.301 250.052L992.159 247.35L991.945 244.648H987.961L985.257 250.85H973.874L970.103 255.634L966.403 260.374L966.119 267.107L962.561 263.297C960.569 261.171 957.225 258.425 955.162 257.14C953.099 255.855 951.462 254.172 951.462 253.419C951.462 252.666 949.257 250.229 946.624 247.97L941.857 243.85L937.232 245.356L932.608 246.818L930.189 255.501H926.133L923.644 246.597C919.944 233.485 906.568 217.625 893.477 210.892L889.563 208.854V212.133L882.805 211.557L876.045 211.025L874.267 207.57C873.271 205.665 870.567 202.121 868.219 199.729L863.95 195.432V189.541L861.389 187.68C860.037 186.661 858.188 185.819 857.405 185.819H856.053L854.772 192.464C854.061 196.141 852.211 200.925 850.646 203.184L847.729 207.215L845.096 200.704L842.393 194.192L830.155 185.775L826.74 174.567C823.894 165.176 820.621 158.133 817.633 154.987C816.423 153.703 810.803 160.347 810.518 163.404L810.305 166.461L807.316 161.588C805.68 158.886 803.261 156.139 801.909 155.563L799.419 154.412L795.506 158.133C793.442 160.171 790.881 161.898 789.956 161.942C789.031 161.987 785.118 163.404 781.348 165.043L774.375 168.011V170.359L774.304 172.663L772.525 170.625L770.675 168.543L750.398 169.429L746.414 165.841L742.358 162.252V155.475L739.37 152.462L736.311 149.45L735.03 150.425C734.318 150.912 733.536 153.526 733.251 156.184L732.753 161.056H727.417L727.204 164.556L726.919 168.011L725.994 165.309L724.998 162.607H717.385L718.168 166.859L719.021 171.112L716.887 167.657C715.749 165.708 714.184 164.157 713.543 164.157H712.263L712.903 167.657L713.543 171.112L709.31 171.201C706.962 171.289 703.846 170.669 702.373 169.872L699.712 168.41V173.77L693.309 171.998V173.593C693.309 174.479 691.865 176.251 690.107 177.535L686.898 179.883L685.952 177.801C685.433 176.694 683.135 171.201 680.844 165.663L676.674 155.563L666.643 144.134L662.95 143.204L659.257 142.318L655.593 134.787L651.922 127.301L638.418 128.098L632.705 120.213C629.349 115.576 626.979 113.534 624.692 111.564L624.691 111.563C623.264 110.334 621.869 109.133 620.286 107.346L616.277 104L614.413 104.177C614.258 104.201 614.055 104.224 613.814 104.248C613.643 104.265 613.453 104.283 613.247 104.302L613.209 104.305C611.007 104.509 607.053 104.875 605.363 106.348L601.578 109.714V113.524C601.578 115.606 600.141 119.859 598.376 122.915L595.174 128.453V136.471L593.047 135.541L590.913 134.566V140.59L586.125 141.477L581.336 142.407L571.994 134.521L565.484 143.647L566.815 144.622L568.152 145.596H563.179V151.178L557.843 155.342L562.816 153.304L560.333 158.354C557.921 163.227 555.21 165.619 552.044 165.663L550.515 165.708L553.204 160.303L547.526 164.645C544.403 166.992 541.842 169.739 541.842 170.713C541.842 171.644 540.355 173.637 538.533 175.099L535.218 177.757L534.876 180.991L534.535 184.269H531.177V190.161L527.748 191.091L524.318 192.065L525.222 197.691L526.125 203.273L518.377 204.779V211.778L515.176 213.683L511.981 215.632V214.303C511.981 213.594 510.544 214.48 508.794 216.297L505.606 219.619L505.03 238.269L493.568 247.261C487.271 252.223 482.113 256.874 482.113 257.671C482.113 258.469 478.762 264.228 474.664 270.474L467.215 281.859L465.842 288.105L464.461 294.351L461.551 293.553L458.648 292.712V297.496L455.497 299.799L452.345 302.059L448.168 300.42C442.668 298.293 441.58 298.382 441.58 300.996V303.122L438.179 304.096L434.786 305.027L433.668 301.926L432.544 298.825H428.781V292.8L423.444 288.592L418.115 284.428V281.859C418.115 280.441 416.756 277.96 415.106 276.321L412.104 273.309L402.313 278.448L392.523 283.542L390.382 282.567C389.208 282.036 388.176 280.441 388.098 278.979L387.949 276.365L386.291 279.466L384.64 282.523L383.217 276.986C382.435 273.973 380.521 270.252 378.97 268.702L376.152 265.911L370.468 270.341L364.783 274.815L363.474 279.821C362.029 285.447 361.866 285.535 356.352 283.365L352.467 281.859L349.835 274.239L343.438 270.961L337.049 267.639V263.386L331.713 259.222L326.377 255.014V252.887C326.377 251.691 324.819 248.989 322.912 246.907L319.44 243.053L316.509 244.825L313.578 246.553V255.678L309.85 253.995V257.893C309.85 260.064 309.167 262.279 308.341 262.899L306.833 264.006L303.873 261.038L300.914 258.115L297.647 260.063L294.382 262.057V266.31H289.978L286.549 259.576L283.461 263.209H275.855L273.009 256.653L270.156 250.052L268.42 255.634L265.937 255.058C264.564 254.748 262.465 253.064 261.27 251.337L259.093 248.192L253.799 250.628C250.896 252.001 247.794 253.818 246.912 254.659L245.311 256.254L247.616 275.834L244.97 281.105L242.323 286.421H238.915V291.294L231.444 289.611L229.268 290.718C226.308 292.269 209.047 311.804 209.047 313.665C209.047 314.462 206.649 316.411 203.711 318.006L198.382 320.93V324.341L184.515 323.986L181.036 325.271L177.557 326.6L174.327 332.447L171.09 338.339L165.249 342.547L159.4 346.8L155.957 347.022C154.59 347.086 152.223 347.242 149.971 347.391C149.573 347.417 149.179 347.443 148.794 347.468C148.34 347.498 147.9 347.527 147.483 347.553L142.445 347.952L140.524 350.078C139.472 351.274 138.006 353.977 137.259 356.103C136.519 358.229 134.342 361.064 132.421 362.393L128.92 364.874H121.919L119.258 361.241C115.644 356.369 113.993 356.679 107.761 363.457C106.192 365.159 104.977 360.178 103.833 355.488L103.831 355.484C102.832 351.388 101.887 347.516 100.81 348.507L96.605 352.361C96.1914 359.567 92.8843 356.894 90.543 355.002L90.5417 355.001C89.2999 353.997 88.3305 353.214 88.2095 354.242L87.5688 359.647L84.6875 363.457V342.547L80.689 345.294L76.6904 348.085V356.634L71.6729 360.267L68.8486 358.583L66.0244 356.856L65.959 359.558L62.2354 355.305L57.4912 357.432V360.355C57.4912 361.95 56.771 363.589 55.8916 363.988L54.2915 364.697L55.0273 355.35L55.0449 355.329L55.7817 346.026L50.8374 348.507C48.1182 349.88 44.6436 351.032 43.1152 351.032H33.2251L31.9287 346.336V347.621L29.5884 348.152C28.3013 348.462 23.9165 352.316 19.8442 356.702L14.0776 364.72L12.4048 362.771L10.7319 360.866L10.6665 365.429L7.74609 363.169L4.82568 360.866L0 346.336V585.429Z" fill="black"/>
</g>
<defs>
<clipPath id="clip0_244_6">
<rect width="1920" height="380" fill="white"/>
</clipPath>
</defs>
</svg>
