<svg width="1920" height="323" viewBox="0 0 1920 323" fill="none" xmlns="http://www.w3.org/2000/svg">
<path d="M55.0452 313.102L55.7815 303.985L50.8375 306.416C48.1182 307.762 44.6433 308.89 43.1151 308.89H33.2249L31.9286 304.288V305.547L29.5885 306.068C28.3015 306.372 23.9166 310.149 19.8441 314.447L14.0774 322.305L12.4047 320.395L10.732 318.528L10.6666 323L7.74596 320.786L4.82555 318.528L9.05991e-06 304.288V0.0118438L1920 0V171.635L1916.8 169.725L1913.6 167.858L1910.75 169.507L1907.98 171.157L1904.49 168.205C1901.15 165.47 1896.24 158.263 1890.26 147.496L1887.63 142.721L1879.09 141.158L1875.25 143.893L1871.41 146.585L1867.56 141.114C1865.5 138.075 1863.94 134.733 1864.22 133.691L1864.72 131.824H1860.59L1859.24 136.252L1857.82 140.68L1851.7 142.33L1851.41 139.725C1851.34 138.292 1851.34 136.252 1851.56 135.21L1851.91 133.343H1846.93L1847.86 137.598L1848.71 141.896L1846.15 143.632L1843.52 145.326L1841.1 140.724L1839.25 141.549L1837.4 142.33L1834.84 138.293L1832.2 134.298L1826.3 139.248L1820.32 144.197L1810.08 129.523L1805.81 129.479L1801.54 129.392L1797.34 131.346C1795.06 132.432 1791.44 133.343 1789.37 133.343H1785.6V139.378L1783.96 139.031C1781.83 138.51 1773.79 144.327 1770.52 148.712L1767.89 152.142L1770.3 152.706L1772.79 153.314V158.784L1765.4 160.781L1770.52 163.039L1769.24 168.552L1768.03 174.022L1749.74 172.981L1748.53 177.409L1747.25 181.881H1738.64L1738.36 183.791C1738.22 184.833 1738.22 186.092 1738.29 186.656C1738.43 187.177 1735.3 189.174 1731.46 191.041L1724.41 194.514L1714.45 204.76L1711.68 203.978L1708.83 203.24L1706.84 205.845L1704.92 208.45L1705.99 212.618L1707.13 216.742H1705.63C1704.78 216.742 1702.29 215.223 1700.08 213.356L1696.1 209.926L1695.95 216.178L1693.39 217.958C1691.97 218.956 1689.84 219.781 1688.63 219.781H1686.35L1681.16 208.016L1676.03 196.294L1670.56 192.864C1664.22 188.957 1661.8 188.61 1661.8 191.518V193.559L1653.41 198.942L1647.22 197.119L1640.96 195.296L1636.55 197.249L1632.14 199.246L1630.71 203.805C1629.93 206.366 1627.37 211.315 1625.02 214.875L1620.82 221.388L1611.72 214.441L1604.24 214.702L1596.77 214.919L1585.25 205.368L1583.75 210.447L1582.33 215.527L1576.5 217.09V225.295L1573.58 228.16L1570.59 231.026L1564.47 231.112L1558.35 231.156L1558.14 233.457C1558.07 234.716 1557.79 236.669 1557.64 237.798L1557.29 239.839L1554.23 239.014L1551.24 238.189L1548.75 240.273L1546.33 242.357L1542.77 241.402C1539.22 240.49 1532.53 235.714 1524.2 228.334L1519.93 224.47L1517.37 224.427L1514.81 224.34L1510.54 218.696L1505.63 219.304L1500.8 219.955L1497.17 213.703L1493.54 207.495L1494.82 204.933L1496.17 202.372L1487.63 207.669H1481.02L1475.75 198.552H1471.48L1472.76 200.853L1473.97 203.197L1465.58 199.984V203.327L1460.74 202.198C1458.11 201.591 1454.55 201.113 1452.77 201.156C1449.07 201.156 1437.55 195.86 1435.06 192.951L1433.35 190.954H1418.9L1418.26 194.384L1417.55 197.814H1409.23L1407.73 202.893C1406.95 205.672 1405.32 208.667 1404.11 209.535L1401.83 211.098L1397.2 204.022L1392.51 196.989L1381.84 190.998L1378.35 186.222C1376.5 183.574 1374.01 181.316 1372.94 181.273C1371.88 181.186 1368.32 179.232 1365.12 176.931L1359.21 172.763H1353.59L1337.65 162.344L1336.3 163.864L1335.02 165.383L1331.18 162.952L1327.41 160.477L1321.79 161.476L1316.24 162.474V158.35L1311.26 162.735L1306.35 167.12L1300.66 164.472L1294.89 161.823V157.612H1290.41L1288.21 153.053L1285.93 148.495L1284.01 149.363L1282.09 150.188V143.893L1271.41 140.42V133.908L1262.73 134.212L1254.05 134.559L1253.13 132.735L1252.13 130.912L1246.87 130.999L1241.6 131.042L1235.98 136.99L1230.29 142.938L1227.66 140.333L1225.03 137.772L1223.67 141.245C1222.96 143.155 1221.61 145.63 1220.54 146.715L1218.69 148.755L1213.07 145.022L1207.45 141.332V135.08L1204.68 133.039C1203.11 131.954 1199.7 126.788 1196.92 121.535C1194.22 116.325 1191.16 111.679 1190.23 111.245L1188.46 110.507L1185.89 113.937C1182.27 118.93 1182.12 118.973 1178.5 115.76L1175.22 112.852L1176.5 118.148L1177.71 123.488L1168.46 109.075H1165.69C1164.19 109.075 1161.49 110.073 1159.71 111.332C1158 112.591 1155.59 113.633 1154.52 113.633H1152.46L1151.03 117.54C1150.25 119.711 1147.62 123.401 1145.2 125.789L1140.79 130.044L1136.38 130.869L1131.89 131.694L1126.49 128.481L1122.86 131.086L1119.16 133.691L1116.03 127.699L1111.97 126.918L1107.85 126.137L1102.3 132.475L1100.45 128.915L1098.53 125.312L1094.68 127.83L1090.84 130.304H1079.46V137.902H1073.05L1072.98 139.769C1072.91 140.811 1069.99 144.023 1066.58 146.932L1060.25 152.185V145.543L1057.26 146.368L1054.2 147.192L1052.99 150.709L1051.71 154.269L1043.24 152.706L1034.71 151.186L1030.93 152.359C1028.87 153.01 1026.31 153.401 1025.31 153.227C1022.33 152.749 1013.08 159.392 1009.73 164.428C1008.02 166.946 1005.39 170.549 1003.9 172.46L1001.12 175.933L1000.7 186.482L1000.34 196.989L996.285 203.457L992.301 209.926L992.159 207.278L991.945 204.63H987.961L985.257 210.708H973.874L970.103 215.396L966.403 220.042L966.119 226.641L962.561 222.907C960.569 220.823 957.225 218.131 955.162 216.872C953.098 215.613 951.462 213.964 951.462 213.226C951.462 212.488 949.257 210.1 946.624 207.886L941.857 203.848L937.233 205.324L932.608 206.757L930.189 215.266H926.133L923.643 206.54C919.944 193.689 906.568 178.147 893.477 171.548L889.563 169.551V172.763L882.804 172.199L876.045 171.678L874.267 168.292C873.271 166.425 870.567 162.952 868.219 160.608L863.95 156.396V150.622L861.389 148.799C860.037 147.8 858.187 146.975 857.405 146.975H856.053L854.772 153.488C854.061 157.091 852.211 161.78 850.646 163.994L847.729 167.945L845.096 161.563L842.392 155.181L830.155 146.932L826.74 135.948C823.894 126.744 820.621 119.841 817.633 116.759C816.423 115.5 810.803 122.012 810.518 125.008L810.305 128.003L807.316 123.228C805.68 120.579 803.261 117.888 801.909 117.323L799.419 116.195L795.506 119.842C793.443 121.839 790.881 123.532 789.956 123.575C789.031 123.618 785.118 125.008 781.347 126.614L774.375 129.523V131.824L774.304 134.081L772.525 132.084L770.675 130.044L750.398 130.912L746.414 127.395L742.358 123.879V117.236L739.37 114.284L736.311 111.332L735.03 112.287C734.319 112.765 733.536 115.326 733.251 117.931L732.753 122.707H727.417L727.204 126.137L726.919 129.523L725.994 126.875L724.998 124.226H717.385L718.168 128.394L719.022 132.562L716.887 129.176C715.749 127.265 714.184 125.746 713.543 125.746H712.263L712.903 129.176L713.543 132.562L709.31 132.649C706.962 132.735 703.846 132.128 702.373 131.346L699.712 129.913V135.167L693.309 133.43V134.993C693.309 135.861 691.865 137.598 690.107 138.857L686.898 141.158L685.952 139.117C685.433 138.032 683.135 132.649 680.844 127.222L676.674 117.323L666.643 106.123L662.95 105.211L659.257 104.342L655.593 96.962L651.922 89.625L638.418 90.4063L632.705 82.6786C627.255 75.2981 624.405 74.6266 620.286 70.0681L616.277 66.7891L614.413 66.9626C612.976 67.1797 607.447 67.3101 605.363 69.0901L601.578 72.3895V76.1231C601.578 78.1636 600.14 82.3313 598.376 85.3269L595.174 90.7538V98.6118L593.047 97.7001L590.913 96.745V102.649L586.124 103.518L581.336 104.429L571.994 96.7016L568.736 101.173L565.484 105.645L566.815 106.6L568.152 107.555H563.179V113.025L557.843 117.106L562.816 115.109L560.333 120.059C557.921 124.834 555.211 127.178 552.044 127.222L550.515 127.265L553.204 121.969L547.527 126.223C544.403 128.524 541.842 131.216 541.842 132.171C541.842 133.083 540.355 135.037 538.533 136.469L535.218 139.074L534.876 142.243L534.535 145.456H531.177V151.23L527.748 152.142L524.318 153.097L525.222 158.61L526.125 164.081L518.377 165.557V172.416L515.176 174.283L511.981 176.193V174.891C511.981 174.196 510.544 175.064 508.794 176.844L505.606 180.1L505.03 198.378L493.568 207.191C487.271 212.054 482.113 216.612 482.113 217.393C482.113 218.175 478.762 223.819 474.664 229.94L467.215 241.098L465.842 247.219L464.461 253.341L461.551 252.559L458.649 251.734V256.423L455.497 258.681L452.345 260.895L448.168 259.288C442.669 257.205 441.58 257.291 441.58 259.853V261.936L438.179 262.892L434.785 263.803L433.668 260.764L432.544 257.725H428.781V251.821L423.444 247.697L418.115 243.616V241.098C418.115 239.709 416.757 237.277 415.106 235.671L412.103 232.719L402.314 237.755L392.524 242.747L390.382 241.792C389.208 241.271 388.176 239.709 388.098 238.276L387.949 235.714L386.291 238.753L384.64 241.749L383.217 236.322C382.435 233.37 380.521 229.723 378.97 228.204L376.152 225.469L370.468 229.81L364.783 234.195L363.474 239.101C362.03 244.614 361.866 244.701 356.352 242.574L352.467 241.098L349.835 233.63L343.439 230.418L337.049 227.162V222.994L331.713 218.913L326.377 214.789V212.705C326.377 211.533 324.819 208.884 322.912 206.844L319.44 203.067L316.509 204.803L313.578 206.497V215.44L309.85 213.79V217.611C309.85 219.738 309.167 221.909 308.341 222.516L306.833 223.602L303.873 220.693L300.913 217.828L297.648 219.738L294.382 221.692V225.859H289.978L286.549 219.26L283.461 222.82H275.855L273.009 216.395L270.156 209.926L268.42 215.396L265.937 214.832C264.564 214.528 262.465 212.878 261.27 211.185L259.093 208.103L253.799 210.49C250.896 211.836 247.794 213.616 246.912 214.441L245.311 216.004L247.616 235.193L244.97 240.36L242.323 245.569H238.915V250.345L231.444 248.695L229.267 249.781C226.308 251.3 209.047 270.446 209.047 272.269C209.047 273.051 206.649 274.961 203.711 276.524L198.382 279.389V282.732L184.515 282.385L181.036 283.644L177.557 284.946L174.327 290.677L171.09 296.451L165.248 300.575L159.4 304.743L155.956 304.96C154.064 305.047 150.25 305.308 147.483 305.481L142.445 305.872L140.524 307.956C139.471 309.128 138.006 311.776 137.259 313.86C136.519 315.944 134.342 318.723 132.421 320.025L128.92 322.456H121.919L119.258 318.896C115.644 314.121 113.993 314.425 107.761 321.067C104.822 324.193 103.122 304.332 100.81 306.416L96.6048 310.193C95.9715 321.003 88.5579 309.128 88.2093 312.037L87.569 317.333L84.6875 321.067C85.5555 316.074 84.41 325.278 84.6875 321.067V300.575L80.689 303.267L76.6904 306.002V314.381L71.6731 317.941L68.8485 316.291L66.0247 314.598L65.9592 317.246L62.2353 313.079L57.4912 315.163V318.028C57.4912 319.591 56.7711 321.197 55.8918 321.588L54.2916 322.283L55.0273 313.122L55.0452 313.102Z" fill="#303030"/>
<path d="M55.0452 193.5L55.7815 188.123L50.8375 189.557C48.1182 190.351 44.6433 191.016 43.1151 191.016H33.2249L31.9286 188.302V189.045L29.5885 189.352C28.3015 189.531 23.9166 191.759 19.8441 194.293L14.0774 199.861L12.4047 198.735L10.732 197.634L10.6666 200.271L7.74596 198.965L4.82555 197.634L9.05991e-06 189.236V0H1920V110.071L1916.8 108.944L1913.6 107.843L1910.75 108.816L1907.98 109.789L1904.49 108.048C1901.15 106.435 1896.24 102.185 1890.26 95.8352L1887.63 93.0188L1879.09 92.0971L1875.25 93.7101L1871.41 95.2976L1867.56 92.0715C1865.5 90.2793 1863.94 88.3078 1864.22 87.6933L1864.72 86.5923H1860.59L1859.24 89.2039L1857.82 91.8155L1851.7 92.7884L1851.41 91.2522C1851.34 90.4072 1851.34 89.2039 1851.56 88.5895L1851.91 87.4885H1846.93L1847.86 89.9977L1848.71 92.5323L1846.15 93.5564L1843.52 94.5551L1841.1 91.8411L1839.25 92.3275L1837.4 92.7884L1834.84 90.4074L1832.2 88.0518L1826.3 90.9705L1820.32 93.8894L1810.08 85.2354L1805.81 85.2098L1801.54 85.1586L1797.34 86.3108C1795.06 86.9509 1791.44 87.4885 1789.37 87.4885H1785.6V91.0475L1783.96 90.8425C1781.83 90.5353 1773.79 93.9661 1770.52 96.552L1767.89 98.5748L1770.3 98.9075L1772.79 99.2661V102.492L1765.4 103.67L1770.52 105.001L1769.24 108.253L1768.03 111.479L1749.74 110.864L1748.53 113.476L1747.25 116.113H1738.64L1738.36 117.24C1738.22 117.854 1738.22 118.596 1738.29 118.929C1738.43 119.237 1735.3 120.414 1731.46 121.515L1724.41 123.564L1714.45 129.606L1711.68 129.145L1708.83 128.71L1706.84 130.246L1704.92 131.782L1705.99 134.24L1707.13 136.672H1705.63C1704.78 136.672 1702.29 135.776 1700.08 134.675L1696.1 132.653L1695.95 136.34L1693.39 137.389C1691.97 137.978 1689.84 138.465 1688.63 138.465H1686.35L1681.16 131.526L1676.03 124.613L1670.56 122.591C1664.22 120.286 1661.8 120.082 1661.8 121.797V123L1653.41 126.175L1647.22 125.1L1640.96 124.025L1636.55 125.177L1632.14 126.354L1630.71 129.043C1629.93 130.553 1627.37 133.472 1625.02 135.572L1620.82 139.412L1611.72 135.316L1604.24 135.469L1596.77 135.597L1585.25 129.964L1583.75 132.96L1582.33 135.956L1576.5 136.877V141.716L1573.58 143.406L1570.59 145.096L1564.47 145.147L1558.35 145.173L1558.14 146.53C1558.07 147.272 1557.79 148.424 1557.64 149.09L1557.29 150.293L1554.23 149.807L1551.24 149.321L1548.75 150.549L1546.33 151.778L1542.77 151.215C1539.22 150.678 1532.53 147.861 1524.2 143.509L1519.93 141.23L1517.37 141.204L1514.81 141.153L1510.54 137.825L1505.63 138.183L1500.8 138.567L1497.17 134.88L1493.54 131.219L1494.82 129.708L1496.17 128.198L1487.63 131.321H1481.02L1475.75 125.945H1471.48L1472.76 127.302L1473.97 128.684L1465.58 126.79V128.761L1460.74 128.095C1458.11 127.737 1454.55 127.455 1452.77 127.481C1449.07 127.481 1437.55 124.357 1435.06 122.642L1433.35 121.464H1418.9L1418.26 123.487L1417.55 125.509H1409.23L1407.73 128.505C1406.95 130.144 1405.32 131.91 1404.11 132.422L1401.83 133.344L1397.2 129.171L1392.51 125.023L1381.84 121.49L1378.35 118.673C1376.5 117.111 1374.01 115.78 1372.94 115.755C1371.88 115.703 1368.32 114.551 1365.12 113.194L1359.21 110.736H1353.59L1337.65 104.591L1336.3 105.488L1335.02 106.384L1331.18 104.95L1327.41 103.491L1321.79 104.079L1316.24 104.668V102.236L1311.26 104.822L1306.35 107.408L1300.66 105.846L1294.89 104.284V101.801H1290.41L1288.21 99.1124L1285.93 96.424L1284.01 96.9361L1282.09 97.4225V93.7101L1271.41 91.6619V87.8214L1262.73 88.0006L1254.05 88.2054L1253.13 87.13L1252.13 86.0547L1246.87 86.1059L1241.6 86.1316L1235.98 89.6391L1230.29 93.1468L1227.66 91.6107L1225.03 90.1L1223.67 92.1483C1222.96 93.2749 1221.61 94.7343 1220.54 95.3744L1218.69 96.5777L1213.07 94.3758L1207.45 92.1995V88.5126L1204.68 87.3093C1203.11 86.6692 1199.7 83.6225 1196.92 80.5245C1194.22 77.4521 1191.16 74.7124 1190.23 74.4564L1188.46 74.0212L1185.89 76.0438C1182.27 78.9882 1182.12 79.0138 1178.5 77.1192L1175.22 75.4037L1176.5 78.5273L1177.71 81.6765L1168.46 73.1763H1165.69C1164.19 73.1763 1161.49 73.7651 1159.71 74.5076C1158 75.2501 1155.59 75.8646 1154.52 75.8646H1152.46L1151.03 78.1689C1150.25 79.449 1147.62 81.6254 1145.2 83.0335L1140.79 85.5426L1136.38 86.0291L1131.89 86.5155L1126.49 84.621L1122.86 86.1571L1119.16 87.6933L1116.03 84.1601L1111.97 83.6992L1107.85 83.2384L1102.3 86.9763L1100.45 84.877L1098.53 82.7519L1094.68 84.2369L1090.84 85.6962H1079.46V90.1768H1073.05L1072.98 91.2779C1072.91 91.8924 1069.99 93.787 1066.58 95.5024L1060.25 98.6003V94.6831L1057.26 95.1696L1054.2 95.656L1052.99 97.7298L1051.71 99.8293L1043.24 98.9075L1034.71 98.0113L1030.93 98.7028C1028.87 99.0869 1026.31 99.3173 1025.31 99.2149C1022.33 98.9332 1013.08 102.851 1009.73 105.821C1008.02 107.306 1005.39 109.431 1003.9 110.557L1001.12 112.605L1000.7 118.827L1000.34 125.023L996.285 128.838L992.301 132.653L992.159 131.091L991.945 129.529H987.961L985.257 133.114H973.874L970.103 135.879L966.403 138.618L966.119 142.51L962.561 140.308C960.569 139.079 957.225 137.492 955.162 136.749C953.098 136.007 951.462 135.034 951.462 134.599C951.462 134.163 949.257 132.755 946.624 131.449L941.857 129.068L937.233 129.939L932.608 130.784L930.189 135.802H926.133L923.643 130.656C919.944 123.077 906.568 113.911 893.477 110.019L889.563 108.842V110.736L882.804 110.403L876.045 110.096L874.267 108.099C873.271 106.998 870.567 104.95 868.219 103.567L863.95 101.084V97.6788L861.389 96.6032C860.037 96.0144 858.187 95.528 857.405 95.528H856.053L854.772 99.3685C854.061 101.494 852.211 104.259 850.646 105.565L847.729 107.894L845.096 104.131L842.392 100.367L830.155 95.5024L826.74 89.0247C823.894 83.5968 820.621 79.5259 817.633 77.708C816.423 76.9655 810.803 80.806 810.518 82.5726L810.305 84.3393L807.316 81.5229C805.68 79.9611 803.261 78.3737 801.909 78.0409L799.419 77.3752L795.506 79.5259C793.443 80.7036 790.881 81.7021 789.956 81.7277C789.031 81.7533 785.118 82.5728 781.347 83.5201L774.375 85.2354V86.5923L774.304 87.9238L772.525 86.746L770.675 85.5426L750.398 86.0547L746.414 83.9808L742.358 81.907V77.9897L739.37 76.2486L736.311 74.5076L735.03 75.0708C734.319 75.3525 733.536 76.8631 733.251 78.3993L732.753 81.2157H727.417L727.204 83.2384L726.919 85.2354L725.994 83.6736L724.998 82.1118H717.385L718.168 84.5696L719.022 87.0278L716.887 85.0306C715.749 83.904 714.184 83.0078 713.543 83.0078H712.263L712.903 85.0306L713.543 87.0278L709.31 87.0788C706.962 87.13 703.846 86.7717 702.373 86.3108L699.712 85.4658V88.5639L693.309 87.5398V88.4614C693.309 88.9735 691.865 89.9975 690.107 90.74L686.898 92.0971L685.952 90.8937C685.433 90.2536 683.135 87.0788 680.844 83.8784L676.674 78.0409L666.643 71.4352L662.95 70.8975L659.257 70.3855L655.593 66.033L651.922 61.7059L638.418 62.1666L632.705 57.6093C627.255 53.2567 624.405 52.8607 620.286 50.1724L616.277 48.2386L614.413 48.3409C612.976 48.4689 607.447 48.5458 605.363 49.5955L601.578 51.5414V53.7432C601.578 54.9466 600.14 57.4046 598.376 59.1713L595.174 62.3716V67.0058L593.047 66.4682L590.913 65.905V69.3869L586.124 69.8991L581.336 70.4367L571.994 65.8792L568.736 68.5165L565.484 71.1535L566.815 71.7168L568.152 72.2801H563.179V75.5061L557.843 77.9129L562.816 76.7351L560.333 79.6539C557.921 82.4703 555.211 83.8528 552.044 83.8784L550.515 83.9041L553.204 80.7805L547.527 83.2894C544.403 84.6464 541.842 86.234 541.842 86.7972C541.842 87.3349 540.355 88.487 538.533 89.3319L535.218 90.8681L534.876 92.7372L534.535 94.6318H531.177V98.0371L527.748 98.5748L524.318 99.1381L525.222 102.39L526.125 105.616L518.377 106.486V110.532L515.176 111.632L511.981 112.759V111.991C511.981 111.581 510.544 112.093 508.794 113.143L505.606 115.063L505.315 120.44L505.03 125.842L493.568 131.04C487.271 133.907 482.113 136.596 482.113 137.056C482.113 137.517 478.762 140.846 474.664 144.456L467.215 151.036L465.842 154.646L464.461 158.256L461.551 157.795L458.649 157.309V160.074L455.497 161.405L452.345 162.711L448.168 161.764C442.669 160.535 441.58 160.586 441.58 162.097V163.326L438.179 163.889L434.785 164.427L433.668 162.634L432.544 160.842H428.781V157.36L423.444 154.928L418.115 152.521V151.036C418.115 150.217 416.757 148.783 415.106 147.836L412.103 146.095L402.314 149.065L392.524 152.009L390.382 151.446C389.208 151.138 388.176 150.217 388.098 149.372L387.949 147.861L386.291 149.653L384.64 151.42L383.217 148.22C382.435 146.479 380.521 144.328 378.97 143.432L376.152 141.819L370.468 144.379L364.783 146.965L363.474 149.858C362.03 153.11 361.866 153.161 356.352 151.907L352.467 151.036L349.835 146.632L343.439 144.737L337.049 142.817V140.359L331.713 137.953L326.377 135.52V134.292C326.377 133.6 324.819 132.038 322.912 130.835L319.44 128.607L316.509 129.632L313.578 130.63V135.904L309.85 134.932V137.185C309.85 138.439 309.167 139.719 308.341 140.078L306.833 140.718L303.873 139.002L300.913 137.313L297.648 138.439L294.382 139.591V142.049H289.978L286.549 138.158L283.461 140.257H275.855L273.009 136.468L270.156 132.653L268.42 135.879L265.937 135.546C264.564 135.367 262.465 134.394 261.27 133.395L259.093 131.577L253.799 132.986C250.896 133.779 247.794 134.829 246.912 135.316L245.311 136.237L247.616 147.554L244.97 150.601L242.323 153.673H238.915V156.49L231.444 155.517L229.267 156.157C226.308 157.053 209.047 168.344 209.047 169.419C209.047 169.88 206.649 171.007 203.711 171.928L198.382 173.618V175.59L184.515 175.385L181.036 176.127L177.557 176.895L174.327 180.275L171.09 183.68L165.248 186.113L159.4 188.571L155.956 188.699C154.064 188.75 150.25 188.903 147.483 189.006L142.445 189.236L140.524 190.465C139.471 191.156 138.006 192.718 137.259 193.947C136.519 195.176 134.342 196.815 132.421 197.583L128.92 199.017H121.919L119.258 196.917C115.644 194.101 113.993 194.28 107.761 198.197C104.822 200.041 103.122 188.328 100.81 189.557L96.6048 191.784C95.9715 198.16 88.5579 191.156 88.2093 192.872L87.569 195.996L84.6875 198.197C85.5555 195.253 84.41 200.681 84.6875 198.197V186.113L80.689 187.7L76.6904 189.313V194.254L71.6731 196.354L68.8485 195.381L66.0247 194.382L65.9919 195.176L65.9592 195.944L62.2353 193.486L57.4912 194.715V196.405C57.4912 197.327 56.7711 198.274 55.8918 198.504L54.2916 198.914L55.0273 193.512L55.0452 193.5Z" fill="#161616"/>
<path d="M55.0452 169.979L55.7815 164.603L50.8375 166.036C48.1182 166.83 44.6433 167.496 43.1151 167.496H33.2249L31.9286 164.782V165.524L29.5885 165.832C28.3015 166.011 23.9166 168.238 19.8441 170.773L14.0774 175.228L12.4047 174.101L10.732 173L10.6666 175.638L7.74595 174.332L4.82554 173L0 164.603L9.05991e-06 0H1920V86.5502L1916.8 85.4237L1913.6 84.3227L1910.75 85.2956L1907.98 86.2686L1904.49 84.5275C1901.15 82.9145 1896.24 78.6643 1890.26 72.3147L1887.63 69.4983L1879.09 68.5766L1875.25 70.1897L1871.41 71.7771L1867.56 68.551C1865.5 66.7588 1863.94 64.7873 1864.22 64.1728L1864.72 63.0718H1860.59L1859.24 65.6834L1857.82 68.295L1851.7 69.2679L1851.41 67.7317C1851.34 66.8867 1851.34 65.6834 1851.56 65.069L1851.91 63.968H1846.93L1847.86 66.4772L1848.71 69.0119L1846.15 70.0359L1843.52 71.0346L1841.1 68.3206L1839.25 68.807L1837.4 69.2679L1834.84 66.8869L1832.2 64.5313L1826.3 67.45L1820.32 70.3689L1810.08 61.7149L1805.81 61.6893L1801.54 61.6381L1797.34 62.7903C1795.06 63.4304 1791.44 63.968 1789.37 63.968H1785.6V67.527L1783.96 67.322C1781.83 67.0148 1773.79 70.4456 1770.52 73.0316L1767.89 75.0543L1770.3 75.387L1772.79 75.7456V78.9715L1765.4 80.1493L1770.52 81.4807L1769.24 84.7323L1768.03 87.9583L1749.74 87.3438L1748.53 89.9554L1747.25 92.5926H1738.64L1738.36 93.7191C1738.22 94.3336 1738.22 95.076 1738.29 95.4088C1738.43 95.7161 1735.3 96.8939 1731.46 97.9948L1724.41 100.043L1714.45 106.086L1711.68 105.625L1708.83 105.189L1706.84 106.726L1704.92 108.262L1705.99 110.72L1707.13 113.152H1705.63C1704.78 113.152 1702.29 112.256 1700.08 111.155L1696.1 109.132L1695.95 112.819L1693.39 113.869C1691.97 114.458 1689.84 114.944 1688.63 114.944H1686.35L1681.16 108.006L1676.03 101.093L1670.56 99.0702C1664.22 96.7659 1661.8 96.561 1661.8 98.2765V99.4797L1653.41 102.655L1647.22 101.579L1640.96 100.504L1636.55 101.656L1632.14 102.834L1630.71 105.522C1629.93 107.033 1627.37 109.952 1625.02 112.051L1620.82 115.892L1611.72 111.795L1604.24 111.949L1596.77 112.077L1585.25 106.444L1583.75 109.439L1582.33 112.435L1576.5 113.357V118.196L1573.58 119.886L1570.59 121.576L1564.47 121.627L1558.35 121.652L1558.14 123.009C1558.07 123.752 1557.79 124.904 1557.64 125.57L1557.29 126.773L1554.23 126.287L1551.24 125.8L1548.75 127.029L1546.33 128.258L1542.77 127.695C1539.22 127.157 1532.53 124.341 1524.2 119.988L1519.93 117.709L1517.37 117.684L1514.81 117.633L1510.54 114.304L1505.63 114.663L1500.8 115.047L1497.17 111.36L1493.54 107.699L1494.82 106.188L1496.17 104.677L1487.63 107.801H1481.02L1475.75 102.424H1471.48L1472.76 103.781L1473.97 105.164L1465.58 103.269V105.241L1460.74 104.575C1458.11 104.216 1454.55 103.935 1452.77 103.96C1449.07 103.96 1437.55 100.837 1435.06 99.1214L1433.35 97.9436H1418.9L1418.26 99.9664L1417.55 101.989H1409.23L1407.73 104.985C1406.95 106.623 1405.32 108.39 1404.11 108.902L1401.83 109.824L1397.2 105.65L1392.51 101.502L1381.84 97.9692L1378.35 95.1528C1376.5 93.591 1374.01 92.2597 1372.94 92.2341C1371.88 92.1829 1368.32 91.0308 1365.12 89.6738L1359.21 87.2158H1353.59L1337.65 81.0709L1336.3 81.9671L1335.02 82.8633L1331.18 81.4296L1327.41 79.9701L1321.79 80.5589L1316.24 81.1479V78.7156L1311.26 81.3014L1306.35 83.8874L1300.66 82.3257L1294.89 80.7637V78.2803H1290.41L1288.21 75.592L1285.93 72.9035L1284.01 73.4156L1282.09 73.902V70.1897L1271.41 68.1414V64.3009L1262.73 64.4801L1254.05 64.6849L1253.13 63.6096L1252.13 62.5342L1246.87 62.5854L1241.6 62.6111L1235.98 66.1186L1230.29 69.6263L1227.66 68.0902L1225.03 66.5795L1223.67 68.6278C1222.96 69.7544 1221.61 71.2138 1220.54 71.8539L1218.69 73.0572L1213.07 70.8553L1207.45 68.679V64.9922L1204.68 63.7888C1203.11 63.1487 1199.7 60.102 1196.92 57.004C1194.22 53.9316 1191.16 51.1919 1190.23 50.9359L1188.46 50.5007L1185.89 52.5233C1182.27 55.4677 1182.12 55.4934 1178.5 53.5987L1175.22 51.8832L1176.5 55.0068L1177.71 58.156L1168.46 49.6558H1165.69C1164.19 49.6558 1161.49 50.2446 1159.71 50.9871C1158 51.7296 1155.59 52.3441 1154.52 52.3441H1152.46L1151.03 54.6484C1150.25 55.9285 1147.62 58.1049 1145.2 59.5131L1140.79 62.0221L1136.38 62.5086L1131.89 62.995L1126.49 61.1005L1122.86 62.6366L1119.16 64.1728L1116.03 60.6396L1111.97 60.1787L1107.85 59.7179L1102.3 63.4558L1100.45 61.3565L1098.53 59.2314L1094.68 60.7164L1090.84 62.1757H1079.46V66.6563H1073.05L1072.98 67.7574C1072.91 68.3719 1069.99 70.2665 1066.58 71.9819L1060.25 75.0798V71.1626L1057.26 71.6491L1054.2 72.1355L1052.99 74.2094L1051.71 76.3088L1043.24 75.387L1034.71 74.4909L1030.93 75.1823C1028.87 75.5664 1026.31 75.7968 1025.31 75.6944C1022.33 75.4127 1013.08 79.3301 1009.73 82.3001C1008.02 83.7851 1005.39 85.9101 1003.9 87.0366L1001.12 89.085L1000.7 95.3064L1000.34 101.502L996.285 105.317L992.301 109.132L992.159 107.571L991.945 106.009H987.961L985.257 109.593H973.874L970.103 112.358L966.403 115.098L966.119 118.99L962.561 116.788C960.569 115.559 957.225 113.971 955.162 113.229C953.098 112.486 951.462 111.513 951.462 111.078C951.462 110.643 949.257 109.235 946.624 107.929L941.857 105.548L937.233 106.418L932.608 107.263L930.189 112.282H926.133L923.643 107.135C919.944 99.5567 906.568 90.3907 893.477 86.499L889.563 85.3213V87.2158L882.804 86.883L876.045 86.5758L874.267 84.5786C873.271 83.4777 870.567 81.4295 868.219 80.0469L863.95 77.5634V74.1583L861.389 73.0828C860.037 72.4939 858.187 72.0075 857.405 72.0075H856.053L854.772 75.848C854.061 77.9731 852.211 80.7383 850.646 82.0441L847.729 84.3738L845.096 80.6101L842.392 76.8464L830.155 71.9819L826.74 65.5042C823.894 60.0763 820.621 56.0054 817.633 54.1875C816.423 53.4451 810.803 57.2855 810.518 59.0521L810.305 60.8189L807.316 58.0024C805.68 56.4406 803.261 54.8532 801.909 54.5204L799.419 53.8547L795.506 56.0054C793.443 57.1831 790.881 58.1816 789.956 58.2072C789.031 58.2329 785.118 59.0523 781.347 59.9996L774.375 61.7149V63.0718L774.304 64.4033L772.525 63.2255L770.675 62.0221L750.398 62.5342L746.414 60.4603L742.358 58.3865V54.4692L739.37 52.7281L736.311 50.9871L735.03 51.5503C734.319 51.832 733.536 53.3426 733.251 54.8788L732.753 57.6952H727.417L727.204 59.7179L726.919 61.7149L725.994 60.1531L724.998 58.5913H717.385L718.168 61.0491L719.022 63.5073L716.887 61.5101C715.749 60.3836 714.184 59.4873 713.543 59.4873H712.263L712.903 61.5101L713.543 63.5073L709.31 63.5583C706.962 63.6096 703.846 63.2512 702.373 62.7903L699.712 61.9453V65.0434L693.309 64.0193V64.941C693.309 65.453 691.865 66.477 690.107 67.2195L686.898 68.5766L685.952 67.3732C685.433 66.7331 683.135 63.5583 680.844 60.3579L676.674 54.5204L666.643 47.9147L662.95 47.377L659.257 46.865L655.593 42.5125L651.922 38.1854L638.418 38.6462L632.705 34.0888C627.255 29.7363 624.405 29.3403 620.286 26.6519L616.277 24.7181L614.413 24.8204C612.976 24.9484 607.447 25.0253 605.363 26.075L601.578 28.0209V30.2227C601.578 31.4261 600.14 33.8841 598.376 35.6508L595.174 38.8511V43.4853L593.047 42.9477L590.913 42.3845V45.8664L586.124 46.3786L581.336 46.9162L571.994 42.3588L568.736 44.996L565.484 47.6331L566.815 48.1963L568.152 48.7596H563.179V51.9856L557.843 54.3924L562.816 53.2146L560.333 56.1334C557.921 58.9498 555.211 60.3323 552.044 60.3579L550.515 60.3836L553.204 57.26L547.527 59.7689C544.403 61.1259 541.842 62.7135 541.842 63.2767C541.842 63.8144 540.355 64.9665 538.533 65.8114L535.218 67.3476L534.876 69.2167L534.535 71.1113H531.177V74.5166L527.748 75.0543L524.318 75.6176L525.222 78.8692L526.125 82.0951L518.377 82.9657V87.011L515.176 88.112L511.981 89.2385V88.4704C511.981 88.0608 510.544 88.5728 508.794 89.6225L505.606 91.5427L505.315 96.9196L505.03 102.322L493.568 107.519C487.271 110.387 482.113 113.075 482.113 113.536C482.113 113.997 478.762 117.325 474.664 120.935L467.215 127.516L465.842 131.126L464.461 134.736L461.551 134.275L458.649 133.788V136.554L455.497 137.885L452.345 139.191L448.168 138.243C442.669 137.014 441.58 137.066 441.58 138.576V139.805L438.179 140.368L434.786 140.906L433.668 139.114L432.544 137.322H428.781V133.84L423.444 131.407L418.116 129.001V127.516C418.116 126.696 416.757 125.262 415.106 124.315L412.103 122.574L402.314 125.544L392.524 128.489L390.382 127.925C389.208 127.618 388.176 126.696 388.098 125.851L387.949 124.341L386.291 126.133L384.64 127.9L383.217 124.699C382.435 122.958 380.521 120.807 378.97 119.911L376.152 118.298L370.468 120.859L364.783 123.445L363.474 126.338C362.03 129.589 361.866 129.641 356.352 128.386L352.467 127.516L349.835 123.112L343.439 121.217L337.049 119.297V116.839L331.713 114.432L326.377 112V110.771C326.377 110.08 324.819 108.518 322.912 107.315L319.44 105.087L316.509 106.111L313.578 107.11V112.384L309.85 111.411V113.664C309.85 114.919 309.167 116.199 308.341 116.557L306.833 117.197L303.873 115.482L300.913 113.792L297.648 114.919L294.382 116.071V118.529H289.978L286.549 114.637L283.461 116.736H275.855L273.009 112.947L270.156 109.132L268.42 112.358L265.937 112.025C264.564 111.846 262.465 110.873 261.27 109.875L259.093 108.057L253.799 109.465C250.896 110.259 247.794 111.309 246.912 111.795L245.311 112.717L247.616 124.033L244.97 127.08L242.323 130.153H238.915V132.969L231.444 131.996L229.267 132.636C226.308 133.532 209.047 144.823 209.047 145.899C209.047 146.359 206.649 147.486 203.711 148.408L198.382 150.098V152.069L184.515 151.864L181.036 152.607L177.557 153.375L174.327 156.754L171.09 160.16L165.248 162.592L159.4 165.05L155.956 165.178C154.064 165.229 150.25 165.383 147.483 165.485L142.445 165.716L140.524 166.945C139.471 167.636 138.006 169.198 137.259 170.427C136.519 171.656 134.342 173.294 132.421 174.062L128.92 175.496H121.919L119.258 173.397C115.644 170.58 113.993 170.759 107.761 174.677C104.822 176.52 103.122 164.807 100.81 166.036L96.6048 168.264C95.9715 174.639 88.5579 167.636 88.2093 169.351L87.569 172.475L84.6875 174.677C85.5555 171.732 84.41 177.16 84.6875 174.677V162.592L80.689 164.18L76.6904 165.793V170.734L71.6731 172.833L68.8485 171.86L66.0247 170.862L65.9919 171.656L65.9592 172.424L62.2353 169.966L57.4912 171.195V172.885C57.4912 173.806 56.7711 174.754 55.8918 174.984L54.2916 175.394L55.0273 169.991L55.0452 169.979Z" fill="black"/>
</svg>
