<svg width="705" height="470" viewBox="0 0 705 470" fill="none" xmlns="http://www.w3.org/2000/svg"><path d="M678.051 231.729h-68.395v18.095h68.395v-18.095Z" fill="#F5F5F5"/><path d="M649.136 268.84c-.012-.109-.012-.22 0-.329v-4.503c0-3.12-.075-7.614-.122-13.272l.216.206-68.394.141c.15-.159-.358.348.338-.347v18.104l-.348-.338 48.749.159 14.382.094 3.891.047h1.382c-.106.013-.213.013-.32 0h-.94l-3.816.047-14.307.094-48.983.16h-.339v-18.424l.358-.357 68.394.141h.207v.216c0 5.715-.085 10.246-.113 13.395 0 1.504 0 2.679-.056 3.516v.893c0 .235-.179.404-.179.357ZM104.773 374.374c-.007-.11-.007-.22 0-.329v-.94c0-.846 0-2.04-.057-3.563 0-3.121-.065-7.614-.112-13.273l.206.216-68.394.132c.1598-.15-.3478.348.3478-.348v18.086l-.3384-.338 48.739.15 14.3914.094 3.8912.047h1.016c.118-.013.238-.013.357 0-.106.01-.213.01-.32 0h-4.7562l-14.3162.103-48.974.151h-.3384V356.26l.3478-.348 68.394.132h.217v.216c-.057 5.715-.094 10.246-.123 13.404v4.4a.9418.9418 0 0 1-.178.31Z" fill="#E0E0E0"/><path d="M114.05 356.26c-.01-.116-.01-.232 0-.348v-.94c0-.883 0-2.096-.065-3.628 0-3.168-.076-7.652-.132-13.16l.254.254-41.097.094.3478-.348v18.076l-.329-.329 29.3942.15 8.563.094 2.312.047c.276-.014.552-.014.828 0-.251.018-.502.018-.752 0l-2.238.047-8.46.094-29.619.151h-.329v-18.33l.3478-.348 41.0972.094h.253v.244c-.056 5.575-.103 10.105-.131 13.32 0 1.504 0 2.689-.066 3.572-.038.401-.097.8-.179 1.194ZM370.773 124.657c.948-4.166-1.661-8.312-5.827-9.26-4.166-.948-8.312 1.661-9.26 5.827-.948 4.166 1.661 8.312 5.827 9.26 4.166.948 8.311-1.661 9.26-5.827ZM378.82 81.7048a4.8235 4.8235 0 0 1 2.977-4.4552 4.8232 4.8232 0 0 1 2.786-.2744 4.8185 4.8185 0 0 1 2.469 1.3198 4.8177 4.8177 0 0 1 1.32 2.469c.186.9354.091 1.905-.274 2.7861a4.8223 4.8223 0 0 1-7.865 1.5645 4.8201 4.8201 0 0 1-1.413-3.4098ZM358.215 47.6016a4.4201 4.4201 0 0 1-.048-2.5547 4.4127 4.4127 0 0 1 1.373-2.1545 4.4174 4.4174 0 0 1 2.337-1.0335 4.416 4.416 0 0 1 2.518.433 4.4175 4.4175 0 0 1 1.858 1.7547c.432.7551.632 1.6212.575 2.4896a4.4196 4.4196 0 0 1-.9 2.3916 4.4141 4.4141 0 0 1-2.073 1.4938 4.425 4.425 0 0 1-1.728.2272 4.4308 4.4308 0 0 1-1.682-.4574 4.4368 4.4368 0 0 1-1.375-1.071 4.4483 4.4483 0 0 1-.855-1.5188ZM331.585 208.83c3.977 0 7.201-3.223 7.201-7.2 0-3.977-3.224-7.201-7.201-7.201-3.977 0-7.2 3.224-7.2 7.201 0 3.977 3.223 7.2 7.2 7.2ZM338.466 257.861c0 1.02-.303 2.018-.87 2.867a5.1612 5.1612 0 0 1-2.316 1.901c-.943.39-1.981.492-2.982.293a5.1575 5.1575 0 0 1-2.642-1.412 5.1575 5.1575 0 0 1-1.412-2.642 5.1675 5.1675 0 0 1 .293-2.982 5.1612 5.1612 0 0 1 1.901-2.316c.849-.567 1.846-.87 2.867-.87 1.369 0 2.681.544 3.649 1.512s1.512 2.28 1.512 3.649ZM331.294 317.118a3.6661 3.6661 0 0 1-4.381 3.596 3.665 3.665 0 0 1-1.877-1.003 3.6705 3.6705 0 0 1-1.004-1.877 3.6679 3.6679 0 0 1 1.559-3.764 3.6661 3.6661 0 0 1 2.037-.618c.482-.001.959.093 1.404.277.446.184.85.454 1.191.794.341.341.611.746.794 1.191.184.445.278.923.277 1.404ZM352.989 208.83c3.977 0 7.2-3.223 7.2-7.2 0-3.977-3.223-7.201-7.2-7.201-3.977 0-7.2 3.224-7.2 7.201 0 3.977 3.223 7.2 7.2 7.2ZM383.915 252.7a5.1641 5.1641 0 0 1-.874 2.865 5.1663 5.1663 0 0 1-2.318 1.896c-.943.39-1.981.49-2.981.29a5.1582 5.1582 0 0 1-2.64-1.414 5.1647 5.1647 0 0 1-1.41-2.643 5.169 5.169 0 0 1 .295-2.98 5.165 5.165 0 0 1 1.901-2.315 5.1673 5.1673 0 0 1 2.866-.869c.679 0 1.351.134 1.977.394.627.26 1.196.641 1.676 1.121.479.48.859 1.05 1.118 1.678.259.627.391 1.299.39 1.977ZM363.668 310.021c-.161.707-.528 1.35-1.055 1.849-.527.498-1.189.829-1.904.951-.714.121-1.449.029-2.111-.267a3.6616 3.6616 0 0 1-1.607-1.394 3.666 3.666 0 0 1-.562-2.052 3.657 3.657 0 0 1 .672-2.019 3.6712 3.6712 0 0 1 1.681-1.306 3.661 3.661 0 0 1 2.122-.151c.47.106.914.304 1.307.583.393.278.728.631.985 1.039.256.407.43.862.511 1.337.081.474.068.961-.039 1.43ZM339.613 170.723c6.572 0 11.9-5.328 11.9-11.901 0-6.572-5.328-11.9-11.9-11.9-6.573 0-11.901 5.328-11.901 11.9 0 6.573 5.328 11.901 11.901 11.901ZM345.168 113.544c3.021-3.021 3.021-7.92 0-10.941-3.021-3.021-7.92-3.021-10.941 0-3.021 3.021-3.021 7.92 0 10.941 3.021 3.021 7.92 3.021 10.941 0ZM321.424 122.924a7.75 7.75 0 0 1-1.306 4.304 7.749 7.749 0 0 1-3.478 2.853 7.7413 7.7413 0 0 1-4.476.439 7.7436 7.7436 0 0 1-3.966-2.123 7.7455 7.7455 0 0 1-2.118-3.968 7.75 7.75 0 0 1 .445-4.476 7.7483 7.7483 0 0 1 2.857-3.474 7.7435 7.7435 0 0 1 4.306-1.301c1.016 0 2.023.201 2.962.59.939.389 1.793.96 2.511 1.679.719.72 1.288 1.574 1.677 2.513.388.94.587 1.947.586 2.964ZM297.98 164.133c.002.955-.279 1.889-.808 2.683a4.8319 4.8319 0 0 1-2.164 1.78 4.8226 4.8226 0 0 1-5.26-1.043 4.8266 4.8266 0 0 1-1.32-2.472 4.8216 4.8216 0 0 1 .277-2.788c.366-.881.985-1.635 1.78-2.164.794-.529 1.728-.81 2.683-.808a4.82 4.82 0 0 1 3.4 1.412 4.82 4.82 0 0 1 1.412 3.4ZM318.66 198.237c.278.826.305 1.716.079 2.558a4.4162 4.4162 0 0 1-1.354 2.172c-.655.575-1.466.943-2.33 1.058a4.4209 4.4209 0 0 1-2.526-.412 4.4248 4.4248 0 0 1-1.874-1.744 4.4125 4.4125 0 0 1-.592-2.49c.052-.87.361-1.705.887-2.4a4.4211 4.4211 0 0 1 3.789-1.744 4.437 4.437 0 0 1 1.678.443c.524.257.993.615 1.378 1.055.385.439.679.95.865 1.504Z" fill="#E0E0E0"/><path d="M387.985 87.0157s-12.342 27.8053-17.352 33.7553c0 0-5.744-2.03-9.052-5.424 0 0 14.767-28.1997 17.296-32.9937l9.108 4.6624ZM386.998 75.8863c-.188-.5828-19.514-29.8262-19.514-29.8262l-8.46 5.8374 18.48 30.4936 9.494-6.5048ZM366.732 44.18s12.511-14.1 3.76-18.8846c-8.752-4.7846-11.102 11.7782-10.34 16.544l6.918 2.6132" fill="#F5F5F5"/><path d="M373.641 342.856h-60.893c0-5.114 2.031-10.017 5.646-13.633a19.2799 19.2799 0 0 1 13.633-5.647h22.353a19.2799 19.2799 0 0 1 19.28 19.28h-.019Z" fill="#E0E0E0"/><path d="M340.656 167.818c.188 0 .339 34.996.339 78.161s-.151 78.171-.339 78.171c-.188 0-.338-34.987-.338-78.171 0-43.183.16-78.161.338-78.161Z" fill="#E0E0E0"/><path d="M326.895 162.883s-7.135 11.562-5.161 34.432h37.346s2.313-27.194-6.58-35.071l-25.605.639ZM323.238 207.655h17.155l-1.617 48.373h-11.75l-3.788-48.373ZM326.791 259.346l-3.553 55.526 8.573 1.626 7.679-55.526-12.699-1.626ZM319.497 323.576s.103-6.824 7.012-7.078c6.909-.254 7.67 7.078 7.67 7.078h-14.682ZM348.251 209.526l15.586-7.135 18.677 44.65-10.678 4.898-23.585-42.413ZM372.127 252.7l-15.811 53.336 7.99 3.497 19.844-52.424-12.023-4.409ZM352.5 314.242c.451.752 21.103 8.46 21.103 8.46s4.907-4.362-10.547-11.402l-3.309-1.523a4.8966 4.8966 0 0 0-1.971-.448 4.911 4.911 0 0 0-1.983.387 4.9 4.9 0 0 0-1.659 1.155 4.8837 4.8837 0 0 0-1.051 1.726l-.583 1.645ZM320.54 112.368c-.573.131.479 30.587 7.153 41.886 0 0 24.017-.771 24.6 0 .583.771 8.366-26.499 7.652-41.163.009 0-16.845-6.044-39.405-.723ZM336.398 65.0761s-15.332.3384-12.502 19.834c2.829 19.4959 5.988 19.5049 6.082 20.0129.094.507 19.26-1.335 19.26-1.335s10.5-39.3485-12.84-38.5119ZM288.9 158.86s12.342-27.796 17.352-33.756c0 0 5.744 2.031 9.052 5.424 0 0-14.767 28.2-17.305 33.004l-9.099-4.672ZM289.887 169.952c.188.583 19.514 29.873 19.514 29.873l8.46-5.847-18.48-30.484-9.494 6.458ZM309.74 202.664s-12.512 14.1-3.76 18.885c8.751 4.784 11.101-11.779 10.34-16.554l-6.919-2.604" fill="#F5F5F5"/><path d="M608.396 60.0095h-68.394v18.095h68.394v-18.095Z" fill="#FAFAFA"/><path d="M579.482 97.1584a1.6441 1.6441 0 0 1 0-.329v-.94c0-.846 0-2.0398-.057-3.5626 0-3.1208-.065-7.614-.112-13.2728l.216.2162-68.395.1316c.151-.1504-.357.3478.339-.3478v18.0668l-.348-.3384 48.748.1504 14.382.094h4.907c.122-.0132.245-.0132.367 0a1.1587 1.1587 0 0 1-.32 0h-4.756l-14.307.1034-48.983.1504h-.339v-18.189c.696-.6956.198-.188.357-.3478l68.395.1316h.207v.2068c-.047 5.7152-.085 10.246-.113 13.4044 0 1.504-.047 2.6696-.057 3.5156v.8836c0 .2256-.131.282-.131.2726Z" fill="#E0E0E0"/><path d="M412.03 390.636h-68.394v18.095h68.394v-18.095Z" fill="#F5F5F5"/><path d="M383.106 427.794a2.5798 2.5798 0 0 1 0-.329v-.94c0-.855 0-2.04-.056-3.562 0-3.121-.066-7.614-.113-13.273l.207.207-68.394.141.347-.348v18.076l-.338-.338 48.739.159 14.382.113 3.892.047H383.144h-1.26l-3.816.047-14.316.094-48.974.16h-.339v-18.424l.348-.348 68.395.132h.216v.216c-.057 5.715-.094 10.246-.122 13.395 0 1.504 0 2.679-.047 3.516v.94a.9403.9403 0 0 1-.123.319Z" fill="#E0E0E0"/><path d="M125.528 123.61H57.1333v18.095h68.3947V123.61Z" fill="#F5F5F5"/><path d="M96.6134 160.74a1.4142 1.4142 0 0 1 0-.329v-4.503c0-3.12-.0658-7.614-.1222-13.272l.2162.216-68.5072.169.3478-.348v18.086l-.3384-.339 48.739.151 14.382.094h4.9162c.1187-.013.2385-.013.3572 0a1.895 1.895 0 0 1-.3196 0H91.528l-14.3068.103-48.974.151h-.3478v-18.424l.3478-.348 68.3944.131h.1786v.217c0 5.715-.0846 10.246-.1128 13.404 0 1.504 0 2.67-.0564 3.516v.883c.0088.148-.0038.297-.0376.442ZM274.885 77.8133a1.3926 1.3926 0 0 1 0-.329v-.94c0-.8554 0-2.0398-.047-3.5626 0-3.1208-.066-7.614-.123-13.2728l.217.2068-68.395.141.348-.3478v18.0856l-.338-.3478 48.739.1598 14.382.094h5.273-1.26l-3.816.047-14.307.094-48.974.1598h-.348V59.7277l.358-.3478 68.394.1316h.216v.2162c0 5.7152-.084 10.246-.113 13.4044 0 1.4946 0 2.6696-.056 3.5062v.94a1.773 1.773 0 0 1-.15.235Z" fill="#E0E0E0"/><path d="M284.153 59.7182a1.5557 1.5557 0 0 1 0-.3478v-.94c0-.94 0-2.0962-.066-3.6284 0-3.1678-.075-7.6516-.132-13.16l.245.2444-41.088.1034.348-.3478v18.0762l-.329-.3384 29.394.1598 8.563.094h2.313c.273-.0034.546.0123.817.047a4.967 4.967 0 0 1-.742 0h-2.237l-8.46.0846-29.62.1598h-.338V41.642l.357-.3478 41.087.094h.254v.2538c-.056 5.5742-.103 10.105-.131 13.3104 0 1.504-.047 2.6978-.066 3.572a9.602 9.602 0 0 1-.169 1.1938ZM653.3 412.66c-.007-.11-.007-.22 0-.329v-.94c0-.846 0-2.04-.056-3.563 0-3.12-.066-7.614-.113-13.272l.207.216-68.395.131.348-.347v18.085l-.338-.338 48.739.15 14.391.094h4.907c.119-.013.238-.013.357 0-.103.01-.207.01-.31 0h-4.757l-14.306.104-48.984.15h-.338V394.574l.348-.347 68.394.131h.216v.216c-.056 5.716-.094 10.246-.122 13.405 0 1.504 0 2.669-.047 3.515v.884a.9329.9329 0 0 1-.141.282Z" fill="#E0E0E0"/><path d="M662.588 394.518a1.839 1.839 0 0 1 0-.348v-.94c0-.883 0-2.096-.066-3.628 0-3.168-.075-7.652-.132-13.16l.254.254-41.097.094.348-.348v18.076l-.329-.329 29.394.15 8.563.094 2.313.047c.275-.014.551-.014.827 0-.251.018-.502.018-.752 0l-2.237.047-8.46.085-29.62.16h-.329v-18.405l.348-.348 41.097.094h.254v.254c-.057 5.574-.104 10.105-.132 13.319 0 1.504 0 2.689-.066 3.572-.035.423-.095.844-.178 1.26Z" fill="#E0E0E0"/><path d="M416.971 239.087s-1.495-14.896 5.185-23.839c6.68-8.942 13.177-10.193 32.414-11.783 19.238-1.59 35.262 5.688 40.093 15.711 4.832 10.023 3.969 23.669-.836 35.336l-2.799 6.279s4.077 6.001 4.593 27.943c.517 21.942-13.495 40.433-13.495 40.433l-22.751 6.795H320.748s-9.914-24.259-8.705-36.077c1.679-16.37 13.795-49.43 50.925-49.43 9.391 0 24.049 4.417 29.934 5.07 24.11 2.643 26.189.917 26.189.917l-2.12-17.355Z" fill="#D2D2D2"/><path d="M438.622 272.466s7.726.679 16.825 10.24 11.457 32.999 11.457 32.999l-1.271-.544-27.011-42.695Z" fill="#000" opacity=".3"/><path d="M511.448 330.159c-2.228-.802-7.597-1.461-7.597-1.461s-7.291-2.909-14.95-6.572l-23.233-6.965s-2.284-15.691-9.045-27.555c-10.954-19.218-34.025-18.022-34.025-18.022l-13.883 28.099s12.735 13.442 15.236 24.776c2.5 11.335 0 13.367 0 13.367l73.927.109h18.151a6.707 6.707 0 0 0-1.426-3.574 6.7042 6.7042 0 0 0-3.155-2.202Z" fill="#D2D2D2"/><path d="m471.281 226.964-1.754-.762c-.823-.582-1.727-1.04-2.684-1.359l-3.153-21.46a64.9927 64.9927 0 0 0-10.805.252s4.567 7.631 6.429 21.419c-.831.315-1.617.738-2.338 1.257a10.9046 10.9046 0 0 0-3.91 5.334c-.72 2.14-.759 4.45-.11 6.612a10.9086 10.9086 0 0 0 3.732 5.461 10.9085 10.9085 0 0 0 6.2 2.3c2.254.121 4.492-.447 6.416-1.629a11.1142 11.1142 0 0 0 4.353-4.986c.911-2.065 1.171-4.359.747-6.577a11.1226 11.1226 0 0 0-3.123-5.835v-.027Z" fill="#fff" opacity=".4"/><path d="M454.467 227.532c1.331-5.222-1.824-10.535-7.046-11.866-5.222-1.331-10.535 1.823-11.866 7.045-1.331 5.223 1.823 10.535 7.045 11.867 5.223 1.331 10.535-1.824 11.867-7.046Z" fill="#fff"/><path d="M454.768 225.129a16.7 16.7 0 0 0-.374-2.365 9.6617 9.6617 0 0 0-1.776-3.572 9.6558 9.6558 0 0 0-3.07-2.547 9.6349 9.6349 0 0 0-3.837-1.086 9.6372 9.6372 0 0 0-3.95.559c-.87.312-1.688.754-2.426 1.311a8.9826 8.9826 0 0 0-2.038 2.039 9.5088 9.5088 0 0 0-1.87 5.664c0 2.04.655 4.025 1.87 5.664a9.1472 9.1472 0 0 0 2.038 2.039c.737.557 1.555.997 2.426 1.304a9.676 9.676 0 0 0 7.791-.53 9.6785 9.6785 0 0 0 3.075-2.542 9.6715 9.6715 0 0 0 1.787-3.567c.177-.779.3-1.569.367-2.365.01.052.01.105 0 .157v.469c0 .252-.02.504-.061.754-.035.344-.096.685-.183 1.019a9.187 9.187 0 0 1-1.054 2.63 9.8846 9.8846 0 0 1-2.811 3.06 9.9 9.9 0 0 1-3.821 1.636c-1.74.331-3.538.19-5.205-.408a9.8624 9.8624 0 0 1-4.621-3.452 9.8628 9.8628 0 0 1-1.936-5.868c0-2.113.679-4.17 1.936-5.868a10.0016 10.0016 0 0 1 4.621-3.445 9.844 9.844 0 0 1 5.205-.408c1.511.284 2.932.925 4.145 1.869a9.7585 9.7585 0 0 1 2.487 2.82c.486.819.842 1.708 1.054 2.637.087.334.149.675.183 1.019.041.249.061.502.061.754v.469a.401.401 0 0 1-.013.15Z" fill="#263238"/><path d="M437.005 222.526c1.134-3.398 3.608-5.613 5.531-4.974 1.923.639 2.569 3.914 1.434 7.305-1.135 3.391-3.609 5.62-5.532 4.974-1.923-.645-2.548-3.914-1.433-7.305Z" fill="#393E46"/><path d="M423.414 216.295s3.357-25.578 7.271-28.487c3.914-2.908 18.809 17.668 18.809 17.668l-20.148 9.181-5.932 1.638ZM465.681 205.225s7.339-11.056 8.882-12.599c1.542-1.542 5.076-7.264 8.61-5.171 3.533 2.093 5.619 24.382 5.619 24.382l-15.5-3.078-7.611-3.534Z" fill="#D2D2D2"/><path d="M459.429 226.005a11.0159 11.0159 0 0 1 7.543-.204.841.841 0 0 1 .456.118.836.836 0 0 1 .32.344.824.824 0 0 1 .083.463.8391.8391 0 0 1-.179.435l-2.814 3.268a.8416.8416 0 0 1-.514.28.8432.8432 0 0 1-.573-.124l-4.757-3.071a.833.833 0 0 1-.297-.404.8277.8277 0 0 1-.012-.502.8344.8344 0 0 1 .744-.603Z" fill="#263238"/><path d="M333.483 383.768c-2.073-14.114-14.304-24.43-26.645-31.572-1.957-1.135-3.982-2.256-5.436-3.982-1.454-1.726-2.249-4.227-1.359-6.299 1.196-2.718 4.593-3.554 7.529-4.078l14.202-2.371-3.832-19.89c-8.155 1.236-16.404 2.494-24.042 5.613-7.638 3.119-14.712 8.351-18.43 15.717-3.717 7.367-3.397 17.037 2.039 23.214 4.077 4.614 10.356 6.795 14.563 11.294a18.6535 18.6535 0 0 1 4.56 9.174c.634 3.424.298 6.957-.972 10.199-1.91 4.669-5.817 8.834-5.647 13.856.231 6.884 8.045 11.111 14.95 11.294a28.109 28.109 0 0 0 11.935-2.301 28.1029 28.1029 0 0 0 9.848-7.126 28.1142 28.1142 0 0 0 5.918-10.619 28.0978 28.0978 0 0 0 .88-12.123h-.061Z" fill="#D2D2D2"/><path d="M392.725 270.264a41.2085 41.2085 0 0 1-4.648-2.61 40.0848 40.0848 0 0 1-4.471-2.915 40.974 40.974 0 0 1 4.655 2.61c1.553.867 3.045 1.842 4.464 2.915Z" fill="#263238"/><path d="M441.7 224.653c0 .374-1.169.679-2.616.679s-2.623-.299-2.623-.679c0-.381 1.176-.68 2.623-.68 1.447 0 2.616.306 2.616.68Z" fill="#fff"/><path d="M464.37 230.347c.095.234.153.482.17.734a7.819 7.819 0 0 1 0 2.039 7.8996 7.8996 0 0 1-.897 2.881 7.041 7.041 0 0 1-2.603 2.657c-1.087.65-2.344.96-3.608.89a6.0346 6.0346 0 0 1-2.882-.971 5.2607 5.2607 0 0 1-1.468-1.434 2.1062 2.1062 0 0 1-.339-.68 6.881 6.881 0 0 0 1.93 1.917c.837.508 1.787.802 2.765.856a6.1663 6.1663 0 0 0 3.398-.87 6.9565 6.9565 0 0 0 2.494-2.514c.488-.855.813-1.793.958-2.766.114-.908.141-1.825.082-2.739Z" fill="#263238"/><path d="M475.317 234.384c-.078.22-.186.428-.32.618-.321.548-.687 1.069-1.094 1.557a5.2296 5.2296 0 0 1-2.297 1.658 4.6158 4.6158 0 0 1-3.452-.313 6.0133 6.0133 0 0 1-2.555-2.344c-.48-.82-.829-1.709-1.033-2.637-.139-.617-.227-1.244-.265-1.876a2.4903 2.4903 0 0 1 0-.679c.068 0 .109.992.503 2.514.226.89.586 1.74 1.067 2.521a5.8333 5.8333 0 0 0 2.433 2.202c.985.509 2.127.623 3.194.319.859-.3 1.624-.823 2.215-1.515 1.047-1.196 1.543-2.066 1.604-2.025ZM468.263 239.481c.034 0-.183.428-.727.924a4.8634 4.8634 0 0 1-2.59 1.189 4.8613 4.8613 0 0 1-2.812-.469 2.305 2.305 0 0 1-.945-.68c.034-.047.395.218 1.047.476.841.347 1.758.466 2.659.347a5.1872 5.1872 0 0 0 2.478-1.026c.585-.449.89-.802.89-.761Z" fill="#263238"/><path d="M430.243 212.802s0-21.684 2.141-22.017c2.14-.333 13.387 14.95 13.387 14.95s-8.896 8.868-15.528 7.067Z" fill="#000" opacity=".3"/><path d="M446.763 205.558c-2.821-.68-6.483-.163-9.29.571 1.138.251 2.164.861 2.929 1.739-4.56 1.536-9.33 3.201-12.578 6.748l3.35.755 12.694-1.924 2.895-7.889Z" fill="#D2D2D2"/><path d="M468.093 206.101s12.585-17.668 14.522-16.696c1.937.972 2.229 19.945 2.229 19.945s-12.395 2.032-16.751-3.249Z" fill="#000" opacity=".3"/><path d="M485.748 209.751c-1.896-2.188-5.185-3.894-7.897-4.92a5.3743 5.3743 0 0 1 1.36 3.099c-4.601-1.4-9.446-2.814-14.155-1.808l2.29 2.562 11.45 5.803 6.952-4.736Z" fill="#D2D2D2"/><path d="M489.403 225.918c1.231-5.247-2.025-10.498-7.272-11.729-5.247-1.23-10.498 2.025-11.729 7.272-1.231 5.247 2.025 10.498 7.272 11.729 5.247 1.231 10.498-2.025 11.729-7.272Z" fill="#fff"/><path d="M489.655 223.695c-.067-.796-.189-1.586-.367-2.365a9.755 9.755 0 0 0-3.561-5.294 9.6027 9.6027 0 0 0-4.373-1.837 9.6177 9.6177 0 0 0-4.719.478 9.6894 9.6894 0 0 0-4.451 3.344 9.5133 9.5133 0 0 0-1.87 5.664c0 2.039.656 4.025 1.87 5.664a9.1472 9.1472 0 0 0 2.039 2.038c.736.558 1.555.998 2.426 1.305 1.612.59 3.352.74 5.042.435a9.5633 9.5633 0 0 0 4.077-1.787c1.746-1.314 3-3.175 3.561-5.287.177-.779.3-1.569.367-2.365.01.052.01.105 0 .156v.462c0 .255-.02.51-.061.762-.036.343-.097.684-.184 1.019a9.1846 9.1846 0 0 1-1.053 2.63 9.822 9.822 0 0 1-5.143 4.287c-2.163.782-4.533.78-6.695-.006a9.8812 9.8812 0 0 1-4.621-3.445 9.8628 9.8628 0 0 1-1.936-5.868c0-2.113.679-4.17 1.936-5.868a9.9948 9.9948 0 0 1 4.621-3.445 9.92 9.92 0 0 1 5.206-.415c1.375.269 2.677.826 3.82 1.636a9.8758 9.8758 0 0 1 2.812 3.06c.486.819.841 1.708 1.053 2.636.088.335.149.676.184 1.02.04.249.061.501.061.754v.462a.4334.4334 0 0 1-.041.17Z" fill="#263238"/><path d="M491.932 323.261a23.4309 23.4309 0 0 1-13.795 8.834c-.68.143-1.495.191-1.869-.38-.374-.571 0-1.359.408-1.896 2.039-2.976 3.914-6.075 6.116-8.936l.448-.584 5.634 1.828 3.058 1.134Z" fill="#fff" opacity=".4"/><path d="M471.749 221.894c.877-3.466 3.181-5.871 5.151-5.375 1.971.496 2.854 3.71 1.978 7.176-.877 3.466-3.181 5.878-5.151 5.375-1.971-.503-2.847-3.703-1.978-7.176Z" fill="#393E46"/><path d="M473.23 224.143c1.445 0 2.617-.301 2.617-.672 0-.372-1.172-.673-2.617-.673-1.444 0-2.616.301-2.616.673 0 .371 1.172.672 2.616.672Z" fill="#fff"/><path d="M527.139 290.8c-1.842-.279-8.8.577-8.8.577l-16.615 3.119-14.27.34-3.935 23.438s14.522-2.44 18.599-3.847c4.077-1.406 18.789-14.549 19.415-14.549.625 0 6.279-1.59 7.223-1.59l1.053-.462c.301-.138.539-.386.665-.692.126-.306.131-.649.015-.959-.632-1.842-2.011-5.171-3.35-5.375Z" fill="#D2D2D2"/><path d="M501.724 294.496s-2.963 16.588-7.761 21.861l-4.817.911 5.286-22.602 7.292-.17Z" fill="#000" opacity=".3"/><path d="M488.874 317.71c4.9-7.747 8.95-20.196 7.183-29.221l1.814 4.757a42.449 42.449 0 0 0-2.29-15.364l3.473 4.457c-1.455-6.992-4.2-15.541-8.053-21.527" fill="#D2D2D2"/><path d="M491.001 260.777c.094.11.178.228.251.354.15.238.394.584.68 1.06a44.643 44.643 0 0 1 2.195 4.206 77.282 77.282 0 0 1 5.096 15.874l.143.68-.428-.544c-1.108-1.427-2.277-2.915-3.479-4.451l.299-.163a42.319 42.319 0 0 1 2.235 11.104c.101 1.438.123 2.881.068 4.322v.856l-.312-.802c-.619-1.617-1.224-3.201-1.815-4.757l.333-.095c.375 2.112.493 4.261.354 6.401a37.3551 37.3551 0 0 1-.782 5.817 51.9046 51.9046 0 0 1-2.881 9.303 48.5002 48.5002 0 0 1-2.813 5.776c-.361.68-.68 1.135-.897 1.475l-.245.374a.5166.5166 0 0 1-.088.115s0-.047.061-.136l.217-.387c.19-.347.503-.829.843-1.502a51.4526 51.4526 0 0 0 2.718-5.796 52.5562 52.5562 0 0 0 2.793-9.283c.397-1.903.647-3.834.747-5.776a26.292 26.292 0 0 0-.367-6.313l.327-.095c.591 1.529 1.202 3.105 1.821 4.723l-.34.061c.054-1.427.034-2.856-.061-4.281a42.9162 42.9162 0 0 0-2.229-10.995l-.333-.965.625.808 3.459 4.465-.279.129a80.3665 80.3665 0 0 0-4.96-15.86c-.823-1.855-1.563-3.282-2.107-4.234-.258-.482-.482-.836-.625-1.087a3.4557 3.4557 0 0 1-.224-.381Z" fill="#263238"/><path d="M367.392 335.452a24.904 24.904 0 0 1 10.744-9.323c3.636-1.057 7.529-.8 10.995.727 6 2.548 6.632 6.361 7.169 9.004l-28.908-.408Z" fill="#fff" opacity=".4"/><path d="M382.39 328.942a8.4024 8.4024 0 0 1 2.004-.081c1.652-.003 3.282.384 4.757 1.128.803.431 1.5 1.037 2.039 1.773.427.61.715 1.306.842 2.039.083.494.067 1-.047 1.488a1.208 1.208 0 0 1-.197.51c.106-.648.106-1.309 0-1.957a5.0505 5.0505 0 0 0-.863-1.903 6.1624 6.1624 0 0 0-1.957-1.665 11.4449 11.4449 0 0 0-4.58-1.182c-.669-.01-1.336-.06-1.998-.15ZM285.643 342.452c-.039.129-.096.253-.169.367l-.551.999-2.038 3.581-.198.333-.067-.381a9.6055 9.6055 0 0 1 .863-5.912l.285.19-1.556 1.74-2.793 3.106-.34.373.041-.503c.198-2.355.814-4.656 1.821-6.795.291-.615.617-1.211.979-1.787.114-.214.256-.413.421-.591-.086.237-.195.464-.326.679-.218.415-.537 1.019-.877 1.815a20.9811 20.9811 0 0 0-1.678 6.713l-.293-.122 2.78-3.119 1.529-1.699.883-.985-.598 1.182a9.5187 9.5187 0 0 0-.897 5.708l-.258-.047 2.174-3.52.619-.958c.062-.135.144-.259.244-.367ZM313.103 378.026a3.7674 3.7674 0 0 1-.625-.415l-1.665-1.25c-1.4-1.067-3.35-2.576-5.558-4.302l.271-.204c.259.605.531 1.237.802 1.883l1.665 3.941.15.347-.354-.129a7.8341 7.8341 0 0 1-4.152-3.575c-.258-.464-.46-.957-.604-1.468-.061-.18-.098-.367-.109-.557.248.663.546 1.305.89 1.923a7.8272 7.8272 0 0 0 4.077 3.398l-.204.224-1.692-3.928-.822-1.923-.265-.632.537.428c2.195 1.74 4.118 3.283 5.484 4.397l1.597 1.325c.213.148.407.321.577.517Z" fill="#263238"/><path d="M335.753 258.148c-8.155 3.397-22.167 18.483-24.423 25.659l5.164-5.341a33.9753 33.9753 0 0 0-6.363 13.386 33.9706 33.9706 0 0 0-.058 14.822c.401-3.785.931-6.368 2.718-9.453-1.855 5.471-.924 13.877 1.461 19.143" fill="#D2D2D2"/><path d="M314.265 316.384a2.4772 2.4772 0 0 1-.156-.319c-.088-.211-.244-.516-.401-.938a27.0645 27.0645 0 0 1-1.148-3.758 33.6131 33.6131 0 0 1-.822-6.115c-.059-1.281-.027-2.564.095-3.84.118-1.432.4-2.846.842-4.213l.252.116a18.0541 18.0541 0 0 0-1.835 4.321 31.7193 31.7193 0 0 0-.863 5.083l-.102.979-.211-.958a33.3869 33.3869 0 0 1-.679-10.472 33.9801 33.9801 0 0 1 7.094-17.906l.265.224-5.171 5.342-.537.557.252-.721a27.8432 27.8432 0 0 1 3.676-6.632c1.42-1.964 2.874-3.758 4.315-5.395a79.845 79.845 0 0 1 8.121-8.019 40.464 40.464 0 0 1 6.061-4.383c.571-.341 1.163-.646 1.774-.911l.475-.21a.6984.6984 0 0 1 .163-.061l-.156.088-.455.238c-.601.284-1.184.604-1.747.958a42.307 42.307 0 0 0-5.98 4.444 80.6587 80.6587 0 0 0-8.039 8.046c-1.427 1.638-2.867 3.432-4.274 5.389a27.9519 27.9519 0 0 0-3.615 6.55l-.279-.169 5.165-5.348.265.231a33.9662 33.9662 0 0 0-7.033 17.722c-.335 3.466-.124 6.963.625 10.363h-.313c.157-1.732.455-3.447.89-5.13a18.4336 18.4336 0 0 1 1.89-4.384l.679-1.182-.442 1.298a18.451 18.451 0 0 0-.856 4.152 27.012 27.012 0 0 0-.122 3.805c.063 2.058.315 4.105.754 6.116.272 1.275.629 2.53 1.067 3.758.143.428.292.741.367.958.075.218.149.326.149.326ZM335.752 323.662s-.068-.041-.176-.136a9.198 9.198 0 0 1-.483-.448c-.414-.394-1.005-.992-1.712-1.794a36.5782 36.5782 0 0 1-5.008-7.258l.292-.061c-.163 1.985-.037 3.983.374 5.932l.115.564-.408-.407a15.812 15.812 0 0 1-4.587-10.73l.333.047c-.739 2.323-.902 4.79-.475 7.19l.231 1.284-.503-1.203a21.6255 21.6255 0 0 1-1.631-6.877c-.035-.651-.035-1.305 0-1.957v-.509a.7486.7486 0 0 1 0-.177c.019.226.019.454 0 .68 0 .448.034 1.107.109 1.943a22.515 22.515 0 0 0 1.733 6.796l-.272.081a15.007 15.007 0 0 1 .435-7.339l.305-.979v1.027a15.5896 15.5896 0 0 0 4.485 10.492l-.292.156a20.9894 20.9894 0 0 1-.346-6.028l.047-.53.245.476a39.1882 39.1882 0 0 0 4.872 7.285c.68.815 1.257 1.427 1.645 1.848.387.421.672.632.672.632ZM430.515 335.935a3.702 3.702 0 0 1-.537 0l-1.522-.082-5.545-.353-.537-.034.489-.224a8.4811 8.4811 0 0 0 3.853-3.656l.183.238-3.486.829-.278.068.068-.286c.381-1.388.626-2.811.734-4.247a23.108 23.108 0 0 0-3.602-14.039 23.5373 23.5373 0 0 0-2.779-3.52l-.87-.856c-.204-.198-.306-.306-.292-.313.123.069.235.156.333.258.217.184.537.449.931.809a22.17 22.17 0 0 1 2.888 3.479c2.789 4.213 4.11 9.23 3.758 14.27-.107 1.46-.36 2.906-.755 4.316l-.204-.211 3.48-.816.353-.088-.17.32a8.6289 8.6289 0 0 1-4.036 3.751l-.048-.259 5.538.476 1.523.15c.177-.01.354-.003.53.02ZM476.099 254.166a.9591.9591 0 0 1-.116.244c-.088.156-.21.388-.387.68-.51.838-1.068 1.645-1.672 2.419a27.9737 27.9737 0 0 1-7.624 6.755l-.401.244.156-.442c.454-1.26.657-2.596.598-3.934l.326.081a15.3332 15.3332 0 0 1-5.477 5.437l-.353.21.102-.4c.414-1.672.815-3.269 1.189-4.757l.272.142a16.3549 16.3549 0 0 1-5.566 3.921l-.353.15.211-.319a13.8033 13.8033 0 0 0 1.658-3.527c.136-.435.217-.782.278-1.013.023-.12.055-.238.095-.353.006.123-.006.247-.034.367-.04.238-.101.584-.217 1.033-.342 1.28-.876 2.501-1.583 3.622l-.143-.17c2.06-.923 3.91-2.257 5.436-3.921l.422-.462-.15.604c-.36 1.495-.754 3.092-1.162 4.757l-.251-.19a15.2413 15.2413 0 0 0 5.348-5.3l.299-.497v.578c.054 1.388-.163 2.773-.639 4.077l-.238-.203a28.8261 28.8261 0 0 0 7.631-6.599c.795-.972 1.359-1.787 1.74-2.351.186-.305.388-.6.605-.883ZM390.795 273.879a4.7798 4.7798 0 0 1-.802-.449c-.496-.312-1.223-.754-2.127-1.277a58.4777 58.4777 0 0 0-7.359-3.595 57.5657 57.5657 0 0 0-7.794-2.487c-1.02-.251-1.849-.435-2.426-.55a4.9824 4.9824 0 0 1-.884-.225c.306-.004.612.026.911.089.584.074 1.427.224 2.453.441 2.689.576 5.324 1.381 7.876 2.406a48.8507 48.8507 0 0 1 7.353 3.703c.89.558 1.603 1.027 2.079 1.36.258.171.5.366.72.584ZM429.108 213.937s.041-.082.15-.211c.151-.198.315-.386.489-.564a13.04 13.04 0 0 1 2.093-1.774 23.4212 23.4212 0 0 1 8.331-3.465h.075l-.095.285a6.7277 6.7277 0 0 0-2.576-1.848l-.387-.156.387-.164a13.47 13.47 0 0 1 6.66-.924 11.87 11.87 0 0 1 1.923.388c.235.055.463.137.68.244 0 .055-.959-.272-2.61-.414-2.221-.193-4.456.159-6.51 1.026v-.32a6.9009 6.9009 0 0 1 2.718 1.944l.184.217-.286.068h-.074a24.8883 24.8883 0 0 0-8.264 3.33 21.966 21.966 0 0 0-2.888 2.338ZM466.537 205.884s.088-.034.258-.068.428-.088.761-.122c.941-.105 1.889-.13 2.834-.075 3.139.168 6.214.951 9.052 2.304l-.259.163v-.17a4.3527 4.3527 0 0 0-.604-1.57c-.272-.489-.585-.958-.863-1.434l-.211-.367.408.123c2.314.67 4.446 1.855 6.238 3.465.516.467.987.981 1.407 1.536.159.196.293.41.4.639a20.3704 20.3704 0 0 0-1.957-2.039 16.5708 16.5708 0 0 0-6.177-3.302l.191-.252c.271.462.584.924.869 1.434.338.515.569 1.093.68 1.699v.503l-.279-.136a25.3253 25.3253 0 0 0-8.908-2.372 21.208 21.208 0 0 0-2.807-.04c-.342.053-.687.08-1.033.081Z" fill="#263238"/><path d="M417.501 227.847c3.548.917 6.796 1.746 10.438 1.57 1.162-.055 2.501-.347 3.031-1.359.19-.471.231-.989.12-1.484a2.5068 2.5068 0 0 0-.745-1.289 7.4904 7.4904 0 0 0-2.61-1.502l-8.46-3.398c-.999 3.024-1.719 5.715-1.774 7.462ZM497.219 229.016c-.612-1.543-.231 3.33-1.244 4.641a21.4346 21.4346 0 0 1-3.669 3.343c-1.352.971-2.481 2.22-3.31 3.663-.679 1.359-.781 3.119.279 4.166.876.849 2.222.924 3.438.91 1.448 0 3.14-.244 3.874-1.495 0 0 3.248-8.65.632-15.228ZM488.888 280.097c-2.467-5.328-6.558-10.193-12.096-12.164-5.539-1.971-12.565-.218-15.48 4.879a14.3956 14.3956 0 0 0-1.516 8.345c.35 2.851.932 5.669 1.74 8.426 2.113 8.338 4.716 17.539 5.375 26.122l17.859 5.103c3.397-7.686 6.836-15.582 7.311-23.974a35.2398 35.2398 0 0 0-3.193-16.737ZM386.426 286.002c1.876 4.186-19.027 24.26-33.834 26.76-1.244.211-2.718.306-3.595-.57-.877-.877-.761-2.719.136-3.826.897-1.108 2.242-1.658 3.534-2.216 6.251-2.718 10.872-6.972 15.452-12.007 4.58-5.035 8.522-12.035 7.441-18.769 0 0 8.175 4.634 10.866 10.628ZM498.163 335.935l5.722-7.088s8.562-.122 10.872 3.738c.327.429.594.9.796 1.399.201.637.351 1.29.448 1.951h-17.838Z" fill="#fff" opacity=".4"/><path d="M512.332 336.478a10.589 10.589 0 0 1-.361-1.481 4.7564 4.7564 0 0 0-1.773-2.976 5.348 5.348 0 0 0-3.459-.564c-.5.095-1.007.147-1.515.156.469-.212.969-.35 1.481-.408a6.7972 6.7972 0 0 1 1.685-.102c.708.033 1.396.246 1.998.619.598.392 1.07.949 1.359 1.603.232.516.395 1.06.483 1.618.113.503.148 1.021.102 1.535Z" fill="#263238"/><path d="M469.126 316.187a43.412 43.412 0 0 1-24.123 16.54c-1.257.327-3.099.218-3.235-1.073.016-.329.1-.65.248-.944.147-.293.355-.553.608-.762 6.966-7.536 14.271-15.065 21.256-22.602l1.76 7.822 3.486 1.019ZM458.26 290.365s-13.325 12.911-21.446 16.377c-.91.387-1.971.747-2.861.305-1.019-.516-1.298-1.93-.91-3.01a7.4718 7.4718 0 0 1 2.093-2.684c6.265-5.953 11.851-13.251 16.567-20.488 0-.014 1.841 1.243 6.557 9.5ZM319.58 412.227c2.269-1.047 3.207-4.152 3.472-6.639.351-3.311-.264-6.652-1.772-9.62a17.2343 17.2343 0 0 0-6.722-7.106 17.2377 17.2377 0 0 0-9.507-2.303c-3.324.167-6.53 1.294-9.228 3.243 0 0-1.808 4.227-2.576 5.586-.767 1.359-6.985 9.446-.346 15.711 6.639 6.265 14.474 4.899 16.791 4.546a27.1782 27.1782 0 0 0 9.888-3.418Z" fill="#fff" opacity=".4"/><path d="M516.001 335.935s0-.32-.156-.911c-.2-.873-.587-1.691-1.135-2.399a7.8299 7.8299 0 0 0-4.03-2.765 21.0994 21.0994 0 0 0-6.795-1.04h-.048l-15.025-6.517-23.233-6.945-.102-.034v-.102c-.306-1.624-.632-3.35-.992-5.083-1.685-8.283-4.111-16.091-7.876-22.425a38.0807 38.0807 0 0 0-6.408-8.154 30.232 30.232 0 0 0-7.373-5.185 44.7864 44.7864 0 0 0-6.952-2.718c-2.106-.68-3.948-1.108-5.436-1.468l-3.486-.809-.904-.21-.306-.082c.105.01.21.026.313.048l.91.176c.802.157 1.985.395 3.507.741 1.522.347 3.363.782 5.484 1.414 2.406.705 4.747 1.615 6.999 2.718 2.74 1.345 5.26 3.098 7.475 5.198a38.0614 38.0614 0 0 1 6.483 8.155c3.812 6.34 6.252 14.182 7.944 22.486.36 1.739.679 3.465.992 5.09l-.123-.136 23.22 6.985 14.95 6.605h-.047c2.34-.022 4.667.351 6.883 1.101a7.8927 7.8927 0 0 1 4.078 2.868c.548.729.927 1.572 1.107 2.467.063.306.09.618.082.931Z" fill="#263238"/><path d="M395.348 324.389a13.2968 13.2968 0 0 0-4.542-3.047 13.31 13.31 0 0 0-5.386-.962c2.614-3.051 4.51-6.65 5.546-10.531a26.8148 26.8148 0 0 0 .441-11.894 26.1917 26.1917 0 0 0-3.907-9.398 31.1925 31.1925 0 0 1 .944 11.321 49.8077 49.8077 0 0 1-9.581 25.571c3.357-.536 8.338.265 12.232 2.039a9.3088 9.3088 0 0 1 5.137 6.965l.278 1.529 2.46-.122c.306-3.663-1.08-8.8-3.622-11.471Z" fill="#000" opacity=".3"/><path d="M360.821 272.235s-5.504-.612-15.473 2.12c-.68.183-6.66 5.504-9.466 8.786-.863.999-1.74 2.222-1.515 3.52.271 1.556 2.079 2.447 3.649 2.27 1.569-.177 2.929-1.135 4.206-2.039 6.204-4.492 12.653-9.806 18.599-14.637" fill="#fff" opacity=".4"/><path d="M319.913 335.833h5.796l16.017-.048 54.574-.04-.17.197c-.116-.812-.275-1.618-.476-2.413a9.199 9.199 0 0 0-.985-2.249 8.8793 8.8793 0 0 0-3.608-3.364 24.4262 24.4262 0 0 0-10.003-2.331c-.785-.009-1.569.046-2.345.164l-.428.067.258-.353a50.0617 50.0617 0 0 0 8.155-17.097 49.2792 49.2792 0 0 0 1.447-8.916c.235-2.881.086-5.781-.441-8.623a20.3796 20.3796 0 0 0-3.058-7.55 21.2653 21.2653 0 0 0-5.396-5.484 29.8915 29.8915 0 0 0-12.843-5.096 45.941 45.941 0 0 0-11.45-.095c-3.364.366-6.232.917-8.556 1.399-2.324.483-4.131.911-5.355 1.19l-1.359.319-.475.095.468-.129 1.36-.353c1.216-.299 3.01-.741 5.334-1.251 2.324-.509 5.198-1.073 8.569-1.468 3.824-.466 7.691-.45 11.511.048 4.655.651 9.093 2.383 12.959 5.056a24.547 24.547 0 0 1 2.95 2.473c.937.944 1.784 1.975 2.527 3.079a20.6064 20.6064 0 0 1 3.126 7.658c.534 2.869.69 5.796.462 8.705a49.8713 49.8713 0 0 1-9.649 26.203l-.17-.278c.796-.118 1.601-.172 2.406-.164 3.527.055 7.003.864 10.193 2.372a9.2366 9.2366 0 0 1 3.744 3.493c.44.73.785 1.513 1.026 2.331.203.811.362 1.632.476 2.46v.204h-.204l-54.574-.082-16.017-.068-4.301-.034h-1.115l-.38-.027ZM455.603 234.452c0 .095-12.177 1.916-27.222 4.077-15.045 2.161-27.257 3.826-27.27 3.724-.014-.102 12.17-1.916 27.222-4.077 15.052-2.161 27.257-3.826 27.27-3.724ZM456.908 235.865c-.142.064-.29.114-.441.15l-1.278.367c-1.114.313-2.718.741-4.757 1.25-4.002 1.026-9.561 2.338-15.738 3.609-6.177 1.27-11.783 2.235-15.867 2.915-2.039.319-3.697.564-4.845.679l-1.319.17a2.857 2.857 0 0 1-.462.034c.145-.053.296-.089.449-.108l1.311-.231 4.825-.823c4.077-.679 9.683-1.726 15.86-2.99 6.177-1.264 11.729-2.541 15.752-3.506l4.757-1.142 1.291-.299c.151-.043.306-.069.462-.075ZM510.055 234.459c0 .102-9.004 0-20.107-.299-11.104-.299-20.094-.557-20.094-.68 0-.122 9.003.041 20.107.306s20.094.578 20.094.673ZM503.199 241.268c0 .102-7.02-1.121-15.63-2.718-8.61-1.597-15.595-2.977-15.575-3.072.021-.095 7.02 1.121 15.63 2.718 8.609 1.597 15.595 2.977 15.575 3.072ZM529.782 296.521a7.7475 7.7475 0 0 1-.91-1.155 5.2929 5.2929 0 0 0-2.719-2.039 4.7593 4.7593 0 0 0-3.282.639c-.415.259-.849.486-1.298.68.341-.359.738-.66 1.176-.89.463-.284.958-.512 1.474-.68.66-.213 1.365-.241 2.039-.081a5.122 5.122 0 0 1 2.8 2.228c.303.395.545.833.72 1.298Z" fill="#263238"/><path d="M512.821 292.403a25.7575 25.7575 0 0 1-4.356 12.456c-1.121-1.535-1.407-3.533-1.42-5.436.089-1.959.066-3.922-.068-5.878l5.844-1.142Z" fill="#fff" opacity=".4"/><path d="M465.335 226.053c0 .108-1.251 0-2.759.149-1.509.15-2.719.496-2.719.401a5.9623 5.9623 0 0 1 2.719-.754 6.1087 6.1087 0 0 1 2.759.204ZM427.361 199.306c-.03.607-.117 1.21-.258 1.801-.217 1.223-.469 2.718-.747 4.315-.279 1.597-.483 3.092-.68 4.322-.058.604-.168 1.202-.326 1.787a8.34 8.34 0 0 1 .075-1.814c.102-1.122.292-2.664.564-4.356.272-1.692.591-3.208.856-4.302.11-.601.283-1.188.516-1.753ZM476.214 193.027a59.5577 59.5577 0 0 1-3.873 5.192 58.953 58.953 0 0 1-4.173 4.974 61.4603 61.4603 0 0 1 3.894-5.192 60.492 60.492 0 0 1 4.152-4.974ZM461.244 245.739a6.9854 6.9854 0 0 1-3.558-.178 6.9856 6.9856 0 0 1-3.007-1.908 15.935 15.935 0 0 0 3.112 1.57c1.129.297 2.287.47 3.453.516ZM408.008 261.742c-.041.095-1.495-.503-3.33-1.094-1.834-.591-3.363-.965-3.343-1.067a11.8 11.8 0 0 1 3.452.734c1.141.308 2.227.79 3.221 1.427ZM413.9 261.144c-.034.095-2.161-.557-4.798-1.291-2.636-.734-4.79-1.277-4.756-1.359.489.005.976.073 1.447.204.883.177 2.093.462 3.398.829 1.304.367 2.507.754 3.357 1.06.473.125.928.312 1.352.557ZM320.123 273.662a63.942 63.942 0 0 1 7.305-6.048 31.4925 31.4925 0 0 1-3.54 3.16 30.9043 30.9043 0 0 1-3.765 2.888ZM318.152 282.21c.242-.674.554-1.321.931-1.93a38.4909 38.4909 0 0 1 2.82-4.335 39.1216 39.1216 0 0 1 3.398-3.921c.482-.53 1.014-1.01 1.59-1.434-.43.569-.9 1.107-1.406 1.61-.884.972-2.039 2.352-3.269 3.962-1.23 1.611-2.195 3.126-2.888 4.247-.356.623-.749 1.224-1.176 1.801ZM332.09 315.283a13.0017 13.0017 0 0 1-2.61-6.673c.102 0 .435 1.557 1.163 3.398.727 1.842 1.542 3.221 1.447 3.275ZM338.226 321.624c-.469-.4-.887-.857-1.244-1.359a23.8274 23.8274 0 0 1-2.398-3.833 24.118 24.118 0 0 1-1.638-4.213 7.3261 7.3261 0 0 1-.374-1.835c.241.573.445 1.161.612 1.76a31.712 31.712 0 0 0 3.996 7.971c.38.481.729.984 1.046 1.509ZM290.516 323.608a6.182 6.182 0 0 1 1.454-.809 25.8208 25.8208 0 0 1 7.685-2.174 6.2324 6.2324 0 0 1 1.659-.075c-.532.153-1.075.26-1.625.319-.998.177-2.378.462-3.866.884-1.273.362-2.528.789-3.758 1.277-.5.235-1.018.428-1.549.578ZM289.149 327.807c.382-.519.84-.977 1.359-1.359a16.3619 16.3619 0 0 1 8.338-3.656 6.5163 6.5163 0 0 1 1.896-.061c0 .055-.72.109-1.862.313a19.83 19.83 0 0 0-4.321 1.311 19.475 19.475 0 0 0-3.901 2.29c-.945.707-1.468 1.203-1.509 1.162ZM424.215 305.084a34.3475 34.3475 0 0 1-2.636-4.254 35.3094 35.3094 0 0 1-2.331-4.438 71.663 71.663 0 0 1 4.967 8.692ZM425.309 312.11c-.054 0-.394-.788-1.033-2.039a38.7773 38.7773 0 0 0-2.84-4.756 38.2177 38.2177 0 0 0-3.534-4.281c-.978-1.033-1.631-1.631-1.597-1.672.034-.041.198.109.51.36.313.251.748.639 1.264 1.135a29.7339 29.7339 0 0 1 6.422 9.113c.292.679.509 1.189.639 1.569.084.181.141.374.169.571ZM456.962 248.233c-1.03.082-2.066-.06-3.037-.414a7.135 7.135 0 0 1-2.766-1.359c.048-.089 1.264.523 2.868.998 1.604.476 2.949.639 2.935.775Z" fill="#fff"/><path d="m230.15 171.851 24.336 57.18h-15.67l-10.81-30.541 2.144-26.639Z" fill="#263238"/><path d="m155.391 120.104-9.4 108.927h79.562l8.742-108.927h-78.904Z" fill="#455A64"/><path d="m163.165 128.742-8.234 91.237 59.718.78 8.074-92.543-59.558.526Z" fill="#FAFAFA"/><path d="m175.836 141.376-4.681 62.783h31.856l5.622-62.783h-32.797Z" fill="#E0E0E0"/><path d="M207.176 150.992c.113.085-9.184 13.311-20.765 29.554-11.58 16.243-21.046 29.337-21.159 29.262-.113-.075 9.184-13.301 20.765-29.554 11.58-16.252 21.046-29.337 21.159-29.262ZM214.32 133.348c-.09.159-.197.307-.32.442l-.94 1.194-3.628 4.352c-3.065 3.685-7.238 8.817-11.684 14.608-4.447 5.79-8.348 11.148-11.121 15.04l-3.271 4.625-.94 1.25c-.099.154-.216.296-.348.423.085-.155.182-.303.292-.442l.827-1.297c.724-1.128 1.795-2.745 3.149-4.7 2.707-3.958 6.58-9.344 11.007-15.153 4.428-5.809 8.686-10.895 11.816-14.532 1.561-1.815 2.82-3.262 3.76-4.259l1.044-1.128c.1-.155.22-.297.357-.423Z" fill="#263238"/><path d="M245.876 283.88H103.137c-2.407-8.883-2.642-17.202 0-24.778h142.739a32.381 32.381 0 0 1 0 24.778Z" fill="#455A64"/><path d="m145.437 266.857-1.551 7.773h-.564l1.325-6.58-4.295 5.575h-.292l-2.199-5.64-1.326 6.683h-.564l1.561-7.774h.47l2.312 6.007 4.615-6.007.508-.037ZM152.731 268.84l-1.156 5.8h-.536l.226-1.138c-.285.377-.655.68-1.08.886-.425.206-.892.308-1.364.299-.329.029-.659-.014-.97-.124-.311-.11-.594-.285-.831-.514a2.3055 2.3055 0 0 1-.543-.813 2.3063 2.3063 0 0 1-.157-.965c-.027-.447.038-.895.191-1.316.153-.421.39-.807.698-1.132.307-.326.678-.586 1.089-.763.412-.177.855-.268 1.303-.267a2.1331 2.1331 0 0 1 2.284 1.495l.292-1.448h.554Zm-1.081 2.397c.021-.269-.019-.54-.116-.792a1.821 1.821 0 0 0-.447-.665 1.813 1.813 0 0 0-.689-.408 1.8082 1.8082 0 0 0-.797-.071c-.376.003-.747.082-1.09.234-.344.152-.653.372-.909.648-.255.275-.451.6-.576.955-.125.354-.177.73-.151 1.105-.019.27.022.54.121.792.098.252.252.479.449.665.197.185.433.324.69.407.258.083.53.108.799.072.376-.003.747-.083 1.091-.235.344-.152.653-.374.908-.651.255-.276.45-.603.573-.958.124-.355.173-.732.144-1.107v.009ZM154.922 272.948c-.033.135-.048.274-.047.413 0 .546.291.837.883.837.342-.001.673-.117.94-.329l.169.414c-.36.268-.801.407-1.25.394-.171.021-.345.004-.509-.049a1.1805 1.1805 0 0 1-.44-.262 1.16 1.16 0 0 1-.287-.424 1.1639 1.1639 0 0 1-.08-.505 2.5095 2.5095 0 0 1 0-.442l.743-3.685h-1.072l.085-.479h1.081l.254-1.269h.648l-.254 1.269h1.88l-.084.479h-1.88l-.78 3.638ZM164.256 270.645c0 .212-.022.423-.066.63l-.668 3.356h-.554l.667-3.356c.041-.182.06-.368.057-.555 0-.94-.546-1.429-1.636-1.429a2.4484 2.4484 0 0 0-1.701.588c-.471.405-.771.975-.837 1.593l-.639 3.159h-.555l1.645-8.244h.555l-.696 3.525a2.8176 2.8176 0 0 1 2.378-1.128c.262-.038.529-.017.782.06.253.078.486.21.681.388.196.178.35.396.452.641.101.244.147.508.135.772ZM166.286 271.848v.367c0 1.259.733 1.955 2.143 1.955.366.014.731-.047 1.072-.179.341-.133.652-.334.912-.592l.253.385c-.3.296-.658.527-1.05.681-.393.153-.812.226-1.234.212-.339.045-.685.014-1.011-.089a2.3483 2.3483 0 0 1-.879-.51 2.3475 2.3475 0 0 1-.579-.834 2.334 2.334 0 0 1-.172-1.001c-.031-.438.028-.877.172-1.292.145-.414.372-.795.669-1.118.296-.324.655-.584 1.055-.764.4-.18.833-.278 1.272-.285.327-.03.657.012.967.123.31.111.591.288.826.519.234.23.416.509.531.817.116.308.163.638.138.966-.006.214-.028.428-.065.639h-5.02Zm.066-.432h4.465v-.282c.016-.258-.024-.516-.117-.757-.094-.24-.239-.458-.425-.637a1.7746 1.7746 0 0 0-1.413-.486 2.562 2.562 0 0 0-1.633.63c-.454.396-.754.937-.849 1.532h-.028ZM182.727 270.617c-.003.221-.028.441-.075.658l-.677 3.355h-.555l.677-3.355c.041-.185.06-.375.056-.564 0-.893-.517-1.42-1.56-1.42a2.33 2.33 0 0 0-1.621.545c-.452.38-.743.918-.814 1.504l-.667 3.29h-.555l.677-3.355c.041-.185.06-.375.057-.564 0-.893-.527-1.42-1.57-1.42-.61-.014-1.203.202-1.66.607-.457.404-.744.967-.803 1.574l-.63 3.158h-.554l1.156-5.799h.545l-.226 1.09c.261-.369.61-.667 1.016-.866.405-.199.855-.292 1.306-.271a1.7567 1.7567 0 0 1 1.927 1.306c.274-.417.65-.756 1.093-.985.443-.229.938-.34 1.436-.321 1.316 0 2.021.705 2.021 1.833ZM190.594 268.84l-1.156 5.8h-.498l.226-1.138c-.285.377-.655.68-1.08.886-.425.206-.892.308-1.364.299-.329.029-.659-.014-.97-.124-.311-.11-.594-.285-.831-.514a2.3055 2.3055 0 0 1-.543-.813 2.3063 2.3063 0 0 1-.157-.965c-.027-.447.038-.895.191-1.316a3.2802 3.2802 0 0 1 3.09-2.162 2.1331 2.1331 0 0 1 2.284 1.495l.291-1.448h.517Zm-1.081 2.397c.021-.269-.019-.54-.116-.792a1.831 1.831 0 0 0-.446-.665 1.8283 1.8283 0 0 0-.689-.408c-.257-.083-.53-.107-.798-.071a2.747 2.747 0 0 0-1.09.234c-.344.152-.653.372-.908.648-.256.275-.452.6-.577.955-.125.354-.176.73-.151 1.105-.019.27.022.54.121.792.098.252.252.479.449.665.197.185.433.324.69.407.258.083.531.108.799.072.376-.003.748-.083 1.092-.235.343-.152.652-.374.907-.651.255-.276.45-.603.573-.958.124-.355.173-.732.144-1.107v.009ZM192.784 272.948c-.032.135-.048.274-.047.413 0 .546.292.837.884.837.342.001.673-.115.94-.329l.169.414c-.36.268-.801.407-1.25.394-.171.021-.345.004-.509-.049a1.1727 1.1727 0 0 1-.44-.262 1.16 1.16 0 0 1-.287-.424 1.1639 1.1639 0 0 1-.08-.505 2.5095 2.5095 0 0 1 0-.442l.752-3.685h-1.081l.085-.479h1.081l.253-1.269h.555l-.169 1.278h1.88l-.085.479h-1.88l-.771 3.629ZM197.344 268.84h.554l-1.156 5.8h-.554l1.156-5.8Zm.188-1.824c0-.064.012-.127.037-.187.024-.059.06-.113.106-.158a.4678.4678 0 0 1 .158-.106c.06-.025.123-.037.187-.037a.412.412 0 0 1 .163.028c.052.02.099.05.139.089.041.038.073.084.095.135.023.051.035.106.036.161a.4773.4773 0 0 1-.036.191.4614.4614 0 0 1-.108.161.4615.4615 0 0 1-.163.105.4632.4632 0 0 1-.191.032.4365.4365 0 0 1-.164-.029.4026.4026 0 0 1-.138-.092.4067.4067 0 0 1-.092-.139.3929.3929 0 0 1-.029-.163v.009ZM198.998 272.262a3.298 3.298 0 0 1 .198-1.328c.157-.425.4-.812.713-1.138.313-.327.69-.585 1.107-.759.418-.174.867-.26 1.319-.253.43-.04.864.04 1.25.233.387.193.713.49.94.857l-.451.282a1.8776 1.8776 0 0 0-.765-.684 1.8799 1.8799 0 0 0-1.012-.181c-.377.001-.75.079-1.096.229-.346.151-.657.371-.914.647-.258.276-.456.601-.582.957-.126.355-.178.733-.152 1.109-.01.271.038.541.143.791.104.251.261.476.46.659.199.184.435.323.693.407.258.084.531.111.8.08.356.004.708-.07 1.033-.216.325-.146.614-.361.847-.63l.385.319c-.29.337-.652.604-1.058.783-.407.179-.848.265-1.292.252-.332.03-.666-.01-.981-.118a2.3626 2.3626 0 0 1-.847-.511 2.3476 2.3476 0 0 1-.561-.814 2.351 2.351 0 0 1-.177-.973ZM211.5 268.84l-1.156 5.8h-.536l.225-1.138c-.285.377-.655.68-1.079.886-.425.206-.893.308-1.365.299-.328.03-.66-.011-.971-.12-.311-.11-.596-.285-.833-.515a2.3094 2.3094 0 0 1-.543-.814c-.12-.308-.172-.638-.153-.967-.027-.447.038-.895.191-1.316.152-.421.39-.807.697-1.133.308-.325.678-.585 1.09-.762.411-.177.855-.268 1.303-.267.494-.053.992.066 1.409.339.416.272.725.681.875 1.156l.291-1.448h.555Zm-1.081 2.397c.02-.27-.02-.54-.117-.792s-.25-.479-.446-.665a1.8283 1.8283 0 0 0-.689-.408c-.257-.083-.53-.107-.797-.072-.376.003-.747.083-1.091.235-.344.152-.653.372-.908.648-.255.275-.452.6-.577.955-.125.354-.176.73-.15 1.105-.02.27.022.54.12.792.099.252.252.479.449.665.197.185.433.324.691.407.257.083.53.108.798.072a2.754 2.754 0 0 0 1.083-.243c.341-.155.646-.377.898-.653s.444-.601.566-.955c.122-.353.17-.728.142-1.1l.028.009ZM214.32 266.387h.554l-1.645 8.244h-.554l1.645-8.244ZM109.115 269.254l7.774 1.551v.573l-7.266-1.457v1.88l-.508-.103v-2.444Z" fill="#F5F5F5"/><path d="M127.427 259.092c.178.057-1.57 5.64-3.892 12.53-2.322 6.891-4.343 12.371-4.521 12.314-.179-.056 1.569-5.64 3.891-12.53s4.352-12.37 4.522-12.314ZM133.245 259.092c.169.057-1.57 5.64-3.891 12.53-2.322 6.891-4.353 12.371-4.522 12.314-.169-.056 1.57-5.64 3.892-12.53s4.352-12.37 4.521-12.314ZM228.589 259.092c.17.057-1.569 5.64-3.891 12.53-2.322 6.891-4.352 12.371-4.522 12.314-.169-.056 1.57-5.64 3.892-12.53s4.352-12.37 4.521-12.314ZM234.408 259.092c.169.057-1.57 5.64-3.901 12.53-2.331 6.891-4.343 12.371-4.512 12.314-.169-.056 1.57-5.64 3.891-12.53 2.322-6.89 4.343-12.37 4.522-12.314Z" fill="#fff"/><path d="M270.429 306.158H90.099c-3.0362-7.99-3.3464-15.482 0-22.297h180.33a21.4951 21.4951 0 0 1 3.118 11.149c0 3.931-1.079 7.787-3.118 11.148Z" fill="#D2D2D2"/><path d="M150.767 290.103h1.88v6.721h4.154v1.56h-6.072l.038-8.281ZM163.485 294.756v3.628h-1.73v-.789c-.214.306-.507.55-.848.705-.34.156-.716.217-1.088.178-1.495 0-2.379-.827-2.379-1.88s.79-1.88 2.736-1.88h1.504c0-.789-.48-1.25-1.467-1.25a3.0592 3.0592 0 0 0-1.88.592l-.667-1.288a4.8844 4.8844 0 0 1 2.745-.77c1.946-.076 3.074.827 3.074 2.754Zm-1.88 1.617v-.649h-1.269c-.865 0-1.138.32-1.138.743s.395.77 1.044.77c.301.037.607-.028.868-.184.26-.157.461-.396.57-.68h-.075ZM171.654 294.746v3.638h-1.88v-3.356c0-1.034-.47-1.504-1.288-1.504-.818 0-1.523.545-1.523 1.711v3.149h-1.88v-6.364h1.767v.743c.274-.278.603-.495.965-.639a2.836 2.836 0 0 1 1.141-.198c1.57 0 2.698.875 2.698 2.82ZM179.963 292.021v5.301c0 2.359-1.278 3.45-3.572 3.45-1.107.049-2.2-.258-3.121-.874l.734-1.326c.651.476 1.439.73 2.246.724 1.297 0 1.88-.592 1.88-1.739v-.272c-.257.268-.569.477-.914.613-.346.137-.717.197-1.088.176a3.078 3.078 0 0 1-2.174-.9c-.576-.577-.9-1.358-.9-2.174a3.0747 3.0747 0 0 1 3.074-3.074c.4-.019.799.055 1.165.219.366.163.688.41.941.721v-.817l1.729-.028ZM178.14 295c.022-.335-.057-.669-.227-.959-.169-.29-.423-.522-.726-.666a1.6824 1.6824 0 0 0-.976-.141c-.332.053-.64.203-.885.433-.245.23-.416.528-.489.856-.073.328-.046.67.078.983.124.312.34.579.618.768.278.188.607.288.943.287.214.017.429-.011.632-.082.202-.071.388-.184.545-.331.156-.146.281-.324.364-.522.084-.198.126-.411.123-.626ZM188.085 292.021v6.363h-1.749v-.761c-.383.403-.879.679-1.424.792-.544.113-1.11.057-1.621-.161a2.7298 2.7298 0 0 1-1.24-1.058c-.296-.47-.44-1.02-.415-1.575v-3.6h1.88v3.327c0 1.062.47 1.532 1.288 1.532.818 0 1.466-.545 1.466-1.71v-3.149h1.815ZM195.435 294.756v3.628h-1.729v-.789c-.215.306-.508.549-.849.704-.34.155-.716.217-1.088.179-1.494 0-2.378-.827-2.378-1.88s.79-1.88 2.726-1.88h1.467c0-.789-.47-1.25-1.467-1.25a3.0787 3.0787 0 0 0-1.833.592l-.658-1.288a4.8844 4.8844 0 0 1 2.745-.77c1.936-.076 3.064.827 3.064 2.754Zm-1.88 1.617v-.649h-1.231c-.865 0-1.137.32-1.137.743s.385.77 1.043.77c.289.021.576-.052.82-.208.244-.155.431-.386.534-.656h-.029ZM203.736 292.021v5.301c0 2.359-1.279 3.45-3.572 3.45a5.221 5.221 0 0 1-3.121-.874l.733-1.326c.652.476 1.44.73 2.247.724 1.297 0 1.88-.592 1.88-1.739v-.272c-.26.267-.574.476-.921.612a2.607 2.607 0 0 1-1.091.177c-.815 0-1.597-.324-2.173-.9a3.073 3.073 0 0 1-.901-2.174c0-.815.324-1.597.901-2.173a3.0706 3.0706 0 0 1 2.173-.901c.4-.019.8.055 1.165.219.366.163.688.41.941.721v-.817l1.739-.028ZM201.912 295c.003-.214-.038-.427-.122-.625a1.5393 1.5393 0 0 0-.365-.523 1.531 1.531 0 0 0-.545-.33 1.541 1.541 0 0 0-.632-.082 1.56 1.56 0 0 0-1.56 1.56c0 .414.164.811.457 1.104.293.292.69.457 1.103.457a1.541 1.541 0 0 0 1.177-.413c.157-.146.281-.324.365-.522.084-.198.125-.411.122-.626ZM211.65 295.724h-4.85c.091.415.334.782.683 1.025.348.244.776.348 1.197.291.295.012.589-.038.863-.144.275-.107.525-.269.735-.476l.987 1.071c-.338.351-.749.625-1.203.802-.455.177-.942.253-1.429.223-2.2 0-3.628-1.382-3.628-3.271-.006-.442.079-.881.249-1.289.17-.408.422-.777.739-1.084.318-.307.695-.546 1.109-.702.413-.157.855-.227 1.296-.206a3.1421 3.1421 0 0 1 2.393.911c.313.311.557.685.717 1.096.159.411.23.852.208 1.292-.028.104-.056.311-.066.461Zm-4.85-1.081h3.14a1.589 1.589 0 0 0-.537-.963 1.5888 1.5888 0 0 0-2.067 0c-.288.247-.478.588-.536.963ZM102.3 294.728h8.282v1.88h-6.75v1.654H102.3v-3.534Z" fill="#F5F5F5"/><path d="m114.783 283.861 8.545 22.297h11.223l-7.125-22.297h-12.643Z" fill="#fff"/><path d="m225.506 283.861 8.544 22.297h11.224l-7.125-22.297h-12.643Z" fill="#263238"/><path d="M96.8763 305.632s-17.108 13.028-.7237 30.249c.1409.146.3105.261.4981.339.1876.078.3892.116.5922.112l149.4601-.865s12.765-14.316 2.171-30.804l-151.9977.969Z" fill="#263238"/><path d="M103.616 336.623a.786.786 0 0 1-.282 0 3.579 3.579 0 0 1-.77-.188 6.1234 6.1234 0 0 1-2.51-1.654 6.0157 6.0157 0 0 1-1.617-4.268 6.4288 6.4288 0 0 1 .7855-2.85 6.4242 6.4242 0 0 1 1.9785-2.197l.065.46a5.2802 5.2802 0 0 1-2.6144-1.762 5.284 5.284 0 0 1-1.1452-2.938 5.2265 5.2265 0 0 1 4.3896-5.264l-.084.47a6.0168 6.0168 0 0 1-2.0084-1.893 6.0262 6.0262 0 0 1-.953-2.591 5.6407 5.6407 0 0 1 1.1468-4.07 5.6838 5.6838 0 0 1 2.1616-1.739c.225-.101.457-.183.696-.244.084-.015.17-.015.254 0 0 0-.32.131-.874.432a6.0255 6.0255 0 0 0-1.993 1.767 5.397 5.397 0 0 0-.9402 3.845c.1268.852.4468 1.663.9352 2.372a5.6495 5.6495 0 0 0 1.885 1.717l.677.367-.762.103a4.6993 4.6993 0 0 0-2.8295 1.625 4.6997 4.6997 0 0 0-1.0901 3.075 4.7957 4.7957 0 0 0 1.0053 2.635 4.791 4.791 0 0 0 2.3133 1.614l.535.15-.46.31c-.76.522-1.39 1.211-1.8417 2.014a6.0198 6.0198 0 0 0-.7623 2.621 5.6949 5.6949 0 0 0 1.41 4.032c.638.74 1.435 1.325 2.331 1.711.602.235.978.301.968.338Z" fill="#E0E0E0"/><path d="M103.654 331.491s-.122 0-.273-.122a1.071 1.071 0 0 1-.216-.827c.171-.45.507-.816.94-1.025a4.4518 4.4518 0 0 1 1.777-.404c.712-.038 1.425-.016 2.134.066.376.037.761.094 1.156.169.437.062.855.222 1.222.47.15.11.275.251.367.413.092.162.15.341.169.527a1.0946 1.0946 0 0 1-.461.94 3.39 3.39 0 0 1-1.654.507c-.918.112-1.846.112-2.764 0a4.7536 4.7536 0 0 1-2.425-.742c0-.094.94.291 2.453.366.893.039 1.788-.015 2.67-.159.491-.025.969-.17 1.391-.423.084-.063.15-.145.194-.24a.6194.6194 0 0 0 .054-.303.6219.6219 0 0 0-.097-.292.638.638 0 0 0-.226-.209c-.303-.2-.647-.328-1.006-.376-.376-.075-.743-.141-1.109-.188-.683-.082-1.371-.12-2.059-.113-1.25 0-2.256.433-2.51 1.063-.059.232-.036.478.066.695.132.132.216.179.207.207ZM103.25 321.395s-.123 0-.273-.122a1.0632 1.0632 0 0 1-.194-.391 1.0687 1.0687 0 0 1-.022-.436c.173-.446.509-.809.94-1.015a4.451 4.451 0 0 1 1.776-.404c.709-.038 1.42-.016 2.125.065.382.038.768.094 1.156.17.441.06.863.22 1.231.47.15.11.276.251.368.413.092.162.15.341.168.527.008.182-.029.364-.11.528a1.09 1.09 0 0 1-.35.412c-.499.309-1.069.484-1.655.507-.918.112-1.846.112-2.763 0a4.877 4.877 0 0 1-2.426-.742c0-.094.94.291 2.454.366.893.034 1.787-.019 2.669-.16.492-.024.97-.169 1.392-.423.083-.063.15-.146.193-.242.043-.095.062-.2.054-.304a.6258.6258 0 0 0-.097-.294.613.613 0 0 0-.226-.212 2.4911 2.4911 0 0 0-1.005-.367c-.376-.075-.743-.141-1.11-.188-.683-.082-1.37-.12-2.058-.113-1.25 0-2.256.433-2.51 1.062a.9398.9398 0 0 0 .066.696c.131.122.216.169.207.197ZM103.456 311.619s-.112 0-.263-.112c-.093-.115-.16-.248-.197-.391a1.0223 1.0223 0 0 1-.019-.437c.178-.442.512-.804.94-1.015a4.4859 4.4859 0 0 1 1.777-.404c.711-.041 1.425-.022 2.133.056.376.047.762.104 1.157.179.44.063.861.224 1.231.47a1.323 1.323 0 0 1 .526.94c.007.182-.032.364-.112.528-.08.164-.2.305-.348.412a3.309 3.309 0 0 1-1.645.498c-.935.126-1.882.142-2.82.047a4.8984 4.8984 0 0 1-2.425-.752c.81.167 1.629.292 2.453.376.893.029 1.786-.024 2.67-.16.494-.024.975-.169 1.4-.423a.6413.6413 0 0 0 .192-.243c.042-.096.06-.201.052-.306a.627.627 0 0 0-.101-.293.6182.6182 0 0 0-.227-.21c-.301-.195-.642-.32-.997-.367-.376-.075-.752-.141-1.118-.188-.68-.087-1.365-.124-2.05-.113-1.259 0-2.256.433-2.509 1.062a.986.986 0 0 0 .065.696c.179.085.254.132.235.15ZM237.82 305.077h.272c.266.042.527.108.781.197.96.331 1.823.896 2.509 1.645a6.0225 6.0225 0 0 1 1.617 4.268 6.4322 6.4322 0 0 1-.784 2.851 6.4378 6.4378 0 0 1-1.979 2.197l-.066-.461c1.028.311 1.939.927 2.61 1.766a5.315 5.315 0 0 1 1.15 2.934 5.2317 5.2317 0 0 1-1.218 3.453 5.2324 5.2324 0 0 1-3.181 1.811l.084-.47c.81.463 1.5 1.109 2.015 1.886.516.776.843 1.663.956 2.589a5.6416 5.6416 0 0 1-1.147 4.079 5.724 5.724 0 0 1-2.162 1.73c-.227.103-.463.185-.705.244-.16 0-.245.057-.245 0 0-.056.32-.131.875-.432a5.8204 5.8204 0 0 0 1.983-1.767 5.3725 5.3725 0 0 0 .94-3.836 5.6377 5.6377 0 0 0-.936-2.371 5.6293 5.6293 0 0 0-1.884-1.718l-.677-.376.762-.103a4.6981 4.6981 0 0 0 2.829-1.625 4.697 4.697 0 0 0 1.09-3.075 4.7821 4.7821 0 0 0-3.318-4.239l-.545-.151.47-.31a6.0233 6.0233 0 0 0 1.844-2.018c.451-.805.711-1.704.76-2.626a5.7162 5.7162 0 0 0-1.42-4.032 6.4173 6.4173 0 0 0-2.321-1.702c-.583-.235-.959-.3-.959-.338Z" fill="#E0E0E0"/><path d="M237.82 310.2s.113 0 .273.122c.091.114.157.245.194.386.038.141.045.288.022.432-.173.446-.509.809-.94 1.015-.558.258-1.162.399-1.777.414-.712.033-1.425.011-2.134-.066-.376 0-.761-.103-1.156-.179a2.8836 2.8836 0 0 1-1.222-.46 1.379 1.379 0 0 1-.536-.94c-.005-.183.034-.364.114-.527.08-.164.199-.306.347-.413.5-.304 1.07-.475 1.654-.498a11.998 11.998 0 0 1 2.764-.047c.861.031 1.698.291 2.425.752 0 .084-.94-.292-2.453-.367-.893-.037-1.787.013-2.67.15-.491.032-.968.181-1.391.433-.376.254-.32.742.075 1.043.302.193.642.318.997.367.385.084.752.141 1.118.188.683.09 1.371.13 2.059.122 1.25 0 2.246-.442 2.51-1.062.056-.231.03-.474-.075-.686-.151-.094-.198-.179-.198-.179ZM238.196 320.305s.122 0 .273.122c.091.114.157.245.194.386.038.141.045.288.022.432-.173.446-.509.809-.94 1.015-.557.259-1.162.4-1.777.414-.712.033-1.425.011-2.134-.066-.376 0-.761-.103-1.156-.179a2.8836 2.8836 0 0 1-1.222-.46 1.379 1.379 0 0 1-.536-.94c-.005-.183.034-.364.114-.527.08-.164.199-.306.347-.413.501-.303 1.07-.474 1.654-.498a11.998 11.998 0 0 1 2.764-.047c.861.031 1.698.29 2.425.752 0 .084-.94-.292-2.453-.367-.893-.037-1.787.013-2.67.15-.491.032-.968.181-1.391.433-.376.254-.32.742.075 1.043.303.197.647.323 1.006.367.376.084.743.141 1.109.188.683.09 1.371.13 2.059.122 1.25 0 2.256-.442 2.51-1.062a.935.935 0 0 0-.076-.686c-.122-.104-.206-.151-.197-.179ZM237.98 330.072s.122 0 .272.122c.092.113.159.244.197.385.037.141.044.289.019.433-.167.448-.505.813-.94 1.015-.558.257-1.162.397-1.776.413-.712.038-1.426.016-2.134-.065-.388-.038-.774-.097-1.156-.179a2.8052 2.8052 0 0 1-1.231-.461c-.15-.111-.274-.252-.366-.414-.093-.161-.15-.34-.17-.526-.005-.183.035-.364.117-.528.082-.164.203-.305.353-.412a3.33 3.33 0 0 1 1.645-.507c.921-.112 1.852-.112 2.773 0 .858.022 1.693.279 2.415.742 0 .085-.94-.291-2.453-.366-.893-.039-1.787.015-2.669.16a3.03 3.03 0 0 0-1.392.423.6164.6164 0 0 0-.193.239.609.609 0 0 0-.055.303c.007.104.041.204.098.292.056.088.134.159.225.209.305.196.648.324 1.006.376.376.075.752.132 1.109.179.683.089 1.371.13 2.059.122 1.26 0 2.256-.433 2.51-1.062a.9398.9398 0 0 0-.066-.696c-.113-.122-.207-.169-.197-.197ZM213.822 319.234c0 .15-18.603.272-41.548.272-22.946 0-41.558-.122-41.558-.272 0-.151 18.603-.273 41.558-.273s41.548.122 41.548.273ZM190.585 324.638c0 .151-8.751.273-19.543.273-10.791 0-19.533-.122-19.533-.273 0-.15 8.742-.272 19.533-.272 10.792 0 19.543.122 19.543.272Z" fill="#E0E0E0"/><path d="M254.044 231.287v26.32H203.04v-26.32h51.004Z" fill="#EBEBEB"/><path d="M89.4408 244.701v.705a15.097 15.097 0 0 0 4.783 10.059 15.101 15.101 0 0 0 10.3792 4.041h151.819v-1.88h-36.039c-3.49 0-6.838-1.387-9.306-3.855a13.161 13.161 0 0 1 0-18.611 13.161 13.161 0 0 1 9.306-3.854h36.039v-2.82l-151.838.507a15.184 15.184 0 0 0-5.9219 1.215 15.1757 15.1757 0 0 0-4.9785 3.43 15.1817 15.1817 0 0 0-3.2453 5.1 15.185 15.185 0 0 0-.9975 5.963Z" fill="#D2D2D2"/><path d="M254.044 244.814c0 .15-10.481.263-23.406.263-12.925 0-23.406-.113-23.406-.263 0-.151 10.481-.273 23.406-.273 12.925 0 23.406.122 23.406.273ZM253.302 250.745c0 .15-9.917.273-22.147.273-12.229 0-22.146-.123-22.146-.273 0-.15 9.917-.273 22.146-.273 12.23 0 22.147.123 22.147.273ZM254.045 256.178c0 .141-8.921.263-19.91.263-10.988 0-19.918-.122-19.918-.263 0-.141 8.92-.272 19.918-.272s19.91.122 19.91.272ZM254.045 239.474c0 .151-10.265.273-22.927.273-12.662 0-22.927-.122-22.927-.273 0-.15 10.265-.263 22.927-.263 12.662 0 22.927.122 22.927.263ZM253.302 234.145c0 .15-9.137.272-20.398.272s-20.407-.122-20.407-.272c0-.151 9.127-.273 20.407-.273s20.398.122 20.398.273Z" fill="#E0E0E0"/><path d="M89.4408 244.701v.705a15.097 15.097 0 0 0 4.783 10.059 15.101 15.101 0 0 0 10.3792 4.041h151.819v-1.88h-36.039c-3.49 0-6.838-1.387-9.306-3.855a13.161 13.161 0 0 1 0-18.611 13.161 13.161 0 0 1 9.306-3.854h36.039v-2.82l-151.838.507a15.184 15.184 0 0 0-5.9219 1.215 15.1757 15.1757 0 0 0-4.9785 3.43 15.1817 15.1817 0 0 0-3.2453 5.1 15.185 15.185 0 0 0-.9975 5.963Z" fill="#000" opacity=".3"/><path d="M107.827 229.445a32.902 32.902 0 0 0-3.224 3.835 19.5037 19.5037 0 0 0-3.461 11.322 19.511 19.511 0 0 0 3.724 11.238c1.01 1.335 2.12 2.592 3.319 3.76a5.2687 5.2687 0 0 1-1.091-.809 17.274 17.274 0 0 1-2.538-2.716 19.2173 19.2173 0 0 1-3.966-11.465 19.214 19.214 0 0 1 3.694-11.556c.721-1.025 1.55-1.971 2.472-2.82.326-.303.685-.568 1.071-.789Z" fill="#fff"/><path d="M102.695 228.881a32.8144 32.8144 0 0 0-3.2241 3.835 19.504 19.504 0 0 0-3.4613 11.322 19.5065 19.5065 0 0 0 3.7245 11.238 33.2717 33.2717 0 0 0 3.3179 3.76 5.2892 5.2892 0 0 1-1.09-.809 17.2794 17.2794 0 0 1-2.5381-2.716 19.2142 19.2142 0 0 1-.2726-23.021 17.5994 17.5994 0 0 1 2.4717-2.82c.327-.303.686-.568 1.072-.789ZM205.86 229.445a32.8037 32.8037 0 0 0-3.224 3.835 19.5037 19.5037 0 0 0-3.461 11.322 19.5038 19.5038 0 0 0 3.724 11.238 33.2824 33.2824 0 0 0 3.318 3.76 5.2892 5.2892 0 0 1-1.09-.809 17.274 17.274 0 0 1-2.538-2.716 19.2107 19.2107 0 0 1-3.966-11.465 19.2198 19.2198 0 0 1 3.693-11.556c.721-1.025 1.55-1.971 2.473-2.82.326-.303.685-.568 1.071-.789Z" fill="#fff"/><path d="M200.699 228.881a32.902 32.902 0 0 0-3.224 3.835 19.5037 19.5037 0 0 0-3.461 11.322 19.511 19.511 0 0 0 3.724 11.238c1.01 1.335 2.12 2.592 3.319 3.76a5.2954 5.2954 0 0 1-1.091-.809 17.274 17.274 0 0 1-2.538-2.716 19.215 19.215 0 0 1-3.966-11.465 19.214 19.214 0 0 1 3.694-11.556c.721-1.025 1.55-1.971 2.472-2.82.326-.303.685-.568 1.071-.789ZM125.105 248.404l-.141-10.706a7.8316 7.8316 0 0 0-.386-2.764 2.5921 2.5921 0 0 0-.778-1.136 2.594 2.594 0 0 0-1.252-.575c-1.344-.592-3.431.527-4.371 2.068a10.2707 10.2707 0 0 0-1.053 5.246c-.018 2.825.121 5.649.414 8.46.061 1.342.4 2.658.996 3.863a3.23 3.23 0 0 0 1.307 1.512 3.231 3.231 0 0 0 1.945.456 3.2364 3.2364 0 0 0 1.842-.775 3.237 3.237 0 0 0 1.035-1.71c.391-1.274.541-2.61.442-3.939ZM184.052 245.34c0 .141-10.97.263-24.506.263s-24.505-.122-24.505-.263c0-.141 10.969-.273 24.505-.273s24.506.113 24.506.273Z" fill="#fff"/><path d="m583.364 223.297 15.51-13.677-1.88-.658-14.025-4.916-5.301-1.88-14.025-4.916-1.88-.658 3.6 20.351s-46.596 52.489-39.687 113.26l6.364 2.275 5.302 1.88 6.345 2.219c43.315-43.184 39.677-113.28 39.677-113.28Z" fill="#E0E0E0"/><path d="M583.364 223.297v.592c0 .395.047.94.057 1.767v6.844a194.1054 194.1054 0 0 1-2.482 25.474 175.963 175.963 0 0 1-10.34 37.543c-5.64 13.771-14.1 28.492-26.743 41.21l-.103.103-.141-.047-18.001-6.298-.141-.056v-.151a117.9475 117.9475 0 0 1 .742-30.747 139.6194 139.6194 0 0 1 6.035-24.355 171.127 171.127 0 0 1 9.306-22.072 195.7064 195.7064 0 0 1 11.28-19.514 168.862 168.862 0 0 1 12.417-16.741v.178c-1.253-7.238-2.444-14.025-3.572-20.36l-.056-.31.291.103 37.093 13.075.188.066-.151.122-11.562 10.105-2.998 2.595c-.668.583-1.025.874-1.025.874s.32-.31.94-.94c.621-.63 1.645-1.476 2.942-2.623l11.44-10.18v.198l-37.139-12.944.244-.207c1.128 6.345 2.341 13.113 3.629 20.351v.094l-.066.075a171.4238 171.4238 0 0 0-12.361 16.713 196.7851 196.7851 0 0 0-11.214 19.487 170.2196 170.2196 0 0 0-9.269 22.014 138.6602 138.6602 0 0 0-6.006 24.271 117.3401 117.3401 0 0 0-.752 30.616l-.16-.197 18.001 6.316-.245.057c12.606-12.653 21.085-27.307 26.696-41.031a176.1972 176.1972 0 0 0 10.453-37.44 199.8609 199.8609 0 0 0 2.613-25.437c.104-2.98.123-5.283.113-6.834v-1.767c0-.413.047-.592.047-.592Z" fill="#263238"/><path d="M570.298 215.664a38.6994 38.6994 0 0 1-1.419-5.903c-.475-1.97-.789-3.976-.94-5.997a39.357 39.357 0 0 1 1.419 5.903c.474 1.971.788 3.976.94 5.997Z" fill="#fff"/><path d="M543.499 334.358c16.074-17.775 23.453-35.72 31.283-61.307.855-2.82 1.993-5.395 2.67-8.168.071-.276.044-.567-.077-.825a1.2201 1.2201 0 0 0-.585-.586c-.257-.122-.549-.15-.824-.079-.276.07-.518.235-.686.465-2.19 2.82-4.352 5.828-7.444 7.37-4.4 2.19-9.401 3.534-12.888 6.965-1.88 1.805-3.252 4.145-5.508 5.405-3.084 1.73-6.872.987-10.397.874-3.525-.113-7.783 1.034-8.77 4.428 0 0-4.935 25.756-2.707 39.611l15.933 5.847Z" fill="#EBEBEB"/><path d="M591.852 181.317a26.246 26.246 0 0 1 12.093-5.806c4.465-.856 9.076-.536 13.381.927a24.8692 24.8692 0 0 1-12.481 6.55c-4.704.933-9.579.487-14.036-1.286M603.48 158.493a26.315 26.315 0 0 1-2.244-13.226c.407-4.528 1.98-8.874 4.566-12.614a24.905 24.905 0 0 1 2.857 13.805 24.9172 24.9172 0 0 1-5.094 13.145M591.608 154.705a22.9376 22.9376 0 0 1-6.571-9.826 22.9478 22.9478 0 0 1-.808-11.794 21.7596 21.7596 0 0 1 7.296 10.107 21.7582 21.7582 0 0 1 .553 12.453M597.323 128.066a16.7375 16.7375 0 0 1 3.208-8.028 16.737 16.737 0 0 1 6.785-5.358 15.856 15.856 0 0 1-3.077 8.549 15.8502 15.8502 0 0 1-7.263 5.457M581.315 202.805a16.737 16.737 0 0 1 5.538-6.623 16.7385 16.7385 0 0 1 8.101-2.984 15.852 15.852 0 0 1-5.543 7.157 15.8666 15.8666 0 0 1-8.557 2.958" fill="#455A64"/><path d="M600.594 102.206s-.733 9.626-3.045 25.051c-.301 1.927-.621 3.948-.94 6.044-.32 2.097-.752 4.277-1.147 6.533-.771 4.522-1.786 9.316-2.82 14.373-2.181 10.077-4.869 21.094-8.169 32.524-3.299 11.431-6.956 22.175-10.499 31.857-1.88 4.822-3.544 9.4-5.311 13.649-.875 2.115-1.683 4.173-2.529 6.128l-2.435 5.64c-6.298 14.269-10.828 22.795-10.828 22.795s.047-.141.169-.413l.554-1.185 2.153-4.53 1.57-3.272c.558-1.203 1.153-2.509 1.786-3.919 1.269-2.82 2.82-6.007 4.277-9.607l2.416-5.64c.827-1.955 1.626-4.023 2.491-6.138 1.757-4.24 3.449-8.827 5.264-13.649 3.525-9.682 7.125-20.426 10.462-31.838 3.337-11.412 5.988-22.438 8.187-32.449 1.044-5.048 2.078-9.832 2.82-14.344.404-2.256.837-4.428 1.175-6.524l.94-6.035c.658-3.844 1.091-7.341 1.523-10.406.216-1.532.414-2.961.592-4.277.179-1.316.301-2.519.423-3.6.263-2.143.461-3.826.602-4.982.075-.557.131-.99.169-1.297.122-.338.15-.489.15-.489ZM622.186 133.292c-.054.1-.117.194-.188.282l-.592.79-2.293 3.017-1.674 2.181-1.88 2.632c-1.372 1.88-2.979 4.023-4.615 6.476l-2.613 3.807c-.94 1.335-1.786 2.755-2.736 4.202-1.88 2.886-3.76 6.073-5.818 9.4-3.939 6.712-8.037 14.232-11.938 22.325-3.901 8.094-7.154 15.98-9.927 23.303-1.325 3.656-2.622 7.125-3.666 10.424-.535 1.645-1.099 3.225-1.56 4.766-.461 1.542-.94 3.018-1.335 4.428-.883 2.82-1.532 5.395-2.152 7.642-.311 1.128-.593 2.181-.856 3.149s-.451 1.88-.648 2.669c-.386 1.57-.696 2.82-.94 3.676-.104.404-.188.724-.245.94-.026.109-.061.216-.103.319.005-.11.021-.221.047-.329.056-.244.122-.564.207-.94.197-.874.47-2.115.827-3.703.178-.809.385-1.702.601-2.679.217-.978.527-2.021.818-3.159.602-2.265 1.222-4.859 2.087-7.679.414-1.41.855-2.896 1.307-4.437.451-1.542 1.005-3.121 1.532-4.775 1.034-3.309 2.322-6.787 3.638-10.463 2.754-7.294 6.034-15.218 9.907-23.349s8.028-15.632 11.985-22.344c2.04-3.328 3.939-6.514 5.875-9.4.94-1.448 1.88-2.82 2.754-4.192l2.651-3.76c1.655-2.435 3.281-4.55 4.7-6.439l1.946-2.614c.63-.78 1.194-1.504 1.711-2.152 1.015-1.269 1.805-2.266 2.369-2.961l.629-.762c.119-.2.182-.297.188-.291Z" fill="#263238"/><path d="M580.779 154.658c.061.222.102.448.122.677.066.498.151 1.147.264 1.965.112.817.235 1.88.329 3.111.094 1.231.253 2.594.319 4.127.066 1.532.179 3.214.207 5.019.028 1.805 0 3.76 0 5.762-.103 4.061-.376 8.526-.94 13.16-.564 4.635-1.354 9.062-2.209 13.029-.461 1.983-.884 3.863-1.372 5.64-.489 1.776-.94 3.365-1.382 4.831-.442 1.467-.893 2.82-1.279 3.939-.385 1.119-.752 2.143-1.062 2.942-.31.799-.536 1.382-.714 1.88-.075.218-.17.429-.282.63.038-.229.101-.453.188-.667l.63-1.88c.282-.809.629-1.796.94-2.961.31-1.166.808-2.473 1.212-3.958.404-1.485.94-3.074 1.326-4.831.385-1.758.874-3.619 1.316-5.64.836-3.958 1.607-8.348 2.171-12.991.564-4.644.827-9.081.94-13.16 0-2.021.085-3.948 0-5.744-.085-1.795-.075-3.478-.141-5.01-.066-1.532-.169-2.914-.244-4.126-.076-1.213-.17-2.256-.254-3.112-.085-.855-.132-1.476-.169-1.964.005-.225.033-.449.084-.668Z" fill="#263238"/><path d="M625.579 132.719a13.7343 13.7343 0 0 0-1.24 7.249 13.7249 13.7249 0 0 0 2.679 6.851c.601.789 1.513 1.569 2.462 1.297.95-.273 1.335-1.551 1.373-2.604.079-2.212-.298-4.416-1.106-6.476a16.1655 16.1655 0 0 0-3.594-5.5 18.4642 18.4642 0 0 0 8.845 6.12c1.316.423 3.018.583 3.854-.527.837-1.109.245-2.613-.536-3.694a10.8925 10.8925 0 0 0-5.592-3.868 10.9044 10.9044 0 0 0-6.797.202 10.217 10.217 0 0 0 5.317-3.025 10.226 10.226 0 0 0 2.636-5.519c.197-1.589-.32-3.61-1.88-3.911-.482-.043-.968.019-1.424.181-.456.162-.871.421-1.218.759a13.0994 13.0994 0 0 0-4.7 9.851c.286-2.21-.082-4.456-1.057-6.461a11.4306 11.4306 0 0 0-4.432-4.819c-1.232-.714-2.82-1.156-4.033-.394-1.513.94-1.457 3.214-.94 4.925a15.0469 15.0469 0 0 0 3.446 5.683 15.0417 15.0417 0 0 0 5.559 3.642 8.543 8.543 0 0 0-4.084-.178 8.5392 8.5392 0 0 0-3.699 1.738c-1.391 1.157-2.369 3.347-1.194 4.7 1.175 1.354 3.262.837 4.813.057a21.2795 21.2795 0 0 0 7.191-5.95" fill="#D2D2D2"/><path d="M627.506 142.363a45.5654 45.5654 0 0 0-.658-5.386 44.7853 44.7853 0 0 0-1.776-5.133 11.6335 11.6335 0 0 1 2.237 5.02c.498 1.792.566 3.676.197 5.499Z" fill="#263238"/><path d="M633.062 136.704a21.5932 21.5932 0 0 0-3.563-2.594c-2.171-1.1-4.164-1.457-4.126-1.617a9.409 9.409 0 0 1 4.352 1.194 7.227 7.227 0 0 1 3.337 3.017Z" fill="#263238"/><path d="M629.34 125.17a8.1237 8.1237 0 0 1-1.044 4.202 6.636 6.636 0 0 1-2.904 3.187 19.4935 19.4935 0 0 0 2.472-3.412c.56-1.299 1.053-2.627 1.476-3.977Z" fill="#263238"/><path d="M624.865 130.51c.31-.113.645-.131.965-.055a1.685 1.685 0 0 1 1.267 1.351c.056.324.015.658-.117.96-.484-.189-.995-.3-1.513-.329a7.0921 7.0921 0 0 0-.602-1.88" fill="#fff"/><path d="M617.411 122.473c.605.237 1.165.577 1.655 1.005a17.1712 17.1712 0 0 1 5.64 7.445c.273.594.444 1.23.507 1.88a33.9887 33.9887 0 0 0-3.177-5.696 33.9827 33.9827 0 0 0-4.625-4.634Z" fill="#263238"/><path d="M576.371 154.884a13.7673 13.7673 0 0 1-3.558 6.431 13.7497 13.7497 0 0 1-6.359 3.683c-.94.235-2.162.273-2.736-.526-.573-.799-.075-2.049.545-2.895a16.1986 16.1986 0 0 1 4.909-4.366 16.2045 16.2045 0 0 1 6.24-2.055c-3.569.824-7.302.569-10.726-.733-1.297-.498-2.726-1.438-2.679-2.82.047-1.382 1.429-2.199 2.717-2.557 2.253-.572 4.63-.408 6.784.468 2.153.876 3.969 2.419 5.182 4.402a10.248 10.248 0 0 1-2.259-5.687c-.156-2.081.327-4.161 1.385-5.96.837-1.363 2.5-2.613 3.92-1.88.4.276.736.635.985 1.051.25.417.408.882.463 1.365.374 1.846.347 3.752-.081 5.586a13.1181 13.1181 0 0 1-2.401 5.045 11.4238 11.4238 0 0 1 4.863-4.401 11.43 11.43 0 0 1 6.483-1.004c1.41.216 2.942.865 3.402 2.209.583 1.702-.864 3.422-2.368 4.409a14.9626 14.9626 0 0 1-6.24 2.298c-2.226.288-4.489.071-6.62-.634a8.5354 8.5354 0 0 1 3.302 2.412 8.5406 8.5406 0 0 1 1.803 3.669c.366 1.768-.226 4.089-2.012 4.437-1.786.348-3.074-1.391-3.76-2.97a21.0894 21.0894 0 0 1-1.88-9.137" fill="#D2D2D2"/><path d="M568.851 161.21a45.3542 45.3542 0 0 1 3.872-3.76 44.917 44.917 0 0 1 4.588-2.914 11.9726 11.9726 0 0 0-4.888 2.529 11.8208 11.8208 0 0 0-3.572 4.145Z" fill="#263238"/><path d="M568.033 153.323a21.581 21.581 0 0 1 4.399.198c2.388.498 4.174 1.466 4.249 1.316a9.463 9.463 0 0 0-4.146-1.786 7.3251 7.3251 0 0 0-4.502.272Z" fill="#263238"/><path d="M578.147 146.64a7.9092 7.9092 0 0 0-1.805 3.929 6.6975 6.6975 0 0 0 .273 4.306c-.084-1.407-.018-2.819.197-4.212a37.681 37.681 0 0 1 1.335-4.023Z" fill="#263238"/><path d="M578.307 153.606a1.709 1.709 0 0 0-.72-.643c-.297-.14-.628-.191-.953-.147-.325.053-.628.196-.874.414-.246.218-.426.502-.517.817.498.152.967.384 1.391.687.497-.459 1.061-.84 1.673-1.128" fill="#fff"/><path d="M589.155 151.979a5.7779 5.7779 0 0 0-1.937-.254c-1.584-.036-3.166.147-4.7.546-1.527.388-2.992.989-4.352 1.786-.588.285-1.119.674-1.57 1.146a24.1913 24.1913 0 0 1 12.521-3.224h.038Z" fill="#263238"/><path d="M602.032 95.8801a19.095 19.095 0 0 1-8.387 5.8019 19.1005 19.1005 0 0 1-10.178.656c-1.344-.301-2.867-.94-3.083-2.3407-.216-1.4006 1.175-2.5944 2.472-3.2618a22.421 22.421 0 0 1 8.816-2.409 22.4175 22.4175 0 0 1 9.044 1.3092 25.7106 25.7106 0 0 1-12.887-7.52c-1.297-1.4194-2.5-3.4592-1.589-5.1606.912-1.7014 3.14-1.88 4.954-1.4946a15.1136 15.1136 0 0 1 8.151 4.7676 15.12 15.12 0 0 1 3.731 8.6744 14.2125 14.2125 0 0 1 6.091-15.04c1.88-1.175 4.7-1.7014 6.025.094.799 1.0904.64 2.5944.311 3.901a18.174 18.174 0 0 1-3.546 6.8959 18.1656 18.1656 0 0 1-6.099 4.7883 15.8965 15.8965 0 0 1 17.447.2726c1.616 1.1468 3.12 2.8952 2.867 4.8507-.329 2.481-3.187 3.76-5.64 4.023-3.103.359-6.246.015-9.197-1.005a20.8275 20.8275 0 0 1-7.855-4.8889 11.816 11.816 0 0 1 2.619 5.0279c.452 1.864.444 3.81-.025 5.669-.639 2.435-2.82 4.954-5.235 4.277-2.416-.676-2.961-3.619-2.886-6.025a29.452 29.452 0 0 1 3.271-12.5397" fill="#D2D2D2"/><path d="M588.779 99.0855c.094.188 3.092-1.4852 7.162-2.3312 4.071-.846 7.52-.5734 7.52-.7802 0-.2068-3.431-.7802-7.632.1316-4.202.9118-7.154 2.8482-7.05 2.9798Z" fill="#263238"/><path d="M592.633 88.7642c-.057.2068 2.688.8648 5.348 2.9704 2.66 2.1056 4.287 4.3898 4.465 4.2488a13.0868 13.0868 0 0 0-4.051-4.8034c-2.801-2.1808-5.772-2.5756-5.762-2.4158Z" fill="#263238"/><path d="M609.337 86.6964c-.066-.141-2.585 1.0904-4.7 3.76s-2.482 5.546-2.303 5.5366c.178-.0094.799-2.585 2.82-5.123 2.021-2.538 4.305-3.995 4.183-4.1736Z" fill="#263238"/><path d="M605.238 95.4571a2.3334 2.3334 0 0 0-.495-1.2495 2.3316 2.3316 0 0 0-3.585-.0853 6.6531 6.6531 0 0 1 1.307 1.7108 9.4717 9.4717 0 0 1 2.82-.376" fill="#fff"/><path d="M619.723 100.129a7.6333 7.6333 0 0 0-2.246-1.5041 23.9518 23.9518 0 0 0-12.653-2.679 8.0788 8.0788 0 0 0-2.66.4606c0 .2256 4.127-.4042 9.034.6674 4.906 1.0716 8.422 3.2431 8.525 3.0551ZM585.874 297.491c.121-.53.278-1.051.47-1.56.169-.498.367-1.109.564-1.824.197-.714.47-1.523.677-2.444.545-2.121.975-4.271 1.288-6.439.361-2.661.559-5.342.592-8.027-.004-2.684-.17-5.365-.498-8.028-.289-2.172-.69-4.328-1.204-6.458-.197-.94-.451-1.729-.648-2.444-.198-.714-.376-1.335-.545-1.833a8.9002 8.9002 0 0 1-.442-1.569c.242.486.449.988.62 1.503.198.499.414 1.1.63 1.815.216.714.498 1.523.714 2.444a53.8735 53.8735 0 0 1 1.326 6.486c.356 2.683.535 5.386.536 8.093a60.9285 60.9285 0 0 1-.64 8.084 54.6473 54.6473 0 0 1-1.391 6.467c-.235.94-.526 1.72-.752 2.425a26.118 26.118 0 0 1-.648 1.805 8.7072 8.7072 0 0 1-.649 1.504ZM590.536 298.262c.118-.534.275-1.059.47-1.57.169-.498.367-1.099.564-1.823.198-.724.47-1.523.677-2.435.545-2.124.972-4.277 1.278-6.448.37-2.658.571-5.336.602-8.018-.003-2.684-.17-5.365-.498-8.028-.288-2.175-.69-4.334-1.203-6.467-.198-.94-.452-1.72-.649-2.444s-.385-1.335-.545-1.833c-.189-.512-.34-1.036-.451-1.57.251.486.462.992.629 1.513.198.489.414 1.091.63 1.815.216.723.498 1.522.715 2.434a52.85 52.85 0 0 1 1.316 6.486c.359 2.683.541 5.387.545 8.094a60.954 60.954 0 0 1-.639 8.084 56.433 56.433 0 0 1-1.392 6.467c-.235.94-.526 1.72-.752 2.434-.225.715-.451 1.316-.648 1.805-.179.517-.395 1.02-.649 1.504Z" fill="#263238"/><path d="M532.802 298.375s0-.282.141-.818.282-1.363.479-2.35c.198-.987.489-2.265.846-3.694.357-1.429.733-3.074 1.25-4.86.517-1.786 1.034-3.76 1.702-5.847.667-2.086 1.382-4.314 2.171-6.645 1.636-4.635 3.6-9.682 5.903-14.871 2.303-5.189 4.794-10.011 7.154-14.326 1.212-2.143 2.35-4.183 3.506-6.044 1.156-1.861 2.209-3.6 3.224-5.161 1.015-1.56 1.965-2.951 2.82-4.173.856-1.222 1.57-2.256 2.19-3.093.621-.836 1.081-1.447 1.429-1.88.156-.231.332-.448.527-.648-.133.245-.284.481-.452.705l-1.344 1.983a85.159 85.159 0 0 0-2.124 3.13c-.809 1.25-1.758 2.623-2.726 4.211-.968 1.589-2.078 3.29-3.168 5.18-1.09 1.889-2.256 3.91-3.459 6.053-2.331 4.324-4.766 9.137-7.097 14.307-2.331 5.17-4.268 10.209-5.932 14.824-.799 2.322-1.579 4.521-2.209 6.58-.629 2.059-1.24 4.023-1.748 5.809-.508 1.786-.94 3.412-1.316 4.841-.376 1.429-.696 2.66-.94 3.676-.244 1.015-.432 1.748-.573 2.321-.058.271-.143.536-.254.79ZM531.42 322.806c-.593-4.1-.514-8.269.235-12.343.141 0-.076 2.82-.132 6.176-.056 3.356.038 6.157-.103 6.167Z" fill="#fff"/><path d="M515.552 356.241h-31.621v64.061h31.621v-64.061ZM197.287 356.241h-31.621v64.061h31.621v-64.061Z" fill="#455A64"/><path d="m165.666 377.908 31.621.602v-11.769h-31.621v11.167ZM483.931 377.908l31.621.602v-11.769h-31.621v11.167Z" fill="#000" opacity=".3"/><path d="M565.118 336.2H100.523v30.55h464.595V336.2Z" fill="#455A64"/><path d="M565.128 366.741c0 .141-103.635.244-231.447.244s-231.466-.103-231.466-.244c0-.141 103.645-.244 231.485-.244 127.84 0 231.428.103 231.428.244ZM565.128 336.2c0 .132-103.635.245-231.447.245s-231.466-.113-231.466-.245c0-.131 103.645-.244 231.485-.244 127.84 0 231.428.103 231.428.244Z" fill="#263238"/></svg>