<svg width="24" height="24" viewBox="0 0 24 24" fill="none" xmlns="http://www.w3.org/2000/svg"><path fill-rule="evenodd" clip-rule="evenodd" d="m12 10.93 5.719-5.72a.7495.7495 0 0 1 .531-.219c.404 0 .75.324.75.749 0 .193-.073.385-.219.532l-5.72 5.719 5.719 5.719c.147.147.22.339.22.531 0 .427-.349.75-.75.75a.7495.7495 0 0 1-.531-.219L12 13.053l-5.719 5.719a.7495.7495 0 0 1-.531.219c-.401 0-.75-.323-.75-.75 0-.192.073-.384.22-.531l5.719-5.719-5.72-5.719A.7518.7518 0 0 1 5 5.74c0-.425.346-.749.75-.749.192 0 .385.073.531.219L12 10.93Z" fill="#000"/></svg>