<svg width="264" height="264" viewBox="0 0 264 264" fill="none" xmlns="http://www.w3.org/2000/svg"><path d="m121.52 143.376 20.618 1.316-.865-1.793-6.449-13.386-2.422-5.076-6.448-13.386-.865-1.793-11.814 16.905s-69.9851 4.089-107.9799 51.854l2.8948 6.105 2.4223 5.076 2.9213 6.052c61.0989.158 107.9865-51.874 107.9865-51.874Z" fill="#E0E0E0"/><path d="m121.52 143.376-.418.418c-.279.278-.63.696-1.207 1.286-1.094 1.095-2.719 2.72-4.829 4.829a193.3343 193.3343 0 0 1-19.7289 16.22 175.3137 175.3137 0 0 1-33.8023 19.179c-13.705 5.729-30.0738 10.133-47.9878 10.167h-.146l-.0666-.133-8.2848-17.172-.0598-.14.106-.106a117.485 117.485 0 0 1 22.2206-21.17 139.024 139.024 0 0 1 21.4525-12.918 170.5477 170.5477 0 0 1 22.1538-8.993 194.9677 194.9677 0 0 1 21.7456-5.793 168.6032 168.6032 0 0 1 20.5927-3.033l-.126.126c4.221-5.993 8.168-11.624 11.841-16.892l.179-.259.133.279 17.002 35.455.087.179-.193-.02-15.305-1.045-3.951-.29c-.883-.061-1.342-.108-1.342-.108s.445.007 1.328.002c.883-.006 2.205.121 3.931.23l15.273.905-.14.14-17.128-35.395.319.027c-3.68 5.275-7.598 10.908-11.794 16.925l-.067.067-.099.006a171.2895 171.2895 0 0 0-20.5337 3.053 196.4298 196.4298 0 0 0-21.6791 5.819 169.856 169.856 0 0 0-22.0875 8.98 138.1102 138.1102 0 0 0-21.3728 12.879 116.8923 116.8923 0 0 0-22.1344 21.07l.0263-.252 8.2715 17.186-.2126-.133c17.8409-.014 34.1767-4.359 47.8285-10.075a175.528 175.528 0 0 0 33.8091-19.026 198.9044 198.9044 0 0 0 19.7957-16.101c2.176-2.029 3.814-3.641 4.902-4.742l1.247-1.247c.292-.292.451-.384.451-.384Z" fill="#263238"/><path d="M117.666 128.751a38.508 38.508 0 0 1 3.162-5.169 37.3965 37.3965 0 0 1 3.567-4.896 39.1829 39.1829 0 0 1-3.162 5.169 37.5985 37.5985 0 0 1-3.567 4.896Z" fill="#fff"/><path d="M14.9658 193.551c23.9084-1.176 41.7878-8.62 65.3787-21.137 2.5947-1.385 5.2163-2.398 7.6515-3.876.2447-.144.4314-.369.5277-.636a1.222 1.222 0 0 0-.5273-1.466 1.2235 1.2235 0 0 0-.8128-.157c-3.5385.441-7.1897 1.035-10.4643-.064-4.6561-1.565-9.1407-4.153-14.0276-4.198-2.6028-.056-5.2248.625-7.7088-.081-3.4005-.96-5.5552-4.162-7.9682-6.735-2.4129-2.572-6.2331-4.774-9.3254-3.077 0 0-21.6631 14.684-29.8644 26.036l7.1409 15.391Z" fill="#EBEBEB"/><path d="M157.143 119.756c4.529.365 8.887 1.9 12.648 4.454a26.2968 26.2968 0 0 1 8.808 10.117 24.8964 24.8964 0 0 1-13.447-4.205 24.909 24.909 0 0 1-9.018-10.832M181.469 111.874a26.2103 26.2103 0 0 1 7.746-10.919 26.2264 26.2264 0 0 1 12.129-5.6724 24.8002 24.8002 0 0 1-7.72 11.7604 24.832 24.832 0 0 1-12.877 5.674M175.748 100.806a22.8887 22.8887 0 0 1 2.286-11.5798 22.8537 22.8537 0 0 1 7.751-8.8927 21.7161 21.7161 0 0 1-1.972 12.2909 21.6727 21.6727 0 0 1-8.396 9.1776M198.586 86.0507a16.6855 16.6855 0 0 1 7.933-3.3966 16.7372 16.7372 0 0 1 8.578 1.0172 15.8078 15.8078 0 0 1-8.208 3.8569c-3.055.4569-6.179.01-8.987-1.2857M134.53 127.467c2.746-.999 5.708-1.26 8.589-.757a16.766 16.766 0 0 1 7.834 3.623 15.8262 15.8262 0 0 1-8.97 1.13 15.8762 15.8762 0 0 1-8.137-3.963" fill="#455A64"/><path d="M219.145 70.1172s-7.31 6.2734-19.829 15.5225c-1.573 1.147-3.225 2.347-4.93 3.6001-1.705 1.2531-3.549 2.4861-5.42 3.7987-3.736 2.6453-7.836 5.3101-12.136 8.1475-8.652 5.568-18.327 11.441-28.725 17.173-10.398 5.732-20.565 10.728-29.902 15.053-4.732 2.074-9.139 4.127-13.387 5.876-2.11.874-4.134 1.755-6.112 2.536l-5.7011 2.258c-14.5218 5.615-23.7414 8.427-23.7414 8.427s.1328-.066.4115-.172l1.2279-.444 4.719-1.674 3.4183-1.198c1.2433-.455 2.5862-.956 4.0286-1.503 2.8872-1.093 6.2324-2.245 9.8029-3.755l5.6878-2.271c1.9645-.795 3.9885-1.689 6.0925-2.57 4.234-1.748 8.668-3.788 13.353-5.908 9.324-4.339 19.451-9.375 29.863-15.067 10.411-5.693 20.066-11.598 28.685-17.107 4.299-2.8236 8.407-5.4685 12.115-8.1271 1.878-1.306 3.716-2.5324 5.434-3.7722l4.923-3.5935c3.178-2.2475 5.951-4.4091 8.419-6.2656a818.9342 818.9342 0 0 0 3.437-2.5991c1.055-.8023 1.99-1.5648 2.839-2.2412 1.699-1.3261 3.026-2.3738 3.941-3.0899.447-.3404.792-.6056 1.035-.7957.325-.1523.451-.2385.451-.2385ZM212.479 107.319c-.108.032-.219.054-.332.066l-.976.138-3.751.508-2.722.355-3.186.528c-2.297.356-4.946.732-7.834 1.307l-4.534.838c-1.606.277-3.206.68-4.899 1.03-3.365.707-6.943 1.626-10.747 2.519-7.52 1.95-15.725 4.359-24.194 7.311s-16.333 6.217-23.461 9.423c-3.517 1.643-6.882 3.173-9.948 4.764-1.54.781-3.053 1.497-4.466 2.259-1.414.762-2.794 1.464-4.068 2.18-2.614 1.365-4.89 2.724-6.914 3.87-1.0156.577-1.9579 1.12-2.8272 1.617-.8693.498-1.6456 1.008-2.3423 1.426-1.3802.835-2.4816 1.497-3.258 1.928-.3584.212-.6437.378-.8361.491a2.2167 2.2167 0 0 1-.2986.152c.0818-.075.1707-.141.2653-.199.2124-.132.4844-.311.8095-.517.7565-.477 1.8247-1.16 3.1982-2.028.6967-.444 1.473-.928 2.3157-1.465s1.7983-1.054 2.8065-1.65c2.024-1.174 4.294-2.565 6.895-3.944 1.287-.702 2.648-1.438 4.054-2.206 1.407-.769 2.914-1.491 4.453-2.286 3.066-1.604 6.431-3.147 9.955-4.81 7.094-3.2 15.005-6.471 23.481-9.47 8.476-2.999 16.706-5.354 24.24-7.291 3.791-.906 7.382-1.812 10.787-2.479 1.686-.356 3.319-.66 4.906-1.01l4.527-.779c2.888-.548 5.53-.89 7.867-1.22l3.22-.468c.996-.105 1.905-.217 2.729-.309 1.613-.178 2.874-.322 3.764-.414l.983-.092c.225-.058.338-.082.338-.073Z" fill="#263238"/><path d="M168.124 93.1161a3.7802 3.7802 0 0 1-.391.564c-.305.398-.703.9155-1.201 1.5723-.497.6568-1.16 1.4927-1.962 2.4281-.803.9353-1.651 2.0101-2.686 3.1375-1.035 1.128-2.142 2.395-3.396 3.688-1.253 1.294-2.653 2.653-4.066 4.066-2.938 2.792-6.281 5.75-9.95 8.621-3.669 2.871-7.351 5.437-10.755 7.631-1.725 1.074-3.351 2.101-4.95 3.009-1.599.908-3.039 1.71-4.386 2.432-1.347.723-2.621 1.359-3.683 1.875-1.062.517-2.044.981-2.827 1.325-.783.345-1.354.596-1.832.822-.207.1-.422.182-.644.245.188-.135.391-.248.604-.338l1.772-.881c.77-.371 1.712-.822 2.754-1.425 1.042-.603 2.316-1.173 3.65-1.935s2.833-1.504 4.346-2.472 3.172-1.935 4.91-3.049c3.384-2.201 7.027-4.753 10.702-7.631s6.992-5.822 9.95-8.621c1.426-1.426 2.846-2.726 4.053-4.053 1.207-1.326 2.401-2.507 3.435-3.634 1.035-1.1281 1.937-2.1762 2.739-3.085.803-.9088 1.473-1.7115 2.016-2.3749.544-.6634.949-1.1344 1.267-1.5059.162-.1551.34-.2929.531-.4111Z" fill="#263238"/><path d="M215.283 109.314a13.679 13.679 0 0 0-5.992 4.238 13.6989 13.6989 0 0 0-2.94 6.728c-.131.982-.037 2.178.826 2.657.864.479 2.039-.151 2.808-.867a16.0759 16.0759 0 0 0 3.788-5.352 16.1347 16.1347 0 0 0 1.339-6.422 18.455 18.455 0 0 0 1.937 10.573c.632 1.229 1.722 2.545 3.096 2.354 1.374-.191 2.017-1.671 2.228-2.986.315-2.3-.115-4.642-1.225-6.683a10.9167 10.9167 0 0 0-4.949-4.664 10.232 10.232 0 0 0 5.894 1.625c2.083-.073 4.093-.781 5.759-2.031 1.26-.981 2.32-2.773 1.429-4.088-.31-.372-.697-.672-1.134-.879a3.3618 3.3618 0 0 0-1.397-.326 13.076 13.076 0 0 0-5.535.691c-1.773.626-3.39 1.628-4.739 2.937a11.3714 11.3714 0 0 0 3.811-5.307c.725-2.1041.817-4.3755.266-6.5342-.366-1.3749-1.178-2.8099-2.573-3.1301-1.733-.4069-3.298 1.2381-4.14 2.8108a15.0006 15.0006 0 0 0-1.572 6.4465 15.047 15.047 0 0 0 1.36 6.501 8.5572 8.5572 0 0 0-2.761-3.014 8.5636 8.5636 0 0 0-3.843-1.389c-1.8-.168-4.037.686-4.161 2.472-.124 1.786 1.716 2.897 3.364 3.443 2.992.979 6.162 1.282 9.283.887" fill="#fff"/><path d="M209.841 117.482a45.6176 45.6176 0 0 0 3.335-4.266 44.7421 44.7421 0 0 0 2.365-4.878 11.5856 11.5856 0 0 1-1.96 5.124 11.7473 11.7473 0 0 1-3.74 4.02Z" fill="#263238"/><path d="M217.762 117.417a21.6409 21.6409 0 0 0-.689-4.35c-.759-2.311-1.916-3.972-1.777-4.058a9.4082 9.4082 0 0 1 2.235 3.919c.553 1.435.634 3.008.231 4.489Z" fill="#263238"/><path d="M223.268 106.647a8.0987 8.0987 0 0 1-3.702 2.227c-1.372.542-2.886.61-4.303.194a19.349 19.349 0 0 0 4.156-.659 40.9874 40.9874 0 0 0 3.849-1.762Z" fill="#263238"/><path d="M216.336 107.25c.298.14.549.364.721.644.172.281.259.605.248.934-.01.328-.116.647-.306.915-.189.268-.453.475-.759.595-.21-.476-.492-.915-.838-1.303.38-.539.684-1.128.901-1.752" fill="#fff"/><path d="M216.736 96.3083c.261.5956.417 1.2315.46 1.8796a17.111 17.111 0 0 1-1.265 9.2411 5.7846 5.7846 0 0 1-.967 1.685 33.8632 33.8632 0 0 0 1.773-6.266c.21-2.174.21-4.3642-.001-6.5397Z" fill="#263238"/><path d="M164.847 90.1579a13.7246 13.7246 0 0 1-7.053 2.0225 13.7689 13.7689 0 0 1-7.096-1.8982c-.83-.4988-1.721-1.3364-1.563-2.3056.159-.9692 1.393-1.4991 2.429-1.6573a16.1737 16.1737 0 0 1 6.551.391 16.212 16.212 0 0 1 5.862 2.962 18.527 18.527 0 0 1-7.067-8.1014c-.565-1.2688-.912-2.9424.096-3.8841 1.008-.9418 2.562-.5417 3.725.1168a10.9115 10.9115 0 0 1 4.467 5.1266c.904 2.1408 1.1 4.5134.558 6.7705a10.218 10.218 0 0 1 2.415-5.6098 10.2135 10.2135 0 0 1 5.185-3.2262c1.553-.3702 3.612-.0758 4.098 1.4452a3.404 3.404 0 0 1-.044 1.4384 3.3974 3.3974 0 0 1-.637 1.2898 13.0353 13.0353 0 0 1-3.999 3.8846 13.0598 13.0598 0 0 1-5.257 1.8622 11.4227 11.4227 0 0 1 6.545.3331 11.4585 11.4585 0 0 1 5.292 3.8758c.844 1.1496 1.47 2.6906.847 3.9648-.788 1.6124-3.026 1.8024-4.786 1.4354a14.9673 14.9673 0 0 1-6.033-2.7905 14.9774 14.9774 0 0 1-4.233-5.128 8.5442 8.5442 0 0 1 .632 4.0364 8.5181 8.5181 0 0 1-1.315 3.8641c-.987 1.506-3.044 2.726-4.553 1.708-1.508-1.017-1.192-3.1549-.562-4.7544a20.9996 20.9996 0 0 1 5.117-7.7763" fill="#fff"/><path d="M155.066 89.3042a45.2488 45.2488 0 0 1 5.392.0854c1.788.2888 3.558.6853 5.3 1.1875a11.99 11.99 0 0 0-5.241-1.6721 11.816 11.816 0 0 0-5.451.3992Z" fill="#263238"/><path d="M160.052 83.161a21.6588 21.6588 0 0 1 2.972 3.25c1.337 2.0398 1.916 3.9859 2.076 3.933a9.4926 9.4926 0 0 0-1.671-4.1915 7.3401 7.3401 0 0 0-3.377-2.9915Z" fill="#263238"/><path d="M171.92 85.5973a7.8776 7.8776 0 0 0-4.048 1.4962 6.663 6.663 0 0 0-2.845 3.2305 19.725 19.725 0 0 1 3.111-2.8318 37.5159 37.5159 0 0 1 3.782-1.8949Z" fill="#263238"/><path d="M167.118 90.6251a1.6966 1.6966 0 0 0-.055-.9621 1.7136 1.7136 0 0 0-.571-.7782 1.7372 1.7372 0 0 0-1.852-.1148c.245.4592.413.9549.499 1.4679.676.0275 1.343.158 1.979.3872Z" fill="#fff"/><path d="M175.936 97.148a5.7395 5.7395 0 0 0-1.19-1.5483 17.1244 17.1244 0 0 0-3.708-2.9387 16.815 16.815 0 0 0-4.337-1.8173 5.4721 5.4721 0 0 0-1.92-.3008 24.2262 24.2262 0 0 1 11.129 6.5785l.026.0266Z" fill="#263238"/><path d="M224.626 66.6705a19.093 19.093 0 0 1-10.025-1.8372 19.124 19.124 0 0 1-7.659-6.7336c-.739-1.1628-1.364-2.6906-.529-3.8317.835-1.1412 2.662-.9998 4.05-.5534a22.4548 22.4548 0 0 1 7.933 4.5337 22.4697 22.4697 0 0 1 5.472 7.3192c-2.666-4.3274-3.991-9.3451-3.807-14.419.084-1.9187.673-4.2088 2.518-4.7646 1.845-.5558 3.547.8935 4.557 2.4483a15.1183 15.1183 0 0 1 2.4 9.1275 15.063 15.063 0 0 1-3.483 8.7588 14.155 14.155 0 0 1 6.467-5.4931 14.1888 14.1888 0 0 1 8.453-.8121c2.158.5003 4.524 2.1229 4.194 4.327-.204 1.3343-1.379 2.2825-2.533 2.9718a18.1078 18.1078 0 0 1-7.373 2.3586c-2.6.2459-5.223-.0726-7.691-.9337a15.9212 15.9212 0 0 1 7.941 4.4531 15.9209 15.9209 0 0 1 4.203 8.0757c.334 1.9524.164 4.2496-1.395 5.4497-1.984 1.5184-4.907.3998-6.827-1.1493a20.8654 20.8654 0 0 1-5.794-7.2125 20.8393 20.8393 0 0 1-2.105-9.0035c-.118 1.9118-.7 3.765-1.696 5.3996a11.7628 11.7628 0 0 1-4.017 3.9829c-2.17 1.2659-5.49 1.5014-6.72-.6844-1.231-2.1858.459-4.6473 2.211-6.2921a29.33 29.33 0 0 1 11.161-6.5349" fill="#fff"/><path d="M212.993 59.5601c-.067.1992 3.234 1.1389 6.709 3.42 3.475 2.2811 5.722 4.9128 5.868 4.7669.146-.1459-1.875-2.9766-5.49-5.3043-3.614-2.3278-7.068-3.0485-7.087-2.8826Z" fill="#263238"/><path d="M223 55.0026c-.186.106 1.291 2.5112 1.686 5.8779.395 3.3668-.067 6.1284.159 6.1552.681-2.01.861-4.1566.525-6.254-.442-3.5196-2.264-5.8985-2.37-5.7791Z" fill="#263238"/><path d="M236.271 65.355c.053-.146-2.597-1.0585-5.976-.6704-3.38.3882-5.668 2.1586-5.535 2.2782.132.1197 2.388-1.259 5.608-1.6207 3.22-.3618 5.863.2253 5.903.0129Z" fill="#263238"/><path d="M227.192 68.6385c.294-.3493.479-.7777.531-1.2319a2.3263 2.3263 0 0 0-.237-1.3219 2.3341 2.3341 0 0 0-.928-.9727 2.3312 2.3312 0 0 0-1.309-.3001 6.6528 6.6528 0 0 1-.283 2.1311 9.5011 9.5011 0 0 1 2.259 1.7287" fill="#fff"/><path d="M234.137 82.1776a7.6383 7.6383 0 0 0-.527-2.6498 23.9906 23.9906 0 0 0-7.056-10.8369 8.0906 8.0906 0 0 0-2.206-1.5561c-.16.1592 3.203 2.6328 5.916 6.8585 2.714 4.2258 3.668 8.2438 3.873 8.1843ZM70.943 197.502c.4595-.289.9385-.546 1.4334-.769.4711-.232 1.0418-.523 1.6855-.888.6437-.364 1.4069-.742 2.2031-1.246a60.4713 60.4713 0 0 0 5.454-3.632 65.1993 65.1993 0 0 0 6.083-5.246 65.9429 65.9429 0 0 0 5.312-6.017 62.5048 62.5048 0 0 0 3.7059-5.407c.5237-.803.9013-1.539 1.2658-2.183.3645-.644.676-1.208.9079-1.679.2212-.497.4873-.972.7952-1.42-.172.514-.38 1.015-.6225 1.5-.2119.491-.4836 1.068-.8348 1.725s-.7222 1.427-1.2193 2.23a53.767 53.767 0 0 1-3.6394 5.514 61.3375 61.3375 0 0 1-5.3318 6.089 60.5274 60.5274 0 0 1-6.1561 5.252 54.542 54.542 0 0 1-5.547 3.58c-.8294.497-1.5859.841-2.2429 1.179-.657.338-1.2476.61-1.7321.815-.4864.249-.9953.45-1.5199.603ZM73.6962 201.343c.4603-.294.9416-.553 1.4399-.776.4712-.232 1.0353-.516 1.6856-.888.6503-.371 1.4068-.742 2.1964-1.239a58.8398 58.8398 0 0 0 5.454-3.646 63.148 63.148 0 0 0 6.0831-5.232 65.958 65.958 0 0 0 5.312-6.017 62.73 62.73 0 0 0 3.7124-5.414c.5234-.803.8944-1.533 1.2664-2.183.371-.65.669-1.214.907-1.679.228-.494.491-.971.789-1.426a9.766 9.766 0 0 1-.623 1.513c-.205.484-.476 1.062-.834 1.725-.358.664-.723 1.427-1.213 2.223a52.378 52.378 0 0 1-3.646 5.507 61.3516 61.3516 0 0 1-5.3252 6.096 60.472 60.472 0 0 1-6.1561 5.253 56.0343 56.0343 0 0 1-5.547 3.579c-.8294.497-1.586.842-2.2496 1.186a24.05 24.05 0 0 1-1.7321.815c-.4908.239-.9988.44-1.5198.603Z" fill="#263238"/><path d="M32.7917 160.597s.1991-.199.6768-.477c.4778-.278 1.1611-.762 1.9971-1.319.836-.557 1.9441-1.253 3.2049-2.009 1.2607-.755 2.6873-1.65 4.3131-2.545 1.6258-.894 3.3842-1.921 5.3286-2.922 1.9444-1.001 4.0215-2.067 6.2247-3.154 4.4264-2.113 9.3773-4.286 14.667-6.319 5.2897-2.032 10.4537-3.673 15.1665-5.05 2.3696-.654 4.6132-1.289 6.744-1.785s4.1023-.978 5.9212-1.362a146.343 146.343 0 0 1 4.9394-.95c1.467-.258 2.701-.482 3.73-.634 1.029-.151 1.786-.257 2.337-.316.274-.053.551-.081.83-.086-.267.08-.54.139-.816.179l-2.35.449c-1.023.171-2.257.396-3.711.706-1.454.311-3.0937.608-4.8992 1.044-1.8056.437-3.7904.853-5.8946 1.415-2.1042.562-4.3544 1.164-6.7175 1.825-4.6994 1.403-9.8168 3.077-15.1132 5.077-5.2964 1.999-10.2207 4.185-14.6539 6.265-2.2032 1.074-4.3069 2.074-6.2048 3.081-1.8979 1.008-3.7161 1.962-5.3353 2.863-1.6191.901-3.0723 1.743-4.3464 2.485-1.274.743-2.3689 1.385-3.258 1.929-.8892.543-1.5394.928-2.0437 1.233-.2321.15-.4789.277-.7367.377ZM14.5765 176.859a37.9712 37.9712 0 0 1 8.8748-8.543c.0997.1-2.0429 1.937-4.4507 4.265-2.4077 2.328-4.3178 4.371-4.4241 4.278Z" fill="#fff"/></svg>