<svg width="705" height="470" viewBox="0 0 705 470" fill="none" xmlns="http://www.w3.org/2000/svg"><path d="M678.051 231.729h-68.395v18.095h68.395v-18.095Z" fill="#F5F5F5"/><path d="M649.136 268.84c-.012-.109-.012-.22 0-.329v-4.503c0-3.12-.075-7.614-.122-13.272l.216.206-68.394.141c.15-.159-.358.348.338-.347v18.104l-.348-.338 48.749.159 14.382.094 3.891.047h1.382c-.106.013-.213.013-.32 0h-.94l-3.816.047-14.307.094-48.983.16h-.339v-18.424l.358-.357 68.394.141h.207v.216c0 5.715-.085 10.246-.113 13.395 0 1.504 0 2.679-.056 3.516v.893c0 .235-.179.404-.179.357ZM104.773 374.374c-.007-.11-.007-.22 0-.329v-.94c0-.846 0-2.04-.057-3.563 0-3.121-.065-7.614-.112-13.273l.206.216-68.394.132c.1598-.15-.3478.348.3478-.348v18.086l-.3384-.338 48.739.15 14.3914.094 3.8912.047h1.016c.118-.013.238-.013.357 0-.106.01-.213.01-.32 0h-4.7562l-14.3162.103-48.974.151h-.3384V356.26l.3478-.348 68.394.132h.217v.216c-.057 5.715-.094 10.246-.123 13.404v4.4a.9418.9418 0 0 1-.178.31Z" fill="#E0E0E0"/><path d="M114.05 356.26c-.01-.116-.01-.232 0-.348v-.94c0-.883 0-2.096-.065-3.628 0-3.168-.076-7.652-.132-13.16l.254.254-41.097.094.3478-.348v18.076l-.329-.329 29.3942.15 8.563.094 2.312.047c.276-.014.552-.014.828 0-.251.018-.502.018-.752 0l-2.238.047-8.46.094-29.619.151h-.329v-18.33l.3478-.348 41.0972.094h.253v.244c-.056 5.575-.103 10.105-.131 13.32 0 1.504 0 2.689-.066 3.572-.038.401-.097.8-.179 1.194ZM370.773 124.657c.948-4.166-1.661-8.312-5.827-9.26-4.166-.948-8.312 1.661-9.26 5.827-.948 4.166 1.661 8.312 5.827 9.26 4.166.948 8.311-1.661 9.26-5.827ZM378.82 81.7048a4.8235 4.8235 0 0 1 2.977-4.4552 4.8232 4.8232 0 0 1 2.786-.2744 4.8185 4.8185 0 0 1 2.469 1.3198 4.8177 4.8177 0 0 1 1.32 2.469c.186.9354.091 1.905-.274 2.7861a4.8223 4.8223 0 0 1-7.865 1.5645 4.8201 4.8201 0 0 1-1.413-3.4098ZM358.215 47.6016a4.4201 4.4201 0 0 1-.048-2.5547 4.412 4.412 0 0 1 1.373-2.1544 4.4168 4.4168 0 0 1 2.337-1.0336 4.416 4.416 0 0 1 2.518.433 4.4175 4.4175 0 0 1 1.858 1.7547c.432.7551.632 1.6212.575 2.4896a4.4196 4.4196 0 0 1-.9 2.3916 4.4141 4.4141 0 0 1-2.073 1.4938 4.425 4.425 0 0 1-1.728.2272 4.4308 4.4308 0 0 1-1.682-.4574 4.4368 4.4368 0 0 1-1.375-1.071 4.4483 4.4483 0 0 1-.855-1.5188ZM331.585 208.83c3.977 0 7.201-3.223 7.201-7.2 0-3.977-3.224-7.201-7.201-7.201-3.977 0-7.2 3.224-7.2 7.201 0 3.977 3.223 7.2 7.2 7.2ZM338.466 257.861c0 1.02-.302 2.018-.869 2.867a5.1691 5.1691 0 0 1-2.317 1.901c-.942.39-1.98.492-2.981.293a5.1536 5.1536 0 0 1-2.642-1.412 5.159 5.159 0 0 1-1.413-2.642 5.1596 5.1596 0 0 1 .294-2.982 5.1548 5.1548 0 0 1 1.901-2.316 5.1587 5.1587 0 0 1 6.516.642c.968.968 1.511 2.28 1.511 3.649ZM331.294 317.118a3.6661 3.6661 0 0 1-4.381 3.596 3.665 3.665 0 0 1-1.877-1.003 3.6705 3.6705 0 0 1-1.004-1.877 3.6679 3.6679 0 0 1 1.559-3.764 3.6661 3.6661 0 0 1 2.037-.618c.482-.001.959.093 1.404.277.446.184.85.454 1.191.794.341.341.611.746.794 1.191.184.445.278.923.277 1.404ZM352.989 208.83c3.977 0 7.2-3.223 7.2-7.2 0-3.977-3.223-7.201-7.2-7.201-3.977 0-7.2 3.224-7.2 7.201 0 3.977 3.223 7.2 7.2 7.2ZM383.915 252.7a5.1641 5.1641 0 0 1-.874 2.865 5.1663 5.1663 0 0 1-2.318 1.896 5.164 5.164 0 0 1-2.981.29 5.1582 5.1582 0 0 1-2.64-1.414 5.1647 5.1647 0 0 1-1.41-2.643 5.169 5.169 0 0 1 .295-2.98 5.165 5.165 0 0 1 1.901-2.315 5.1673 5.1673 0 0 1 2.866-.869c.679 0 1.351.134 1.977.394.627.26 1.196.641 1.676 1.121.479.48.859 1.05 1.118 1.678.259.627.391 1.299.39 1.977ZM363.668 310.021c-.161.707-.528 1.35-1.055 1.849-.527.498-1.189.829-1.904.951-.714.121-1.449.029-2.111-.267a3.6616 3.6616 0 0 1-1.607-1.394 3.666 3.666 0 0 1-.562-2.052 3.657 3.657 0 0 1 .672-2.019 3.6712 3.6712 0 0 1 1.681-1.306 3.661 3.661 0 0 1 2.122-.151c.47.106.914.304 1.307.583.393.278.728.631.985 1.039.256.407.43.862.511 1.337.081.474.068.961-.039 1.43ZM339.613 170.723c6.572 0 11.9-5.328 11.9-11.901 0-6.572-5.328-11.9-11.9-11.9-6.573 0-11.901 5.328-11.901 11.9 0 6.573 5.328 11.901 11.901 11.901ZM345.168 113.544c3.021-3.021 3.021-7.92 0-10.941-3.021-3.021-7.92-3.021-10.941 0-3.021 3.021-3.021 7.92 0 10.941 3.021 3.021 7.92 3.021 10.941 0ZM321.424 122.924a7.75 7.75 0 0 1-1.306 4.304 7.749 7.749 0 0 1-3.478 2.853 7.7413 7.7413 0 0 1-4.476.439 7.7436 7.7436 0 0 1-3.966-2.123 7.7455 7.7455 0 0 1-2.118-3.968 7.75 7.75 0 0 1 .445-4.476 7.7483 7.7483 0 0 1 2.857-3.474 7.7435 7.7435 0 0 1 4.306-1.301c1.016 0 2.023.201 2.962.59.939.389 1.793.96 2.511 1.679.719.72 1.288 1.574 1.677 2.513.388.94.587 1.947.586 2.964ZM297.98 164.133c.002.955-.279 1.889-.808 2.683a4.8319 4.8319 0 0 1-2.164 1.78 4.8226 4.8226 0 0 1-5.26-1.043 4.8266 4.8266 0 0 1-1.32-2.472 4.8216 4.8216 0 0 1 .277-2.788c.366-.881.985-1.635 1.78-2.164.794-.529 1.728-.81 2.683-.808a4.82 4.82 0 0 1 3.4 1.412 4.82 4.82 0 0 1 1.412 3.4ZM318.66 198.237c.278.826.305 1.716.079 2.558a4.4162 4.4162 0 0 1-1.354 2.172c-.655.575-1.466.943-2.33 1.058a4.4209 4.4209 0 0 1-2.526-.412 4.4248 4.4248 0 0 1-1.874-1.744 4.4125 4.4125 0 0 1-.592-2.49c.052-.87.361-1.705.887-2.4a4.4211 4.4211 0 0 1 3.789-1.744 4.437 4.437 0 0 1 1.678.443c.524.257.993.615 1.378 1.055.385.439.679.95.865 1.504Z" fill="#E0E0E0"/><path d="M387.985 87.0157s-12.342 27.8053-17.352 33.7553c0 0-5.744-2.03-9.052-5.424 0 0 14.767-28.1997 17.296-32.9937l9.108 4.6624ZM386.998 75.8863c-.188-.5828-19.514-29.8262-19.514-29.8262l-8.46 5.8374 18.48 30.4936 9.494-6.5048ZM366.732 44.18s12.511-14.1 3.76-18.8846c-8.752-4.7846-11.102 11.7782-10.34 16.544l6.918 2.6132" fill="#F5F5F5"/><path d="M373.641 342.856h-60.893c0-5.114 2.031-10.017 5.646-13.633a19.2799 19.2799 0 0 1 13.633-5.647h22.353a19.2799 19.2799 0 0 1 19.28 19.28h-.019Z" fill="#E0E0E0"/><path d="M340.656 167.818c.188 0 .339 34.996.339 78.161s-.151 78.171-.339 78.171c-.188 0-.338-34.987-.338-78.171 0-43.183.16-78.161.338-78.161Z" fill="#E0E0E0"/><path d="M326.895 162.883s-7.135 11.562-5.161 34.432h37.346s2.313-27.194-6.58-35.071l-25.605.639ZM323.238 207.655h17.155l-1.617 48.373h-11.75l-3.788-48.373ZM326.791 259.346l-3.553 55.526 8.573 1.626 7.679-55.526-12.699-1.626ZM319.497 323.576s.103-6.824 7.012-7.078c6.909-.254 7.671 7.078 7.671 7.078h-14.683ZM348.251 209.526l15.586-7.135 18.677 44.65-10.678 4.898-23.585-42.413ZM372.127 252.7l-15.811 53.336 7.99 3.497 19.844-52.424-12.023-4.409ZM352.5 314.242c.451.752 21.103 8.46 21.103 8.46s4.907-4.362-10.547-11.402l-3.309-1.523a4.8955 4.8955 0 0 0-1.971-.447c-.68-.011-1.356.121-1.983.386a4.914 4.914 0 0 0-1.659 1.155 4.8837 4.8837 0 0 0-1.051 1.726l-.583 1.645ZM320.54 112.368c-.573.131.479 30.587 7.153 41.886 0 0 24.017-.771 24.6 0 .583.771 8.366-26.499 7.652-41.163.009 0-16.845-6.044-39.405-.723ZM336.398 65.0761s-15.332.3384-12.502 19.834c2.829 19.4959 5.988 19.5049 6.082 20.0129.094.507 19.26-1.335 19.26-1.335s10.5-39.3485-12.84-38.5119ZM288.9 158.86s12.342-27.796 17.352-33.756c0 0 5.744 2.031 9.052 5.424 0 0-14.767 28.2-17.305 33.004l-9.099-4.672ZM289.887 169.952c.188.583 19.514 29.873 19.514 29.873l8.46-5.847-18.48-30.484-9.494 6.458ZM309.74 202.664s-12.512 14.1-3.76 18.885c8.751 4.784 11.101-11.779 10.34-16.554l-6.919-2.604" fill="#F5F5F5"/><path d="M608.396 60.0095h-68.394v18.095h68.394v-18.095Z" fill="#FAFAFA"/><path d="M579.482 97.1584a1.6441 1.6441 0 0 1 0-.329v-.94c0-.846 0-2.0398-.057-3.5626 0-3.1208-.065-7.614-.112-13.2728l.216.2162-68.395.1316c.151-.1504-.357.3478.339-.3478v18.0668l-.348-.3384 48.748.1504 14.382.094h4.907c.122-.0132.245-.0132.367 0a1.1587 1.1587 0 0 1-.32 0h-4.756l-14.307.1034-48.983.1504h-.339v-18.189c.696-.6956.198-.188.357-.3478l68.395.1316h.207v.2068c-.047 5.7152-.085 10.246-.113 13.4044 0 1.504-.047 2.6696-.057 3.5156v.8836c0 .2256-.131.282-.131.2726Z" fill="#E0E0E0"/><path d="M412.031 390.636h-68.395v18.095h68.395v-18.095Z" fill="#F5F5F5"/><path d="M383.106 427.794c-.007-.11-.007-.22 0-.329v-.94c0-.856 0-2.04-.056-3.563 0-3.121-.066-7.614-.113-13.273l.207.207-68.394.141.347-.348V427.766l-.338-.339 48.739.16 14.382.113 3.892.047H383.144h-1.26l-3.816.047-14.316.094-48.974.16h-.339v-18.424l.348-.348 68.395.131h.216v.217c-.057 5.715-.094 10.246-.122 13.395 0 1.504 0 2.679-.047 3.515v.94a.9454.9454 0 0 1-.123.32Z" fill="#E0E0E0"/><path d="M125.528 123.61H57.1333v18.095h68.3947V123.61Z" fill="#F5F5F5"/><path d="M96.6134 160.74a1.4142 1.4142 0 0 1 0-.329v-4.503c0-3.12-.0658-7.614-.1222-13.272l.2162.216-68.5072.169.3478-.348v18.086l-.3384-.339 48.739.151 14.382.094h4.9162c.1187-.013.2385-.013.3572 0a1.895 1.895 0 0 1-.3196 0H91.528l-14.3068.103-48.974.151h-.3478v-18.424l.3478-.348 68.3944.131h.1786v.217c0 5.715-.0846 10.246-.1128 13.404 0 1.504 0 2.67-.0564 3.516v.883c.0088.148-.0038.297-.0376.442ZM274.885 77.8133a1.3926 1.3926 0 0 1 0-.329v-.94c0-.8554 0-2.0398-.047-3.5626 0-3.1208-.066-7.614-.123-13.2728l.217.2068-68.395.141.348-.3478v18.0856l-.338-.3478 48.739.1598 14.382.094h5.273-1.26l-3.816.047-14.307.094-48.974.1598h-.348V59.7277l.358-.3478 68.394.1316h.216v.2162c0 5.7152-.084 10.246-.113 13.4044 0 1.4946 0 2.6696-.056 3.5062v.94a1.773 1.773 0 0 1-.15.235Z" fill="#E0E0E0"/><path d="M284.153 59.7182a1.5557 1.5557 0 0 1 0-.3478v-.94c0-.94 0-2.0962-.066-3.6284 0-3.1678-.075-7.6516-.132-13.16l.245.2444-41.088.1034.348-.3478v18.0762l-.329-.3384 29.394.1598 8.563.094h2.313c.273-.0034.546.0123.817.047a4.967 4.967 0 0 1-.742 0h-2.237l-8.46.0846-29.62.1598h-.338V41.642l.357-.3478 41.087.094h.254v.2538c-.056 5.5742-.103 10.105-.131 13.3104 0 1.504-.047 2.6978-.066 3.572a9.602 9.602 0 0 1-.169 1.1938ZM653.3 412.66c-.007-.11-.007-.22 0-.329v-.94c0-.846 0-2.04-.056-3.563 0-3.12-.066-7.614-.113-13.272l.207.216-68.395.131.348-.347v18.085l-.338-.338 48.739.15 14.391.094h4.907c.119-.013.238-.013.357 0-.103.01-.207.01-.31 0h-4.757l-14.306.104-48.984.15h-.338V394.574l.348-.347 68.394.131h.216v.216c-.056 5.716-.094 10.246-.122 13.405 0 1.504 0 2.669-.047 3.515v.884a.9329.9329 0 0 1-.141.282Z" fill="#E0E0E0"/><path d="M662.588 394.518a1.839 1.839 0 0 1 0-.348v-.94c0-.883 0-2.096-.066-3.628 0-3.168-.075-7.652-.132-13.16l.254.254-41.097.094.348-.348v18.076l-.329-.329 29.394.15 8.563.094 2.313.047c.275-.014.551-.014.827 0-.251.018-.502.018-.752 0l-2.237.047-8.46.085-29.62.16h-.329v-18.405l.348-.348 41.097.094h.254v.254c-.057 5.574-.104 10.105-.132 13.319 0 1.504 0 2.689-.066 3.572-.035.423-.095.844-.178 1.26Z" fill="#E0E0E0"/><path d="m230.15 171.851 24.336 57.18h-15.67l-10.81-30.541 2.144-26.639Z" fill="#263238"/><path d="m155.391 120.104-9.4 108.927h79.562l8.742-108.927h-78.904Z" fill="#455A64"/><path d="m163.165 128.742-8.234 91.237 59.718.78 8.074-92.543-59.558.526Z" fill="#FAFAFA"/><path d="m175.836 141.376-4.681 62.783h31.856l5.622-62.783h-32.797Z" fill="#E0E0E0"/><path d="M207.176 150.992c.113.085-9.184 13.311-20.765 29.554-11.58 16.243-21.046 29.337-21.159 29.262-.113-.075 9.184-13.301 20.765-29.554 11.58-16.252 21.046-29.337 21.159-29.262ZM214.32 133.348c-.09.159-.197.307-.32.442l-.94 1.194-3.628 4.352c-3.065 3.685-7.238 8.817-11.684 14.608-4.447 5.79-8.348 11.148-11.121 15.04l-3.271 4.625-.94 1.25c-.099.154-.216.296-.348.423.085-.155.182-.303.292-.442l.827-1.297c.724-1.128 1.795-2.745 3.149-4.7 2.707-3.958 6.58-9.344 11.007-15.153 4.428-5.809 8.686-10.895 11.816-14.532 1.561-1.815 2.82-3.262 3.76-4.259l1.044-1.128c.1-.155.22-.297.357-.423Z" fill="#263238"/><path d="M245.876 283.88H103.137c-2.407-8.883-2.642-17.202 0-24.778h142.739a32.381 32.381 0 0 1 0 24.778Z" fill="#455A64"/><path d="m145.437 266.857-1.551 7.773h-.564l1.325-6.58-4.295 5.575h-.292l-2.199-5.64-1.326 6.683h-.564l1.561-7.774h.47l2.312 6.007 4.615-6.007.508-.037ZM152.731 268.84l-1.156 5.8h-.536l.226-1.138c-.285.377-.655.68-1.08.886-.425.206-.892.308-1.364.299-.329.029-.659-.014-.97-.124-.311-.11-.594-.285-.831-.514a2.3055 2.3055 0 0 1-.543-.813 2.3063 2.3063 0 0 1-.157-.965c-.027-.447.038-.895.191-1.316.153-.421.39-.807.698-1.132.307-.326.678-.586 1.089-.763.412-.177.855-.268 1.303-.267a2.1331 2.1331 0 0 1 2.284 1.495l.292-1.448h.554Zm-1.081 2.397c.021-.269-.019-.54-.116-.792a1.821 1.821 0 0 0-.447-.665 1.813 1.813 0 0 0-.689-.408 1.8082 1.8082 0 0 0-.797-.071c-.376.003-.747.082-1.091.234-.343.152-.652.372-.908.648-.255.275-.451.6-.576.955-.125.354-.177.73-.151 1.105-.019.27.022.54.121.792.098.252.252.479.449.665.197.185.433.324.69.407.258.083.53.108.799.072.376-.003.747-.083 1.091-.235.344-.152.653-.374.908-.651.255-.276.45-.603.573-.958.123-.355.173-.732.144-1.107v.009ZM154.922 272.948c-.033.135-.048.274-.047.413 0 .546.291.837.883.837.342-.001.673-.117.94-.329l.169.414c-.36.268-.801.407-1.25.394-.171.021-.345.004-.509-.049a1.1805 1.1805 0 0 1-.44-.262 1.16 1.16 0 0 1-.287-.424 1.1639 1.1639 0 0 1-.08-.505 2.5095 2.5095 0 0 1 0-.442l.743-3.685h-1.072l.085-.479h1.081l.254-1.269h.648l-.254 1.269h1.88l-.084.479h-1.88l-.78 3.638ZM164.256 270.645c0 .212-.022.423-.066.63l-.668 3.356h-.554l.667-3.356c.041-.182.06-.368.057-.555 0-.94-.546-1.429-1.636-1.429a2.4484 2.4484 0 0 0-1.701.588c-.471.405-.771.975-.837 1.593l-.639 3.159h-.555l1.645-8.244h.555l-.696 3.525a2.8176 2.8176 0 0 1 2.378-1.128c.262-.038.529-.017.782.06.253.078.486.21.681.388.196.178.35.396.452.641.101.244.147.508.135.772ZM166.286 271.848v.367c0 1.259.733 1.955 2.143 1.955.366.014.731-.047 1.072-.179.341-.133.652-.334.912-.592l.253.385c-.3.296-.658.527-1.05.681-.393.153-.812.226-1.234.212-.339.045-.685.014-1.011-.089a2.3483 2.3483 0 0 1-.879-.51 2.3475 2.3475 0 0 1-.579-.834 2.334 2.334 0 0 1-.172-1.001c-.031-.438.028-.877.172-1.292.145-.414.372-.795.669-1.118.296-.324.655-.584 1.055-.764.4-.18.833-.278 1.272-.285.327-.03.657.012.967.123.31.111.591.288.826.519.234.23.416.509.531.817.116.308.163.638.138.966-.006.214-.028.428-.065.639h-5.02Zm.066-.432h4.465v-.282c.016-.258-.024-.516-.117-.757-.094-.24-.239-.458-.425-.637a1.7746 1.7746 0 0 0-1.413-.486 2.562 2.562 0 0 0-1.633.63c-.454.396-.754.937-.849 1.532h-.028ZM182.727 270.617c-.003.221-.028.441-.075.658l-.677 3.355h-.555l.677-3.355c.041-.185.06-.375.056-.564 0-.893-.517-1.42-1.56-1.42a2.33 2.33 0 0 0-1.621.545c-.452.38-.743.918-.814 1.504l-.667 3.29h-.555l.677-3.355c.041-.185.06-.375.057-.564 0-.893-.527-1.42-1.57-1.42-.61-.014-1.203.202-1.66.607-.457.404-.744.967-.803 1.574l-.63 3.158h-.554l1.156-5.799h.545l-.226 1.09c.261-.369.61-.667 1.016-.866.405-.199.855-.292 1.306-.271a1.7567 1.7567 0 0 1 1.927 1.306c.274-.417.65-.756 1.093-.985.443-.229.938-.34 1.436-.321 1.316 0 2.021.705 2.021 1.833ZM190.594 268.84l-1.156 5.8h-.498l.226-1.138c-.285.377-.655.68-1.08.886-.425.206-.892.308-1.364.299-.329.029-.659-.014-.97-.124-.311-.11-.594-.285-.831-.514a2.3055 2.3055 0 0 1-.543-.813 2.3063 2.3063 0 0 1-.157-.965c-.027-.447.038-.895.191-1.316a3.2802 3.2802 0 0 1 3.09-2.162 2.1331 2.1331 0 0 1 2.284 1.495l.291-1.448h.517Zm-1.081 2.397c.021-.269-.019-.54-.116-.792a1.831 1.831 0 0 0-.446-.665 1.8283 1.8283 0 0 0-.689-.408c-.257-.083-.53-.107-.798-.071a2.747 2.747 0 0 0-1.09.234c-.344.152-.653.372-.908.648-.256.275-.452.6-.577.955-.125.354-.176.73-.151 1.105-.019.27.022.54.121.792.098.252.252.479.449.665.197.185.433.324.69.407.258.083.531.108.799.072.376-.003.748-.083 1.092-.235.343-.152.652-.374.907-.651.255-.276.45-.603.573-.958.124-.355.173-.732.144-1.107v.009ZM192.784 272.948c-.032.135-.048.274-.047.413 0 .546.292.837.884.837.342.001.673-.115.94-.329l.169.414c-.36.268-.801.407-1.25.394-.171.021-.345.004-.509-.049a1.1727 1.1727 0 0 1-.44-.262 1.16 1.16 0 0 1-.287-.424 1.1639 1.1639 0 0 1-.08-.505 2.5095 2.5095 0 0 1 0-.442l.752-3.685h-1.081l.085-.479h1.081l.253-1.269h.555l-.169 1.278h1.88l-.085.479h-1.88l-.771 3.629ZM197.344 268.84h.554l-1.156 5.8h-.554l1.156-5.8Zm.188-1.824c0-.064.012-.127.037-.187.024-.059.06-.113.106-.158a.4678.4678 0 0 1 .158-.106c.06-.025.123-.037.187-.037a.412.412 0 0 1 .163.028c.052.02.099.05.139.089.041.038.073.084.095.135.023.051.035.106.036.161a.4773.4773 0 0 1-.036.191.4614.4614 0 0 1-.108.161.4615.4615 0 0 1-.163.105.4632.4632 0 0 1-.191.032.4365.4365 0 0 1-.164-.029.4026.4026 0 0 1-.138-.092.4067.4067 0 0 1-.092-.139.3929.3929 0 0 1-.029-.163v.009ZM198.998 272.262a3.298 3.298 0 0 1 .198-1.328c.157-.425.4-.812.713-1.138.313-.327.69-.585 1.107-.759.418-.174.867-.26 1.319-.253.43-.04.864.04 1.25.233.387.193.713.49.94.857l-.451.282a1.8776 1.8776 0 0 0-.765-.684 1.8799 1.8799 0 0 0-1.012-.181c-.377.001-.75.079-1.096.229-.346.151-.657.371-.914.647-.258.276-.456.601-.582.957-.126.355-.178.733-.152 1.109-.01.271.038.541.143.791.104.251.261.476.46.659.199.184.435.323.693.407.258.084.531.111.8.08.356.004.708-.07 1.033-.216.325-.146.614-.361.847-.63l.385.319c-.29.337-.652.604-1.058.783-.407.179-.848.265-1.292.252-.332.03-.666-.01-.981-.118a2.3626 2.3626 0 0 1-.847-.511 2.3476 2.3476 0 0 1-.561-.814 2.351 2.351 0 0 1-.177-.973ZM211.5 268.84l-1.156 5.8h-.536l.225-1.137c-.285.376-.655.679-1.079.885-.425.206-.893.309-1.365.299-.328.03-.66-.011-.971-.12-.311-.11-.596-.285-.833-.514-.237-.23-.422-.508-.543-.815-.12-.308-.172-.637-.153-.967-.027-.447.038-.895.191-1.316a3.2816 3.2816 0 0 1 1.787-1.895c.411-.177.855-.268 1.303-.267.494-.053.992.067 1.409.339.416.273.725.681.875 1.156l.291-1.448h.555Zm-1.081 2.397c.02-.269-.02-.54-.117-.792s-.25-.479-.446-.665a1.8283 1.8283 0 0 0-.689-.408c-.257-.083-.53-.107-.797-.071-.376.003-.747.083-1.091.234-.344.152-.653.372-.908.648s-.452.601-.577.955c-.125.354-.176.73-.15 1.105-.02.27.022.541.12.793.099.252.252.478.449.664.197.185.433.324.691.407.257.083.53.108.798.072.374-.006.742-.089 1.083-.243.341-.154.646-.376.898-.653a2.743 2.743 0 0 0 .708-2.055l.028.009ZM214.32 266.387h.554l-1.645 8.244h-.554l1.645-8.244ZM109.115 269.254l7.774 1.551v.573l-7.266-1.457v1.88l-.508-.103v-2.444Z" fill="#F5F5F5"/><path d="M127.427 259.092c.178.057-1.57 5.64-3.892 12.53-2.322 6.891-4.343 12.371-4.521 12.314-.179-.056 1.569-5.64 3.891-12.53s4.352-12.37 4.522-12.314ZM133.245 259.092c.169.057-1.57 5.64-3.891 12.53-2.322 6.891-4.353 12.371-4.522 12.314-.169-.056 1.57-5.64 3.892-12.53s4.352-12.37 4.521-12.314ZM228.589 259.092c.17.057-1.569 5.64-3.891 12.53-2.322 6.891-4.352 12.371-4.522 12.314-.169-.056 1.57-5.64 3.892-12.53s4.352-12.37 4.521-12.314ZM234.408 259.092c.169.057-1.57 5.64-3.901 12.53-2.331 6.891-4.343 12.371-4.512 12.314-.169-.056 1.57-5.64 3.891-12.53 2.322-6.89 4.343-12.37 4.522-12.314Z" fill="#fff"/><path d="M270.429 306.158H90.099c-3.0362-7.99-3.3464-15.482 0-22.297h180.33a21.4951 21.4951 0 0 1 3.118 11.149c0 3.931-1.079 7.787-3.118 11.148Z" fill="#fff"/><path d="M150.767 290.103h1.88v6.721h4.154v1.56h-6.072l.038-8.281ZM163.485 294.756v3.628h-1.73v-.789c-.214.306-.507.55-.848.705-.34.156-.716.217-1.088.178-1.495 0-2.379-.827-2.379-1.88s.79-1.88 2.736-1.88h1.504c0-.789-.48-1.25-1.467-1.25a3.0592 3.0592 0 0 0-1.88.592l-.667-1.288a4.8844 4.8844 0 0 1 2.745-.77c1.946-.076 3.074.827 3.074 2.754Zm-1.88 1.617v-.649h-1.269c-.865 0-1.138.32-1.138.743s.395.77 1.044.77c.301.037.607-.028.868-.184.26-.157.461-.396.57-.68h-.075ZM171.654 294.746v3.638h-1.88v-3.356c0-1.034-.47-1.504-1.288-1.504-.818 0-1.523.545-1.523 1.711v3.149h-1.88v-6.364h1.767v.743c.274-.278.603-.495.965-.639a2.836 2.836 0 0 1 1.141-.198c1.57 0 2.698.875 2.698 2.82ZM179.963 292.021v5.301c0 2.359-1.278 3.45-3.572 3.45-1.107.049-2.2-.258-3.121-.874l.734-1.326c.651.476 1.439.73 2.246.724 1.297 0 1.88-.592 1.88-1.739v-.272c-.257.268-.569.477-.914.613-.346.137-.717.197-1.088.176a3.078 3.078 0 0 1-2.174-.9c-.576-.577-.9-1.358-.9-2.174a3.0747 3.0747 0 0 1 3.074-3.074c.4-.019.799.055 1.165.219.366.163.688.41.941.721v-.817l1.729-.028ZM178.14 295c.022-.335-.057-.669-.227-.959-.169-.29-.423-.522-.726-.666a1.6824 1.6824 0 0 0-.976-.141c-.332.053-.64.203-.885.433-.245.23-.416.528-.489.856-.073.328-.046.67.078.983.124.312.34.579.618.768.278.188.607.288.943.287.214.017.429-.011.632-.082.202-.071.388-.184.545-.331.156-.146.281-.324.364-.522.084-.198.126-.411.123-.626ZM188.085 292.021v6.363h-1.749v-.761c-.383.403-.879.679-1.424.792-.544.113-1.11.057-1.621-.161a2.7298 2.7298 0 0 1-1.24-1.058c-.296-.47-.44-1.02-.415-1.575v-3.6h1.88v3.327c0 1.062.47 1.532 1.288 1.532.818 0 1.466-.545 1.466-1.71v-3.149h1.815ZM195.435 294.756v3.628h-1.729v-.789c-.215.306-.508.549-.849.704-.34.155-.716.217-1.088.179-1.494 0-2.378-.827-2.378-1.88s.79-1.88 2.726-1.88h1.467c0-.789-.47-1.25-1.467-1.25a3.0787 3.0787 0 0 0-1.833.592l-.658-1.288a4.8844 4.8844 0 0 1 2.745-.77c1.936-.076 3.064.827 3.064 2.754Zm-1.88 1.617v-.649h-1.231c-.865 0-1.137.32-1.137.743s.385.77 1.043.77c.289.021.576-.052.82-.208.244-.155.431-.386.534-.656h-.029ZM203.736 292.021v5.301c0 2.359-1.279 3.45-3.572 3.45a5.221 5.221 0 0 1-3.121-.874l.733-1.326c.652.476 1.44.73 2.247.724 1.297 0 1.88-.592 1.88-1.739v-.272c-.26.267-.574.476-.921.612a2.607 2.607 0 0 1-1.091.177c-.815 0-1.597-.324-2.173-.9a3.073 3.073 0 0 1-.901-2.174c0-.815.324-1.597.901-2.173a3.0706 3.0706 0 0 1 2.173-.901c.4-.019.8.055 1.165.219.366.163.688.41.941.721v-.817l1.739-.028ZM201.912 295c.003-.214-.038-.427-.122-.625a1.5393 1.5393 0 0 0-.365-.523 1.531 1.531 0 0 0-.545-.33 1.541 1.541 0 0 0-.632-.082 1.56 1.56 0 0 0-1.56 1.56c0 .414.164.811.457 1.104.293.292.69.457 1.103.457a1.541 1.541 0 0 0 1.177-.413c.157-.146.281-.324.365-.522.084-.198.125-.411.122-.626ZM211.65 295.724h-4.85c.091.415.334.782.683 1.025.348.244.776.348 1.197.291.295.012.589-.038.863-.144.275-.107.525-.269.735-.476l.987 1.071c-.338.351-.749.625-1.203.802-.455.177-.942.253-1.429.223-2.2 0-3.628-1.382-3.628-3.271-.006-.442.079-.881.249-1.289.17-.408.422-.777.739-1.084.318-.307.695-.546 1.109-.702.413-.157.855-.227 1.296-.206a3.1421 3.1421 0 0 1 2.393.911c.313.311.557.685.717 1.096.159.411.23.852.208 1.292-.028.104-.056.311-.066.461Zm-4.85-1.081h3.14a1.589 1.589 0 0 0-.537-.963 1.5888 1.5888 0 0 0-2.067 0c-.288.247-.478.588-.536.963ZM102.3 294.728h8.282v1.88h-6.75v1.654H102.3v-3.534Z" fill="#F5F5F5"/><path d="m114.783 283.861 8.545 22.297h11.223l-7.125-22.297h-12.643Z" fill="#fff"/><path d="m225.506 283.861 8.544 22.297h11.224l-7.125-22.297h-12.643Z" fill="#263238"/><path d="M96.8763 305.632s-17.108 13.028-.7237 30.249c.1409.146.3105.261.4981.339.1876.078.3892.116.5922.112l149.4601-.865s12.765-14.316 2.171-30.804l-151.9977.969Z" fill="#263238"/><path d="M103.616 336.623a.786.786 0 0 1-.282 0 3.579 3.579 0 0 1-.77-.188 6.1234 6.1234 0 0 1-2.51-1.654 6.0157 6.0157 0 0 1-1.617-4.268 6.4288 6.4288 0 0 1 .7855-2.85 6.4242 6.4242 0 0 1 1.9785-2.197l.065.46a5.2802 5.2802 0 0 1-2.6144-1.762 5.284 5.284 0 0 1-1.1452-2.938 5.2265 5.2265 0 0 1 4.3896-5.264l-.084.47a6.0168 6.0168 0 0 1-2.0084-1.893 6.0262 6.0262 0 0 1-.953-2.591 5.6407 5.6407 0 0 1 1.1468-4.07 5.6838 5.6838 0 0 1 2.1616-1.739c.225-.101.457-.183.696-.244.084-.015.17-.015.254 0 0 0-.32.131-.874.432a6.0255 6.0255 0 0 0-1.993 1.767 5.397 5.397 0 0 0-.9402 3.845c.1268.852.4468 1.663.9352 2.372a5.6495 5.6495 0 0 0 1.885 1.717l.677.367-.762.103a4.6993 4.6993 0 0 0-2.8295 1.625 4.6997 4.6997 0 0 0-1.0901 3.075 4.7957 4.7957 0 0 0 1.0053 2.635 4.791 4.791 0 0 0 2.3133 1.614l.535.15-.46.31c-.76.522-1.39 1.211-1.8417 2.014a6.0198 6.0198 0 0 0-.7623 2.621 5.6949 5.6949 0 0 0 1.41 4.032c.638.74 1.435 1.325 2.331 1.711.602.235.978.301.968.338Z" fill="#E0E0E0"/><path d="M103.654 331.491s-.122 0-.273-.122a1.071 1.071 0 0 1-.216-.827c.171-.45.507-.816.94-1.025a4.4518 4.4518 0 0 1 1.777-.404c.712-.038 1.425-.016 2.134.066.376.037.761.094 1.156.169.437.062.855.222 1.222.47.15.11.275.251.367.413.092.162.15.341.169.527a1.0946 1.0946 0 0 1-.461.94 3.39 3.39 0 0 1-1.654.507c-.918.112-1.846.112-2.764 0a4.7536 4.7536 0 0 1-2.425-.742c0-.094.94.291 2.453.366.893.039 1.788-.015 2.67-.159.491-.025.969-.17 1.391-.423.084-.063.15-.145.194-.24a.6194.6194 0 0 0 .054-.303.6219.6219 0 0 0-.097-.292.638.638 0 0 0-.226-.209c-.303-.2-.647-.328-1.006-.376-.376-.075-.743-.141-1.109-.188-.683-.082-1.371-.12-2.059-.113-1.25 0-2.256.433-2.51 1.063-.059.232-.036.478.066.695.132.132.216.179.207.207ZM103.25 321.395s-.123 0-.273-.122a1.0632 1.0632 0 0 1-.194-.391 1.0687 1.0687 0 0 1-.022-.436c.173-.446.509-.809.94-1.015a4.451 4.451 0 0 1 1.776-.404c.709-.038 1.42-.016 2.125.065.382.038.768.094 1.156.17.441.06.863.22 1.231.47.15.11.276.251.368.413.092.162.15.341.168.527.008.182-.029.364-.11.528a1.09 1.09 0 0 1-.35.412c-.499.309-1.069.484-1.655.507-.918.112-1.846.112-2.763 0a4.877 4.877 0 0 1-2.426-.742c0-.094.94.291 2.454.366.893.034 1.787-.019 2.669-.16.492-.024.97-.169 1.392-.423.083-.063.15-.146.193-.242.043-.095.062-.2.054-.304a.6258.6258 0 0 0-.097-.294.613.613 0 0 0-.226-.212 2.4911 2.4911 0 0 0-1.005-.367c-.376-.075-.743-.141-1.11-.188-.683-.082-1.37-.12-2.058-.113-1.25 0-2.256.433-2.51 1.062a.9398.9398 0 0 0 .066.696c.131.122.216.169.207.197ZM103.456 311.619s-.112 0-.263-.112c-.093-.115-.16-.248-.197-.391a1.0223 1.0223 0 0 1-.019-.437c.178-.442.512-.804.94-1.015a4.4859 4.4859 0 0 1 1.777-.404c.711-.041 1.425-.022 2.133.056.376.047.762.104 1.157.179.44.063.861.224 1.231.47a1.323 1.323 0 0 1 .526.94c.007.182-.032.364-.112.528-.08.164-.2.305-.348.412a3.309 3.309 0 0 1-1.645.498c-.935.126-1.882.142-2.82.047a4.8984 4.8984 0 0 1-2.425-.752c.81.167 1.629.292 2.453.376.893.029 1.786-.024 2.67-.16.494-.024.975-.169 1.4-.423a.6413.6413 0 0 0 .192-.243c.042-.096.06-.201.052-.306a.627.627 0 0 0-.101-.293.6182.6182 0 0 0-.227-.21c-.301-.195-.642-.32-.997-.367-.376-.075-.752-.141-1.118-.188-.68-.087-1.365-.124-2.05-.113-1.259 0-2.256.433-2.509 1.062a.986.986 0 0 0 .065.696c.179.085.254.132.235.15ZM237.82 305.077h.272c.266.042.527.108.781.197.96.331 1.823.896 2.509 1.645a6.0225 6.0225 0 0 1 1.617 4.268 6.4322 6.4322 0 0 1-.784 2.851 6.4378 6.4378 0 0 1-1.979 2.197l-.066-.461c1.028.311 1.939.927 2.61 1.766a5.315 5.315 0 0 1 1.15 2.934 5.2317 5.2317 0 0 1-1.218 3.453 5.2324 5.2324 0 0 1-3.181 1.811l.084-.47c.81.463 1.5 1.109 2.015 1.886.516.776.843 1.663.956 2.589a5.6416 5.6416 0 0 1-1.147 4.079 5.724 5.724 0 0 1-2.162 1.73c-.227.103-.463.185-.705.244-.16 0-.245.057-.245 0 0-.056.32-.131.875-.432a5.8204 5.8204 0 0 0 1.983-1.767 5.3725 5.3725 0 0 0 .94-3.836 5.6377 5.6377 0 0 0-.936-2.371 5.6293 5.6293 0 0 0-1.884-1.718l-.677-.376.762-.103a4.6981 4.6981 0 0 0 2.829-1.625 4.697 4.697 0 0 0 1.09-3.075 4.7821 4.7821 0 0 0-3.318-4.239l-.545-.151.47-.31a6.0233 6.0233 0 0 0 1.844-2.018c.451-.805.711-1.704.76-2.626a5.7162 5.7162 0 0 0-1.42-4.032 6.4173 6.4173 0 0 0-2.321-1.702c-.583-.235-.959-.3-.959-.338Z" fill="#E0E0E0"/><path d="M237.82 310.2s.113 0 .273.122c.091.114.157.245.194.386.038.141.045.288.022.432-.173.446-.509.809-.94 1.015-.558.258-1.162.399-1.777.414-.712.033-1.425.011-2.134-.066-.376 0-.761-.103-1.156-.179a2.8836 2.8836 0 0 1-1.222-.46 1.379 1.379 0 0 1-.536-.94c-.005-.183.034-.364.114-.527.08-.164.199-.306.347-.413.5-.304 1.07-.475 1.654-.498a11.998 11.998 0 0 1 2.764-.047c.861.031 1.698.291 2.425.752 0 .084-.94-.292-2.453-.367-.893-.037-1.787.013-2.67.15-.491.032-.968.181-1.391.433-.376.254-.32.742.075 1.043.302.193.642.318.997.367.385.084.752.141 1.118.188.683.09 1.371.13 2.059.122 1.25 0 2.246-.442 2.51-1.062.056-.231.03-.474-.075-.686-.151-.094-.198-.179-.198-.179ZM238.196 320.305s.122 0 .273.122c.091.114.157.245.194.386.038.141.045.288.022.432-.173.446-.509.809-.94 1.015-.557.259-1.162.4-1.777.414-.712.033-1.425.011-2.134-.066-.376 0-.761-.103-1.156-.179a2.8836 2.8836 0 0 1-1.222-.46 1.379 1.379 0 0 1-.536-.94c-.005-.183.034-.364.114-.527.08-.164.199-.306.347-.413.501-.303 1.07-.474 1.654-.498a11.998 11.998 0 0 1 2.764-.047c.861.031 1.698.29 2.425.752 0 .084-.94-.292-2.453-.367-.893-.037-1.787.013-2.67.15-.491.032-.968.181-1.391.433-.376.254-.32.742.075 1.043.303.197.647.323 1.006.367.376.084.743.141 1.109.188.683.09 1.371.13 2.059.122 1.25 0 2.256-.442 2.51-1.062a.935.935 0 0 0-.076-.686c-.122-.104-.206-.151-.197-.179ZM237.98 330.072s.122 0 .272.122c.092.113.159.244.197.385.037.141.044.289.02.433-.168.448-.506.813-.94 1.015-.559.257-1.163.397-1.777.413-.712.038-1.426.016-2.134-.065-.388-.038-.774-.097-1.156-.179a2.8052 2.8052 0 0 1-1.231-.461c-.15-.111-.274-.252-.366-.414-.093-.161-.15-.34-.17-.526-.005-.183.035-.364.117-.528.082-.164.203-.305.353-.412a3.33 3.33 0 0 1 1.645-.507c.921-.112 1.852-.112 2.773 0 .858.022 1.693.279 2.416.742 0 .085-.941-.291-2.454-.366-.893-.039-1.787.015-2.669.16a3.03 3.03 0 0 0-1.392.423.6164.6164 0 0 0-.193.239.609.609 0 0 0-.055.303c.007.104.041.204.098.292.056.088.134.159.225.209.305.196.648.324 1.006.376.376.075.752.132 1.109.179.683.089 1.371.13 2.059.122 1.26 0 2.256-.433 2.51-1.062a.9398.9398 0 0 0-.066-.696c-.113-.122-.207-.169-.197-.197ZM213.822 319.234c0 .15-18.603.272-41.548.272-22.946 0-41.558-.122-41.558-.272 0-.151 18.603-.273 41.558-.273s41.548.122 41.548.273ZM190.585 324.638c0 .151-8.751.273-19.543.273-10.791 0-19.533-.122-19.533-.273 0-.15 8.742-.272 19.533-.272 10.792 0 19.543.122 19.543.272Z" fill="#E0E0E0"/><path d="M254.044 231.287v26.32H203.04v-26.32h51.004Z" fill="#EBEBEB"/><path d="M89.4408 244.701v.705a15.097 15.097 0 0 0 4.783 10.059 15.101 15.101 0 0 0 10.3792 4.041h151.819v-1.88h-36.039c-3.49 0-6.838-1.387-9.306-3.855a13.161 13.161 0 0 1 0-18.611 13.161 13.161 0 0 1 9.306-3.854h36.039v-2.82l-151.838.507a15.184 15.184 0 0 0-5.9219 1.215 15.1757 15.1757 0 0 0-4.9785 3.43 15.1817 15.1817 0 0 0-3.2453 5.1 15.185 15.185 0 0 0-.9975 5.963Z" fill="#fff"/><path d="M254.044 244.814c0 .15-10.481.263-23.406.263-12.925 0-23.406-.113-23.406-.263 0-.151 10.481-.273 23.406-.273 12.925 0 23.406.122 23.406.273ZM253.302 250.745c0 .15-9.917.273-22.147.273-12.229 0-22.146-.123-22.146-.273 0-.15 9.917-.273 22.146-.273 12.23 0 22.147.123 22.147.273ZM254.045 256.178c0 .141-8.921.263-19.91.263-10.988 0-19.918-.122-19.918-.263 0-.141 8.92-.272 19.918-.272s19.91.122 19.91.272ZM254.045 239.474c0 .151-10.265.273-22.927.273-12.662 0-22.927-.122-22.927-.273 0-.15 10.265-.263 22.927-.263 12.662 0 22.927.122 22.927.263ZM253.302 234.145c0 .15-9.137.272-20.398.272s-20.407-.122-20.407-.272c0-.151 9.127-.273 20.407-.273s20.398.122 20.398.273Z" fill="#E0E0E0"/><path d="M89.4408 244.701v.705a15.097 15.097 0 0 0 4.783 10.059 15.101 15.101 0 0 0 10.3792 4.041h151.819v-1.88h-36.039c-3.49 0-6.838-1.387-9.306-3.855a13.161 13.161 0 0 1 0-18.611 13.161 13.161 0 0 1 9.306-3.854h36.039v-2.82l-151.838.507a15.184 15.184 0 0 0-5.9219 1.215 15.1757 15.1757 0 0 0-4.9785 3.43 15.1817 15.1817 0 0 0-3.2453 5.1 15.185 15.185 0 0 0-.9975 5.963Z" fill="#000" opacity=".3"/><path d="M107.827 229.445a32.902 32.902 0 0 0-3.224 3.835 19.5037 19.5037 0 0 0-3.461 11.322 19.511 19.511 0 0 0 3.724 11.238c1.01 1.335 2.12 2.592 3.319 3.76a5.2687 5.2687 0 0 1-1.091-.809 17.274 17.274 0 0 1-2.538-2.716 19.2173 19.2173 0 0 1-3.966-11.465 19.214 19.214 0 0 1 3.694-11.556c.721-1.025 1.55-1.971 2.472-2.82.326-.303.685-.568 1.071-.789Z" fill="#fff"/><path d="M102.695 228.881a32.8144 32.8144 0 0 0-3.2241 3.835 19.504 19.504 0 0 0-3.4613 11.322 19.5065 19.5065 0 0 0 3.7245 11.238 33.2717 33.2717 0 0 0 3.3179 3.76 5.2892 5.2892 0 0 1-1.09-.809 17.2794 17.2794 0 0 1-2.5381-2.716 19.2142 19.2142 0 0 1-.2726-23.021 17.5994 17.5994 0 0 1 2.4717-2.82c.327-.303.686-.568 1.072-.789ZM205.86 229.445a32.8037 32.8037 0 0 0-3.224 3.835 19.5037 19.5037 0 0 0-3.461 11.322 19.5038 19.5038 0 0 0 3.724 11.238 33.2824 33.2824 0 0 0 3.318 3.76 5.2892 5.2892 0 0 1-1.09-.809 17.274 17.274 0 0 1-2.538-2.716 19.2107 19.2107 0 0 1-3.966-11.465 19.2198 19.2198 0 0 1 3.693-11.556c.721-1.025 1.55-1.971 2.473-2.82.326-.303.685-.568 1.071-.789Z" fill="#fff"/><path d="M200.699 228.881a32.902 32.902 0 0 0-3.224 3.835 19.5037 19.5037 0 0 0-3.461 11.322 19.511 19.511 0 0 0 3.724 11.238c1.01 1.335 2.12 2.592 3.319 3.76a5.2954 5.2954 0 0 1-1.091-.809 17.274 17.274 0 0 1-2.538-2.716 19.215 19.215 0 0 1-3.966-11.465 19.214 19.214 0 0 1 3.694-11.556c.721-1.025 1.55-1.971 2.472-2.82.326-.303.685-.568 1.071-.789ZM125.105 248.404l-.141-10.706a7.8316 7.8316 0 0 0-.386-2.764 2.5921 2.5921 0 0 0-.778-1.136 2.594 2.594 0 0 0-1.252-.575c-1.344-.592-3.431.527-4.371 2.068a10.2707 10.2707 0 0 0-1.053 5.246c-.018 2.825.121 5.649.414 8.46.061 1.342.4 2.658.996 3.863a3.23 3.23 0 0 0 1.307 1.512 3.231 3.231 0 0 0 1.945.456 3.2364 3.2364 0 0 0 1.842-.775 3.237 3.237 0 0 0 1.035-1.71c.391-1.274.541-2.61.442-3.939ZM184.052 245.34c0 .141-10.97.263-24.506.263s-24.505-.122-24.505-.263c0-.141 10.969-.273 24.505-.273s24.506.113 24.506.273Z" fill="#fff"/><path d="m583.364 223.297 15.51-13.677-1.88-.658-14.025-4.916-5.301-1.88-14.025-4.916-1.88-.658 3.6 20.351s-46.596 52.489-39.687 113.26l6.364 2.275 5.302 1.88 6.345 2.219c43.315-43.184 39.677-113.28 39.677-113.28Z" fill="#E0E0E0"/><path d="M583.364 223.297v.592c0 .395.047.94.057 1.767v6.844a194.1054 194.1054 0 0 1-2.482 25.474 175.963 175.963 0 0 1-10.34 37.543c-5.64 13.771-14.1 28.492-26.743 41.21l-.103.103-.141-.047-18.001-6.298-.141-.056v-.151a117.9475 117.9475 0 0 1 .742-30.747 139.6194 139.6194 0 0 1 6.035-24.355 171.127 171.127 0 0 1 9.306-22.072 195.7064 195.7064 0 0 1 11.28-19.514 168.862 168.862 0 0 1 12.417-16.741v.178c-1.253-7.238-2.444-14.025-3.572-20.36l-.056-.31.291.103 37.093 13.075.188.066-.151.122-11.562 10.105-2.998 2.595c-.668.583-1.025.874-1.025.874s.32-.31.94-.94c.621-.63 1.645-1.476 2.942-2.623l11.44-10.18v.198l-37.139-12.944.244-.207c1.128 6.345 2.341 13.113 3.629 20.351v.094l-.066.075a171.4238 171.4238 0 0 0-12.361 16.713 196.7851 196.7851 0 0 0-11.214 19.487 170.2196 170.2196 0 0 0-9.269 22.014 138.6602 138.6602 0 0 0-6.006 24.271 117.3401 117.3401 0 0 0-.752 30.616l-.16-.197 18.001 6.316-.245.057c12.606-12.653 21.085-27.307 26.696-41.031a176.1972 176.1972 0 0 0 10.453-37.44 199.8609 199.8609 0 0 0 2.613-25.437c.104-2.98.123-5.283.113-6.834v-1.767c0-.413.047-.592.047-.592Z" fill="#263238"/><path d="M570.298 215.664a38.6994 38.6994 0 0 1-1.419-5.903c-.475-1.97-.789-3.976-.94-5.997a39.357 39.357 0 0 1 1.419 5.903c.474 1.971.788 3.976.94 5.997Z" fill="#fff"/><path d="M543.499 334.358c16.074-17.775 23.453-35.72 31.283-61.307.855-2.82 1.993-5.395 2.67-8.168.071-.276.044-.567-.077-.825a1.2201 1.2201 0 0 0-.585-.586c-.257-.122-.549-.15-.824-.079-.276.07-.518.235-.686.465-2.19 2.82-4.352 5.828-7.444 7.37-4.4 2.19-9.401 3.534-12.888 6.965-1.88 1.805-3.252 4.145-5.508 5.405-3.084 1.73-6.872.987-10.397.874-3.525-.113-7.783 1.034-8.77 4.428 0 0-4.935 25.756-2.707 39.611l15.933 5.847Z" fill="#EBEBEB"/><path d="M591.852 181.317a26.246 26.246 0 0 1 12.093-5.806c4.465-.856 9.076-.536 13.381.927a24.8692 24.8692 0 0 1-12.481 6.55c-4.704.933-9.579.487-14.036-1.286M603.48 158.493a26.315 26.315 0 0 1-2.244-13.226c.407-4.528 1.98-8.874 4.566-12.614a24.905 24.905 0 0 1 2.857 13.805 24.9172 24.9172 0 0 1-5.094 13.145M591.608 154.705a22.9376 22.9376 0 0 1-6.571-9.826 22.9478 22.9478 0 0 1-.808-11.794 21.7596 21.7596 0 0 1 7.296 10.107 21.7582 21.7582 0 0 1 .553 12.453M597.323 128.066a16.7375 16.7375 0 0 1 3.208-8.028 16.737 16.737 0 0 1 6.785-5.358 15.856 15.856 0 0 1-3.077 8.549 15.8502 15.8502 0 0 1-7.263 5.457M581.315 202.805a16.737 16.737 0 0 1 5.538-6.623 16.7385 16.7385 0 0 1 8.101-2.984 15.852 15.852 0 0 1-5.543 7.157 15.8666 15.8666 0 0 1-8.557 2.958" fill="#455A64"/><path d="M600.594 102.206s-.733 9.626-3.045 25.051c-.301 1.927-.621 3.948-.94 6.044-.32 2.097-.752 4.277-1.147 6.533-.771 4.522-1.786 9.316-2.82 14.373-2.181 10.077-4.869 21.094-8.169 32.524-3.299 11.43-6.956 22.175-10.499 31.857-1.88 4.822-3.544 9.4-5.311 13.648-.875 2.115-1.683 4.174-2.529 6.129l-2.435 5.64c-6.298 14.269-10.828 22.795-10.828 22.795s.047-.141.169-.413l.554-1.185 2.153-4.531 1.57-3.271c.558-1.203 1.153-2.51 1.786-3.92 1.269-2.82 2.82-6.006 4.277-9.606l2.416-5.64c.827-1.956 1.626-4.024 2.491-6.139 1.757-4.239 3.449-8.826 5.264-13.648 3.525-9.682 7.125-20.427 10.462-31.838 3.337-11.412 5.988-22.438 8.187-32.449 1.044-5.048 2.078-9.832 2.82-14.344.404-2.256.837-4.428 1.175-6.524l.94-6.035c.658-3.844 1.091-7.341 1.523-10.406.216-1.532.414-2.961.592-4.277.179-1.316.301-2.519.423-3.6.263-2.143.461-3.826.602-4.982.075-.557.131-.99.169-1.297.122-.338.15-.489.15-.489ZM622.186 133.292c-.054.1-.117.194-.188.282l-.592.79-2.293 3.017-1.674 2.181-1.88 2.632c-1.372 1.88-2.979 4.023-4.615 6.476l-2.613 3.807c-.94 1.335-1.786 2.755-2.736 4.202-1.88 2.886-3.76 6.073-5.818 9.4-3.939 6.712-8.037 14.232-11.938 22.325-3.901 8.094-7.154 15.98-9.927 23.303-1.325 3.656-2.622 7.125-3.666 10.424-.535 1.645-1.099 3.225-1.56 4.766-.461 1.542-.94 3.018-1.335 4.428-.883 2.82-1.532 5.395-2.152 7.642-.311 1.128-.593 2.181-.856 3.149s-.451 1.88-.648 2.669c-.386 1.57-.696 2.82-.94 3.676-.104.404-.188.724-.245.94-.026.109-.061.216-.103.319.005-.11.021-.221.047-.329.056-.244.122-.564.207-.94.197-.874.47-2.115.827-3.703.178-.809.385-1.702.601-2.679.217-.978.527-2.021.818-3.159.602-2.265 1.222-4.859 2.087-7.679.414-1.41.855-2.896 1.307-4.437.451-1.542 1.005-3.121 1.532-4.775 1.034-3.309 2.322-6.787 3.638-10.463 2.754-7.294 6.034-15.218 9.907-23.349s8.028-15.632 11.985-22.344c2.04-3.328 3.939-6.514 5.875-9.4.94-1.448 1.88-2.82 2.754-4.192l2.651-3.76c1.655-2.435 3.281-4.55 4.7-6.439l1.946-2.614c.63-.78 1.194-1.504 1.711-2.152 1.015-1.269 1.805-2.266 2.369-2.961l.629-.762c.119-.2.182-.297.188-.291Z" fill="#263238"/><path d="M580.779 154.658c.061.222.102.448.122.677.066.498.151 1.147.264 1.965.112.817.235 1.88.329 3.111.094 1.231.253 2.594.319 4.127.066 1.532.179 3.214.207 5.019.028 1.805 0 3.76 0 5.762-.103 4.061-.376 8.526-.94 13.16-.564 4.635-1.354 9.062-2.209 13.029-.461 1.983-.884 3.863-1.372 5.64-.489 1.776-.94 3.365-1.382 4.831-.442 1.467-.893 2.82-1.279 3.939-.385 1.119-.752 2.143-1.062 2.942-.31.799-.536 1.382-.714 1.88-.075.218-.17.429-.282.63.038-.229.101-.453.188-.667l.63-1.88c.282-.809.629-1.796.94-2.961.31-1.166.808-2.473 1.212-3.958.404-1.485.94-3.074 1.326-4.831.385-1.758.874-3.619 1.316-5.64.836-3.958 1.607-8.348 2.171-12.991.564-4.644.827-9.081.94-13.16 0-2.021.085-3.948 0-5.744-.085-1.795-.075-3.478-.141-5.01-.066-1.532-.169-2.914-.244-4.126-.076-1.213-.17-2.256-.254-3.112-.085-.855-.132-1.476-.169-1.964.005-.225.033-.449.084-.668Z" fill="#263238"/><path d="M625.579 132.719a13.7343 13.7343 0 0 0-1.24 7.249 13.7249 13.7249 0 0 0 2.679 6.851c.601.789 1.513 1.569 2.462 1.297.95-.273 1.335-1.551 1.373-2.604.079-2.212-.298-4.416-1.106-6.476a16.1655 16.1655 0 0 0-3.594-5.5 18.4642 18.4642 0 0 0 8.845 6.12c1.316.423 3.018.583 3.854-.527.837-1.109.245-2.613-.536-3.694a10.8925 10.8925 0 0 0-5.592-3.868 10.9044 10.9044 0 0 0-6.797.202 10.217 10.217 0 0 0 5.317-3.025 10.226 10.226 0 0 0 2.636-5.519c.197-1.589-.32-3.61-1.88-3.911-.482-.043-.968.019-1.424.181-.456.162-.871.421-1.218.759a13.0994 13.0994 0 0 0-4.7 9.851c.286-2.21-.082-4.456-1.057-6.461a11.4306 11.4306 0 0 0-4.432-4.819c-1.232-.714-2.82-1.156-4.033-.394-1.513.94-1.457 3.214-.94 4.925a15.0469 15.0469 0 0 0 3.446 5.683 15.0498 15.0498 0 0 0 5.559 3.642 8.543 8.543 0 0 0-4.084-.178 8.5392 8.5392 0 0 0-3.699 1.738c-1.391 1.157-2.369 3.347-1.194 4.7 1.175 1.354 3.262.837 4.813.057a21.2795 21.2795 0 0 0 7.191-5.95" fill="#fff"/><path d="M627.506 142.363a45.5654 45.5654 0 0 0-.658-5.386 44.7853 44.7853 0 0 0-1.776-5.133 11.6335 11.6335 0 0 1 2.237 5.02c.498 1.792.566 3.676.197 5.499Z" fill="#263238"/><path d="M633.062 136.704a21.5932 21.5932 0 0 0-3.563-2.594c-2.171-1.1-4.164-1.457-4.126-1.617a9.409 9.409 0 0 1 4.352 1.194 7.227 7.227 0 0 1 3.337 3.017Z" fill="#263238"/><path d="M629.34 125.17a8.1237 8.1237 0 0 1-1.044 4.202 6.636 6.636 0 0 1-2.904 3.187 19.4935 19.4935 0 0 0 2.472-3.412c.56-1.299 1.053-2.627 1.476-3.977Z" fill="#263238"/><path d="M624.865 130.51c.31-.113.645-.131.965-.055a1.685 1.685 0 0 1 1.267 1.351c.056.324.015.658-.117.96-.484-.189-.995-.3-1.513-.329a7.0921 7.0921 0 0 0-.602-1.88" fill="#fff"/><path d="M617.411 122.473c.605.237 1.165.577 1.655 1.005a17.1712 17.1712 0 0 1 5.64 7.445c.273.594.444 1.23.507 1.88a33.9887 33.9887 0 0 0-3.177-5.696 33.9827 33.9827 0 0 0-4.625-4.634Z" fill="#263238"/><path d="M576.371 154.884a13.7673 13.7673 0 0 1-3.558 6.431 13.7497 13.7497 0 0 1-6.359 3.683c-.94.235-2.162.273-2.736-.526-.573-.799-.075-2.049.545-2.895a16.1986 16.1986 0 0 1 4.909-4.366 16.2045 16.2045 0 0 1 6.24-2.055c-3.569.824-7.302.569-10.726-.733-1.297-.498-2.726-1.438-2.679-2.82.047-1.382 1.429-2.199 2.717-2.557 2.253-.572 4.63-.408 6.784.468 2.153.876 3.969 2.419 5.182 4.402a10.248 10.248 0 0 1-2.259-5.687c-.156-2.081.327-4.161 1.385-5.96.837-1.363 2.5-2.613 3.92-1.88.4.276.736.635.985 1.051.25.417.408.882.463 1.365.374 1.846.347 3.752-.081 5.586a13.1181 13.1181 0 0 1-2.401 5.045 11.4238 11.4238 0 0 1 4.863-4.401 11.43 11.43 0 0 1 6.483-1.004c1.41.216 2.942.865 3.402 2.209.583 1.702-.864 3.422-2.368 4.409a14.9626 14.9626 0 0 1-6.24 2.298c-2.226.288-4.489.071-6.62-.634a8.5354 8.5354 0 0 1 3.302 2.412 8.5406 8.5406 0 0 1 1.803 3.669c.366 1.768-.226 4.089-2.012 4.437-1.786.348-3.074-1.391-3.76-2.97a21.0894 21.0894 0 0 1-1.88-9.137" fill="#fff"/><path d="M568.851 161.21a45.3542 45.3542 0 0 1 3.872-3.76 44.917 44.917 0 0 1 4.588-2.914 11.9726 11.9726 0 0 0-4.888 2.529 11.8208 11.8208 0 0 0-3.572 4.145Z" fill="#263238"/><path d="M568.033 153.323a21.581 21.581 0 0 1 4.399.198c2.388.498 4.174 1.466 4.249 1.316a9.463 9.463 0 0 0-4.146-1.786 7.3251 7.3251 0 0 0-4.502.272Z" fill="#263238"/><path d="M578.147 146.64a7.9092 7.9092 0 0 0-1.805 3.929 6.6975 6.6975 0 0 0 .273 4.306c-.084-1.407-.018-2.819.197-4.212a37.681 37.681 0 0 1 1.335-4.023Z" fill="#263238"/><path d="M578.307 153.606a1.709 1.709 0 0 0-.72-.643c-.297-.14-.628-.191-.953-.147-.325.053-.628.196-.874.414-.246.218-.426.502-.517.817.498.152.967.384 1.391.687.497-.459 1.061-.84 1.673-1.128Z" fill="#fff"/><path d="M589.155 151.979a5.7779 5.7779 0 0 0-1.937-.254c-1.584-.036-3.166.147-4.7.546-1.527.388-2.992.989-4.352 1.786-.588.285-1.119.674-1.57 1.146a24.1913 24.1913 0 0 1 12.521-3.224h.038Z" fill="#263238"/><path d="M602.032 95.8801a19.095 19.095 0 0 1-8.387 5.8019 19.1005 19.1005 0 0 1-10.178.656c-1.344-.301-2.867-.94-3.083-2.3407-.216-1.4006 1.175-2.5944 2.472-3.2618a22.421 22.421 0 0 1 8.816-2.409 22.4175 22.4175 0 0 1 9.044 1.3092 25.7106 25.7106 0 0 1-12.887-7.52c-1.297-1.4194-2.5-3.4592-1.589-5.1606.912-1.7014 3.14-1.88 4.954-1.4946a15.1136 15.1136 0 0 1 8.151 4.7676 15.12 15.12 0 0 1 3.731 8.6744 14.2125 14.2125 0 0 1 6.091-15.04c1.88-1.175 4.7-1.7014 6.025.094.799 1.0904.64 2.5944.311 3.901a18.174 18.174 0 0 1-3.546 6.8959 18.1656 18.1656 0 0 1-6.099 4.7883 15.8965 15.8965 0 0 1 17.447.2726c1.616 1.1468 3.12 2.8952 2.867 4.8507-.329 2.481-3.187 3.76-5.64 4.023-3.103.359-6.246.015-9.197-1.005a20.8275 20.8275 0 0 1-7.855-4.8889 11.816 11.816 0 0 1 2.619 5.0279c.452 1.864.444 3.81-.025 5.669-.639 2.435-2.82 4.954-5.235 4.277-2.416-.676-2.961-3.619-2.886-6.025a29.452 29.452 0 0 1 3.271-12.5397" fill="#fff"/><path d="M588.779 99.0855c.094.188 3.092-1.4852 7.162-2.3312 4.071-.846 7.52-.5734 7.52-.7802 0-.2068-3.431-.7802-7.632.1316-4.202.9118-7.154 2.8482-7.05 2.9798Z" fill="#263238"/><path d="M592.633 88.7644c-.057.2068 2.688.8648 5.348 2.9704 2.66 2.1056 4.287 4.3898 4.465 4.2488a13.0876 13.0876 0 0 0-4.051-4.8034c-2.801-2.1808-5.772-2.5756-5.762-2.4158Z" fill="#263238"/><path d="M609.337 86.6964c-.066-.141-2.585 1.0904-4.7 3.76s-2.482 5.546-2.303 5.5366c.178-.0094.799-2.585 2.82-5.123 2.021-2.538 4.305-3.995 4.183-4.1736Z" fill="#263238"/><path d="M605.238 95.4571a2.3334 2.3334 0 0 0-.495-1.2495 2.3316 2.3316 0 0 0-3.585-.0853 6.6531 6.6531 0 0 1 1.307 1.7108 9.4717 9.4717 0 0 1 2.82-.376" fill="#fff"/><path d="M619.723 100.129a7.6333 7.6333 0 0 0-2.246-1.5041 23.9518 23.9518 0 0 0-12.653-2.679 8.0788 8.0788 0 0 0-2.66.4606c0 .2256 4.127-.4042 9.034.6674 4.906 1.0716 8.422 3.2431 8.525 3.0551ZM585.874 297.491c.121-.53.278-1.051.47-1.56.169-.498.367-1.109.564-1.824.197-.714.47-1.523.677-2.444.545-2.121.975-4.271 1.288-6.439.361-2.661.559-5.342.592-8.027-.004-2.684-.17-5.365-.498-8.028-.289-2.172-.69-4.328-1.204-6.458-.197-.94-.451-1.729-.648-2.444-.198-.714-.376-1.335-.545-1.833a8.9002 8.9002 0 0 1-.442-1.569c.242.486.449.988.62 1.503.198.499.414 1.1.63 1.815.216.714.498 1.523.714 2.444a53.8735 53.8735 0 0 1 1.326 6.486c.356 2.683.535 5.386.536 8.093a60.9285 60.9285 0 0 1-.64 8.084 54.6473 54.6473 0 0 1-1.391 6.467c-.235.94-.526 1.72-.752 2.425a26.118 26.118 0 0 1-.648 1.805 8.7072 8.7072 0 0 1-.649 1.504ZM590.536 298.262c.118-.534.275-1.059.47-1.57.169-.498.367-1.099.564-1.823.198-.724.47-1.523.677-2.435.545-2.124.972-4.277 1.278-6.448.37-2.658.571-5.336.602-8.018-.003-2.684-.17-5.365-.498-8.028-.288-2.175-.69-4.334-1.203-6.467-.198-.94-.452-1.72-.649-2.444s-.385-1.335-.545-1.833c-.189-.512-.34-1.036-.451-1.57.251.486.462.992.629 1.513.198.489.414 1.091.63 1.815.216.723.498 1.522.715 2.434a52.85 52.85 0 0 1 1.316 6.486c.359 2.683.541 5.387.545 8.094a60.954 60.954 0 0 1-.639 8.084 56.433 56.433 0 0 1-1.392 6.467c-.235.94-.526 1.72-.752 2.434-.225.715-.451 1.316-.648 1.805-.179.517-.395 1.02-.649 1.504Z" fill="#263238"/><path d="M532.802 298.375s0-.282.141-.818.282-1.363.479-2.35c.198-.987.489-2.265.846-3.694.357-1.429.733-3.074 1.25-4.86.517-1.786 1.034-3.76 1.702-5.847.667-2.086 1.382-4.314 2.171-6.645 1.636-4.635 3.6-9.682 5.903-14.871 2.303-5.189 4.794-10.011 7.154-14.326 1.212-2.143 2.35-4.183 3.506-6.044 1.156-1.861 2.209-3.6 3.224-5.161 1.015-1.56 1.965-2.951 2.82-4.173.856-1.222 1.57-2.256 2.19-3.093.621-.836 1.081-1.447 1.429-1.88.156-.231.332-.448.527-.648-.133.245-.284.481-.452.705l-1.344 1.983a85.159 85.159 0 0 0-2.124 3.13c-.809 1.25-1.758 2.623-2.726 4.211-.968 1.589-2.078 3.29-3.168 5.18-1.09 1.889-2.256 3.91-3.459 6.053-2.331 4.324-4.766 9.137-7.097 14.307-2.331 5.17-4.268 10.209-5.932 14.824-.799 2.322-1.579 4.521-2.209 6.58-.629 2.059-1.24 4.023-1.748 5.809-.508 1.786-.94 3.412-1.316 4.841-.376 1.429-.696 2.66-.94 3.676-.244 1.015-.432 1.748-.573 2.321-.058.271-.143.536-.254.79ZM531.42 322.806c-.593-4.1-.514-8.269.235-12.343.141 0-.076 2.82-.132 6.176-.056 3.356.038 6.157-.103 6.167Z" fill="#fff"/><path d="M515.552 356.241h-31.621v64.061h31.621v-64.061ZM197.287 356.241h-31.621v64.061h31.621v-64.061Z" fill="#455A64"/><path d="m165.666 377.908 31.621.602v-11.769h-31.621v11.167ZM483.931 377.908l31.621.602v-11.769h-31.621v11.167Z" fill="#000" opacity=".3"/><path d="M565.118 336.2H100.523v30.55h464.595V336.2Z" fill="#455A64"/><path d="M565.128 366.741c0 .141-103.635.244-231.447.244s-231.466-.103-231.466-.244c0-.141 103.645-.244 231.485-.244 127.84 0 231.428.103 231.428.244ZM565.128 336.2c0 .132-103.635.245-231.447.245s-231.466-.113-231.466-.245c0-.131 103.645-.244 231.485-.244 127.84 0 231.428.103 231.428.244Z" fill="#263238"/><path d="M369.909 201.668s-2.068-20.605 7.172-32.976c9.24-12.37 18.227-14.1 44.838-16.299 26.612-2.2 48.777 7.868 55.46 21.733 6.684 13.865 5.49 32.74-1.156 48.88l-3.873 8.685s5.64 8.3 6.355 38.653c.714 30.353-18.669 55.93-18.669 55.93l-31.471 9.4h-191.76s-13.715-33.558-12.041-49.905c2.321-22.644 19.082-68.375 70.443-68.375 12.991 0 33.267 6.11 41.407 7.012 33.351 3.657 36.228 1.269 36.228 1.269l-2.933-24.007Z" fill="#fff"/><path d="M399.857 247.84s10.688.94 23.275 14.166c12.586 13.226 15.848 45.647 15.848 45.647l-1.758-.752-37.365-59.061Z" fill="#000" opacity=".3"/><path d="M500.597 327.646c-3.083-1.109-10.509-2.021-10.509-2.021s-10.086-4.023-20.68-9.089l-32.139-9.635s-3.158-21.705-12.511-38.117c-15.153-26.584-47.066-24.929-47.066-24.929l-19.204 38.869s17.615 18.593 21.075 34.272c3.459 15.679 0 18.49 0 18.49l102.262.15h25.108a9.2814 9.2814 0 0 0-1.972-4.943 9.2816 9.2816 0 0 0-4.364-3.047Z" fill="#fff"/><path d="m445.034 184.898-2.426-1.053a14.1705 14.1705 0 0 0-3.713-1.88l-4.361-29.685a89.8928 89.8928 0 0 0-14.946.348s6.317 10.556 8.892 29.629a14.0824 14.0824 0 0 0-3.233 1.739 15.0844 15.0844 0 0 0-5.41 7.377 15.0853 15.0853 0 0 0-.151 9.148c.897 2.991 2.701 5.63 5.161 7.553a15.0918 15.0918 0 0 0 8.578 3.182c3.118.167 6.213-.619 8.874-2.253a15.3779 15.3779 0 0 0 6.021-6.897 15.376 15.376 0 0 0 1.034-9.098 15.3753 15.3753 0 0 0-4.32-8.072v-.038Z" fill="#fff" opacity=".4"/><path d="M421.775 185.684c1.842-7.224-2.522-14.573-9.746-16.414-7.224-1.841-14.573 2.522-16.414 9.746-1.842 7.224 2.522 14.573 9.746 16.414 7.224 1.842 14.573-2.522 16.414-9.746Z" fill="#fff"/><path d="M422.192 182.36a23.1676 23.1676 0 0 0-.517-3.271 13.343 13.343 0 0 0-6.703-8.464 13.358 13.358 0 0 0-5.309-1.503c-1.855-.126-3.716.138-5.463.774a12.6361 12.6361 0 0 0-3.356 1.814 12.4324 12.4324 0 0 0-2.82 2.82 13.1636 13.1636 0 0 0-2.586 7.835c0 2.821.907 5.568 2.586 7.835a12.6799 12.6799 0 0 0 2.82 2.82c1.019.771 2.151 1.38 3.356 1.804 1.749.633 3.61.895 5.465.769 1.856-.126 3.665-.638 5.311-1.502a13.3828 13.3828 0 0 0 4.254-3.517c1.158-1.455 2-3.135 2.473-4.933.245-1.078.414-2.171.508-3.272.014.072.014.145 0 .217v.648c-.001.35-.029.699-.085 1.044a9.516 9.516 0 0 1-.254 1.41 12.716 12.716 0 0 1-1.457 3.637 13.6744 13.6744 0 0 1-3.889 4.233 13.6946 13.6946 0 0 1-5.285 2.263c-2.408.458-4.894.264-7.201-.564a13.6404 13.6404 0 0 1-6.392-4.775 13.6436 13.6436 0 0 1-2.678-8.117c0-2.923.939-5.768 2.678-8.117a13.827 13.827 0 0 1 6.392-4.766 13.622 13.622 0 0 1 7.201-.564 13.353 13.353 0 0 1 5.734 2.585 13.5098 13.5098 0 0 1 3.44 3.901 12.6782 12.6782 0 0 1 1.457 3.647c.121.463.206.934.254 1.41.056.345.084.694.085 1.044v.648c.006.07 0 .14-.019.207Z" fill="#263238"/><path d="M397.62 178.76c1.57-4.7 4.991-7.765 7.652-6.881 2.66.884 3.553 5.414 1.983 10.105-1.57 4.691-4.991 7.774-7.652 6.881-2.66-.893-3.525-5.415-1.983-10.105Z" fill="#454545"/><path d="M378.82 170.14s4.644-35.382 10.058-39.405c5.415-4.023 26.02 24.44 26.02 24.44l-27.871 12.7-8.207 2.265ZM437.288 154.827s10.152-15.293 12.286-17.427c2.134-2.134 7.022-10.049 11.91-7.154 4.888 2.896 7.773 33.728 7.773 33.728l-21.441-4.259-10.528-4.888Z" fill="#fff"/><path d="M428.64 183.573a15.2185 15.2185 0 0 1 10.434-.282c.221-.008.44.048.63.162.19.113.344.278.443.476.099.198.139.42.115.64-.023.22-.109.429-.248.602l-3.892 4.521c-.183.21-.436.347-.712.387-.276.04-.557-.021-.792-.171l-6.58-4.249a1.149 1.149 0 0 1-.411-.559 1.15 1.15 0 0 1-.017-.694c.065-.228.199-.43.384-.579.184-.149.41-.238.646-.254Z" fill="#263238"/><path d="M254.421 401.803c-2.867-19.524-19.787-33.793-36.858-43.672-2.707-1.57-5.508-3.121-7.52-5.509-2.011-2.387-3.111-5.846-1.88-8.713 1.655-3.76 6.355-4.917 10.415-5.64l19.646-3.281-5.301-27.514c-11.28 1.711-22.692 3.45-33.257 7.765-10.566 4.314-20.351 11.552-25.493 21.742-5.142 10.189-4.7 23.566 2.82 32.11 5.64 6.383 14.325 9.4 20.144 15.623a25.8114 25.8114 0 0 1 6.309 12.691c.877 4.736.411 9.623-1.346 14.108-2.641 6.458-8.046 12.22-7.811 19.167.319 9.522 11.129 15.369 20.68 15.623 5.67.156 11.305-.931 16.51-3.184a38.8856 38.8856 0 0 0 13.623-9.857 38.8845 38.8845 0 0 0 8.185-14.688 38.8762 38.8762 0 0 0 1.218-16.771h-.084Z" fill="#fff"/><path d="M336.37 244.795a56.9195 56.9195 0 0 1-6.43-3.61 55.722 55.722 0 0 1-6.185-4.032 56.5696 56.5696 0 0 1 6.439 3.609 53.5715 53.5715 0 0 1 6.176 4.033Z" fill="#263238"/><path d="M404.116 181.702c0 .517-1.617.94-3.619.94-2.003 0-3.629-.414-3.629-.94s1.626-.94 3.629-.94c2.002 0 3.619.423 3.619.94Z" fill="#fff"/><path d="M435.474 189.579c.132.324.212.666.235 1.015.123.936.123 1.884 0 2.82-.153 1.396-.574 2.75-1.241 3.986a9.7398 9.7398 0 0 1-3.6 3.675 8.781 8.781 0 0 1-4.991 1.232 8.3405 8.3405 0 0 1-3.986-1.344 7.2634 7.2634 0 0 1-2.03-1.984 2.8925 2.8925 0 0 1-.47-.94 9.5426 9.5426 0 0 0 2.669 2.651 8.2462 8.2462 0 0 0 3.826 1.184c1.65.062 3.283-.356 4.7-1.203a9.6177 9.6177 0 0 0 3.45-3.478 10.9416 10.9416 0 0 0 1.325-3.826c.157-1.256.195-2.524.113-3.788Z" fill="#263238"/><path d="M450.617 195.163c-.108.304-.256.591-.442.855-.444.758-.95 1.478-1.513 2.153a7.2158 7.2158 0 0 1-3.177 2.293c-1.588.482-3.3.327-4.775-.432a8.308 8.308 0 0 1-3.535-3.243 12.5106 12.5106 0 0 1-1.429-3.647c-.192-.854-.314-1.721-.366-2.595a3.3635 3.3635 0 0 1 0-.94c.094 0 .15 1.373.695 3.478.312 1.231.81 2.407 1.476 3.488a8.0657 8.0657 0 0 0 3.365 3.045c1.363.705 2.943.863 4.418.442a7.1117 7.1117 0 0 0 3.065-2.096c1.447-1.654 2.134-2.858 2.218-2.801ZM440.86 202.213c.047 0-.254.592-1.006 1.278a6.7214 6.7214 0 0 1-7.473.997 3.174 3.174 0 0 1-1.306-.94c.047-.066.545.301 1.447.658 1.163.479 2.432.645 3.679.48a7.1904 7.1904 0 0 0 3.428-1.42c.808-.621 1.231-1.109 1.231-1.053Z" fill="#263238"/><path d="M388.267 165.308s0-29.995 2.961-30.456c2.961-.46 18.518 20.68 18.518 20.68s-12.305 12.267-21.479 9.776Z" fill="#000" opacity=".3"/><path d="M411.119 155.288c-3.901-.94-8.968-.225-12.85.79a7.5174 7.5174 0 0 1 4.051 2.406c-6.307 2.125-12.906 4.428-17.399 9.334l4.634 1.044 17.559-2.66 4.005-10.914Z" fill="#fff"/><path d="M440.625 156.04s17.409-24.44 20.088-23.096c2.679 1.344 3.083 27.589 3.083 27.589s-17.146 2.811-23.171-4.493Z" fill="#000" opacity=".3"/><path d="M465.046 161.088c-2.622-3.027-7.172-5.386-10.922-6.806a7.442 7.442 0 0 1 1.88 4.287c-6.364-1.937-13.066-3.892-19.581-2.501l3.168 3.544 15.839 8.028 9.616-6.552Z" fill="#fff"/><path d="M470.102 183.452c1.703-7.258-2.801-14.522-10.059-16.224-7.258-1.703-14.522 2.801-16.224 10.059-1.703 7.258 2.801 14.522 10.059 16.224 7.258 1.702 14.522-2.801 16.224-10.059Z" fill="#fff"/><path d="M470.452 180.377a23.7787 23.7787 0 0 0-.508-3.272 13.4818 13.4818 0 0 0-4.926-7.322 13.2802 13.2802 0 0 0-6.049-2.542 13.2932 13.2932 0 0 0-6.528.662 13.3854 13.3854 0 0 0-6.157 4.625 13.154 13.154 0 0 0-2.586 7.834c0 2.822.906 5.568 2.586 7.835a12.6589 12.6589 0 0 0 2.82 2.82c1.019.772 2.151 1.38 3.356 1.805 2.23.816 4.638 1.023 6.975.602 2.048-.369 3.98-1.216 5.64-2.472a13.48 13.48 0 0 0 4.925-7.314c.245-1.077.415-2.17.508-3.271.014.072.014.145 0 .216v.64c0 .352-.028.704-.085 1.052-.049.476-.134.947-.253 1.41a12.7392 12.7392 0 0 1-1.457 3.638 13.5835 13.5835 0 0 1-7.114 5.93 13.5814 13.5814 0 0 1-9.261-.008 13.6503 13.6503 0 0 1-6.392-4.766 13.6347 13.6347 0 0 1-2.678-8.117c0-2.922.938-5.768 2.678-8.116a13.817 13.817 0 0 1 6.392-4.766 13.722 13.722 0 0 1 7.2-.574c1.902.372 3.703 1.143 5.285 2.263a13.6776 13.6776 0 0 1 3.89 4.233 12.6953 12.6953 0 0 1 1.457 3.647c.121.463.206.934.253 1.41.056.345.085.694.085 1.043v.64a.6181.6181 0 0 1-.056.235Z" fill="#263238"/><path d="M473.6 318.105a32.4038 32.4038 0 0 1-19.082 12.22c-.94.198-2.068.264-2.585-.526-.517-.79 0-1.88.564-2.623 2.82-4.117 5.415-8.403 8.46-12.361l.621-.808 7.792 2.529 4.23 1.569Z" fill="#fff" opacity=".4"/><path d="M445.682 177.886c1.213-4.794 4.399-8.122 7.125-7.436 2.726.686 3.948 5.133 2.736 9.927-1.213 4.794-4.399 8.131-7.125 7.435-2.726-.696-3.939-5.123-2.736-9.926Z" fill="#454545"/><path d="M447.731 180.997c1.999 0 3.619-.417 3.619-.931s-1.62-.93-3.619-.93c-1.998 0-3.619.416-3.619.93s1.621.931 3.619.931ZM522.301 273.202c-2.547-.386-12.173.799-12.173.799l-22.983 4.314-19.74.47-5.442 32.421s20.088-3.375 25.728-5.321c5.64-1.945 25.991-20.125 26.855-20.125.865 0 8.686-2.2 9.993-2.2l1.457-.639c.416-.191.744-.534.918-.957.175-.424.182-.898.022-1.327-.875-2.547-2.783-7.153-4.635-7.435Z" fill="#fff"/><path d="M487.145 278.315s-4.098 22.946-10.734 30.24l-6.665 1.26 7.313-31.265 10.086-.235Z" fill="#000" opacity=".3"/><path d="M469.37 310.426c6.778-10.716 12.38-27.937 9.936-40.42l2.51 6.58c.26-7.219-.814-14.424-3.168-21.254l4.803 6.167c-2.011-9.673-5.809-21.498-11.139-29.78" fill="#fff"/><path d="M472.313 231.672c.13.152.247.316.347.489.207.329.546.809.94 1.467a61.5372 61.5372 0 0 1 3.037 5.818 106.9988 106.9988 0 0 1 7.05 21.959l.197.94-.592-.752c-1.532-1.974-3.149-4.033-4.813-6.157l.414-.226a58.555 58.555 0 0 1 3.092 15.36 55.45 55.45 0 0 1 .094 5.978v1.184l-.432-1.109c-.856-2.237-1.692-4.427-2.51-6.58l.461-.131c.518 2.921.682 5.894.488 8.854a51.683 51.683 0 0 1-1.081 8.047 71.7563 71.7563 0 0 1-3.985 12.868 66.8975 66.8975 0 0 1-3.892 7.99c-.498.94-.94 1.57-1.241 2.04l-.338.517a.6785.6785 0 0 1-.122.16s0-.066.084-.188l.301-.536c.263-.479.696-1.147 1.166-2.077a71.1592 71.1592 0 0 0 3.76-8.018 72.6326 72.6326 0 0 0 3.863-12.841c.549-2.633.895-5.304 1.034-7.99.183-2.921.012-5.853-.507-8.732l.451-.132c.818 2.115 1.664 4.296 2.519 6.533l-.47.085c.075-1.975.047-3.951-.085-5.922a59.326 59.326 0 0 0-3.083-15.21l-.46-1.334.864 1.118 4.785 6.176-.385.179a111.2432 111.2432 0 0 0-6.862-21.94c-1.138-2.566-2.162-4.54-2.914-5.856-.358-.668-.668-1.156-.865-1.504a4.8812 4.8812 0 0 1-.31-.527Z" fill="#263238"/><path d="M301.327 334.969a34.452 34.452 0 0 1 14.861-12.897 22.2926 22.2926 0 0 1 15.209 1.006c8.3 3.525 9.175 8.799 9.917 12.455l-39.987-.564Z" fill="#fff" opacity=".4"/><path d="M322.072 325.964c.917-.148 1.848-.186 2.773-.113 2.286-.003 4.54.531 6.58 1.56a8.466 8.466 0 0 1 2.82 2.454c.592.843.99 1.805 1.166 2.82a5.244 5.244 0 0 1-.066 2.058c-.036.253-.129.494-.273.705.148-.896.148-1.81 0-2.707a6.9861 6.9861 0 0 0-1.193-2.632 8.5289 8.5289 0 0 0-2.708-2.303 15.8291 15.8291 0 0 0-6.335-1.635c-.925-.014-1.848-.083-2.764-.207ZM188.244 344.651c-.054.179-.133.35-.235.508l-.761 1.381-2.82 4.954-.273.461-.094-.527c-.48-2.783-.062-5.648 1.194-8.178l.395.264-2.153 2.406-3.863 4.296-.47.517.056-.696a27.4737 27.4737 0 0 1 2.52-9.4c.402-.85.854-1.675 1.353-2.472.159-.296.355-.571.583-.818-.118.328-.269.643-.451.94-.301.574-.743 1.41-1.213 2.51a29.0787 29.0787 0 0 0-2.322 9.287l-.404-.169 3.845-4.315 2.115-2.35 1.222-1.363-.827 1.636a13.1548 13.1548 0 0 0-1.241 7.896l-.357-.066 3.008-4.869.855-1.325c.086-.186.2-.357.338-.508ZM226.23 393.86a5.0872 5.0872 0 0 1-.865-.573l-2.303-1.73c-1.936-1.476-4.634-3.563-7.689-5.95l.376-.282c.357.836.733 1.711 1.109 2.604l2.303 5.452.207.479-.489-.179a10.8258 10.8258 0 0 1-5.743-4.944 9.439 9.439 0 0 1-.837-2.03c-.083-.25-.134-.509-.15-.771.343.916.755 1.805 1.231 2.66a10.8201 10.8201 0 0 0 5.64 4.7l-.282.31-2.34-5.433-1.138-2.66-.366-.874.742.592c3.037 2.406 5.697 4.54 7.586 6.082l2.209 1.833c.295.204.564.444.799.714Z" fill="#263238"/><path d="M257.56 228.035c-11.28 4.7-30.663 25.568-33.783 35.494l7.144-7.388a46.9874 46.9874 0 0 0-8.802 18.517 46.9912 46.9912 0 0 0-.081 20.502c.554-5.236 1.287-8.808 3.76-13.075-2.567 7.567-1.279 19.194 2.021 26.479" fill="#fff"/><path d="M227.837 308.593c-.083-.142-.155-.29-.216-.442-.122-.292-.338-.715-.555-1.297a37.2973 37.2973 0 0 1-1.588-5.199 46.6535 46.6535 0 0 1-1.138-8.46c-.08-1.771-.036-3.546.132-5.311.163-1.981.554-3.936 1.166-5.828l.347.16a25.0771 25.0771 0 0 0-2.538 5.979 43.8039 43.8039 0 0 0-1.193 7.031l-.141 1.353-.292-1.325a46.1568 46.1568 0 0 1-.94-14.485A46.9954 46.9954 0 0 1 230.695 256l.366.31-7.153 7.388-.743.771.348-.996a38.51 38.51 0 0 1 5.086-9.175c1.964-2.716 3.976-5.198 5.969-7.463 3.475-3.961 7.229-7.668 11.233-11.092a55.8498 55.8498 0 0 1 8.384-6.063c.79-.473 1.61-.893 2.454-1.26l.658-.291a.9562.9562 0 0 1 .225-.085l-.216.122-.63.329c-.831.393-1.638.836-2.415 1.326a58.3815 58.3815 0 0 0-8.272 6.147 111.28 111.28 0 0 0-11.121 11.13c-1.974 2.265-3.966 4.747-5.912 7.454a38.6437 38.6437 0 0 0-5.001 9.062l-.385-.235 7.144-7.398.366.319a47.0095 47.0095 0 0 0-9.729 24.516 46.061 46.061 0 0 0 .865 14.335h-.432c.216-2.396.628-4.769 1.231-7.097a25.5092 25.5092 0 0 1 2.613-6.063l.94-1.636-.611 1.795a25.491 25.491 0 0 0-1.184 5.744 37.305 37.305 0 0 0-.169 5.264 46.326 46.326 0 0 0 1.043 8.46c.377 1.763.87 3.5 1.476 5.198.197.592.404 1.025.507 1.325.104.301.207.452.207.452ZM257.56 318.66s-.094-.056-.244-.188c-.151-.131-.386-.338-.668-.62-.573-.545-1.391-1.373-2.368-2.482a50.6044 50.6044 0 0 1-6.928-10.039l.404-.085c-.225 2.746-.05 5.51.517 8.207l.16.78-.564-.564a21.8616 21.8616 0 0 1-6.345-14.843l.46.066a20.7996 20.7996 0 0 0-.658 9.945l.32 1.777-.696-1.664a29.9543 29.9543 0 0 1-2.256-9.513 24.943 24.943 0 0 1 0-2.707v-.705a1.1059 1.1059 0 0 1 0-.244c.027.312.027.627 0 .94 0 .62.047 1.532.151 2.688a31.1461 31.1461 0 0 0 2.397 9.4l-.376.113c-.644-3.382-.437-6.87.601-10.152l.423-1.354v1.42a21.5579 21.5579 0 0 0 6.204 14.513l-.404.216c-.56-2.741-.722-5.55-.479-8.337l.066-.734.338.658a54.1554 54.1554 0 0 0 6.74 10.077c.94 1.128 1.739 1.974 2.275 2.557.535.583.93.874.93.874ZM388.643 335.636c-.247.019-.495.019-.742 0l-2.106-.112-7.67-.489-.743-.047.677-.31a11.7403 11.7403 0 0 0 5.33-5.058l.253.329-4.822 1.147-.385.094.094-.395c.527-1.921.867-3.888 1.015-5.875a31.9589 31.9589 0 0 0-4.982-19.42 32.4815 32.4815 0 0 0-3.845-4.869l-1.203-1.185c-.282-.272-.423-.423-.404-.432.17.096.325.216.461.357.3.254.742.621 1.287 1.119a30.486 30.486 0 0 1 3.995 4.813 31.7418 31.7418 0 0 1 5.199 19.74 30.3766 30.3766 0 0 1-1.044 5.969l-.282-.292 4.813-1.128.489-.122-.235.442a11.9362 11.9362 0 0 1-5.584 5.189l-.066-.358 7.661.658 2.106.207c.245-.013.49-.004.733.028ZM451.699 222.526c-.037.12-.091.234-.16.339-.122.216-.292.535-.536.94a35.396 35.396 0 0 1-2.312 3.346 38.6918 38.6918 0 0 1-10.547 9.344l-.555.338.216-.611c.628-1.743.909-3.592.828-5.443l.451.113a21.22 21.22 0 0 1-7.577 7.52l-.488.292.141-.555c.573-2.312 1.128-4.521 1.645-6.58l.376.197a22.635 22.635 0 0 1-7.699 5.424l-.489.207.292-.442a19.0686 19.0686 0 0 0 2.293-4.878c.188-.602.301-1.081.386-1.401.031-.166.075-.329.131-.489.008.171-.008.341-.047.508-.056.329-.141.808-.301 1.429-.473 1.77-1.212 3.46-2.19 5.01l-.197-.235a22.9151 22.9151 0 0 0 7.52-5.424l.583-.639-.207.836c-.498 2.068-1.044 4.277-1.608 6.58l-.347-.263a21.0627 21.0627 0 0 0 7.397-7.332l.414-.686v.799c.075 1.92-.225 3.835-.884 5.64l-.329-.282a39.8781 39.8781 0 0 0 10.557-9.127c1.099-1.345 1.88-2.473 2.406-3.253.257-.422.537-.829.837-1.222ZM333.7 249.796c-.389-.171-.76-.379-1.109-.621-.686-.432-1.692-1.043-2.942-1.767a80.9857 80.9857 0 0 0-10.181-4.973c-3.507-1.4-7.11-2.55-10.781-3.44-1.41-.348-2.557-.602-3.356-.761-.416-.066-.825-.17-1.222-.311.423-.006.845.035 1.259.123.809.103 1.974.31 3.394.611 3.72.796 7.364 1.91 10.894 3.327a67.4847 67.4847 0 0 1 10.171 5.123c1.232.771 2.219 1.42 2.877 1.88.357.237.691.508.996.809ZM386.697 166.878s.057-.113.207-.291c.209-.274.435-.534.677-.78.876-.918 1.846-1.74 2.895-2.454A32.4066 32.4066 0 0 1 402 158.559h.104l-.132.395a9.295 9.295 0 0 0-3.562-2.557l-.536-.216.536-.226a18.6007 18.6007 0 0 1 9.212-1.278c.9.105 1.789.284 2.66.536.325.077.64.19.94.338 0 .075-1.326-.376-3.61-.573-3.072-.266-6.163.221-9.005 1.419v-.442a9.544 9.544 0 0 1 3.76 2.689l.254.301-.395.094h-.103a34.4005 34.4005 0 0 0-11.431 4.606c-1.42.963-2.757 2.045-3.995 3.233ZM438.473 155.739s.122-.047.357-.094.592-.122 1.053-.169c1.301-.145 2.612-.179 3.919-.103 4.342.232 8.596 1.315 12.521 3.186l-.357.226v-.235a6.0192 6.0192 0 0 0-.837-2.172c-.376-.676-.808-1.325-1.193-1.983l-.292-.508.564.17c3.201.927 6.151 2.566 8.629 4.794.714.645 1.366 1.356 1.946 2.124.221.271.407.567.555.884a28.1683 28.1683 0 0 0-2.707-2.82 22.943 22.943 0 0 0-8.545-4.569l.263-.348c.376.64.809 1.279 1.203 1.984.468.713.787 1.512.94 2.35v.695l-.385-.188a35.0246 35.0246 0 0 0-12.323-3.28 29.4277 29.4277 0 0 0-3.883-.057c-.472.074-.95.112-1.428.113Z" fill="#263238"/><path d="M370.642 186.12c4.907 1.269 9.4 2.416 14.439 2.171 1.607-.075 3.459-.479 4.192-1.88.262-.651.32-1.367.165-2.052a3.4527 3.4527 0 0 0-1.03-1.783c-1.05-.93-2.278-1.637-3.61-2.077l-11.702-4.7c-1.382 4.183-2.379 7.905-2.454 10.321ZM480.914 187.737c-.846-2.134-.32 4.606-1.721 6.42a29.6305 29.6305 0 0 1-5.076 4.625c-1.87 1.343-3.43 3.07-4.577 5.066-.94 1.88-1.081 4.315.385 5.763 1.213 1.175 3.074 1.278 4.756 1.259 2.003 0 4.343-.338 5.358-2.068 0 0 4.494-11.966.875-21.065ZM469.389 258.397c-3.412-7.37-9.071-14.1-16.732-16.826-7.661-2.726-17.381-.301-21.413 6.749a19.9073 19.9073 0 0 0-2.096 11.543 73.166 73.166 0 0 0 2.406 11.656c2.924 11.534 6.524 24.261 7.436 36.134l24.703 7.059c4.7-10.631 9.456-21.554 10.114-33.163a48.7273 48.7273 0 0 0-4.418-23.152ZM327.656 266.565c2.595 5.791-26.32 33.558-46.802 37.017-1.721.292-3.76.423-4.973-.789-1.213-1.213-1.053-3.76.188-5.292 1.241-1.533 3.102-2.294 4.888-3.065 8.648-3.76 15.04-9.644 21.376-16.61 6.335-6.965 11.787-16.647 10.293-25.962 0 0 11.308 6.41 15.03 14.701ZM482.22 335.636l7.915-9.804s11.844-.169 15.04 5.17c.451.594.821 1.245 1.1 1.937.279.881.487 1.783.62 2.697H482.22Z" fill="#fff" opacity=".4"/><path d="M501.819 336.388c-.215-.67-.382-1.355-.498-2.049a6.5794 6.5794 0 0 0-2.453-4.117 7.3978 7.3978 0 0 0-4.785-.78 12.5 12.5 0 0 1-2.096.216 6.8236 6.8236 0 0 1 2.049-.564 9.3888 9.3888 0 0 1 2.331-.141c.979.045 1.93.34 2.764.855.827.543 1.48 1.314 1.88 2.219.321.712.545 1.465.667 2.237.157.696.205 1.413.141 2.124Z" fill="#263238"/><path d="M442.054 308.32a60.0698 60.0698 0 0 1-33.37 22.88c-1.739.451-4.287.3-4.475-1.486.023-.454.139-.898.343-1.304.204-.407.491-.766.842-1.055 9.635-10.425 19.74-20.84 29.403-31.264l2.435 10.819 4.822 1.41ZM427.023 272.6s-18.433 17.86-29.666 22.654c-1.26.536-2.726 1.034-3.957.423-1.41-.714-1.796-2.67-1.26-4.164a10.3342 10.3342 0 0 1 2.895-3.713c8.667-8.234 16.394-18.33 22.917-28.341 0-.019 2.548 1.72 9.071 13.141ZM235.188 441.17c3.14-1.447 4.437-5.743 4.804-9.183.485-4.58-.366-9.202-2.451-13.307a23.8408 23.8408 0 0 0-9.299-9.83 23.8313 23.8313 0 0 0-13.15-3.185c-4.6.231-9.033 1.789-12.766 4.485 0 0-2.5 5.847-3.563 7.727-1.062 1.88-9.663 13.066-.479 21.733 9.184 8.667 20.022 6.777 23.227 6.289a37.6068 37.6068 0 0 0 13.677-4.729Z" fill="#fff" opacity=".4"/><path d="M506.895 335.636s0-.441-.216-1.259a8.4885 8.4885 0 0 0-1.57-3.318 10.8258 10.8258 0 0 0-5.574-3.826 29.2079 29.2079 0 0 0-9.4-1.438h-.066l-20.783-9.015-32.139-9.607-.141-.047v-.141c-.423-2.246-.874-4.634-1.372-7.031-2.331-11.458-5.687-22.259-10.895-31.02a52.6252 52.6252 0 0 0-8.864-11.28 41.85 41.85 0 0 0-10.199-7.172 61.875 61.875 0 0 0-9.616-3.76c-2.914-.94-5.462-1.532-7.52-2.031l-4.822-1.118-1.251-.292-.423-.112c.146.014.29.036.433.066l1.259.244c1.11.216 2.745.545 4.851 1.024 2.105.48 4.653 1.082 7.586 1.956 3.328.976 6.567 2.234 9.682 3.76 3.79 1.86 7.276 4.285 10.34 7.191a52.6222 52.6222 0 0 1 8.967 11.28c5.274 8.77 8.648 19.617 10.989 31.104.498 2.407.94 4.794 1.372 7.041l-.169-.188 32.12 9.663 20.68 9.137h-.066c3.237-.031 6.456.484 9.522 1.523 2.26.678 4.238 2.069 5.64 3.966a8.4496 8.4496 0 0 1 1.532 3.413c.087.423.125.855.113 1.287Z" fill="#263238"/><path d="M339.998 319.666a18.4129 18.4129 0 0 0-6.284-4.216 18.42 18.42 0 0 0-7.449-1.33 37.103 37.103 0 0 0 7.671-14.568 37.0894 37.0894 0 0 0 .61-16.452 36.2132 36.2132 0 0 0-5.405-13 43.1512 43.1512 0 0 1 1.307 15.66 68.9041 68.9041 0 0 1-13.254 35.372c4.643-.742 11.534.367 16.92 2.82a12.8792 12.8792 0 0 1 7.106 9.635l.386 2.115 3.402-.169c.423-5.067-1.494-12.173-5.01-15.867Z" fill="#000" opacity=".3"/><path d="M292.237 247.521s-7.614-.846-21.404 2.933c-.94.253-9.212 7.614-13.094 12.154-1.194 1.382-2.407 3.074-2.097 4.869.376 2.153 2.877 3.384 5.048 3.14 2.172-.245 4.052-1.57 5.819-2.82 8.582-6.214 17.503-13.565 25.728-20.248" fill="#fff" opacity=".4"/><path d="M235.649 335.495h8.018l22.156-.065 75.491-.057-.235.273c-.16-1.123-.38-2.237-.658-3.337a12.692 12.692 0 0 0-1.363-3.112 12.2875 12.2875 0 0 0-4.991-4.653 33.7583 33.7583 0 0 0-13.837-3.224c-1.085-.013-2.17.063-3.243.226l-.592.094.357-.489a69.256 69.256 0 0 0 11.28-23.65 68.184 68.184 0 0 0 2.002-12.333c.324-3.986.119-7.997-.611-11.929a28.1834 28.1834 0 0 0-4.23-10.443 29.3972 29.3972 0 0 0-7.463-7.586 41.3679 41.3679 0 0 0-17.766-7.05 63.6021 63.6021 0 0 0-15.839-.132c-4.653.508-8.62 1.269-11.835 1.937-3.215.667-5.715 1.259-7.407 1.645l-1.88.442-.658.131.649-.178 1.88-.489c1.682-.414 4.164-1.025 7.379-1.73 3.214-.705 7.191-1.485 11.853-2.03 5.29-.645 10.639-.623 15.924.066 6.439.9 12.577 3.295 17.925 6.993a33.8542 33.8542 0 0 1 4.08 3.422 29.198 29.198 0 0 1 3.497 4.258 28.5608 28.5608 0 0 1 4.324 10.594c.738 3.968.953 8.017.639 12.041a69.0045 69.0045 0 0 1-13.348 36.247l-.235-.386c1.102-.162 2.214-.237 3.328-.225 4.88.076 9.687 1.194 14.1 3.28a12.7758 12.7758 0 0 1 5.179 4.832c.608 1.01 1.085 2.093 1.419 3.224.281 1.121.501 2.257.658 3.403v.282h-.282l-75.491-.113-22.156-.094-5.95-.047h-1.542l-.526-.038ZM423.348 195.257c0 .131-16.845 2.651-37.657 5.64-20.811 2.989-37.703 5.292-37.722 5.151-.019-.141 16.836-2.651 37.657-5.64 20.821-2.989 37.703-5.292 37.722-5.151ZM425.153 197.212c-.197.088-.402.158-.611.207l-1.768.507c-1.541.433-3.76 1.025-6.58 1.73-5.536 1.419-13.225 3.234-21.77 4.991-8.545 1.758-16.3 3.093-21.949 4.033-2.82.442-5.114.78-6.702.94l-1.824.235c-.211.032-.425.048-.639.047.2-.074.409-.124.62-.15l1.815-.32 6.674-1.137c5.64-.94 13.395-2.388 21.939-4.136 8.545-1.749 16.225-3.516 21.789-4.851l6.58-1.579 1.786-.414c.208-.06.423-.095.64-.103ZM498.67 195.266c0 .141-12.455 0-27.815-.413-15.359-.414-27.795-.771-27.795-.94 0-.17 12.455.056 27.814.423 15.36.366 27.796.799 27.796.93ZM489.185 204.685c0 .141-9.71-1.551-21.62-3.76-11.909-2.209-21.573-4.117-21.544-4.249.028-.131 9.71 1.551 21.62 3.76 11.909 2.209 21.573 4.117 21.544 4.249ZM525.958 281.116a10.783 10.783 0 0 1-1.259-1.598 7.3178 7.3178 0 0 0-3.76-2.82 6.587 6.587 0 0 0-4.541.884c-.574.357-1.174.671-1.795.94a6.3127 6.3127 0 0 1 1.626-1.232 9.695 9.695 0 0 1 2.04-.94 5.2477 5.2477 0 0 1 2.82-.112 7.0879 7.0879 0 0 1 3.873 3.083c.419.546.754 1.151.996 1.795Z" fill="#263238"/><path d="M502.496 275.42a35.633 35.633 0 0 1-6.025 17.23c-1.551-2.124-1.946-4.888-1.965-7.52.124-2.71.093-5.425-.094-8.131l8.084-1.579Z" fill="#fff" opacity=".4"/><path d="M436.809 183.638c0 .151-1.73 0-3.817.207-2.086.207-3.76.686-3.76.555a8.2702 8.2702 0 0 1 3.76-1.044 8.4767 8.4767 0 0 1 3.817.282ZM384.281 146.64c-.042.84-.162 1.673-.357 2.491-.301 1.692-.648 3.76-1.034 5.969-.385 2.209-.667 4.277-.94 5.979-.081.835-.232 1.662-.451 2.472-.057-.838-.022-1.68.103-2.51.141-1.551.405-3.685.781-6.025.376-2.341.817-4.437 1.184-5.951.152-.831.392-1.644.714-2.425ZM451.858 137.954a82.2068 82.2068 0 0 1-5.358 7.182 81.6987 81.6987 0 0 1-5.771 6.881 84.5888 84.5888 0 0 1 5.386-7.182 83.8474 83.8474 0 0 1 5.743-6.881ZM431.15 210.87c-1.634.345-3.329.26-4.921-.246a9.6695 9.6695 0 0 1-4.16-2.64c1.352.88 2.795 1.608 4.306 2.172 1.561.41 3.162.65 4.775.714ZM357.51 233.007c-.056.132-2.068-.695-4.606-1.513s-4.653-1.335-4.624-1.476c1.633.097 3.243.439 4.775 1.015 1.577.427 3.08 1.092 4.455 1.974ZM365.66 232.18c-.047.132-2.989-.771-6.636-1.786-3.647-1.015-6.627-1.767-6.58-1.88.677.006 1.35.101 2.002.282 1.222.244 2.895.639 4.7 1.147 1.805.507 3.469 1.043 4.644 1.466a7.62 7.62 0 0 1 1.87.771ZM235.94 249.495a88.3032 88.3032 0 0 1 10.105-8.366 43.5802 43.5802 0 0 1-4.897 4.371 42.6254 42.6254 0 0 1-5.208 3.995ZM233.214 261.32c.335-.933.766-1.827 1.288-2.669a53.0071 53.0071 0 0 1 3.901-5.998 54 54 0 0 1 4.7-5.423c.666-.733 1.403-1.397 2.2-1.984-.596.788-1.246 1.532-1.946 2.228-1.222 1.344-2.82 3.252-4.521 5.48-1.702 2.228-3.037 4.324-3.995 5.875-.493.862-1.036 1.693-1.627 2.491ZM252.493 307.07a17.9868 17.9868 0 0 1-3.609-9.231c.141 0 .601 2.153 1.607 4.7 1.006 2.548 2.134 4.456 2.002 4.531ZM260.982 315.84a10.2992 10.2992 0 0 1-1.72-1.88 32.8712 32.8712 0 0 1-3.318-5.302 33.3211 33.3211 0 0 1-2.266-5.828c-.28-.82-.454-1.673-.517-2.538.332.794.615 1.607.846 2.435a43.961 43.961 0 0 0 5.527 11.026c.526.665 1.009 1.362 1.448 2.087ZM194.984 318.585a8.5827 8.5827 0 0 1 2.012-1.119 35.7113 35.7113 0 0 1 10.631-3.008 8.563 8.563 0 0 1 2.294-.103c-.735.212-1.486.36-2.247.442-1.381.244-3.29.639-5.348 1.222a54.2496 54.2496 0 0 0-5.198 1.767c-.692.325-1.408.592-2.144.799ZM193.095 324.394a8.7512 8.7512 0 0 1 1.88-1.88 22.6156 22.6156 0 0 1 11.534-5.057 9.0036 9.0036 0 0 1 2.622-.085c0 .075-.996.151-2.575.433-2.056.374-4.062.983-5.979 1.814a26.822 26.822 0 0 0-5.395 3.168c-1.307.977-2.031 1.663-2.087 1.607ZM379.93 292.96a47.2969 47.2969 0 0 1-3.648-5.884 48.798 48.798 0 0 1-3.224-6.138 99.221 99.221 0 0 1 6.872 12.022ZM381.443 302.68c-.076 0-.546-1.09-1.429-2.82a53.764 53.764 0 0 0-3.929-6.58 52.9838 52.9838 0 0 0-4.888-5.922c-1.354-1.429-2.256-2.256-2.209-2.312.047-.057.272.15.705.498.432.348 1.034.883 1.748 1.57a41.1375 41.1375 0 0 1 8.883 12.605c.404.94.705 1.645.884 2.171.116.251.195.517.235.79ZM425.228 214.32a9.9633 9.9633 0 0 1-4.202-.573 9.861 9.861 0 0 1-3.826-1.88c.066-.123 1.749.723 3.967 1.381s4.08.884 4.061 1.072Z" fill="#fff"/></svg>