<svg width="311" height="198" viewBox="0 0 311 198" fill="none" xmlns="http://www.w3.org/2000/svg"><path fill-rule="evenodd" clip-rule="evenodd" d="M175.333 56.1667h15.334v6.1666H166v30.8334L178.333 105.5v83.167H163V198h148v-8.333h-9.167V127h-80.166v-21.5L234 93.1667V62.3333h-24.667v-6.1666h15.334V50h-49.334v6.1667ZM255.5 167.167h12.333v24.666H255.5v-24.666Zm-24.667 0h18.5v24.666h-18.5v-24.666Zm-18.5 0h12.334v24.666h-12.334v-24.666ZM187.667 105.5h24.666v30.833H292.5v53.334h-15.333v-31.834H203v30.834h-15.333V105.5Zm24.666-30.8333h12.334v12.1668l-6.167 6.3332h-6.167v-18.5Zm-37 0h12.334v18.5h-6.025L175.333 87V74.6667Zm18.5 0h12.334v18.5h-12.334v-18.5Z" fill="#BFFCF9"/><path stroke="#BFFCF9" stroke-width="4" d="M163 196H0"/><g clip-path="url(#a)"><path fill-rule="evenodd" clip-rule="evenodd" d="m201.432 19.854 10.806 3.322 4.894-2.49c2.65-1.19 6.842-.21 6.868 2.9.018 1.712-1.19 3.854-2.99 4.85l-4.81 2.45-3.672 10.722L207.542 44l-.526-8.438-3.414 1.738-1.348 3.618-4.38 2.044-.93-7.132-5.234-5.108 4.252-2.186 3.678 1.054 3.418-1.74-6.578-5.46 4.952-2.536Zm-7.224 21.278C184.488 44.004 176.786 34.53 176 30c2.996 3.3 8.236 5.802 14.376 4.168l2.222 2.17c-2.068.848-5.198 1.362-7.864.814 2.77 1.744 5.376 2.266 9.124 1.306l.35 2.674Zm26.354-17.33c-.28-.12-1.312-.388-1.922-.04l-6.136 3.118-10.188-3.534 6.856 5.23-8.926 4.55-3.232-1.408 2.93 2.642.17 3.678 1.132-3.334 8.578-4.248.442 7.84 3.124-9.73s5.426-2.848 6.208-3.274c.744-.408.964-1.49.964-1.49Zm-44.536 1.22L176 24c0-11.044 8.954-20 20-20 8.924 0 16.486 5.848 19.058 13.922 0 0-2.156 1.122-3.152 1.63-.11-.226-9.474-2.948-9.474-2.948-.744-.224-1.5-.274-2.744.322l-.542-.808c-.192-.126-1.688-1.176-1.28-.49l1.314 1.308c-.064.044-.344-.478-.344-.096.054-.148.052.304-.014.53l-.146.074-.016-.028c-.09-.148.148-.23.01-.446 0-.142-.376-.28-.452-.376-.21-.258-.762-.828-1.062-.966-.084-.038-1.274.146-1.374.184l-.298.518c-.248.092-.478.21-.698.358l-.262.586c-.116.102-1.276.486-1.282.5.05-.126-.812-.286-.756-.536.064-.274.356-1.132.28-1.446-.08-.33 1.79.474 1.914-.394.046-.372.074-.81-.524-.874.112.012 1.158-.41 1.33-.6.244-.28.802-.738 1.208-.738.474 0 .37-.688.588-1.026.218.088-.116.626.146.846-.018-.172.74.094.814.054.176-.092 1.142-.038.992-.494-.168-.46.084-.324.302-.42-.04.014.564-1.032.67-.688-.072-.354-.702.122-.922.106-.506-.042-.294-.868-.1-1.11.148-.192-.406-.426-.412-.06-.01.548-.52 1.044-.404 1.774.184 1.1-1.224-.264-1.346-.19-.466.282-.848-.356-.606-.742.246-.39.84-.37 1.086-.79.172-.298.374-.642.642-.868.892-.748 1.138-.148 2.024-.068.872.08.294.208.176.54-.116.318.476.43.682.166.114-.154.382-.538.496-.824.148-.37 1.502-.328.556-.894-.622-.37-3.34-1.12-5.16-1.12-.392 0-.668.438-.968.688-.594.492-2.11 1.456-2.958 1.164-.864-.3-2.716 1.098-3.014 1.11-.11.004.004-1.06.596-1.136-.258.036 2.078-1.18 2.016-1.434-.078-.3-4.666 1.37-4.462 1.708.096.15.5.15-.026.49-.3.178-.622 1.332-.904 1.332-.842.368-.894-.724-1.83.682l-1.49.602c-2.212 2.35-3.744 5.328-4.3 8.638-.022.132.558.374.632.466.186.224.186 1.188.278 1.502.232.796.798 1.24 1.234 1.964.256.432.684 1.524.548 1.978.182-.296 1.786 1.358 2.078 1.704.606.714 1.092 1.56.434 2.302-5.454-.748-8.756-6.116-8.756-6.116Zm14.53 2.468c-1.364-.904-1.75-2.92-1.264-4.46.062-.318-.19-.904-.08-1.148.262-.588.802-1.246 1.27-1.692.264-.25.602-.186.912-.38.478-.3.484-.92.954-1.3.666-.544 1.576-.532 2.446-.648.464-.062 2.226-.444 2.506-.1l.082.346-2.45 1.254c-1.816.996-2.286 3.032-1.5 4.534.336.636 1.308 1.468 1.308 1.468-.168.068-4.184 2.126-4.184 2.126Zm3.764-14.992.18-.052-.084.228c.142.258.036.414.014.554l-.25.152c-.088.112.43.128.436.142.018.056-.626.148-.506.286.158.226 1.374-.326 1.18-.294.374-.188.05-.208-.162-.318-.072-.356-.13-.91-.354-1.132l.146-.168c-.344-.5-.6.602-.6.602Zm-.858.91c-.144.058-.284-.034-.146-.174l.146-.176-.014-.08.116-.146.12-.03.248-.174c.072.016.244.158.184.246l-.132.164c-.03.278-.31.276-.518.368l-.004.002.004-.002-.004.002Z" fill="#BFFCF9"/></g><defs><clipPath id="a"><path fill="#fff" d="M176 0h48v48h-48z"/></clipPath></defs></svg>