<svg width="264" height="264" viewBox="0 0 264 264" fill="none" xmlns="http://www.w3.org/2000/svg">
<path d="M121.52 143.376L142.138 144.692L141.273 142.899L134.824 129.513L132.402 124.437L125.954 111.051L125.089 109.258L113.275 126.163C113.275 126.163 43.2899 130.252 5.29514 178.017L8.18993 184.122L10.6122 189.198L13.5335 195.25C74.6324 195.408 121.52 143.376 121.52 143.376Z" fill="#E0E0E0"/>
<path d="M121.52 143.376C121.52 143.376 121.381 143.515 121.102 143.794C120.823 144.072 120.472 144.49 119.895 145.08C118.801 146.175 117.176 147.8 115.066 149.909C108.855 155.744 102.264 161.163 95.3371 166.129C84.8165 173.754 73.4797 180.187 61.5348 185.308C47.8298 191.037 31.461 195.441 13.547 195.475L13.401 195.475L13.3344 195.342L5.04964 178.17L4.98977 178.03L5.09588 177.924C11.5452 169.926 19.0155 162.809 27.3164 156.754C34.0636 151.812 41.2434 147.488 48.7689 143.836C55.9334 140.324 63.3361 137.319 70.9227 134.843C78.053 132.495 85.3136 130.561 92.6683 129.05C99.4628 127.616 106.34 126.603 113.261 126.017L113.135 126.143C117.356 120.15 121.303 114.519 124.976 109.251L125.155 108.992L125.288 109.271L142.29 144.726L142.377 144.905L142.184 144.885L126.879 143.84L122.928 143.55C122.045 143.489 121.586 143.442 121.586 143.442C121.586 143.442 122.031 143.449 122.914 143.444C123.797 143.438 125.119 143.565 126.845 143.674L142.118 144.579L141.978 144.719L124.85 109.324L125.169 109.351C121.489 114.626 117.571 120.259 113.375 126.276L113.308 126.343L113.209 126.349C106.308 126.951 99.4509 127.97 92.6753 129.402C85.3431 130.927 78.1049 132.87 70.9962 135.221C63.4315 137.694 56.0508 140.694 48.9087 144.201C41.4097 147.841 34.2563 152.151 27.5359 157.08C19.2673 163.105 11.8259 170.188 5.40153 178.15L5.42782 177.898L13.6993 195.084L13.4867 194.951C31.3276 194.937 47.6634 190.592 61.3152 184.876C73.2547 179.802 84.5934 173.421 95.1243 165.85C102.061 160.912 108.673 155.534 114.92 149.749C117.096 147.72 118.734 146.108 119.822 145.007C120.366 144.463 120.777 144.052 121.069 143.76C121.361 143.468 121.52 143.376 121.52 143.376Z" fill="#263238"/>
<path d="M117.666 128.751C118.583 126.947 119.64 125.219 120.828 123.582C121.883 121.856 123.076 120.218 124.395 118.686C123.476 120.488 122.419 122.216 121.233 123.855C120.178 125.58 118.985 127.217 117.666 128.751Z" fill="white"/>
<path d="M14.9658 193.551C38.8742 192.375 56.7536 184.931 80.3445 172.414C82.9392 171.029 85.5608 170.016 87.996 168.538C88.2407 168.394 88.4274 168.169 88.5237 167.902C88.6201 167.634 88.6201 167.342 88.5238 167.074C88.4276 166.807 88.241 166.581 87.9964 166.436C87.7517 166.291 87.4642 166.235 87.1836 166.279C83.6451 166.72 79.9939 167.314 76.7193 166.215C72.0632 164.65 67.5786 162.062 62.6917 162.017C60.0889 161.961 57.4669 162.642 54.9829 161.936C51.5824 160.976 49.4277 157.774 47.0147 155.201C44.6018 152.629 40.7816 150.427 37.6893 152.124C37.6893 152.124 16.0262 166.808 7.82495 178.16L14.9658 193.551Z" fill="#EBEBEB"/>
<path d="M157.143 119.756C161.672 120.121 166.03 121.656 169.791 124.21C173.552 126.764 176.587 130.25 178.599 134.327C173.808 134.25 169.138 132.79 165.152 130.122C161.166 127.455 158.034 123.693 156.134 119.29" fill="#455A64"/>
<path d="M181.469 111.874C183.063 107.624 185.732 103.862 189.215 100.955C192.698 98.047 196.877 96.0928 201.344 95.2826C199.959 99.8669 197.278 103.951 193.624 107.043C189.97 110.136 185.498 112.106 180.747 112.717" fill="#455A64"/>
<path d="M175.748 100.806C175.485 96.8107 176.273 92.8181 178.034 89.2262C179.795 85.6343 182.468 82.5683 185.785 80.3335C186.341 84.5377 185.655 88.8099 183.813 92.6244C181.971 96.4388 179.052 99.6289 175.417 101.802" fill="#455A64"/>
<path d="M198.586 86.0507C200.886 84.2429 203.621 83.0716 206.519 82.6541C209.416 82.2365 212.374 82.5873 215.097 83.6713C212.797 85.7307 209.944 87.0714 206.889 87.5282C203.834 87.9851 200.71 87.5382 197.902 86.2425" fill="#455A64"/>
<path d="M134.53 127.467C137.276 126.468 140.238 126.207 143.119 126.71C146.001 127.213 148.702 128.462 150.953 130.333C148.138 131.574 145.021 131.966 141.983 131.463C138.945 130.96 136.117 129.583 133.846 127.5" fill="#455A64"/>
<path d="M219.145 70.1172C219.145 70.1172 211.835 76.3906 199.316 85.6397C197.743 86.7867 196.091 87.9867 194.386 89.2398C192.681 90.4929 190.837 91.7259 188.966 93.0385C185.23 95.6838 181.13 98.3486 176.83 101.186C168.178 106.754 158.503 112.627 148.105 118.359C137.707 124.091 127.54 129.087 118.203 133.412C113.471 135.486 109.064 137.539 104.816 139.288C102.706 140.162 100.682 141.043 98.704 141.824L93.0029 144.082C78.4811 149.697 69.2615 152.509 69.2615 152.509C69.2615 152.509 69.3943 152.443 69.673 152.337L70.9009 151.893L75.6199 150.219L79.0382 149.021C80.2815 148.566 81.6244 148.065 83.0668 147.518C85.954 146.425 89.2992 145.273 92.8697 143.763L98.5575 141.492C100.522 140.697 102.546 139.803 104.65 138.922C108.884 137.174 113.318 135.134 118.003 133.014C127.327 128.675 137.454 123.639 147.866 117.947C158.277 112.254 167.932 106.349 176.551 100.84C180.85 98.0164 184.958 95.3715 188.666 92.7129C190.544 91.4069 192.382 90.1805 194.1 88.9407L199.023 85.3472C202.201 83.0997 204.974 80.9381 207.442 79.0816C208.676 78.1534 209.824 77.2848 210.879 76.4825C211.934 75.6802 212.869 74.9177 213.718 74.2413C215.417 72.9152 216.744 71.8675 217.659 71.1514C218.106 70.811 218.451 70.5458 218.694 70.3557C219.019 70.2034 219.145 70.1172 219.145 70.1172Z" fill="#263238"/>
<path d="M212.479 107.319C212.371 107.351 212.26 107.373 212.147 107.385L211.171 107.523L207.42 108.031L204.698 108.386L201.512 108.914C199.215 109.27 196.566 109.646 193.678 110.221L189.144 111.059C187.538 111.336 185.938 111.739 184.245 112.089C180.88 112.796 177.302 113.715 173.498 114.608C165.978 116.558 157.773 118.967 149.304 121.919C140.835 124.871 132.971 128.136 125.843 131.342C122.326 132.985 118.961 134.515 115.895 136.106C114.355 136.887 112.842 137.603 111.429 138.365C110.015 139.127 108.635 139.829 107.361 140.545C104.747 141.91 102.471 143.269 100.447 144.415C99.4314 144.992 98.4891 145.535 97.6198 146.032C96.7505 146.53 95.9742 147.04 95.2775 147.458C93.8973 148.293 92.7959 148.955 92.0195 149.386C91.6611 149.598 91.3758 149.764 91.1834 149.877C91.0879 149.935 90.9881 149.986 90.8848 150.029C90.9666 149.954 91.0555 149.888 91.1501 149.83C91.3625 149.698 91.6345 149.519 91.9596 149.313C92.7161 148.836 93.7843 148.153 95.1578 147.285C95.8545 146.841 96.6308 146.357 97.4735 145.82C98.3162 145.283 99.2718 144.766 100.28 144.17C102.304 142.996 104.574 141.605 107.175 140.226C108.462 139.524 109.823 138.788 111.229 138.02C112.636 137.251 114.143 136.529 115.682 135.734C118.748 134.13 122.113 132.587 125.637 130.924C132.731 127.724 140.642 124.453 149.118 121.454C157.594 118.455 165.824 116.1 173.358 114.163C177.149 113.257 180.74 112.351 184.145 111.684C185.831 111.328 187.464 111.024 189.051 110.674L193.578 109.895C196.466 109.347 199.108 109.005 201.445 108.675L204.665 108.207C205.661 108.102 206.57 107.99 207.394 107.898C209.007 107.72 210.268 107.576 211.158 107.484L212.141 107.392C212.366 107.334 212.479 107.31 212.479 107.319Z" fill="#263238"/>
<path d="M168.124 93.1161C168.011 93.3157 167.88 93.5045 167.733 93.6801C167.428 94.0781 167.03 94.5956 166.532 95.2524C166.035 95.9092 165.372 96.7451 164.57 97.6805C163.767 98.6158 162.919 99.6906 161.884 100.818C160.849 101.946 159.742 103.213 158.488 104.506C157.235 105.8 155.835 107.159 154.422 108.572C151.484 111.364 148.141 114.322 144.472 117.193C140.803 120.064 137.121 122.63 133.717 124.824C131.992 125.898 130.366 126.925 128.767 127.833C127.168 128.741 125.728 129.543 124.381 130.265C123.034 130.988 121.76 131.624 120.698 132.14C119.636 132.657 118.654 133.121 117.871 133.465C117.088 133.81 116.517 134.061 116.039 134.287C115.832 134.387 115.617 134.469 115.395 134.532C115.583 134.397 115.786 134.284 115.999 134.194L117.771 133.313C118.541 132.942 119.483 132.491 120.525 131.888C121.567 131.285 122.841 130.715 124.175 129.953C125.509 129.191 127.008 128.449 128.521 127.481C130.034 126.513 131.693 125.546 133.431 124.432C136.815 122.231 140.458 119.679 144.133 116.801C147.808 113.923 151.125 110.979 154.083 108.18C155.509 106.754 156.929 105.454 158.136 104.127C159.343 102.801 160.537 101.62 161.571 100.493C162.606 99.3649 163.508 98.3168 164.31 97.408C165.113 96.4992 165.783 95.6965 166.326 95.0331C166.87 94.3697 167.275 93.8987 167.593 93.5272C167.755 93.3721 167.933 93.2343 168.124 93.1161Z" fill="#263238"/>
<path d="M215.283 109.314C212.936 110.155 210.865 111.62 209.291 113.552C207.717 115.485 206.701 117.811 206.351 120.28C206.22 121.262 206.314 122.458 207.177 122.937C208.041 123.416 209.216 122.786 209.985 122.07C211.602 120.565 212.891 118.744 213.773 116.718C214.654 114.693 215.11 112.507 215.112 110.296C214.694 113.932 215.368 117.613 217.049 120.869C217.681 122.098 218.771 123.414 220.145 123.223C221.519 123.032 222.162 121.552 222.373 120.237C222.688 117.937 222.258 115.595 221.148 113.554C220.037 111.512 218.303 109.878 216.199 108.89C217.953 110.02 220.01 110.587 222.093 110.515C224.176 110.442 226.186 109.734 227.852 108.484C229.112 107.503 230.172 105.711 229.281 104.396C228.971 104.024 228.584 103.724 228.147 103.517C227.71 103.309 227.234 103.198 226.75 103.191C224.876 103.021 222.988 103.256 221.215 103.882C219.442 104.508 217.825 105.51 216.476 106.819C218.238 105.461 219.563 103.616 220.287 101.512C221.012 99.4079 221.104 97.1365 220.553 94.9778C220.187 93.6029 219.375 92.1679 217.98 91.8477C216.247 91.4408 214.682 93.0858 213.84 94.6585C212.842 96.6622 212.304 98.8648 212.268 101.105C212.231 103.345 212.696 105.566 213.628 107.606C212.965 106.393 212.017 105.359 210.867 104.592C209.716 103.825 208.397 103.349 207.024 103.203C205.224 103.035 202.987 103.889 202.863 105.675C202.739 107.461 204.579 108.572 206.227 109.118C209.219 110.097 212.389 110.4 215.51 110.005" fill="white"/>
<path d="M209.841 117.482C211.036 116.127 212.15 114.703 213.176 113.216C214.062 111.639 214.852 110.011 215.541 108.338C215.307 110.179 214.635 111.936 213.581 113.462C212.669 115.079 211.388 116.456 209.841 117.482Z" fill="#263238"/>
<path d="M217.762 117.417C217.681 115.948 217.45 114.49 217.073 113.067C216.314 110.756 215.157 109.095 215.296 109.009C216.348 110.115 217.115 111.46 217.531 112.928C218.084 114.363 218.165 115.936 217.762 117.417Z" fill="#263238"/>
<path d="M223.268 106.647C222.259 107.711 220.979 108.48 219.566 108.874C218.194 109.416 216.68 109.484 215.263 109.068C216.669 109 218.062 108.779 219.419 108.409C220.732 107.888 222.017 107.3 223.268 106.647Z" fill="#263238"/>
<path d="M216.336 107.25C216.634 107.39 216.885 107.614 217.057 107.894C217.229 108.175 217.316 108.499 217.305 108.828C217.295 109.156 217.189 109.475 216.999 109.743C216.81 110.011 216.546 110.218 216.24 110.338C216.03 109.862 215.748 109.423 215.402 109.035C215.782 108.496 216.086 107.907 216.303 107.283" fill="white"/>
<path d="M216.736 96.3083C216.997 96.9039 217.153 97.5398 217.196 98.1879C217.638 101.328 217.2 104.527 215.931 107.429C215.706 108.041 215.379 108.611 214.964 109.114C215.755 107.088 216.348 104.99 216.737 102.848C216.947 100.674 216.947 98.4838 216.736 96.3083Z" fill="#263238"/>
<path d="M164.847 90.1579C162.724 91.4594 160.286 92.1585 157.794 92.1804C155.302 92.2023 152.849 91.5462 150.698 90.2822C149.868 89.7834 148.977 88.9458 149.135 87.9766C149.294 87.0074 150.528 86.4775 151.564 86.3193C153.75 86.0005 155.98 86.1336 158.115 86.7103C160.25 87.287 162.245 88.2951 163.977 89.6723C160.872 87.7296 158.413 84.9099 156.91 81.5709C156.345 80.3021 155.998 78.6285 157.006 77.6868C158.014 76.745 159.568 77.1451 160.731 77.8036C162.728 78.9928 164.293 80.7893 165.198 82.9302C166.102 85.071 166.298 87.4436 165.756 89.7007C165.971 87.6272 166.813 85.67 168.171 84.0909C169.53 82.5118 171.339 81.3862 173.356 80.8647C174.909 80.4945 176.968 80.7889 177.454 82.3099C177.542 82.7873 177.527 83.2778 177.41 83.7483C177.292 84.2189 177.075 84.6587 176.773 85.0381C175.736 86.606 174.372 87.9309 172.774 88.9227C171.177 89.9144 169.384 90.5496 167.517 90.7849C169.683 90.2542 171.958 90.37 174.062 91.118C176.165 91.866 178.005 93.2134 179.354 94.9938C180.198 96.1434 180.824 97.6844 180.201 98.9586C179.413 100.571 177.175 100.761 175.415 100.394C173.221 99.9282 171.159 98.9743 169.382 97.6035C167.604 96.2327 166.158 94.48 165.149 92.4755C165.683 93.7506 165.9 95.1357 165.781 96.5119C165.662 97.888 165.211 99.214 164.466 100.376C163.479 101.882 161.422 103.102 159.913 102.084C158.405 101.067 158.721 98.9291 159.351 97.3296C160.454 94.3868 162.202 91.7297 164.468 89.5533" fill="white"/>
<path d="M155.066 89.3042C156.863 89.2254 158.664 89.254 160.458 89.3896C162.246 89.6784 164.016 90.0749 165.758 90.5771C164.163 89.6207 162.369 89.0483 160.517 88.905C158.693 88.6103 156.826 88.747 155.066 89.3042Z" fill="#263238"/>
<path d="M160.052 83.161C161.151 84.1406 162.146 85.2296 163.024 86.411C164.361 88.4508 164.94 90.3969 165.1 90.344C164.888 88.8332 164.315 87.3952 163.429 86.1525C162.645 84.8256 161.464 83.7788 160.052 83.161Z" fill="#263238"/>
<path d="M171.92 85.5973C170.457 85.7098 169.055 86.2279 167.872 87.0935C166.592 87.8261 165.592 88.962 165.027 90.324C165.96 89.2719 167.003 88.3226 168.138 87.4922C169.362 86.7899 170.625 86.1572 171.92 85.5973Z" fill="#263238"/>
<path d="M167.118 90.6251C167.193 90.3059 167.174 89.9718 167.063 89.663C166.951 89.3542 166.753 89.084 166.492 88.8848C166.226 88.6925 165.91 88.5796 165.582 88.5593C165.254 88.539 164.928 88.6121 164.64 88.77C164.885 89.2292 165.053 89.7249 165.139 90.2379C165.815 90.2654 166.482 90.3959 167.118 90.6251Z" fill="white"/>
<path d="M175.936 97.148C175.631 96.5678 175.228 96.0441 174.746 95.5997C173.652 94.4533 172.404 93.4643 171.038 92.661C169.684 91.8548 168.224 91.2431 166.701 90.8437C166.084 90.6297 165.434 90.5278 164.781 90.5429C169.017 91.6865 172.864 93.9606 175.91 97.1214L175.936 97.148Z" fill="#263238"/>
<path d="M224.626 66.6705C221.181 66.9781 217.716 66.343 214.601 64.8333C211.486 63.3235 208.838 60.996 206.942 58.0997C206.203 56.9369 205.578 55.4091 206.413 54.268C207.248 53.1268 209.075 53.2682 210.463 53.7146C213.389 54.6657 216.09 56.209 218.396 58.2483C220.702 60.2875 222.565 62.779 223.868 65.5675C221.202 61.2401 219.877 56.2224 220.061 51.1485C220.145 49.2298 220.734 46.9397 222.579 46.3839C224.424 45.8281 226.126 47.2774 227.136 48.8322C228.89 51.5425 229.731 54.7411 229.536 57.9597C229.341 61.1783 228.121 64.2477 226.053 66.7185C227.596 64.2693 229.853 62.3525 232.52 61.2254C235.187 60.0983 238.136 59.8149 240.973 60.4133C243.131 60.9136 245.497 62.5362 245.167 64.7403C244.963 66.0746 243.788 67.0228 242.634 67.7121C240.376 69.0203 237.861 69.8248 235.261 70.0707C232.661 70.3166 230.038 69.9981 227.57 69.137C230.593 69.8161 233.353 71.364 235.511 73.5901C237.668 75.8161 239.13 78.6233 239.714 81.6658C240.048 83.6182 239.878 85.9154 238.319 87.1155C236.335 88.6339 233.412 87.5153 231.492 85.9662C229.045 84.0256 227.065 81.5607 225.698 78.7537C224.331 75.9468 223.611 72.8698 223.593 69.7502C223.475 71.662 222.893 73.5152 221.897 75.1498C220.902 76.7845 219.523 78.1515 217.88 79.1327C215.71 80.3986 212.39 80.6341 211.16 78.4483C209.929 76.2625 211.619 73.801 213.371 72.1562C216.558 69.1752 220.37 66.9428 224.532 65.6213" fill="white"/>
<path d="M212.993 59.5601C212.926 59.7593 216.227 60.699 219.702 62.9801C223.177 65.2612 225.424 67.8929 225.57 67.747C225.716 67.6011 223.695 64.7704 220.08 62.4427C216.466 60.1149 213.012 59.3942 212.993 59.5601Z" fill="#263238"/>
<path d="M223 55.0026C222.814 55.1086 224.291 57.5138 224.686 60.8805C225.081 64.2473 224.619 67.0089 224.845 67.0357C225.526 65.0257 225.706 62.8791 225.37 60.7817C224.928 57.2621 223.106 54.8832 223 55.0026Z" fill="#263238"/>
<path d="M236.271 65.355C236.324 65.209 233.674 64.2965 230.295 64.6846C226.915 65.0728 224.627 66.8432 224.76 66.9628C224.892 67.0825 227.148 65.7038 230.368 65.3421C233.588 64.9803 236.231 65.5674 236.271 65.355Z" fill="#263238"/>
<path d="M227.192 68.6385C227.486 68.2892 227.671 67.8608 227.723 67.4066C227.776 66.9525 227.693 66.4927 227.486 66.0847C227.279 65.6766 226.956 65.3383 226.558 65.112C226.16 64.8856 225.705 64.7813 225.249 64.8119C225.271 65.5332 225.175 66.2529 224.966 66.943C225.801 67.4024 226.563 67.9852 227.225 68.6717" fill="white"/>
<path d="M234.137 82.1776C234.12 81.2703 233.942 80.373 233.61 79.5278C232.295 75.3389 229.854 71.5899 226.554 68.6909C225.911 68.0522 225.165 67.5262 224.348 67.1348C224.188 67.294 227.551 69.7676 230.264 73.9933C232.978 78.2191 233.932 82.2371 234.137 82.1776Z" fill="#263238"/>
<path d="M70.943 197.502C71.4025 197.213 71.8815 196.956 72.3764 196.733C72.8475 196.501 73.4182 196.21 74.0619 195.845C74.7056 195.481 75.4688 195.103 76.265 194.599C78.1474 193.488 79.9681 192.275 81.719 190.967C83.8526 189.345 85.8841 187.593 87.802 185.721C89.6931 183.825 91.467 181.816 93.114 179.704C94.4429 177.968 95.6799 176.163 96.8199 174.297C97.3436 173.494 97.7212 172.758 98.0857 172.114C98.4502 171.47 98.7617 170.906 98.9936 170.435C99.2148 169.938 99.4809 169.463 99.7888 169.015C99.6168 169.529 99.4088 170.03 99.1663 170.515C98.9544 171.006 98.6827 171.583 98.3315 172.24C97.9803 172.897 97.6093 173.667 97.1122 174.47C96.0133 176.381 94.7979 178.222 93.4728 179.984C91.8314 182.129 90.0503 184.163 88.141 186.073C86.2082 187.959 84.1516 189.714 81.9849 191.325C80.2099 192.629 78.3575 193.825 76.4379 194.905C75.6085 195.402 74.852 195.746 74.195 196.084C73.538 196.422 72.9474 196.694 72.4629 196.899C71.9765 197.148 71.4676 197.349 70.943 197.502Z" fill="#263238"/>
<path d="M73.6962 201.343C74.1565 201.049 74.6378 200.79 75.1361 200.567C75.6073 200.335 76.1714 200.051 76.8217 199.679C77.472 199.308 78.2285 198.937 79.0181 198.44C80.9024 197.327 82.7232 196.11 84.4721 194.794C86.6086 193.181 88.6404 191.433 90.5552 189.562C92.4462 187.666 94.2202 185.657 95.8672 183.545C97.1982 181.807 98.4373 179.999 99.5796 178.131C100.103 177.328 100.474 176.598 100.846 175.948C101.217 175.298 101.515 174.734 101.753 174.269C101.981 173.775 102.244 173.298 102.542 172.843C102.377 173.363 102.169 173.87 101.919 174.356C101.714 174.84 101.443 175.418 101.085 176.081C100.727 176.745 100.362 177.508 99.872 178.304C98.7735 180.215 97.5558 182.054 96.226 183.811C94.5868 185.958 92.8079 187.995 90.9008 189.907C88.9683 191.794 86.9117 193.548 84.7447 195.16C82.9677 196.461 81.1154 197.656 79.1977 198.739C78.3683 199.236 77.6117 199.581 76.9481 199.925C76.2845 200.27 75.7005 200.535 75.216 200.74C74.7252 200.979 74.2172 201.18 73.6962 201.343Z" fill="#263238"/>
<path d="M32.7917 160.597C32.7917 160.597 32.9908 160.398 33.4685 160.12C33.9463 159.842 34.6296 159.358 35.4656 158.801C36.3016 158.244 37.4097 157.548 38.6705 156.792C39.9312 156.037 41.3578 155.142 42.9836 154.247C44.6094 153.353 46.3678 152.326 48.3122 151.325C50.2566 150.324 52.3337 149.258 54.5369 148.171C58.9633 146.058 63.9142 143.885 69.2039 141.852C74.4936 139.82 79.6576 138.179 84.3704 136.802C86.74 136.148 88.9836 135.513 91.1144 135.017C93.2452 134.521 95.2167 134.039 97.0356 133.655C98.8545 133.272 100.507 132.962 101.975 132.705C103.442 132.447 104.676 132.223 105.705 132.071C106.734 131.92 107.491 131.814 108.042 131.755C108.316 131.702 108.593 131.674 108.872 131.669C108.605 131.749 108.332 131.808 108.056 131.848L105.706 132.297C104.683 132.468 103.449 132.693 101.995 133.003C100.541 133.314 98.9013 133.611 97.0958 134.047C95.2902 134.484 93.3054 134.9 91.2012 135.462C89.097 136.024 86.8468 136.626 84.4837 137.287C79.7843 138.69 74.6669 140.364 69.3705 142.364C64.0741 144.363 59.1498 146.549 54.7166 148.629C52.5134 149.703 50.4097 150.703 48.5118 151.71C46.6139 152.718 44.7957 153.672 43.1765 154.573C41.5574 155.474 40.1042 156.316 38.8301 157.058C37.5561 157.801 36.4612 158.443 35.5721 158.987C34.6829 159.53 34.0327 159.915 33.5284 160.22C33.2963 160.37 33.0495 160.497 32.7917 160.597Z" fill="white"/>
<path d="M14.5765 176.859C17.0501 173.547 20.0476 170.662 23.4513 168.316C23.551 168.416 21.4084 170.253 19.0006 172.581C16.5929 174.909 14.6828 176.952 14.5765 176.859Z" fill="white"/>
</svg>
