<svg width="46" height="24" viewBox="0 0 46 24" fill="none" xmlns="http://www.w3.org/2000/svg"><path d="M16.792 19.352v-3.968c0-.2987-.0213-.5333-.064-.704-.0427-.1707-.1813-.3307-.416-.48s-.5867-.224-1.056-.224h-1.152v-.896h7.488v.896h-.512c-.64 0-1.056.128-1.248.384-.192.2347-.288.576-.288 1.024v3.264c-3.072 3.328-6.4213 4.992-10.048 4.992-2.432 0-4.5973-1.0773-6.496-3.232C1.1013 18.2533.152 15.832.152 13.144c0-3.4773 1.28-6.528 3.84-9.152C6.5733 1.3467 9.5813.024 13.016.024c1.28 0 3.008.3627 5.184 1.088l.192 4.416H17.24c0-1.92-1.8773-2.88-5.632-2.88-2.5813 0-4.7787.7147-6.592 2.144C3.224 6.2 2.328 8.216 2.328 10.84c0 1.472.224 2.816.672 4.032.4693 1.216 1.056 2.208 1.76 2.976.704.768 1.4933 1.4187 2.368 1.952 1.6213.9387 3.1893 1.408 4.704 1.408s3.168-.6187 4.96-1.856ZM30.113.6l6.08-.32c1.8773 0 3.4133.3947 4.608 1.184 1.1947.7893 1.792 1.8667 1.792 3.232 0 1.8987-.512 3.4453-1.536 4.64-1.024 1.1947-2.2827 2.1013-3.776 2.72l5.184 7.808c.2133.3413.6187.8 1.216 1.376.6187.576 1.1733.864 1.664.864h.576V23h-4.736c.064 0-.1387-.32-.608-.96-.4693-.64-.736-1.024-.8-1.152l-5.312-8.192c-.2133.0427-.64.064-1.28.064s-1.152-.0213-1.536-.064l-.256-1.28c.2987.0427.9387.064 1.92.064s1.9627-.128 2.944-.384c.9813-.256 1.8453-.736 2.592-1.44.7467-.7253 1.12-1.6533 1.12-2.784 0-3.1573-2.0267-4.736-6.08-4.736l-3.328.128v18.368c0 .32.0213.5653.064.736.0427.1707.1813.3413.416.512.2347.1493.5867.224 1.056.224h1.216V23h-8.128v-.896h1.024c.4693 0 .8213-.0747 1.056-.224.2347-.1707.3733-.3413.416-.512.0427-.1707.064-.416.064-.736V2.968c0-.4907-.1067-.8427-.32-1.056-.192-.2347-.5973-.352-1.216-.352h-1.024V.6h4.928Z" fill="#fff"/></svg>