<svg width="50" height="88" viewBox="0 0 50 88" fill="none" xmlns="http://www.w3.org/2000/svg"><path d="M25.0002 4.1667c6.8937 0 12.5 5.6062 12.5 12.5v16.6666c0 6.8938-5.6063 12.5-12.5 12.5-6.8938 0-12.5-5.6062-12.5-12.5V16.6667c0-6.8938 5.6062-12.5 12.5-12.5Zm0-4.1667C15.796 0 8.3335 7.4625 8.3335 16.6667v16.6666C8.3335 42.5375 15.796 50 25.0002 50c9.2041 0 16.6666-7.4625 16.6666-16.6667V16.6667C41.6668 7.4625 34.2043 0 25.0002 0Z" fill="#000"/><path d="M27.0835 13.0833c0-1.15-.9313-2.0833-2.0833-2.0833-1.1521 0-2.0834.9333-2.0834 2.0833v8.3334c0 1.15.9313 2.0833 2.0834 2.0833 1.152 0 2.0833-.9333 2.0833-2.0833v-8.3334ZM12.5268 66.4365c0-.2051-.0319-.3873-.0957-.5469-.0593-.1595-.1664-.3053-.3213-.4375-.155-.1321-.3737-.2597-.6563-.3828-.278-.1276-.6334-.2575-1.0664-.3896-.474-.1458-.9115-.3076-1.3125-.4854-.3965-.1823-.7428-.3919-1.039-.6289-.2963-.2415-.5264-.5172-.6905-.8271-.164-.3145-.246-.6768-.246-1.0869 0-.4056.0842-.7748.2529-1.1075.1731-.3326.417-.6197.7314-.8613.319-.2461.695-.4352 1.128-.5674.4329-.1367.9114-.205 1.4355-.205.7383 0 1.374.1367 1.9072.4101.5378.2735.9502.6403 1.2373 1.1006.2917.4603.4375.9684.4375 1.5244h-1.7021c0-.3281-.0707-.6175-.212-.8682-.1367-.2552-.3463-.4557-.6289-.6015-.278-.1458-.6311-.2188-1.0595-.2188-.4056 0-.7429.0616-1.0118.1846-.2688.1231-.4693.2894-.6015.499-.1322.2097-.1983.4466-.1983.711 0 .1868.0433.3577.13.5127.0865.1504.2187.2916.3964.4238.1777.1276.401.2484.6699.3623.2689.1139.5856.2233.9502.3281.5515.1641 1.0323.3464 1.4424.5469.4102.196.752.4193 1.0254.6699.2734.2507.4785.5355.6152.8545.1368.3145.2051.6722.2051 1.0733 0 .4192-.0843.7975-.2529 1.1347-.1686.3327-.4102.6175-.7246.8545-.3099.2324-.6836.4124-1.1211.54-.433.1231-.916.1846-1.4492.1846a5.322 5.322 0 0 1-1.415-.1914c-.4604-.1276-.8796-.3213-1.2579-.581-.3782-.2644-.679-.5925-.9023-.9844-.2233-.3965-.335-.8591-.335-1.3877h1.7158c0 .3236.0547.5993.164.8271.114.2279.2712.4147.4718.5606.2005.1413.433.2461.6972.3144.2689.0684.556.1026.8614.1026.401 0 .736-.057 1.0048-.1709.2735-.114.4786-.2735.6153-.4785.1367-.2051.2051-.4421.2051-.711Zm6.6576 1.3877c.2689 0 .5104-.0524.7246-.1572.2188-.1094.3942-.2598.5264-.4512.1367-.1914.2119-.4124.2256-.6631h1.5517c-.0091.4785-.1504.9138-.4238 1.3057-.2734.3919-.6357.7041-1.0869.9365-.4512.2279-.9502.3418-1.4971.3418-.5651 0-1.0573-.0957-1.4765-.2871-.4193-.196-.7679-.4648-1.0459-.8066s-.4877-.736-.6289-1.1826c-.1368-.4467-.2051-.9252-.2051-1.4356v-.2393c0-.5104.0683-.9889.2051-1.4355.1412-.4512.3509-.8477.6289-1.1895.278-.3417.6266-.6084 1.0459-.7998.4192-.1959.9091-.2939 1.4697-.2939.5924 0 1.112.1185 1.5586.3555.4466.2324.7975.5582 1.0527.9775.2598.4147.3942.8978.4033 1.4492H20.661c-.0137-.2734-.0821-.5195-.2051-.7383-.1185-.2233-.2871-.401-.5059-.5332-.2142-.1321-.4716-.1982-.7724-.1982-.3327 0-.6084.0684-.8272.2051-.2187.1321-.3896.3144-.5127.5468-.123.2279-.2119.4854-.2666.7725a5.044 5.044 0 0 0-.0752.8818v.2393c0 .3053.0251.6016.0752.8887.0502.2871.1368.5446.2598.7724.1276.2233.3008.4034.5195.5401.2188.1321.4968.1982.834.1982Zm6.5073-4.8125V69h-1.6475v-7.3965h1.5723l.0752 1.4082Zm2.2627-1.456-.0137 1.5312a3.2263 3.2263 0 0 0-.3281-.041 4.2933 4.2933 0 0 0-.3418-.0137c-.2826 0-.5309.041-.7451.1231-.2142.0774-.3942.1914-.5401.3418-.1412.1458-.2506.3235-.3281.5332-.0775.2096-.123.4443-.1367.7041l-.376.0273c0-.4648.0456-.8955.1367-1.292.0912-.3965.2279-.7451.4102-1.0459.1868-.3008.4193-.5355.6972-.7041.2826-.1686.6084-.2529.9776-.2529.1002 0 .2073.0091.3213.0273.1185.0183.2073.0388.2666.0616Zm1.1 3.8281v-.1572c0-.5332.0775-1.0277.2324-1.4834.155-.4603.3783-.8591.67-1.1963.2962-.3418.6562-.6061 1.08-.793.4284-.1914.9115-.2871 1.4493-.2871.5423 0 1.0253.0957 1.4492.2871.4284.1869.7907.4512 1.0869.793.2962.3372.5218.736.6767 1.1963.155.4557.2325.9502.2325 1.4834v.1572c0 .5332-.0775 1.0277-.2325 1.4834-.1549.4557-.3805.8545-.6767 1.1963-.2962.3372-.6563.6015-1.0801.7929-.4238.1869-.9046.2803-1.4424.2803-.5423 0-1.0276-.0934-1.456-.2803-.4239-.1914-.7839-.4557-1.0801-.7929-.2962-.3418-.5218-.7406-.6768-1.1963-.1549-.4557-.2324-.9502-.2324-1.4834Zm1.6475-.1572v.1572c0 .3327.0342.6471.1025.9433.0684.2963.1755.556.3213.7793.1458.2234.3327.3988.5606.5264.2278.1276.499.1914.8134.1914.3054 0 .5697-.0638.793-.1914.2279-.1276.4147-.303.5605-.5264.1459-.2233.253-.483.3213-.7793.0729-.2962.1094-.6106.1094-.9433v-.1572c0-.3282-.0365-.6381-.1094-.9297-.0683-.2962-.1777-.5583-.3281-.7862-.1458-.2278-.3327-.4056-.5605-.5332-.2233-.1321-.4899-.1982-.7998-.1982-.3099 0-.5788.0661-.8067.1982-.2233.1276-.4079.3054-.5537.5332-.1458.2279-.2529.49-.3213.7862-.0683.2916-.1025.6015-.1025.9297Zm8.934-6.7266V69h-1.6543V58.5h1.6543Zm4.1284 0V69H42.11V58.5h1.6543ZM10.9266 85h-2.126l.0137-1.3604h2.1123c.6152 0 1.1302-.1344 1.5449-.4033.4193-.2689.7337-.6539.9434-1.1552.2142-.5013.3213-1.0984.3213-1.7911v-.54c0-.5378-.0616-1.014-.1846-1.4287-.1185-.4147-.2962-.7634-.5332-1.0459-.2324-.2826-.5195-.4968-.8613-.6426-.3373-.1458-.7269-.2187-1.169-.2187H8.7596v-1.3672h2.2285c.6608 0 1.2647.1116 1.8115.3349.5469.2188 1.0186.5355 1.4151.9502.401.4147.7086.9115.9228 1.4903.2142.5787.3213 1.2259.3213 1.9414v.5263c0 .7155-.1071 1.3627-.3213 1.9414-.2142.5788-.5218 1.0756-.9228 1.4903-.4011.4101-.8796.7269-1.4356.9502-.5514.2187-1.1689.3281-1.8525.3281Zm-1.1758-9.9531V85H8.035v-9.9531h1.7158Zm7.5122 6.3369v-.1572c0-.5332.0774-1.0277.2324-1.4834.1549-.4603.3782-.8591.6699-1.1963.2962-.3418.6563-.6061 1.0801-.793.4284-.1914.9114-.2871 1.4492-.2871.5423 0 1.0254.0957 1.4492.2871.4284.1869.7907.4512 1.0869.793.2963.3372.5219.736.6768 1.1963.1549.4557.2324.9502.2324 1.4834v.1572c0 .5332-.0775 1.0277-.2324 1.4834-.1549.4557-.3805.8545-.6768 1.1963-.2962.3372-.6562.6015-1.08.7929-.4239.1869-.9047.2803-1.4424.2803-.5423 0-1.0277-.0934-1.4561-.2803-.4238-.1914-.7838-.4557-1.0801-.7929-.2962-.3418-.5218-.7406-.6767-1.1963-.155-.4557-.2324-.9502-.2324-1.4834Zm1.6474-.1572v.1572c0 .3327.0342.6471.1026.9433.0683.2963.1754.556.3213.7793.1458.2234.3326.3988.5605.5264s.499.1914.8135.1914c.3053 0 .5696-.0638.793-.1914.2278-.1276.4147-.303.5605-.5264.1458-.2233.2529-.483.3213-.7793.0729-.2962.1094-.6106.1094-.9433v-.1572c0-.3282-.0365-.6381-.1094-.9297-.0684-.2962-.1777-.5583-.3281-.7862-.1459-.2278-.3327-.4056-.5606-.5332-.2233-.1321-.4899-.1982-.7998-.1982-.3099 0-.5788.0661-.8066.1982-.2233.1276-.4079.3054-.5537.5332-.1459.2279-.253.49-.3213.7862-.0684.2916-.1026.6015-.1026.9297Zm9.1801 2.1328 1.709-5.7559h1.0528l-.2871 1.7227L28.8425 85h-.9434l.1914-1.6406Zm-1.0048-5.7559 1.333 5.7832L28.528 85h-1.0527l-2.0029-7.3965h1.6133Zm5.3662 5.7149 1.292-5.7149h1.6064L33.3542 85h-1.0527l.1504-1.6816ZM31.03 77.6035l1.6885 5.6875.2119 1.709h-.9434l-1.7431-5.6807-.2871-1.7158H31.03Zm7.6352 1.5791V85h-1.6475v-7.3965h1.5518l.0957 1.5791Zm-.2939 1.8457-.5333-.0068c.0046-.5241.0775-1.0049.2188-1.4424.1458-.4375.3464-.8135.6016-1.1279.2597-.3145.5696-.556.9296-.7246.3601-.1732.7611-.2598 1.2032-.2598.3554 0 .6767.0501.9638.1504.2917.0957.5401.2529.7452.4717.2096.2187.3691.5035.4785.8545.1093.3463.164.7724.164 1.2783V85h-1.6543v-4.7852c0-.3554-.0524-.6357-.1572-.8408-.1002-.2096-.2484-.3577-.4443-.4443-.1914-.0912-.4307-.1367-.7178-.1367-.2826 0-.5355.0592-.7588.1777a1.707 1.707 0 0 0-.5674.4854c-.1504.205-.2666.442-.3486.7109-.082.2689-.123.556-.123.8613Z" fill="#000"/></svg>