<svg width="264" height="264" viewBox="0 0 264 264" fill="none" xmlns="http://www.w3.org/2000/svg">
<path d="M121.845 144.046L142.462 145.363L141.597 143.569L135.149 130.183L132.727 125.108L126.279 111.722L125.414 109.928L113.6 126.834C113.6 126.834 43.6146 130.922 5.61984 178.688L8.51463 184.793L10.9369 189.868L13.8582 195.92C74.9571 196.078 121.845 144.046 121.845 144.046Z" fill="#E0E0E0"/>
<path d="M121.845 144.046C121.845 144.046 121.705 144.185 121.427 144.464C121.148 144.742 120.797 145.16 120.22 145.751C119.125 146.845 117.5 148.47 115.391 150.579C109.18 156.415 102.589 161.833 95.6618 166.799C85.1412 174.424 73.8044 180.857 61.8595 185.978C48.1545 191.707 31.7857 196.112 13.8717 196.146L13.7257 196.146L13.6591 196.013L5.37435 178.84L5.31448 178.701L5.4206 178.595C11.87 170.597 19.3402 163.479 27.6411 157.424C34.3883 152.482 41.5681 148.159 49.0936 144.506C56.2581 140.995 63.6608 137.99 71.2474 135.513C78.3778 133.166 85.6383 131.232 92.993 129.72C99.7875 128.286 106.665 127.273 113.586 126.688L113.46 126.814C117.681 120.82 121.628 115.19 125.301 109.922L125.48 109.663L125.613 109.942L142.615 145.396L142.702 145.576L142.509 145.555L127.203 144.51L123.252 144.22C122.369 144.159 121.911 144.113 121.911 144.113C121.911 144.113 122.356 144.12 123.239 144.114C124.122 144.108 125.444 144.236 127.17 144.344L142.442 145.25L142.303 145.389L125.175 109.994L125.493 110.021C121.814 115.296 117.896 120.929 113.699 126.947L113.633 127.013L113.533 127.02C106.633 127.621 99.7756 128.64 93 130.072C85.6678 131.597 78.4296 133.54 71.3209 135.892C63.7562 138.364 56.3755 141.365 49.2334 144.872C41.7344 148.511 34.581 152.821 27.8606 157.75C19.592 163.775 12.1506 170.859 5.72624 178.821L5.75253 178.569L14.024 195.754L13.8114 195.621C31.6523 195.607 47.9881 191.262 61.6399 185.547C73.5794 180.472 84.9181 174.091 95.449 166.52C102.385 161.582 108.998 156.204 115.245 150.42C117.42 148.39 119.059 146.779 120.147 145.678C120.69 145.134 121.102 144.723 121.393 144.431C121.685 144.139 121.845 144.046 121.845 144.046Z" fill="#263238"/>
<path d="M117.991 129.421C118.908 127.618 119.965 125.889 121.153 124.252C122.207 122.526 123.4 120.889 124.72 119.356C123.801 121.158 122.744 122.886 121.558 124.525C120.502 126.25 119.31 127.888 117.991 129.421Z" fill="white"/>
<path d="M15.2905 194.222C39.1989 193.046 57.0784 185.602 80.6692 173.084C83.2639 171.699 85.8855 170.686 88.3207 169.208C88.5654 169.064 88.7521 168.839 88.8484 168.572C88.9448 168.305 88.9448 168.012 88.8485 167.745C88.7523 167.477 88.5658 167.251 88.3211 167.106C88.0764 166.961 87.789 166.906 87.5083 166.95C83.9698 167.391 80.3186 167.985 77.044 166.886C72.3879 165.32 67.9033 162.733 63.0164 162.688C60.4136 162.632 57.7917 163.313 55.3076 162.606C51.9071 161.647 49.7524 158.444 47.3394 155.872C44.9265 153.3 41.1063 151.098 38.014 152.794C38.014 152.794 16.3509 167.478 8.14965 178.83L15.2905 194.222Z" fill="#EBEBEB"/>
<path d="M157.468 120.427C161.996 120.791 166.354 122.326 170.115 124.88C173.877 127.435 176.912 130.921 178.923 134.997C174.132 134.921 169.463 133.461 165.477 130.793C161.491 128.125 158.359 124.363 156.458 119.961" fill="#455A64"/>
<path d="M181.795 112.545C183.389 108.295 186.057 104.533 189.54 101.625C193.023 98.7176 197.202 96.7634 201.67 95.9533C200.284 100.538 197.603 104.621 193.949 107.714C190.295 110.807 185.824 112.777 181.072 113.387" fill="#455A64"/>
<path d="M176.072 101.477C175.81 97.4811 176.598 93.4885 178.359 89.8966C180.12 86.3047 182.792 83.2387 186.11 81.0039C186.665 85.2081 185.98 89.4803 184.138 93.2948C182.296 97.1092 179.377 100.299 175.741 102.472" fill="#455A64"/>
<path d="M198.911 86.7211C201.211 84.9133 203.946 83.742 206.843 83.3245C209.741 82.9069 212.699 83.2577 215.421 84.3418C213.122 86.4011 210.269 87.7418 207.214 88.1986C204.159 88.6555 201.035 88.2086 198.227 86.9129" fill="#455A64"/>
<path d="M134.855 128.138C137.601 127.138 140.562 126.877 143.444 127.38C146.326 127.883 149.027 129.132 151.278 131.004C148.463 132.244 145.346 132.637 142.308 132.134C139.27 131.63 136.442 130.253 134.171 128.17" fill="#455A64"/>
<path d="M219.47 70.7876C219.47 70.7876 212.16 77.061 199.64 86.3101C198.068 87.4571 196.416 88.6571 194.711 89.9102C193.006 91.1633 191.161 92.3963 189.29 93.709C185.555 96.3542 181.454 99.019 177.155 101.856C168.503 107.424 158.828 113.297 148.43 119.029C138.031 124.762 127.865 129.757 118.527 134.083C113.795 136.156 109.389 138.21 105.141 139.958C103.031 140.832 101.006 141.713 99.0287 142.495L93.3276 144.753C78.8058 150.368 69.5862 153.18 69.5862 153.18C69.5862 153.18 69.719 153.113 69.9977 153.008L71.2256 152.564L75.9446 150.889L79.3628 149.691C80.6062 149.236 81.9491 148.735 83.3915 148.188C86.2786 147.096 89.6239 145.944 93.1944 144.434L98.8822 142.162C100.847 141.368 102.871 140.473 104.975 139.593C109.209 137.844 113.642 135.804 118.328 133.684C127.652 129.345 137.779 124.31 148.19 118.617C158.602 112.925 168.257 107.019 176.876 101.511C181.175 98.6868 185.282 96.0419 188.991 93.3833C190.869 92.0773 192.707 90.8509 194.425 89.6111L199.348 86.0176C202.526 83.7701 205.299 81.6085 207.767 79.752C209.001 78.8238 210.149 77.9552 211.204 77.1529C212.259 76.3506 213.194 75.5881 214.043 74.9117C215.741 73.5856 217.068 72.5379 217.984 71.8218C218.431 71.4815 218.775 71.2162 219.019 71.0262C219.344 70.8738 219.47 70.7876 219.47 70.7876Z" fill="#263238"/>
<path d="M212.804 107.99C212.695 108.022 212.584 108.044 212.472 108.056L211.496 108.194L207.745 108.701L205.023 109.057L201.837 109.585C199.54 109.941 196.891 110.317 194.003 110.891L189.469 111.73C187.863 112.007 186.263 112.41 184.57 112.76C181.204 113.467 177.627 114.386 173.823 115.278C166.302 117.229 158.098 119.637 149.629 122.59C141.16 125.542 133.295 128.807 126.168 132.013C122.65 133.656 119.286 135.186 116.22 136.776C114.68 137.558 113.167 138.274 111.754 139.036C110.34 139.798 108.96 140.5 107.686 141.216C105.071 142.581 102.795 143.94 100.771 145.086C99.7561 145.663 98.8138 146.206 97.9445 146.703C97.0752 147.2 96.2989 147.711 95.6022 148.128C94.222 148.963 93.1206 149.626 92.3442 150.057C91.9858 150.269 91.7005 150.435 91.5081 150.547C91.4126 150.606 91.3128 150.657 91.2095 150.7C91.2913 150.625 91.3802 150.558 91.4748 150.501C91.6872 150.368 91.9592 150.189 92.2843 149.984C93.0408 149.507 94.109 148.824 95.4825 147.955C96.1792 147.511 96.9555 147.027 97.7982 146.49C98.6409 145.954 99.5965 145.437 100.605 144.84C102.629 143.667 104.898 142.275 107.5 140.897C108.787 140.194 110.147 139.459 111.554 138.69C112.961 137.922 114.467 137.199 116.007 136.404C119.073 134.801 122.437 133.257 125.961 131.594C133.056 128.395 140.967 125.123 149.443 122.125C157.918 119.126 166.149 116.771 173.683 114.833C177.473 113.928 181.065 113.022 184.47 112.355C186.156 111.998 187.789 111.695 189.376 111.344L193.903 110.566C196.791 110.018 199.433 109.675 201.77 109.346L204.99 108.878C205.986 108.773 206.895 108.661 207.718 108.569C209.332 108.391 210.593 108.246 211.483 108.154L212.465 108.062C212.691 108.005 212.804 107.981 212.804 107.99Z" fill="#263238"/>
<path d="M168.448 93.7865C168.336 93.9861 168.205 94.1749 168.057 94.3505C167.752 94.7485 167.354 95.266 166.857 95.9228C166.36 96.5796 165.697 97.4155 164.894 98.3509C164.092 99.2862 163.243 100.361 162.209 101.489C161.174 102.616 160.067 103.883 158.813 105.177C157.559 106.47 156.16 107.83 154.747 109.242C151.809 112.035 148.465 114.992 144.797 117.864C141.128 120.735 137.446 123.3 134.042 125.494C132.317 126.568 130.691 127.596 129.092 128.504C127.493 129.412 126.053 130.213 124.706 130.936C123.359 131.658 122.084 132.294 121.023 132.811C119.961 133.328 118.979 133.791 118.195 134.136C117.412 134.48 116.842 134.732 116.364 134.957C116.157 135.058 115.942 135.14 115.72 135.202C115.908 135.067 116.111 134.954 116.324 134.864L118.096 133.983C118.866 133.612 119.808 133.161 120.85 132.558C121.891 131.955 123.166 131.386 124.499 130.623C125.833 129.861 127.333 129.119 128.846 128.151C130.359 127.184 132.018 126.216 133.756 125.102C137.14 122.902 140.782 120.349 144.458 117.471C148.133 114.594 151.45 111.649 154.408 108.85C155.834 107.424 157.254 106.125 158.461 104.798C159.668 103.471 160.862 102.291 161.896 101.163C162.931 100.035 163.833 98.9872 164.635 98.0784C165.438 97.1696 166.107 96.3669 166.651 95.7035C167.195 95.0401 167.599 94.5691 167.918 94.1976C168.08 94.0426 168.258 93.9048 168.448 93.7865Z" fill="#263238"/>
<path d="M215.608 109.985C213.261 110.825 211.189 112.291 209.615 114.223C208.041 116.155 207.025 118.481 206.676 120.951C206.544 121.933 206.638 123.128 207.502 123.607C208.365 124.086 209.54 123.457 210.309 122.741C211.926 121.236 213.215 119.414 214.097 117.389C214.979 115.364 215.435 113.178 215.436 110.967C215.018 114.603 215.693 118.284 217.373 121.54C218.005 122.769 219.095 124.084 220.469 123.893C221.844 123.702 222.486 122.222 222.697 120.908C223.012 118.608 222.583 116.266 221.472 114.224C220.361 112.183 218.627 110.549 216.523 109.561C218.277 110.691 220.334 111.258 222.417 111.185C224.5 111.113 226.51 110.404 228.176 109.155C229.436 108.173 230.497 106.382 229.606 105.066C229.295 104.695 228.908 104.395 228.471 104.187C228.034 103.979 227.558 103.868 227.075 103.862C225.2 103.691 223.312 103.927 221.539 104.553C219.766 105.179 218.149 106.181 216.8 107.489C218.562 106.131 219.887 104.287 220.611 102.183C221.336 100.079 221.428 97.8071 220.878 95.6484C220.511 94.2736 219.699 92.8386 218.305 92.5184C216.571 92.1115 215.006 93.7565 214.164 95.3292C213.166 97.3329 212.629 99.5354 212.592 101.776C212.555 104.016 213.02 106.237 213.952 108.276C213.289 107.064 212.341 106.03 211.191 105.263C210.04 104.496 208.722 104.019 207.348 103.874C205.548 103.706 203.312 104.56 203.187 106.346C203.063 108.132 204.904 109.243 206.551 109.789C209.543 110.768 212.714 111.071 215.834 110.675" fill="#D2D2D2"/>
<path d="M210.165 118.152C211.361 116.798 212.475 115.374 213.501 113.886C214.387 112.31 215.177 110.681 215.866 109.009C215.632 110.85 214.959 112.607 213.906 114.133C212.994 115.749 211.712 117.127 210.165 118.152Z" fill="#263238"/>
<path d="M218.087 118.088C218.006 116.618 217.775 115.161 217.398 113.738C216.639 111.426 215.482 109.765 215.621 109.679C216.673 110.785 217.44 112.131 217.856 113.599C218.409 115.033 218.49 116.606 218.087 118.088Z" fill="#263238"/>
<path d="M223.592 107.317C222.583 108.381 221.304 109.151 219.89 109.544C218.518 110.086 217.004 110.155 215.588 109.739C216.993 109.671 218.386 109.449 219.743 109.079C221.056 108.559 222.341 107.971 223.592 107.317Z" fill="#263238"/>
<path d="M216.661 107.921C216.959 108.06 217.21 108.284 217.382 108.565C217.554 108.845 217.641 109.17 217.631 109.498C217.62 109.827 217.514 110.145 217.325 110.413C217.135 110.682 216.871 110.888 216.565 111.008C216.356 110.533 216.073 110.093 215.727 109.706C216.108 109.167 216.411 108.577 216.628 107.954" fill="white"/>
<path d="M217.062 96.9788C217.322 97.5743 217.478 98.2102 217.522 98.8583C217.963 101.998 217.525 105.197 216.257 108.099C216.031 108.712 215.704 109.281 215.289 109.785C216.08 107.758 216.673 105.66 217.062 103.519C217.272 101.344 217.272 99.1542 217.062 96.9788Z" fill="#263238"/>
<path d="M165.172 90.8283C163.049 92.1298 160.611 92.8289 158.119 92.8508C155.627 92.8727 153.174 92.2166 151.023 90.9527C150.192 90.4538 149.302 89.6163 149.46 88.647C149.618 87.6778 150.853 87.1479 151.888 86.9897C154.075 86.671 156.305 86.804 158.44 87.3807C160.575 87.9574 162.57 88.9655 164.302 90.3427C161.197 88.4 158.738 85.5804 157.235 82.2413C156.669 80.9725 156.322 79.299 157.33 78.3572C158.339 77.4154 159.893 77.8155 161.055 78.474C163.053 79.6632 164.618 81.4598 165.522 83.6006C166.427 85.7414 166.622 88.114 166.081 90.3711C166.295 88.2976 167.138 86.3404 168.496 84.7613C169.854 83.1822 171.663 82.0566 173.681 81.5351C175.234 81.1649 177.293 81.4593 177.779 82.9803C177.867 83.4577 177.852 83.9482 177.734 84.4188C177.617 84.8893 177.4 85.3291 177.098 85.7085C176.06 87.2764 174.696 88.6013 173.099 89.5931C171.502 90.5848 169.709 91.22 167.842 91.4553C170.008 90.9246 172.283 91.0404 174.387 91.7884C176.49 92.5364 178.33 93.8838 179.678 95.6642C180.523 96.8138 181.149 98.3549 180.526 99.629C179.737 101.242 177.5 101.432 175.74 101.065C173.546 100.599 171.484 99.6448 169.706 98.2739C167.929 96.9031 166.482 95.1504 165.473 93.1459C166.007 94.421 166.225 95.8062 166.106 97.1823C165.987 98.5584 165.536 99.8844 164.791 101.046C163.803 102.553 161.746 103.772 160.238 102.755C158.73 101.737 159.046 99.5995 159.675 98C160.779 95.0572 162.527 92.4001 164.793 90.2237" fill="#D2D2D2"/>
<path d="M155.391 89.9746C157.188 89.8958 158.988 89.9244 160.782 90.06C162.571 90.3488 164.341 90.7453 166.082 91.2475C164.488 90.2911 162.694 89.7187 160.842 89.5754C159.018 89.2807 157.151 89.4174 155.391 89.9746Z" fill="#263238"/>
<path d="M160.377 83.8314C161.475 84.8111 162.471 85.9 163.348 87.0814C164.685 89.1213 165.265 91.0673 165.424 91.0144C165.213 89.5036 164.64 88.0656 163.753 86.8229C162.97 85.496 161.788 84.4492 160.377 83.8314Z" fill="#263238"/>
<path d="M172.245 86.2677C170.782 86.3802 169.38 86.8983 168.196 87.7639C166.917 88.4965 165.916 89.6324 165.351 90.9944C166.284 89.9423 167.327 88.993 168.462 88.1626C169.686 87.4603 170.949 86.8276 172.245 86.2677Z" fill="#263238"/>
<path d="M167.443 91.2955C167.518 90.9763 167.498 90.6422 167.387 90.3334C167.276 90.0246 167.078 89.7544 166.817 89.5553C166.55 89.3629 166.235 89.25 165.907 89.2297C165.579 89.2094 165.252 89.2825 164.965 89.4404C165.209 89.8996 165.378 90.3953 165.464 90.9083C166.139 90.9358 166.807 91.0664 167.443 91.2955Z" fill="white"/>
<path d="M176.261 97.8184C175.956 97.2382 175.553 96.7146 175.071 96.2701C173.977 95.1237 172.729 94.1347 171.363 93.3314C170.009 92.5252 168.549 91.9135 167.025 91.5141C166.408 91.3001 165.758 91.1982 165.106 91.2133C169.342 92.3569 173.189 94.631 176.235 97.7918L176.261 97.8184Z" fill="#263238"/>
<path d="M224.951 67.3409C221.507 67.6485 218.041 67.0134 214.926 65.5037C211.811 63.9939 209.164 61.6664 207.267 58.7701C206.529 57.6074 205.903 56.0795 206.738 54.9384C207.574 53.7972 209.4 53.9386 210.788 54.385C213.714 55.3361 216.415 56.8794 218.721 58.9187C221.027 60.9579 222.89 63.4494 224.193 66.2379C221.527 61.9105 220.203 56.8928 220.386 51.819C220.47 49.9002 221.059 47.6101 222.904 47.0543C224.749 46.4985 226.451 47.9478 227.462 49.5026C229.215 52.2129 230.056 55.4115 229.861 58.6301C229.666 61.8487 228.446 64.9181 226.379 67.3889C227.922 64.9397 230.178 63.0229 232.845 61.8958C235.512 60.7687 238.462 60.4853 241.298 61.0837C243.456 61.584 245.822 63.2066 245.492 65.4107C245.288 66.745 244.114 67.6933 242.959 68.3826C240.701 69.6907 238.186 70.4953 235.586 70.7412C232.986 70.9871 230.363 70.6686 227.895 69.8074C230.918 70.4865 233.678 72.0344 235.836 74.2605C237.994 76.4865 239.455 79.2937 240.039 82.3362C240.373 84.2886 240.203 86.5858 238.644 87.7859C236.66 89.3043 233.738 88.1857 231.817 86.6366C229.37 84.696 227.39 82.2311 226.023 79.4242C224.656 76.6172 223.937 73.5402 223.918 70.4206C223.8 72.3324 223.218 74.1856 222.222 75.8203C221.227 77.4549 219.848 78.8219 218.205 79.8031C216.035 81.069 212.716 81.3045 211.485 79.1187C210.254 76.9329 211.945 74.4714 213.696 72.8266C216.883 69.8456 220.696 67.6132 224.857 66.2917" fill="#D2D2D2"/>
<path d="M213.317 60.2305C213.251 60.4297 216.552 61.3694 220.027 63.6505C223.502 65.9316 225.749 68.5634 225.895 68.4174C226.041 68.2715 224.02 65.4408 220.405 63.1131C216.791 60.7853 213.337 60.0646 213.317 60.2305Z" fill="#263238"/>
<path d="M223.325 55.6732C223.139 55.7793 224.616 58.1844 225.011 61.5512C225.406 64.918 224.945 67.6796 225.17 67.7064C225.851 65.6963 226.031 63.5498 225.695 61.4523C225.253 57.9328 223.431 55.5538 223.325 55.6732Z" fill="#263238"/>
<path d="M236.596 66.0254C236.649 65.8794 233.998 64.9669 230.619 65.355C227.24 65.7432 224.951 67.5136 225.084 67.6332C225.217 67.7529 227.473 66.3742 230.693 66.0125C233.913 65.6507 236.556 66.2378 236.596 66.0254Z" fill="#263238"/>
<path d="M227.516 69.3089C227.81 68.9596 227.995 68.5312 228.047 68.077C228.1 67.6229 228.017 67.1631 227.81 66.7551C227.603 66.347 227.28 66.0087 226.882 65.7824C226.485 65.5561 226.029 65.4517 225.573 65.4824C225.595 66.2036 225.499 66.9233 225.29 67.6134C226.125 68.0728 226.887 68.6556 227.549 69.3421" fill="white"/>
<path d="M234.462 82.848C234.445 81.9408 234.266 81.0434 233.935 80.1982C232.619 76.0093 230.178 72.2603 226.878 69.3613C226.235 68.7226 225.49 68.1966 224.672 67.8052C224.513 67.9644 227.876 70.438 230.589 74.6637C233.303 78.8895 234.256 82.9076 234.462 82.848Z" fill="#263238"/>
<path d="M71.2677 198.172C71.7272 197.884 72.2062 197.627 72.7011 197.404C73.1723 197.172 73.7429 196.88 74.3866 196.516C75.0303 196.151 75.7935 195.774 76.5897 195.27C78.4722 194.158 80.2928 192.946 82.0437 191.637C84.1773 190.015 86.2088 188.263 88.1267 186.392C90.0178 184.496 91.7917 182.487 93.4387 180.375C94.7676 178.639 96.0046 176.834 97.1446 174.968C97.6683 174.165 98.0459 173.428 98.4104 172.785C98.7749 172.141 99.0864 171.577 99.3183 171.106C99.5395 170.609 99.8056 170.134 100.114 169.686C99.9415 170.2 99.7336 170.701 99.491 171.185C99.2791 171.677 99.0074 172.254 98.6562 172.911C98.305 173.568 97.934 174.338 97.4369 175.141C96.338 177.052 95.1226 178.893 93.7975 180.654C92.1561 182.799 90.375 184.834 88.4657 186.744C86.5329 188.63 84.4763 190.384 82.3096 191.996C80.5346 193.3 78.6822 194.495 76.7626 195.576C75.9332 196.073 75.1767 196.417 74.5197 196.755C73.8627 197.093 73.2721 197.365 72.7876 197.57C72.3012 197.818 71.7923 198.02 71.2677 198.172Z" fill="#263238"/>
<path d="M74.0209 202.013C74.4813 201.72 74.9625 201.461 75.4608 201.238C75.932 201.006 76.4961 200.721 77.1464 200.35C77.7967 199.979 78.5532 199.608 79.3428 199.111C81.2271 197.997 83.0479 196.78 84.7968 195.464C86.9333 193.851 88.9651 192.103 90.8799 190.232C92.7709 188.336 94.5449 186.327 96.1919 184.216C97.5229 182.477 98.762 180.67 99.9043 178.802C100.428 177.999 100.799 177.269 101.17 176.618C101.541 175.968 101.84 175.404 102.078 174.94C102.306 174.445 102.569 173.968 102.867 173.513C102.702 174.034 102.494 174.54 102.244 175.026C102.039 175.511 101.767 176.088 101.409 176.752C101.052 177.415 100.687 178.178 100.197 178.975C99.0982 180.885 97.8805 182.724 96.5507 184.482C94.9115 186.629 93.1326 188.665 91.2255 190.578C89.293 192.464 87.2364 194.219 85.0694 195.83C83.2924 197.131 81.4401 198.326 79.5224 199.41C78.693 199.907 77.9364 200.251 77.2728 200.596C76.6092 200.94 76.0252 201.205 75.5407 201.41C75.0499 201.649 74.5419 201.85 74.0209 202.013Z" fill="#263238"/>
<path d="M33.1164 161.268C33.1164 161.268 33.3155 161.069 33.7932 160.791C34.271 160.512 34.9543 160.028 35.7903 159.472C36.6264 158.915 37.7345 158.219 38.9952 157.463C40.2559 156.708 41.6825 155.813 43.3083 154.918C44.9341 154.023 46.6925 152.996 48.6369 151.996C50.5813 150.995 52.6584 149.928 54.8616 148.842C59.2881 146.728 64.239 144.556 69.5287 142.523C74.8183 140.49 79.9823 138.849 84.6951 137.473C87.0648 136.818 89.3083 136.183 91.4391 135.688C93.5699 135.192 95.5414 134.709 97.3603 134.326C99.1792 133.943 100.832 133.633 102.299 133.375C103.766 133.118 105.001 132.893 106.03 132.742C107.059 132.59 107.816 132.485 108.367 132.426C108.64 132.373 108.918 132.344 109.197 132.34C108.929 132.419 108.657 132.479 108.38 132.519L106.03 132.968C105.008 133.139 103.773 133.364 102.319 133.674C100.866 133.985 99.226 134.282 97.4205 134.718C95.615 135.154 93.6301 135.57 91.5259 136.133C89.4217 136.695 87.1715 137.296 84.8084 137.958C80.109 139.361 74.9916 141.035 69.6952 143.034C64.3988 145.034 59.4745 147.22 55.0414 149.3C52.8381 150.373 50.7344 151.374 48.8365 152.381C46.9386 153.388 45.1204 154.342 43.5012 155.244C41.8821 156.145 40.4289 156.987 39.1548 157.729C37.8808 158.471 36.7859 159.114 35.8968 159.658C35.0077 160.201 34.3574 160.586 33.8531 160.89C33.621 161.041 33.3742 161.167 33.1164 161.268Z" fill="white"/>
<path d="M14.9012 177.529C17.3748 174.218 20.3723 171.332 23.776 168.987C23.8757 169.086 21.7331 170.923 19.3253 173.251C16.9176 175.579 15.0075 177.622 14.9012 177.529Z" fill="white"/>
</svg>
