<svg width="264" height="264" viewBox="0 0 264 264" fill="none" xmlns="http://www.w3.org/2000/svg"><path d="m121.845 144.046 20.617 1.317-.865-1.794-6.448-13.386-2.422-5.075-6.448-13.386-.865-1.794-11.814 16.906s-69.9854 4.088-107.9802 51.854l2.8948 6.105 2.4223 5.075 2.9213 6.052c61.0989.158 107.9868-51.874 107.9868-51.874Z" fill="#E0E0E0"/><path d="M121.845 144.046s-.14.139-.418.418c-.279.278-.63.696-1.207 1.287-1.095 1.094-2.72 2.719-4.829 4.828a193.173 193.173 0 0 1-19.7292 16.22 175.3137 175.3137 0 0 1-33.8023 19.179c-13.705 5.729-30.0738 10.134-47.9878 10.168h-.146l-.0666-.133-8.2848-17.173-.0598-.139.1061-.106a117.4926 117.4926 0 0 1 22.2205-21.171 139.1027 139.1027 0 0 1 21.4525-12.918 170.83 170.83 0 0 1 22.1538-8.993 195.4086 195.4086 0 0 1 21.7456-5.793 168.4117 168.4117 0 0 1 20.593-3.032l-.126.126c4.221-5.994 8.168-11.624 11.841-16.892l.179-.259.133.279 17.002 35.454.087.18-.193-.021-15.306-1.045-3.951-.29c-.883-.061-1.341-.107-1.341-.107s.445.007 1.328.001 2.205.122 3.931.23l15.272.906-.139.139-17.128-35.395.318.027c-3.679 5.275-7.597 10.908-11.794 16.926l-.066.066-.1.007c-6.9.601-13.7574 1.62-20.533 3.052a196.2133 196.2133 0 0 0-21.6791 5.82 169.7157 169.7157 0 0 0-22.0875 8.98 138.0264 138.0264 0 0 0-21.3728 12.878 116.8972 116.8972 0 0 0-22.1344 21.071l.0263-.252 8.2715 17.185-.2126-.133c17.8409-.014 34.1767-4.359 47.8285-10.074A175.5855 175.5855 0 0 0 95.449 166.52a199.1197 199.1197 0 0 0 19.796-16.1c2.175-2.03 3.814-3.641 4.902-4.742.543-.544.955-.955 1.246-1.247.292-.292.452-.385.452-.385Z" fill="#263238"/><path d="M117.991 129.421a38.571 38.571 0 0 1 3.162-5.169 37.2799 37.2799 0 0 1 3.567-4.896 39.1829 39.1829 0 0 1-3.162 5.169 37.6238 37.6238 0 0 1-3.567 4.896Z" fill="#fff"/><path d="M15.2905 194.222c23.9084-1.176 41.7879-8.62 65.3787-21.138 2.5947-1.385 5.2163-2.398 7.6515-3.876.2447-.144.4314-.369.5277-.636.0964-.267.0964-.56.0001-.827a1.2228 1.2228 0 0 0-1.3402-.795c-3.5385.441-7.1897 1.035-10.4643-.064-4.6561-1.566-9.1407-4.153-14.0276-4.198-2.6028-.056-5.2247.625-7.7088-.082-3.4005-.959-5.5552-4.162-7.9682-6.734-2.4129-2.572-6.2331-4.774-9.3254-3.078 0 0-21.6631 14.684-29.8644 26.036l7.1409 15.392Z" fill="#EBEBEB"/><path d="M157.468 120.427c4.528.364 8.886 1.899 12.647 4.453a26.2947 26.2947 0 0 1 8.808 10.117 24.8837 24.8837 0 0 1-13.446-4.204 24.9293 24.9293 0 0 1-9.019-10.832M181.795 112.545a26.2176 26.2176 0 0 1 7.745-10.92 26.2291 26.2291 0 0 1 12.13-5.6717 24.8132 24.8132 0 0 1-7.721 11.7607 24.819 24.819 0 0 1-12.877 5.673M176.072 101.477a22.901 22.901 0 0 1 2.287-11.5804 22.8456 22.8456 0 0 1 7.751-8.8927c.555 4.2042-.13 8.4764-1.972 12.2909a21.667 21.667 0 0 1-8.397 9.1772M198.911 86.7211a16.6861 16.6861 0 0 1 7.932-3.3966 16.7337 16.7337 0 0 1 8.578 1.0173 15.8017 15.8017 0 0 1-8.207 3.8568c-3.055.4569-6.179.01-8.987-1.2857M134.855 128.138c2.746-1 5.707-1.261 8.589-.758 2.882.503 5.583 1.752 7.834 3.624a15.8347 15.8347 0 0 1-8.97 1.13 15.8855 15.8855 0 0 1-8.137-3.964" fill="#455A64"/><path d="M219.47 70.7876s-7.31 6.2734-19.83 15.5225c-1.572 1.147-3.224 2.347-4.929 3.6001-1.705 1.2531-3.55 2.4861-5.421 3.7988-3.735 2.6452-7.836 5.31-12.135 8.147-8.652 5.568-18.327 11.441-28.725 17.173-10.399 5.733-20.565 10.728-29.903 15.054-4.732 2.073-9.138 4.127-13.386 5.875-2.11.874-4.135 1.755-6.1123 2.537l-5.7011 2.258c-14.5218 5.615-23.7414 8.427-23.7414 8.427s.1328-.067.4115-.172l1.2279-.444 4.719-1.675 3.4182-1.198c1.2434-.455 2.5863-.956 4.0287-1.503 2.8871-1.092 6.2324-2.244 9.8029-3.754l5.6878-2.272c1.9648-.794 3.9888-1.689 6.0928-2.569 4.234-1.749 8.667-3.789 13.353-5.909 9.324-4.339 19.451-9.374 29.862-15.067 10.412-5.692 20.067-11.598 28.686-17.106 4.299-2.8242 8.406-5.4691 12.115-8.1277 1.878-1.306 3.716-2.5324 5.434-3.7722l4.923-3.5935c3.178-2.2475 5.951-4.4091 8.419-6.2656a818.9342 818.9342 0 0 0 3.437-2.5991c1.055-.8023 1.99-1.5648 2.839-2.2412 1.698-1.3261 3.025-2.3738 3.941-3.0899.447-.3403.791-.6056 1.035-.7956.325-.1524.451-.2386.451-.2386ZM212.804 107.99c-.109.032-.22.054-.332.066l-.976.138-3.751.507-2.722.356-3.186.528c-2.297.356-4.946.732-7.834 1.306l-4.534.839c-1.606.277-3.206.68-4.899 1.03-3.366.707-6.943 1.626-10.747 2.518-7.521 1.951-15.725 4.359-24.194 7.312-8.469 2.952-16.334 6.217-23.461 9.423-3.518 1.643-6.882 3.173-9.948 4.763-1.54.782-3.053 1.498-4.466 2.26-1.414.762-2.794 1.464-4.068 2.18-2.615 1.365-4.891 2.724-6.915 3.87-1.0149.577-1.9572 1.12-2.8265 1.617-.8693.497-1.6456 1.008-2.3423 1.425-1.3802.835-2.4816 1.498-3.258 1.929-.3584.212-.6437.378-.8361.49-.0955.059-.1953.11-.2986.153.0818-.075.1707-.142.2653-.199.2124-.133.4844-.312.8095-.517.7565-.477 1.8247-1.16 3.1982-2.029.6967-.444 1.473-.928 2.3157-1.465.8427-.536 1.7983-1.053 2.8068-1.65 2.024-1.173 4.293-2.565 6.895-3.943 1.287-.703 2.647-1.438 4.054-2.207 1.407-.768 2.913-1.491 4.453-2.286 3.066-1.603 6.43-3.147 9.954-4.81 7.095-3.199 15.006-6.471 23.482-9.469 8.475-2.999 16.706-5.354 24.24-7.292 3.79-.905 7.382-1.811 10.787-2.478 1.686-.357 3.319-.66 4.906-1.011l4.527-.778c2.888-.548 5.53-.891 7.867-1.22l3.22-.468c.996-.105 1.905-.217 2.728-.309 1.614-.178 2.875-.323 3.765-.415l.982-.092c.226-.057.339-.081.339-.072Z" fill="#263238"/><path d="M168.448 93.7865a3.6372 3.6372 0 0 1-.391.564c-.305.398-.703.9155-1.2 1.5723s-1.16 1.4927-1.963 2.4281c-.802.9353-1.651 2.0101-2.685 3.1381-1.035 1.127-2.142 2.394-3.396 3.688-1.254 1.293-2.653 2.653-4.066 4.065-2.938 2.793-6.282 5.75-9.95 8.622-3.669 2.871-7.351 5.436-10.755 7.63-1.725 1.074-3.351 2.102-4.95 3.01-1.599.908-3.039 1.709-4.386 2.432-1.347.722-2.622 1.358-3.683 1.875-1.062.517-2.044.98-2.828 1.325-.783.344-1.353.596-1.831.821-.207.101-.422.183-.644.245.188-.135.391-.248.604-.338l1.772-.881c.77-.371 1.712-.822 2.754-1.425 1.041-.603 2.316-1.172 3.649-1.935 1.334-.762 2.834-1.504 4.347-2.472 1.513-.967 3.172-1.935 4.91-3.049 3.384-2.2 7.026-4.753 10.702-7.631 3.675-2.877 6.992-5.822 9.95-8.621 1.426-1.426 2.846-2.725 4.053-4.052 1.207-1.327 2.401-2.507 3.435-3.635 1.035-1.128 1.937-2.1758 2.739-3.0846.803-.9088 1.472-1.7115 2.016-2.3749.544-.6634.948-1.1344 1.267-1.5059.162-.155.34-.2928.53-.4111Z" fill="#263238"/><path d="M215.608 109.985a13.674 13.674 0 0 0-5.993 4.238 13.6805 13.6805 0 0 0-2.939 6.728c-.132.982-.038 2.177.826 2.656.863.479 2.038-.15 2.807-.866a16.086 16.086 0 0 0 3.788-5.352 16.1003 16.1003 0 0 0 1.339-6.422c-.418 3.636.257 7.317 1.937 10.573.632 1.229 1.722 2.544 3.096 2.353 1.375-.191 2.017-1.671 2.228-2.985.315-2.3-.114-4.642-1.225-6.684a10.9198 10.9198 0 0 0-4.949-4.663 10.2235 10.2235 0 0 0 5.894 1.624c2.083-.072 4.093-.781 5.759-2.03 1.26-.982 2.321-2.773 1.43-4.089a3.373 3.373 0 0 0-1.135-.879 3.3444 3.3444 0 0 0-1.396-.325c-1.875-.171-3.763.065-5.536.691-1.773.626-3.39 1.628-4.739 2.936a11.3687 11.3687 0 0 0 3.811-5.306c.725-2.104.817-4.3759.267-6.5346-.367-1.3748-1.179-2.8098-2.573-3.13-1.734-.4069-3.299 1.2381-4.141 2.8108a15.0148 15.0148 0 0 0-1.572 6.4468c-.037 2.24.428 4.461 1.36 6.5a8.5626 8.5626 0 0 0-2.761-3.013 8.5474 8.5474 0 0 0-3.843-1.389c-1.8-.168-4.036.686-4.161 2.472-.124 1.786 1.717 2.897 3.364 3.443 2.992.979 6.163 1.282 9.283.886" fill="#D2D2D2"/><path d="M210.165 118.152a45.203 45.203 0 0 0 3.336-4.266 44.7273 44.7273 0 0 0 2.365-4.877 11.5975 11.5975 0 0 1-1.96 5.124 11.747 11.747 0 0 1-3.741 4.019Z" fill="#263238"/><path d="M218.087 118.088c-.081-1.47-.312-2.927-.689-4.35-.759-2.312-1.916-3.973-1.777-4.059a9.4118 9.4118 0 0 1 2.235 3.92c.553 1.434.634 3.007.231 4.489Z" fill="#263238"/><path d="M223.592 107.317a8.085 8.085 0 0 1-3.702 2.227 6.6258 6.6258 0 0 1-4.302.195c1.405-.068 2.798-.29 4.155-.66 1.313-.52 2.598-1.108 3.849-1.762Z" fill="#263238"/><path d="M216.661 107.921c.298.139.549.363.721.644.172.28.259.605.249.933-.011.329-.117.647-.306.915a1.68 1.68 0 0 1-.76.595 4.9385 4.9385 0 0 0-.838-1.302 7.056 7.056 0 0 0 .901-1.752" fill="#fff"/><path d="M217.062 96.9788c.26.5955.416 1.2314.46 1.8795a17.129 17.129 0 0 1-1.265 9.2407 5.8154 5.8154 0 0 1-.968 1.686 33.9072 33.9072 0 0 0 1.773-6.266c.21-2.175.21-4.3648 0-6.5402Z" fill="#263238"/><path d="M165.172 90.8283a13.7246 13.7246 0 0 1-7.053 2.0225 13.7697 13.7697 0 0 1-7.096-1.8981c-.831-.4989-1.721-1.3364-1.563-2.3057.158-.9692 1.393-1.4991 2.428-1.6573a16.1793 16.1793 0 0 1 6.552.391 16.212 16.212 0 0 1 5.862 2.962 18.5265 18.5265 0 0 1-7.067-8.1014c-.566-1.2688-.913-2.9423.095-3.8841 1.009-.9418 2.563-.5417 3.725.1168a10.9012 10.9012 0 0 1 4.467 5.1266c.905 2.1408 1.1 4.5134.559 6.7705a10.2107 10.2107 0 0 1 2.415-5.6098 10.2052 10.2052 0 0 1 5.185-3.2262c1.553-.3702 3.612-.0758 4.098 1.4452.088.4774.073.9679-.045 1.4385a3.3812 3.3812 0 0 1-.636 1.2897 13.0574 13.0574 0 0 1-3.999 3.8846 13.0598 13.0598 0 0 1-5.257 1.8622 11.4227 11.4227 0 0 1 6.545.3331 11.4507 11.4507 0 0 1 5.291 3.8758c.845 1.1496 1.471 2.6907.848 3.9648-.789 1.613-3.026 1.803-4.786 1.436a14.98 14.98 0 0 1-6.034-2.7911 14.9887 14.9887 0 0 1-4.233-5.128 8.545 8.545 0 0 1 .633 4.0364 8.515 8.515 0 0 1-1.315 3.8637c-.988 1.507-3.045 2.726-4.553 1.709-1.508-1.018-1.192-3.1555-.563-4.755a21.0143 21.0143 0 0 1 5.118-7.7763" fill="#D2D2D2"/><path d="M155.391 89.9746a45.232 45.232 0 0 1 5.391.0854c1.789.2888 3.559.6853 5.3 1.1875a11.9817 11.9817 0 0 0-5.24-1.6721 11.816 11.816 0 0 0-5.451.3992Z" fill="#263238"/><path d="M160.377 83.8314a21.657 21.657 0 0 1 2.971 3.25c1.337 2.0399 1.917 3.9859 2.076 3.933a9.469 9.469 0 0 0-1.671-4.1915 7.3377 7.3377 0 0 0-3.376-2.9915Z" fill="#263238"/><path d="M172.245 86.2677a7.8842 7.8842 0 0 0-4.049 1.4962 6.668 6.668 0 0 0-2.845 3.2305 19.725 19.725 0 0 1 3.111-2.8318 37.4266 37.4266 0 0 1 3.783-1.8949Z" fill="#263238"/><path d="M167.443 91.2955a1.6968 1.6968 0 0 0-.056-.9621 1.7036 1.7036 0 0 0-.57-.7781 1.7395 1.7395 0 0 0-.91-.3256 1.7328 1.7328 0 0 0-.942.2107c.244.4592.413.9549.499 1.4679a6.6396 6.6396 0 0 1 1.979.3872Z" fill="#fff"/><path d="M176.261 97.8184a5.741 5.741 0 0 0-1.19-1.5483 17.1244 17.1244 0 0 0-3.708-2.9387 16.807 16.807 0 0 0-4.338-1.8173 5.4702 5.4702 0 0 0-1.919-.3008 24.2262 24.2262 0 0 1 11.129 6.5785l.026.0266Z" fill="#263238"/><path d="M224.951 67.3409a19.0947 19.0947 0 0 1-10.025-1.8372 19.1307 19.1307 0 0 1-7.659-6.7336c-.738-1.1627-1.364-2.6906-.529-3.8317.836-1.1412 2.662-.9998 4.05-.5534a22.4548 22.4548 0 0 1 7.933 4.5337 22.4697 22.4697 0 0 1 5.472 7.3192 25.7233 25.7233 0 0 1-3.807-14.4189c.084-1.9188.673-4.2089 2.518-4.7647 1.845-.5558 3.547.8935 4.558 2.4483a15.1244 15.1244 0 0 1 2.399 9.1275 15.0685 15.0685 0 0 1-3.482 8.7588 14.1525 14.1525 0 0 1 6.466-5.4931 14.1895 14.1895 0 0 1 8.453-.8121c2.158.5003 4.524 2.1229 4.194 4.327-.204 1.3343-1.378 2.2826-2.533 2.9719a18.1093 18.1093 0 0 1-7.373 2.3586c-2.6.2459-5.223-.0726-7.691-.9338a15.9212 15.9212 0 0 1 7.941 4.4531 15.9132 15.9132 0 0 1 4.203 8.0757c.334 1.9524.164 4.2496-1.395 5.4497-1.984 1.5184-4.906.3998-6.827-1.1493a20.866 20.866 0 0 1-5.794-7.2124 20.8544 20.8544 0 0 1-2.105-9.0036c-.118 1.9118-.7 3.765-1.696 5.3997a11.7634 11.7634 0 0 1-4.017 3.9828c-2.17 1.2659-5.489 1.5014-6.72-.6844-1.231-2.1858.46-4.6473 2.211-6.2921 3.187-2.981 7-5.2134 11.161-6.5349" fill="#D2D2D2"/><path d="M213.317 60.2305c-.066.1992 3.235 1.1389 6.71 3.42s5.722 4.9129 5.868 4.7669c.146-.1459-1.875-2.9766-5.49-5.3043-3.614-2.3278-7.068-3.0485-7.088-2.8826Z" fill="#263238"/><path d="M223.325 55.6732c-.186.1061 1.291 2.5112 1.686 5.878s-.066 6.1284.159 6.1552c.681-2.0101.861-4.1566.525-6.2541-.442-3.5195-2.264-5.8985-2.37-5.7791Z" fill="#263238"/><path d="M236.596 66.0254c.053-.146-2.598-1.0585-5.977-.6704-3.379.3882-5.668 2.1586-5.535 2.2782.133.1197 2.389-1.259 5.609-1.6207 3.22-.3618 5.863.2253 5.903.0129Z" fill="#263238"/><path d="M227.516 69.3089c.294-.3493.479-.7777.531-1.2319a2.3263 2.3263 0 0 0-.237-1.3219 2.3341 2.3341 0 0 0-.928-.9727 2.3293 2.3293 0 0 0-1.309-.3 6.6526 6.6526 0 0 1-.283 2.131 9.5011 9.5011 0 0 1 2.259 1.7287" fill="#fff"/><path d="M234.462 82.848a7.6618 7.6618 0 0 0-.527-2.6498 24.0007 24.0007 0 0 0-7.057-10.8369 8.0755 8.0755 0 0 0-2.206-1.5561c-.159.1592 3.204 2.6328 5.917 6.8585 2.714 4.2258 3.667 8.2439 3.873 8.1843ZM71.2677 198.172c.4595-.288.9385-.545 1.4334-.768a33.0266 33.0266 0 0 0 1.6855-.888c.6437-.365 1.4069-.742 2.2031-1.246a60.4673 60.4673 0 0 0 5.454-3.633 65.3382 65.3382 0 0 0 6.083-5.245 65.9429 65.9429 0 0 0 5.312-6.017 62.5048 62.5048 0 0 0 3.7059-5.407c.5237-.803.9013-1.54 1.2658-2.183.3645-.644.676-1.208.9079-1.679.2212-.497.4873-.972.7957-1.42a11.5347 11.5347 0 0 1-.623 1.499c-.2119.492-.4836 1.069-.8348 1.726s-.7222 1.427-1.2193 2.23a53.6446 53.6446 0 0 1-3.6394 5.513 61.349 61.349 0 0 1-5.3318 6.09 60.6549 60.6549 0 0 1-6.1561 5.252 54.714 54.714 0 0 1-5.547 3.58c-.8294.497-1.5859.841-2.2429 1.179-.657.338-1.2476.61-1.7321.815-.4864.248-.9953.45-1.5199.602ZM74.0209 202.013c.4604-.293.9416-.552 1.4399-.775.4712-.232 1.0353-.517 1.6856-.888.6503-.371 1.4068-.742 2.1964-1.239a59.0506 59.0506 0 0 0 5.454-3.647 63.148 63.148 0 0 0 6.0831-5.232 66.0797 66.0797 0 0 0 5.312-6.016 62.885 62.885 0 0 0 3.7124-5.414c.5237-.803.8947-1.533 1.2657-2.184.371-.65.67-1.214.908-1.678.228-.495.491-.972.789-1.427a9.7256 9.7256 0 0 1-.623 1.513c-.205.485-.477 1.062-.835 1.726-.357.663-.722 1.426-1.212 2.223a52.6367 52.6367 0 0 1-3.6463 5.507 61.4648 61.4648 0 0 1-5.3252 6.096 60.4623 60.4623 0 0 1-6.1561 5.252 56.2253 56.2253 0 0 1-5.547 3.58c-.8294.497-1.586.841-2.2496 1.186-.6636.344-1.2476.609-1.7321.814-.4908.239-.9988.44-1.5198.603Z" fill="#263238"/><path d="M33.1164 161.268s.1991-.199.6768-.477c.4778-.279 1.1611-.763 1.9971-1.319.8361-.557 1.9442-1.253 3.2049-2.009 1.2607-.755 2.6873-1.65 4.3131-2.545 1.6258-.895 3.3842-1.922 5.3286-2.922 1.9444-1.001 4.0215-2.068 6.2247-3.154 4.4265-2.114 9.3774-4.286 14.6671-6.319 5.2896-2.033 10.4536-3.674 15.1664-5.05 2.3697-.655 4.6132-1.29 6.744-1.785 2.1308-.496 4.1023-.979 5.9212-1.362 1.8189-.383 3.4717-.693 4.9387-.951 1.467-.257 2.702-.482 3.731-.633 1.029-.152 1.786-.257 2.337-.316.273-.053.551-.082.83-.086-.268.079-.54.139-.817.179l-2.35.449a84.554 84.554 0 0 0-3.711.706c-1.453.311-3.093.608-4.8985 1.044-1.8055.436-3.7904.852-5.8946 1.415-2.1042.562-4.3544 1.163-6.7175 1.825-4.6994 1.403-9.8168 3.077-15.1132 5.076-5.2964 2-10.2207 4.186-14.6538 6.266-2.2033 1.073-4.307 2.074-6.2049 3.081-1.8979 1.007-3.7161 1.961-5.3353 2.863-1.6191.901-3.0723 1.743-4.3464 2.485-1.274.742-2.3689 1.385-3.258 1.929-.8891.543-1.5394.928-2.0437 1.232a4.0757 4.0757 0 0 1-.7367.378ZM14.9012 177.529a37.967 37.967 0 0 1 8.8748-8.542c.0997.099-2.0429 1.936-4.4507 4.264-2.4077 2.328-4.3178 4.371-4.4241 4.278Z" fill="#fff"/></svg>