<svg width="18" height="16" viewBox="0 0 18 16" fill="none" xmlns="http://www.w3.org/2000/svg">
<path d="M0.538254 13.722C0.211849 13.977 0.153977 14.4483 0.408992 14.7747C0.664007 15.1011 1.13534 15.159 1.46175 14.904L0.538254 13.722ZM17.5046 2.09116C17.5551 1.68004 17.2627 1.30583 16.8516 1.25535L10.1519 0.432732C9.7408 0.382252 9.3666 0.674613 9.31612 1.08574C9.26564 1.49687 9.558 1.87107 9.96913 1.92155L15.9244 2.65277L15.1932 8.60804C15.1427 9.01917 15.4351 9.39338 15.8462 9.44386C16.2573 9.49434 16.6315 9.20197 16.682 8.79085L17.5046 2.09116ZM1.46175 14.904L17.222 2.59077L16.2985 1.40875L0.538254 13.722L1.46175 14.904Z" fill="#00C9C8"/>
</svg>
