<?xml version="1.0" standalone="no"?>
<!DOCTYPE svg PUBLIC "-//W3C//DTD SVG 20010904//EN"
 "http://www.w3.org/TR/2001/REC-SVG-20010904/DTD/svg10.dtd">
<svg version="1.0" xmlns="http://www.w3.org/2000/svg"
 width="1472.000000pt" height="1472.000000pt" viewBox="0 0 1472.000000 1472.000000"
 preserveAspectRatio="xMidYMid meet">
<metadata>
Created by potrace 1.14, written by Peter Selinger 2001-2017
</metadata>
<g transform="translate(0.000000,1472.000000) scale(0.100000,-0.100000)"
fill="#000000" stroke="none">
<path d="M4128 11195 c-2 -1 -70 -5 -153 -9 -82 -3 -166 -8 -185 -11 -19 -2
-60 -7 -90 -10 -30 -3 -66 -7 -80 -9 -14 -3 -45 -7 -70 -10 -25 -3 -56 -8 -70
-11 -14 -3 -41 -8 -60 -11 -19 -3 -53 -10 -74 -16 -22 -5 -49 -11 -60 -12 -12
-2 -48 -11 -81 -20 -33 -9 -94 -26 -135 -37 -74 -21 -226 -71 -265 -88 -11 -5
-51 -21 -90 -37 -38 -15 -99 -41 -135 -58 -36 -17 -67 -31 -70 -31 -6 -1 -67
-32 -180 -93 -105 -56 -185 -105 -315 -191 -94 -62 -121 -82 -149 -106 -6 -6
-24 -18 -39 -28 -16 -10 -36 -25 -45 -32 -9 -8 -46 -37 -80 -65 -35 -28 -69
-56 -76 -63 -7 -6 -37 -32 -67 -57 -75 -62 -381 -369 -460 -460 -35 -41 -67
-77 -70 -80 -14 -11 -229 -292 -240 -313 -7 -12 -15 -24 -19 -27 -11 -8 -98
-146 -175 -275 -121 -204 -283 -551 -319 -685 -4 -14 -11 -34 -16 -45 -10 -22
-77 -242 -84 -277 -3 -13 -7 -32 -10 -43 -27 -104 -71 -338 -81 -435 -4 -36
-9 -74 -11 -84 -3 -18 -11 -115 -20 -241 -4 -64 -4 -386 0 -445 5 -62 17 -189
22 -225 2 -16 6 -47 9 -67 2 -20 9 -54 13 -75 5 -21 8 -46 6 -56 -1 -9 2 -17
7 -17 6 0 8 -3 5 -8 -2 -4 4 -43 15 -87 11 -44 21 -87 22 -95 2 -8 9 -35 16
-60 7 -25 14 -52 16 -61 14 -73 163 -445 211 -526 14 -24 22 -43 20 -43 -3 0
15 -34 39 -76 25 -42 45 -77 45 -80 0 -2 19 -34 43 -71 24 -38 46 -76 50 -85
3 -10 11 -18 17 -18 5 0 10 -5 10 -11 0 -11 111 -170 137 -197 7 -7 13 -17 13
-21 0 -5 13 -22 30 -39 16 -18 30 -34 30 -37 0 -3 11 -18 24 -33 14 -15 33
-37 43 -48 10 -12 41 -48 68 -80 87 -102 271 -282 390 -384 108 -92 297 -230
314 -230 6 0 11 -4 11 -10 0 -5 7 -10 15 -10 8 0 15 -4 15 -10 0 -5 4 -10 10
-10 5 0 33 -15 62 -33 46 -29 254 -133 313 -156 250 -99 473 -153 730 -177
126 -12 493 -5 592 10 16 2 55 7 88 11 32 4 68 9 80 11 11 3 37 7 59 9 21 2
46 7 55 9 17 5 68 15 111 21 14 2 37 8 53 14 15 6 27 9 27 6 0 -2 15 1 33 6
30 9 48 14 87 24 8 2 15 4 15 5 0 1 8 3 17 5 51 10 324 103 395 136 24 10 45
19 47 19 17 0 318 148 396 194 25 15 57 32 73 39 15 6 27 15 27 19 0 4 5 8 11
8 7 0 35 15 63 33 28 18 74 48 101 65 77 50 80 52 204 141 133 96 291 222 397
316 132 117 254 235 434 419 l64 66 2 577 c1 409 4 592 13 627 32 133 101 219
204 254 85 29 121 34 282 38 77 1 143 3 148 3 4 1 7 64 7 141 0 105 -3 140
-12 141 -40 4 -2378 3 -2379 -1 -1 -3 -3 -67 -4 -142 l-2 -138 26 0 c14 -1
130 -2 256 -4 136 -2 250 -8 280 -15 58 -14 165 -60 165 -71 0 -4 9 -10 19
-13 27 -7 88 -95 96 -137 4 -19 9 -46 12 -60 3 -14 6 -337 7 -719 1 -591 -1
-697 -13 -709 -17 -17 -154 -106 -261 -170 -114 -68 -364 -194 -465 -235 -179
-71 -342 -123 -416 -131 -15 -2 -31 -6 -35 -9 -5 -2 -31 -8 -58 -11 -27 -4
-52 -9 -55 -10 -15 -9 -189 -20 -306 -19 -118 0 -258 9 -310 19 -22 4 -63 11
-109 19 -16 2 -55 10 -85 17 -67 14 -70 15 -76 18 -6 3 -4 2 -60 15 -43 9 -43
9 -65 17 -8 4 -60 21 -115 38 -55 18 -104 36 -110 41 -5 5 -19 9 -32 9 -13 0
-23 5 -23 10 0 6 -7 10 -15 10 -8 0 -50 16 -92 36 -43 20 -82 37 -88 38 -5 1
-14 4 -20 8 -5 3 -57 30 -115 60 -205 107 -420 251 -587 393 -6 5 -33 28 -59
50 -72 61 -263 252 -324 325 -30 36 -57 67 -60 70 -32 32 -190 264 -190 279 0
5 -3 11 -8 13 -27 12 -185 344 -282 593 -23 58 -92 306 -105 375 -7 35 -14 71
-20 100 -10 49 -15 76 -21 120 -3 25 -7 52 -9 60 -2 8 -7 40 -10 70 -3 30 -8
73 -10 95 -17 146 -23 536 -11 670 15 160 28 263 43 330 4 17 7 32 8 35 8 41
16 79 19 95 2 11 11 46 21 77 9 32 15 59 14 60 -1 2 3 13 10 26 7 13 14 32 16
42 7 37 80 207 131 308 72 140 157 268 264 397 31 37 214 220 257 257 48 41
203 157 235 176 15 9 28 20 28 24 0 4 4 8 9 8 5 0 49 25 97 56 119 74 376 202
474 235 19 7 40 15 45 19 10 7 170 62 180 61 2 0 24 7 47 15 24 9 54 18 67 20
14 3 28 7 31 9 4 2 20 7 36 9 16 3 38 8 49 11 60 14 214 45 249 49 23 2 41 5
41 6 0 4 216 27 335 36 61 4 492 4 560 0 140 -9 239 -18 340 -31 77 -10 90
-12 130 -19 19 -3 46 -8 60 -10 14 -3 48 -10 75 -16 28 -5 61 -13 75 -16 38
-8 194 -56 205 -62 6 -4 15 -7 21 -8 6 -1 35 -13 66 -28 30 -14 58 -26 62 -26
19 0 208 -134 254 -181 123 -123 192 -276 206 -454 2 -27 4 -53 5 -58 1 -4 83
-6 184 -5 l182 3 -1 50 c-1 28 -5 109 -9 180 -3 72 -8 180 -10 240 -3 61 -7
162 -10 225 -3 63 -8 180 -10 260 -3 80 -5 145 -6 145 -1 0 -7 119 -12 240
l-3 70 -100 33 c-54 18 -106 34 -114 35 -8 2 -46 14 -85 26 -60 19 -99 31
-195 57 -8 2 -69 18 -135 34 -66 17 -127 34 -135 37 -8 3 -24 7 -35 8 -11 2
-87 17 -170 35 -142 29 -167 34 -240 44 -16 3 -43 7 -60 10 -57 10 -120 15
-255 21 -74 3 -143 8 -152 9 -9 2 -18 3 -20 1z"/>
<path d="M11439 11106 c-2 -2 -71 -7 -154 -11 -82 -3 -172 -8 -200 -10 -63 -5
-274 -16 -380 -21 -44 -2 -134 -6 -200 -10 -66 -4 -153 -8 -192 -8 -40 -1 -73
-3 -73 -6 0 -3 -37 -5 -83 -6 -45 -1 -129 -4 -187 -8 -58 -4 -143 -9 -190 -12
-47 -3 -453 -5 -902 -6 l-817 0 -3 -56 c-2 -32 -2 -101 0 -154 l3 -97 113 1
c62 1 117 -1 122 -4 5 -3 18 -2 29 2 11 4 30 4 42 -1 13 -5 25 -4 28 2 4 5 9
7 13 5 4 -2 39 -7 77 -10 39 -3 79 -8 90 -10 45 -9 81 -19 90 -25 6 -3 12 -6
15 -6 3 -1 19 -8 36 -17 73 -39 134 -144 152 -258 11 -75 9 -5936 -2 -5989
-11 -51 -42 -103 -83 -142 -114 -105 -187 -122 -526 -122 l-198 0 2 -128 c0
-70 -2 -132 -5 -138 -10 -16 25 -29 56 -21 15 5 28 6 28 2 0 -4 16 -7 35 -7
19 0 35 3 35 6 0 4 16 3 35 -1 19 -4 35 -5 35 -1 0 3 23 6 50 6 28 0 50 -2 50
-5 0 -6 89 -3 106 4 6 2 17 0 24 -4 8 -5 21 -5 30 0 9 5 22 5 30 0 8 -5 21 -5
30 0 9 5 22 5 30 0 8 -5 21 -5 30 0 9 5 22 5 30 0 8 -5 21 -5 30 0 9 5 22 5
30 0 8 -5 21 -5 30 0 9 5 22 5 30 0 8 -5 21 -5 30 0 9 5 22 5 30 0 8 -5 21 -5
30 0 9 5 22 5 30 0 8 -5 21 -5 30 0 9 5 22 5 30 0 8 -5 21 -5 30 0 9 5 22 5
30 0 8 -5 21 -5 30 0 9 5 22 5 30 0 8 -5 21 -5 30 0 9 5 22 5 30 0 8 -5 21 -5
30 0 9 5 22 5 30 0 8 -5 21 -5 30 0 9 5 22 5 30 0 8 -5 21 -5 30 0 9 5 22 5
30 0 8 -5 21 -5 30 0 9 5 22 5 30 0 8 -5 21 -5 30 0 9 5 22 5 30 0 7 -4 23 -4
36 0 12 5 25 6 28 3 7 -7 101 -7 113 0 5 3 15 2 23 -3 7 -4 23 -4 36 0 12 5
25 6 28 3 8 -8 76 -10 76 -2 0 4 16 3 35 -1 19 -4 35 -4 35 0 0 4 18 4 40 0
22 -4 43 -3 46 1 3 5 12 5 22 0 9 -5 26 -5 38 -1 12 5 25 6 28 3 8 -8 76 -10
76 -2 0 4 16 3 35 -1 19 -4 35 -4 35 0 0 4 18 4 40 0 22 -4 43 -4 46 1 2 4 15
4 28 -1 12 -4 29 -4 36 0 8 5 18 6 23 3 12 -8 147 -10 147 -2 0 3 20 3 45 -1
25 -4 45 -3 45 1 0 4 8 5 19 2 10 -3 22 0 26 7 8 12 9 199 2 207 -3 2 -1 18 3
34 5 16 6 30 2 31 -4 1 -110 2 -237 3 -272 3 -342 10 -425 42 -91 36 -167 108
-200 190 -13 34 -15 380 -15 3078 l0 3040 50 2 c28 1 113 4 190 8 77 3 194 8
260 10 66 2 194 7 285 11 290 12 580 8 715 -12 22 -3 56 -7 75 -9 45 -4 171
-24 190 -30 8 -2 26 -6 40 -9 22 -4 160 -39 200 -51 123 -34 300 -115 416
-190 99 -64 110 -73 198 -160 82 -81 126 -131 126 -144 0 -5 4 -11 9 -13 17
-6 79 -116 141 -253 26 -57 75 -234 85 -310 3 -22 8 -60 12 -85 9 -62 8 -384
-1 -445 -4 -27 -14 -77 -22 -110 -9 -33 -18 -71 -20 -85 -3 -13 -12 -40 -21
-60 -8 -19 -22 -51 -30 -70 -22 -54 -65 -133 -80 -148 -7 -7 -13 -17 -13 -22
0 -5 -6 -15 -12 -22 -7 -7 -31 -36 -53 -63 -80 -101 -211 -217 -340 -301 -33
-21 -62 -41 -65 -44 -16 -16 -220 -122 -220 -114 0 4 -6 1 -13 -5 -25 -20
-204 -82 -309 -107 -10 -2 -26 -6 -35 -8 -90 -23 -228 -51 -302 -62 -25 -4
-55 -8 -66 -11 -11 -2 -40 -6 -65 -8 -25 -3 -59 -7 -77 -10 -146 -22 -758 -23
-946 -1 l-38 4 5 -36 c6 -43 10 -64 37 -197 12 -55 23 -111 25 -125 9 -47 14
-56 37 -57 12 0 85 -4 162 -8 237 -13 668 -7 696 11 9 5 39 -18 39 -30 0 -8
64 -101 72 -104 4 -2 8 -8 8 -12 0 -12 182 -294 192 -298 5 -2 8 -8 8 -13 0
-5 27 -50 60 -99 33 -49 60 -94 60 -99 0 -5 3 -11 8 -13 8 -3 232 -345 232
-354 0 -3 5 -10 11 -17 6 -7 48 -70 94 -142 46 -71 88 -135 94 -142 6 -7 11
-16 11 -21 0 -5 6 -15 14 -21 8 -7 22 -27 31 -46 9 -19 20 -35 24 -35 5 0 12
-11 15 -25 4 -14 11 -25 16 -25 6 0 10 -4 10 -10 0 -5 22 -42 48 -82 27 -40
71 -107 97 -148 27 -41 90 -139 142 -218 51 -78 93 -146 93 -150 0 -4 9 -15
20 -25 11 -9 20 -24 20 -32 0 -8 5 -15 10 -15 6 0 10 -7 10 -15 0 -8 5 -15 10
-15 6 0 10 -4 10 -10 0 -5 13 -29 29 -52 65 -95 171 -259 171 -264 0 -3 5 -10
10 -17 6 -7 51 -73 100 -147 100 -150 156 -230 221 -317 44 -58 154 -220 175
-258 6 -11 18 -20 27 -20 9 0 19 -3 22 -7 4 -4 18 -3 31 2 14 6 24 6 24 0 0
-5 12 -5 30 0 17 5 30 5 30 0 0 -5 13 -5 30 0 17 5 30 5 30 0 0 -5 13 -5 30 0
17 5 30 5 30 0 0 -5 13 -5 30 0 17 5 32 5 35 0 3 -5 16 -5 30 0 15 6 27 6 30
0 3 -5 15 -6 29 0 12 4 29 4 36 0 8 -5 22 -4 31 1 11 6 20 5 24 -1 3 -5 15 -6
28 -1 12 5 34 5 49 0 16 -4 28 -4 28 1 0 5 13 5 30 0 17 -5 30 -5 30 0 0 5 13
5 30 0 17 -5 30 -5 30 0 0 5 13 5 30 0 18 -5 32 -5 36 1 3 5 10 7 15 3 13 -8
103 -9 115 -1 6 3 16 2 24 -3 7 -4 23 -4 36 0 12 5 25 6 28 3 8 -8 76 -10 76
-2 0 4 16 3 35 -1 19 -4 35 -4 35 0 0 5 12 5 28 1 15 -5 37 -4 50 0 12 5 22 5
22 1 0 -8 133 -7 147 1 5 3 15 2 22 -2 7 -5 25 -6 39 -2 l26 7 1 130 c1 71 0
134 -2 140 -3 8 -34 11 -91 10 -81 -1 -145 4 -217 19 -76 16 -251 120 -354
211 -48 41 -207 200 -266 265 -88 96 -125 147 -261 352 -74 111 -143 213 -154
227 -11 14 -20 30 -20 37 0 6 -3 13 -7 15 -10 4 -53 65 -53 73 0 4 -6 12 -12
20 -11 11 -171 250 -203 303 -38 62 -191 288 -197 290 -5 2 -8 8 -8 13 0 7
-62 104 -93 144 -34 45 -627 948 -627 954 0 5 -4 11 -8 13 -11 4 -152 216
-152 228 0 6 -3 10 -8 10 -4 0 -13 9 -20 20 -12 19 -9 23 45 46 98 42 293 144
386 200 48 30 90 54 93 54 3 0 14 9 26 20 12 11 27 20 34 20 6 0 14 7 18 15 3
8 12 15 21 15 8 0 15 5 15 10 0 6 5 10 11 10 5 0 24 13 42 30 18 16 35 30 39
30 4 0 13 6 20 13 7 6 40 34 73 62 154 128 346 324 438 448 21 29 43 59 50 67
45 56 160 268 206 378 16 41 62 167 60 167 0 0 5 20 12 45 17 61 15 54 38 155
11 50 23 113 27 140 3 28 8 57 9 66 19 99 27 483 12 584 -8 56 -15 90 -17 90
-1 0 -3 8 -5 19 -8 41 -59 184 -83 231 -21 43 -62 108 -129 205 -24 34 -165
173 -211 207 -20 15 -39 30 -42 33 -13 14 -132 90 -139 90 -5 0 -11 4 -13 8
-8 21 -368 183 -433 196 -11 2 -32 9 -48 15 -15 6 -38 13 -50 15 -12 2 -42 9
-67 16 -52 14 -52 14 -105 25 -47 9 -69 13 -110 20 -68 11 -89 14 -153 20 -37
4 -78 9 -92 12 -30 6 -476 14 -481 9z"/>
</g>
</svg>
