<svg width="32" height="32" viewBox="0 0 32 32" fill="none" xmlns="http://www.w3.org/2000/svg"><g clip-path="url(#a)"><path d="M16 0C7.1653 0 0 7.164 0 16c0 7.0693 4.584 13.0667 10.9427 15.1827.7986.148 1.0573-.348 1.0573-.7694v-2.9786c-4.4507.968-5.3773-1.888-5.3773-1.888-.728-1.8494-1.7774-2.3414-1.7774-2.3414-1.452-.9933.1107-.972.1107-.972 1.6067.112 2.452 1.6494 2.452 1.6494 1.4267 2.4453 3.7427 1.7386 4.656 1.3293.1427-1.0333.5573-1.74 1.016-2.1387-3.5533-.4066-7.2893-1.7786-7.2893-7.908 0-1.748.6253-3.1746 1.648-4.2946-.1654-.404-.7134-2.032.156-4.2347 0 0 1.344-.4293 4.4013 1.64 1.276-.3547 2.644-.532 4.004-.5387 1.36.0067 2.7293.184 4.008.5387 3.0547-2.0693 4.396-1.64 4.396-1.64.8707 2.204.3227 3.832.1573 4.2347 1.0267 1.12 1.6467 2.548 1.6467 4.2946 0 6.1454-3.7427 7.4987-7.3053 7.8947C19.476 23.556 20 24.5293 20 26.0227v4.3906c0 .4254.256.9254 1.068.768C27.4213 29.0627 32 23.0667 32 16c0-8.836-7.164-16-16-16Z" fill="#000"/></g><defs><clipPath id="a"><path fill="#fff" d="M0 0h32v32H0z"/></clipPath></defs></svg>