<svg width="32" height="32" viewBox="0 0 32 32" fill="none" xmlns="http://www.w3.org/2000/svg"><g clip-path="url(#a)"><path d="M19.772 8.4027c-.984-.0454-1.28-.0534-3.772-.0534s-2.7867.0094-3.7707.0534c-2.532.116-3.7106 1.3146-3.8266 3.8266-.044.984-.0547 1.2787-.0547 3.7707s.0107 2.7867.0547 3.772c.116 2.5053 1.2893 3.7107 3.8266 3.8267.9827.044 1.2787.0546 3.7707.0546 2.4933 0 2.788-.0093 3.772-.0546 2.532-.1147 3.7093-1.3174 3.8267-3.8267.044-.984.0533-1.28.0533-3.772s-.0093-2.7867-.0533-3.7707c-.1174-2.5106-1.2974-3.7106-3.8267-3.8266ZM16 20.7933c-2.6467 0-4.7933-2.1453-4.7933-4.7933 0-2.6467 2.1466-4.792 4.7933-4.792 2.6467 0 4.7933 2.1453 4.7933 4.792 0 2.6467-2.1466 4.7933-4.7933 4.7933Zm4.9827-8.6546c-.6187 0-1.12-.5014-1.12-1.12 0-.6187.5013-1.12 1.12-1.12.6186 0 1.12.5013 1.12 1.12 0 .6173-.5014 1.12-1.12 1.12ZM19.1107 16c0 1.7187-1.3934 3.1107-3.1107 3.1107S12.8893 17.7187 12.8893 16c0-1.7187 1.3934-3.1107 3.1107-3.1107s3.1107 1.392 3.1107 3.1107ZM16 0C7.164 0 0 7.164 0 16s7.164 16 16 16 16-7.164 16-16S24.836 0 16 0Zm9.2773 19.848c-.1533 3.3933-2.0426 5.2733-5.428 5.4293-.996.0454-1.3146.056-3.8493.056s-2.852-.0106-3.848-.056c-3.392-.156-5.2733-2.0386-5.4293-5.4293-.0454-.9947-.056-1.3133-.056-3.848s.0106-2.852.056-3.848c.156-3.392 2.0386-5.2733 5.4293-5.428.996-.0467 1.3133-.0573 3.848-.0573s2.8533.0106 3.8493.0573c3.3934.156 5.276 2.0427 5.428 5.428.0454.996.056 1.3133.056 3.848s-.0106 2.8533-.056 3.848Z" fill="#000"/></g><defs><clipPath id="a"><path fill="#fff" d="M0 0h32v32H0z"/></clipPath></defs></svg>