<svg width="32" height="32" viewBox="0 0 32 32" fill="none" xmlns="http://www.w3.org/2000/svg"><g clip-path="url(#a)"><path d="M16 0C7.164 0 0 7.164 0 16s7.164 16 16 16 16-7.164 16-16S24.836 0 16 0Zm-2.6667 21.3333h-2.6666v-8h2.6666v8ZM12 12.1453c-.8093 0-1.4667-.6613-1.4667-1.4786 0-.816.656-1.4787 1.4667-1.4787.8107 0 1.4667.6627 1.4667 1.4787 0 .8173-.6574 1.4786-1.4667 1.4786Zm10.6667 9.188h-2.664v-3.8146c0-2.508-2.6694-2.296-2.6694 0v3.8146h-2.6666v-8h2.6666v1.4574c1.1627-2.1547 5.3334-2.3147 5.3334 2.064v4.4786Z" fill="#000"/></g><defs><clipPath id="a"><path fill="#fff" d="M0 0h32v32H0z"/></clipPath></defs></svg>