<svg width="32" height="32" viewBox="0 0 32 32" fill="none" xmlns="http://www.w3.org/2000/svg">
<g clip-path="url(#clip0_99_517)">
<path d="M16 0C7.164 0 0 7.164 0 16C0 24.836 7.164 32 16 32C24.836 32 32 24.836 32 16C32 7.164 24.836 0 16 0ZM17.1587 7.87067L21.3107 13.96L20.0107 14.8467L15.8573 8.75733L17.1587 7.87067ZM13.4093 11.3173L19.8627 15.1013L19.0627 16.4573L12.6067 12.6733L13.4093 11.3173ZM11.708 14.9493L18.9253 16.9773L18.5373 18.4133L11.3 16.4693L11.708 14.9493ZM10.924 18.2307L18.5067 18.9893L18.3693 20.4827L10.7813 19.7987L10.924 18.2307ZM10.6987 21.1107H18.4787V22.6667H10.6987V21.1107ZM21.3333 25.3333H8V17.3333H9.33333V24H20V17.3333H21.3333V25.3333ZM21.5933 13.864L20.3333 6.60267L21.8827 6.33333L23.1453 13.5947L21.5933 13.864Z" fill="#000"/>
</g>
<defs>
<clipPath id="clip0_99_517">
<rect width="32" height="32" fill="white"/>
</clipPath>
</defs>
</svg>
